<?xml version="1.0" encoding="utf-8"?>
<svg xmlns="http://www.w3.org/2000/svg" xmlns:xlink="http://www.w3.org/1999/xlink" width="600" height="400" viewBox="0 0 2400 1600">
<defs>
  <clipPath id="clip430">
    <rect x="0" y="0" width="2400" height="1600"/>
  </clipPath>
</defs>
<path clip-path="url(#clip430)" d="M0 1600 L2400 1600 L2400 8.88178e-14 L0 8.88178e-14  Z" fill="#ffffff" fill-rule="evenodd" fill-opacity="1"/>
<defs>
  <clipPath id="clip431">
    <rect x="480" y="0" width="1681" height="1600"/>
  </clipPath>
</defs>
<path clip-path="url(#clip430)" d="M318.014 1174.7 L2352.76 1174.7 L2352.76 295.723 L318.014 295.723  Z" fill="#ffffff" fill-rule="evenodd" fill-opacity="1"/>
<defs>
  <clipPath id="clip432">
    <rect x="318" y="295" width="2036" height="880"/>
  </clipPath>
</defs>
<polyline clip-path="url(#clip432)" style="stroke:#000000; stroke-linecap:round; stroke-linejoin:round; stroke-width:2; stroke-opacity:0.1; fill:none" points="514.254,295.723 514.254,1174.7 "/>
<polyline clip-path="url(#clip432)" style="stroke:#000000; stroke-linecap:round; stroke-linejoin:round; stroke-width:2; stroke-opacity:0.1; fill:none" points="953.743,295.723 953.743,1174.7 "/>
<polyline clip-path="url(#clip432)" style="stroke:#000000; stroke-linecap:round; stroke-linejoin:round; stroke-width:2; stroke-opacity:0.1; fill:none" points="1393.23,295.723 1393.23,1174.7 "/>
<polyline clip-path="url(#clip432)" style="stroke:#000000; stroke-linecap:round; stroke-linejoin:round; stroke-width:2; stroke-opacity:0.1; fill:none" points="1832.72,295.723 1832.72,1174.7 "/>
<polyline clip-path="url(#clip432)" style="stroke:#000000; stroke-linecap:round; stroke-linejoin:round; stroke-width:2; stroke-opacity:0.1; fill:none" points="2272.21,295.723 2272.21,1174.7 "/>
<polyline clip-path="url(#clip432)" style="stroke:#000000; stroke-linecap:round; stroke-linejoin:round; stroke-width:2; stroke-opacity:0.1; fill:none" points="318.014,295.723 2352.76,295.723 "/>
<polyline clip-path="url(#clip432)" style="stroke:#000000; stroke-linecap:round; stroke-linejoin:round; stroke-width:2; stroke-opacity:0.1; fill:none" points="318.014,471.519 2352.76,471.519 "/>
<polyline clip-path="url(#clip432)" style="stroke:#000000; stroke-linecap:round; stroke-linejoin:round; stroke-width:2; stroke-opacity:0.1; fill:none" points="318.014,647.314 2352.76,647.314 "/>
<polyline clip-path="url(#clip432)" style="stroke:#000000; stroke-linecap:round; stroke-linejoin:round; stroke-width:2; stroke-opacity:0.1; fill:none" points="318.014,823.11 2352.76,823.11 "/>
<polyline clip-path="url(#clip432)" style="stroke:#000000; stroke-linecap:round; stroke-linejoin:round; stroke-width:2; stroke-opacity:0.1; fill:none" points="318.014,998.905 2352.76,998.905 "/>
<polyline clip-path="url(#clip432)" style="stroke:#000000; stroke-linecap:round; stroke-linejoin:round; stroke-width:2; stroke-opacity:0.1; fill:none" points="318.014,1174.7 2352.76,1174.7 "/>
<polyline clip-path="url(#clip430)" style="stroke:#000000; stroke-linecap:round; stroke-linejoin:round; stroke-width:4; stroke-opacity:1; fill:none" points="318.014,1174.7 2352.76,1174.7 "/>
<polyline clip-path="url(#clip430)" style="stroke:#000000; stroke-linecap:round; stroke-linejoin:round; stroke-width:4; stroke-opacity:1; fill:none" points="514.254,1174.7 514.254,1162.63 "/>
<polyline clip-path="url(#clip430)" style="stroke:#000000; stroke-linecap:round; stroke-linejoin:round; stroke-width:4; stroke-opacity:1; fill:none" points="953.743,1174.7 953.743,1162.63 "/>
<polyline clip-path="url(#clip430)" style="stroke:#000000; stroke-linecap:round; stroke-linejoin:round; stroke-width:4; stroke-opacity:1; fill:none" points="1393.23,1174.7 1393.23,1162.63 "/>
<polyline clip-path="url(#clip430)" style="stroke:#000000; stroke-linecap:round; stroke-linejoin:round; stroke-width:4; stroke-opacity:1; fill:none" points="1832.72,1174.7 1832.72,1162.63 "/>
<polyline clip-path="url(#clip430)" style="stroke:#000000; stroke-linecap:round; stroke-linejoin:round; stroke-width:4; stroke-opacity:1; fill:none" points="2272.21,1174.7 2272.21,1162.63 "/>
<path clip-path="url(#clip430)" d="M461.476 1205.62 Q457.865 1205.62 456.036 1209.18 Q454.231 1212.73 454.231 1219.86 Q454.231 1226.96 456.036 1230.53 Q457.865 1234.07 461.476 1234.07 Q465.11 1234.07 466.916 1230.53 Q468.745 1226.96 468.745 1219.86 Q468.745 1212.73 466.916 1209.18 Q465.11 1205.62 461.476 1205.62 M461.476 1201.92 Q467.286 1201.92 470.342 1206.52 Q473.42 1211.11 473.42 1219.86 Q473.42 1228.58 470.342 1233.19 Q467.286 1237.77 461.476 1237.77 Q455.666 1237.77 452.587 1233.19 Q449.532 1228.58 449.532 1219.86 Q449.532 1211.11 452.587 1206.52 Q455.666 1201.92 461.476 1201.92 Z" fill="#000000" fill-rule="nonzero" fill-opacity="1" /><path clip-path="url(#clip430)" d="M481.638 1231.22 L486.522 1231.22 L486.522 1237.1 L481.638 1237.1 L481.638 1231.22 Z" fill="#000000" fill-rule="nonzero" fill-opacity="1" /><path clip-path="url(#clip430)" d="M506.707 1205.62 Q503.096 1205.62 501.268 1209.18 Q499.462 1212.73 499.462 1219.86 Q499.462 1226.96 501.268 1230.53 Q503.096 1234.07 506.707 1234.07 Q510.342 1234.07 512.147 1230.53 Q513.976 1226.96 513.976 1219.86 Q513.976 1212.73 512.147 1209.18 Q510.342 1205.62 506.707 1205.62 M506.707 1201.92 Q512.518 1201.92 515.573 1206.52 Q518.652 1211.11 518.652 1219.86 Q518.652 1228.58 515.573 1233.19 Q512.518 1237.77 506.707 1237.77 Q500.897 1237.77 497.819 1233.19 Q494.763 1228.58 494.763 1219.86 Q494.763 1211.11 497.819 1206.52 Q500.897 1201.92 506.707 1201.92 Z" fill="#000000" fill-rule="nonzero" fill-opacity="1" /><path clip-path="url(#clip430)" d="M526.916 1202.54 L545.272 1202.54 L545.272 1206.48 L531.198 1206.48 L531.198 1214.95 Q532.216 1214.6 533.235 1214.44 Q534.254 1214.25 535.272 1214.25 Q541.059 1214.25 544.439 1217.43 Q547.818 1220.6 547.818 1226.01 Q547.818 1231.59 544.346 1234.69 Q540.874 1237.77 534.554 1237.77 Q532.379 1237.77 530.11 1237.4 Q527.865 1237.03 525.457 1236.29 L525.457 1231.59 Q527.541 1232.73 529.763 1233.28 Q531.985 1233.84 534.462 1233.84 Q538.466 1233.84 540.804 1231.73 Q543.142 1229.62 543.142 1226.01 Q543.142 1222.4 540.804 1220.3 Q538.466 1218.19 534.462 1218.19 Q532.587 1218.19 530.712 1218.61 Q528.86 1219.02 526.916 1219.9 L526.916 1202.54 Z" fill="#000000" fill-rule="nonzero" fill-opacity="1" /><path clip-path="url(#clip430)" d="M567.031 1205.62 Q563.42 1205.62 561.591 1209.18 Q559.786 1212.73 559.786 1219.86 Q559.786 1226.96 561.591 1230.53 Q563.42 1234.07 567.031 1234.07 Q570.665 1234.07 572.471 1230.53 Q574.3 1226.96 574.3 1219.86 Q574.3 1212.73 572.471 1209.18 Q570.665 1205.62 567.031 1205.62 M567.031 1201.92 Q572.841 1201.92 575.897 1206.52 Q578.975 1211.11 578.975 1219.86 Q578.975 1228.58 575.897 1233.19 Q572.841 1237.77 567.031 1237.77 Q561.221 1237.77 558.142 1233.19 Q555.087 1228.58 555.087 1219.86 Q555.087 1211.11 558.142 1206.52 Q561.221 1201.92 567.031 1201.92 Z" fill="#000000" fill-rule="nonzero" fill-opacity="1" /><path clip-path="url(#clip430)" d="M901.463 1205.62 Q897.852 1205.62 896.023 1209.18 Q894.217 1212.73 894.217 1219.86 Q894.217 1226.96 896.023 1230.53 Q897.852 1234.07 901.463 1234.07 Q905.097 1234.07 906.902 1230.53 Q908.731 1226.96 908.731 1219.86 Q908.731 1212.73 906.902 1209.18 Q905.097 1205.62 901.463 1205.62 M901.463 1201.92 Q907.273 1201.92 910.328 1206.52 Q913.407 1211.11 913.407 1219.86 Q913.407 1228.58 910.328 1233.19 Q907.273 1237.77 901.463 1237.77 Q895.653 1237.77 892.574 1233.19 Q889.518 1228.58 889.518 1219.86 Q889.518 1211.11 892.574 1206.52 Q895.653 1201.92 901.463 1201.92 Z" fill="#000000" fill-rule="nonzero" fill-opacity="1" /><path clip-path="url(#clip430)" d="M921.625 1231.22 L926.509 1231.22 L926.509 1237.1 L921.625 1237.1 L921.625 1231.22 Z" fill="#000000" fill-rule="nonzero" fill-opacity="1" /><path clip-path="url(#clip430)" d="M946.694 1205.62 Q943.083 1205.62 941.254 1209.18 Q939.449 1212.73 939.449 1219.86 Q939.449 1226.96 941.254 1230.53 Q943.083 1234.07 946.694 1234.07 Q950.328 1234.07 952.134 1230.53 Q953.962 1226.96 953.962 1219.86 Q953.962 1212.73 952.134 1209.18 Q950.328 1205.62 946.694 1205.62 M946.694 1201.92 Q952.504 1201.92 955.56 1206.52 Q958.638 1211.11 958.638 1219.86 Q958.638 1228.58 955.56 1233.19 Q952.504 1237.77 946.694 1237.77 Q940.884 1237.77 937.805 1233.19 Q934.75 1228.58 934.75 1219.86 Q934.75 1211.11 937.805 1206.52 Q940.884 1201.92 946.694 1201.92 Z" fill="#000000" fill-rule="nonzero" fill-opacity="1" /><path clip-path="url(#clip430)" d="M966.902 1202.54 L985.259 1202.54 L985.259 1206.48 L971.185 1206.48 L971.185 1214.95 Q972.203 1214.6 973.222 1214.44 Q974.24 1214.25 975.259 1214.25 Q981.046 1214.25 984.425 1217.43 Q987.805 1220.6 987.805 1226.01 Q987.805 1231.59 984.333 1234.69 Q980.86 1237.77 974.541 1237.77 Q972.365 1237.77 970.097 1237.4 Q967.851 1237.03 965.444 1236.29 L965.444 1231.59 Q967.527 1232.73 969.749 1233.28 Q971.972 1233.84 974.448 1233.84 Q978.453 1233.84 980.791 1231.73 Q983.129 1229.62 983.129 1226.01 Q983.129 1222.4 980.791 1220.3 Q978.453 1218.19 974.448 1218.19 Q972.573 1218.19 970.698 1218.61 Q968.847 1219.02 966.902 1219.9 L966.902 1202.54 Z" fill="#000000" fill-rule="nonzero" fill-opacity="1" /><path clip-path="url(#clip430)" d="M997.064 1202.54 L1015.42 1202.54 L1015.42 1206.48 L1001.35 1206.48 L1001.35 1214.95 Q1002.36 1214.6 1003.38 1214.44 Q1004.4 1214.25 1005.42 1214.25 Q1011.21 1214.25 1014.59 1217.43 Q1017.97 1220.6 1017.97 1226.01 Q1017.97 1231.59 1014.49 1234.69 Q1011.02 1237.77 1004.7 1237.77 Q1002.53 1237.77 1000.26 1237.4 Q998.013 1237.03 995.606 1236.29 L995.606 1231.59 Q997.689 1232.73 999.911 1233.28 Q1002.13 1233.84 1004.61 1233.84 Q1008.61 1233.84 1010.95 1231.73 Q1013.29 1229.62 1013.29 1226.01 Q1013.29 1222.4 1010.95 1220.3 Q1008.61 1218.19 1004.61 1218.19 Q1002.74 1218.19 1000.86 1218.61 Q999.008 1219.02 997.064 1219.9 L997.064 1202.54 Z" fill="#000000" fill-rule="nonzero" fill-opacity="1" /><path clip-path="url(#clip430)" d="M1340.45 1205.62 Q1336.84 1205.62 1335.01 1209.18 Q1333.21 1212.73 1333.21 1219.86 Q1333.21 1226.96 1335.01 1230.53 Q1336.84 1234.07 1340.45 1234.07 Q1344.09 1234.07 1345.89 1230.53 Q1347.72 1226.96 1347.72 1219.86 Q1347.72 1212.73 1345.89 1209.18 Q1344.09 1205.62 1340.45 1205.62 M1340.45 1201.92 Q1346.26 1201.92 1349.32 1206.52 Q1352.4 1211.11 1352.4 1219.86 Q1352.4 1228.58 1349.32 1233.19 Q1346.26 1237.77 1340.45 1237.77 Q1334.64 1237.77 1331.57 1233.19 Q1328.51 1228.58 1328.51 1219.86 Q1328.51 1211.11 1331.57 1206.52 Q1334.64 1201.92 1340.45 1201.92 Z" fill="#000000" fill-rule="nonzero" fill-opacity="1" /><path clip-path="url(#clip430)" d="M1360.62 1231.22 L1365.5 1231.22 L1365.5 1237.1 L1360.62 1237.1 L1360.62 1231.22 Z" fill="#000000" fill-rule="nonzero" fill-opacity="1" /><path clip-path="url(#clip430)" d="M1385.69 1205.62 Q1382.07 1205.62 1380.25 1209.18 Q1378.44 1212.73 1378.44 1219.86 Q1378.44 1226.96 1380.25 1230.53 Q1382.07 1234.07 1385.69 1234.07 Q1389.32 1234.07 1391.12 1230.53 Q1392.95 1226.96 1392.95 1219.86 Q1392.95 1212.73 1391.12 1209.18 Q1389.32 1205.62 1385.69 1205.62 M1385.69 1201.92 Q1391.5 1201.92 1394.55 1206.52 Q1397.63 1211.11 1397.63 1219.86 Q1397.63 1228.58 1394.55 1233.19 Q1391.5 1237.77 1385.69 1237.77 Q1379.88 1237.77 1376.8 1233.19 Q1373.74 1228.58 1373.74 1219.86 Q1373.74 1211.11 1376.8 1206.52 Q1379.88 1201.92 1385.69 1201.92 Z" fill="#000000" fill-rule="nonzero" fill-opacity="1" /><path clip-path="url(#clip430)" d="M1416.43 1217.96 Q1413.28 1217.96 1411.43 1220.11 Q1409.6 1222.26 1409.6 1226.01 Q1409.6 1229.74 1411.43 1231.92 Q1413.28 1234.07 1416.43 1234.07 Q1419.57 1234.07 1421.4 1231.92 Q1423.25 1229.74 1423.25 1226.01 Q1423.25 1222.26 1421.4 1220.11 Q1419.57 1217.96 1416.43 1217.96 M1425.71 1203.3 L1425.71 1207.56 Q1423.95 1206.73 1422.14 1206.29 Q1420.36 1205.85 1418.6 1205.85 Q1413.97 1205.85 1411.52 1208.98 Q1409.09 1212.1 1408.74 1218.42 Q1410.11 1216.41 1412.17 1215.34 Q1414.23 1214.25 1416.7 1214.25 Q1421.91 1214.25 1424.92 1217.43 Q1427.95 1220.57 1427.95 1226.01 Q1427.95 1231.34 1424.81 1234.55 Q1421.66 1237.77 1416.43 1237.77 Q1410.43 1237.77 1407.26 1233.19 Q1404.09 1228.58 1404.09 1219.86 Q1404.09 1211.66 1407.98 1206.8 Q1411.87 1201.92 1418.42 1201.92 Q1420.18 1201.92 1421.96 1202.26 Q1423.76 1202.61 1425.71 1203.3 Z" fill="#000000" fill-rule="nonzero" fill-opacity="1" /><path clip-path="url(#clip430)" d="M1446.01 1205.62 Q1442.4 1205.62 1440.57 1209.18 Q1438.76 1212.73 1438.76 1219.86 Q1438.76 1226.96 1440.57 1230.53 Q1442.4 1234.07 1446.01 1234.07 Q1449.64 1234.07 1451.45 1230.53 Q1453.28 1226.96 1453.28 1219.86 Q1453.28 1212.73 1451.45 1209.18 Q1449.64 1205.62 1446.01 1205.62 M1446.01 1201.92 Q1451.82 1201.92 1454.87 1206.52 Q1457.95 1211.11 1457.95 1219.86 Q1457.95 1228.58 1454.87 1233.19 Q1451.82 1237.77 1446.01 1237.77 Q1440.2 1237.77 1437.12 1233.19 Q1434.06 1228.58 1434.06 1219.86 Q1434.06 1211.11 1437.12 1206.52 Q1440.2 1201.92 1446.01 1201.92 Z" fill="#000000" fill-rule="nonzero" fill-opacity="1" /><path clip-path="url(#clip430)" d="M1780.44 1205.62 Q1776.83 1205.62 1775 1209.18 Q1773.2 1212.73 1773.2 1219.86 Q1773.2 1226.96 1775 1230.53 Q1776.83 1234.07 1780.44 1234.07 Q1784.07 1234.07 1785.88 1230.53 Q1787.71 1226.96 1787.71 1219.86 Q1787.71 1212.73 1785.88 1209.18 Q1784.07 1205.62 1780.44 1205.62 M1780.44 1201.92 Q1786.25 1201.92 1789.31 1206.52 Q1792.38 1211.11 1792.38 1219.86 Q1792.38 1228.58 1789.31 1233.19 Q1786.25 1237.77 1780.44 1237.77 Q1774.63 1237.77 1771.55 1233.19 Q1768.5 1228.58 1768.5 1219.86 Q1768.5 1211.11 1771.55 1206.52 Q1774.63 1201.92 1780.44 1201.92 Z" fill="#000000" fill-rule="nonzero" fill-opacity="1" /><path clip-path="url(#clip430)" d="M1800.6 1231.22 L1805.49 1231.22 L1805.49 1237.1 L1800.6 1237.1 L1800.6 1231.22 Z" fill="#000000" fill-rule="nonzero" fill-opacity="1" /><path clip-path="url(#clip430)" d="M1825.67 1205.62 Q1822.06 1205.62 1820.23 1209.18 Q1818.43 1212.73 1818.43 1219.86 Q1818.43 1226.96 1820.23 1230.53 Q1822.06 1234.07 1825.67 1234.07 Q1829.31 1234.07 1831.11 1230.53 Q1832.94 1226.96 1832.94 1219.86 Q1832.94 1212.73 1831.11 1209.18 Q1829.31 1205.62 1825.67 1205.62 M1825.67 1201.92 Q1831.48 1201.92 1834.54 1206.52 Q1837.62 1211.11 1837.62 1219.86 Q1837.62 1228.58 1834.54 1233.19 Q1831.48 1237.77 1825.67 1237.77 Q1819.86 1237.77 1816.78 1233.19 Q1813.73 1228.58 1813.73 1219.86 Q1813.73 1211.11 1816.78 1206.52 Q1819.86 1201.92 1825.67 1201.92 Z" fill="#000000" fill-rule="nonzero" fill-opacity="1" /><path clip-path="url(#clip430)" d="M1856.41 1217.96 Q1853.26 1217.96 1851.41 1220.11 Q1849.58 1222.26 1849.58 1226.01 Q1849.58 1229.74 1851.41 1231.92 Q1853.26 1234.07 1856.41 1234.07 Q1859.56 1234.07 1861.39 1231.92 Q1863.24 1229.74 1863.24 1226.01 Q1863.24 1222.26 1861.39 1220.11 Q1859.56 1217.96 1856.41 1217.96 M1865.69 1203.3 L1865.69 1207.56 Q1863.94 1206.73 1862.13 1206.29 Q1860.35 1205.85 1858.59 1205.85 Q1853.96 1205.85 1851.5 1208.98 Q1849.07 1212.1 1848.73 1218.42 Q1850.09 1216.41 1852.15 1215.34 Q1854.21 1214.25 1856.69 1214.25 Q1861.9 1214.25 1864.91 1217.43 Q1867.94 1220.57 1867.94 1226.01 Q1867.94 1231.34 1864.79 1234.55 Q1861.64 1237.77 1856.41 1237.77 Q1850.42 1237.77 1847.25 1233.19 Q1844.07 1228.58 1844.07 1219.86 Q1844.07 1211.66 1847.96 1206.8 Q1851.85 1201.92 1858.4 1201.92 Q1860.16 1201.92 1861.94 1202.26 Q1863.75 1202.61 1865.69 1203.3 Z" fill="#000000" fill-rule="nonzero" fill-opacity="1" /><path clip-path="url(#clip430)" d="M1876.04 1202.54 L1894.4 1202.54 L1894.4 1206.48 L1880.32 1206.48 L1880.32 1214.95 Q1881.34 1214.6 1882.36 1214.44 Q1883.38 1214.25 1884.4 1214.25 Q1890.19 1214.25 1893.56 1217.43 Q1896.94 1220.6 1896.94 1226.01 Q1896.94 1231.59 1893.47 1234.69 Q1890 1237.77 1883.68 1237.77 Q1881.5 1237.77 1879.24 1237.4 Q1876.99 1237.03 1874.58 1236.29 L1874.58 1231.59 Q1876.67 1232.73 1878.89 1233.28 Q1881.11 1233.84 1883.59 1233.84 Q1887.59 1233.84 1889.93 1231.73 Q1892.27 1229.62 1892.27 1226.01 Q1892.27 1222.4 1889.93 1220.3 Q1887.59 1218.19 1883.59 1218.19 Q1881.71 1218.19 1879.84 1218.61 Q1877.99 1219.02 1876.04 1219.9 L1876.04 1202.54 Z" fill="#000000" fill-rule="nonzero" fill-opacity="1" /><path clip-path="url(#clip430)" d="M2219.43 1205.62 Q2215.82 1205.62 2213.99 1209.18 Q2212.19 1212.73 2212.19 1219.86 Q2212.19 1226.96 2213.99 1230.53 Q2215.82 1234.07 2219.43 1234.07 Q2223.07 1234.07 2224.87 1230.53 Q2226.7 1226.96 2226.7 1219.86 Q2226.7 1212.73 2224.87 1209.18 Q2223.07 1205.62 2219.43 1205.62 M2219.43 1201.92 Q2225.24 1201.92 2228.3 1206.52 Q2231.38 1211.11 2231.38 1219.86 Q2231.38 1228.58 2228.3 1233.19 Q2225.24 1237.77 2219.43 1237.77 Q2213.62 1237.77 2210.54 1233.19 Q2207.49 1228.58 2207.49 1219.86 Q2207.49 1211.11 2210.54 1206.52 Q2213.62 1201.92 2219.43 1201.92 Z" fill="#000000" fill-rule="nonzero" fill-opacity="1" /><path clip-path="url(#clip430)" d="M2239.59 1231.22 L2244.48 1231.22 L2244.48 1237.1 L2239.59 1237.1 L2239.59 1231.22 Z" fill="#000000" fill-rule="nonzero" fill-opacity="1" /><path clip-path="url(#clip430)" d="M2264.66 1205.62 Q2261.05 1205.62 2259.22 1209.18 Q2257.42 1212.73 2257.42 1219.86 Q2257.42 1226.96 2259.22 1230.53 Q2261.05 1234.07 2264.66 1234.07 Q2268.3 1234.07 2270.1 1230.53 Q2271.93 1226.96 2271.93 1219.86 Q2271.93 1212.73 2270.1 1209.18 Q2268.3 1205.62 2264.66 1205.62 M2264.66 1201.92 Q2270.47 1201.92 2273.53 1206.52 Q2276.61 1211.11 2276.61 1219.86 Q2276.61 1228.58 2273.53 1233.19 Q2270.47 1237.77 2264.66 1237.77 Q2258.85 1237.77 2255.77 1233.19 Q2252.72 1228.58 2252.72 1219.86 Q2252.72 1211.11 2255.77 1206.52 Q2258.85 1201.92 2264.66 1201.92 Z" fill="#000000" fill-rule="nonzero" fill-opacity="1" /><path clip-path="url(#clip430)" d="M2283.64 1202.54 L2305.87 1202.54 L2305.87 1204.53 L2293.32 1237.1 L2288.44 1237.1 L2300.24 1206.48 L2283.64 1206.48 L2283.64 1202.54 Z" fill="#000000" fill-rule="nonzero" fill-opacity="1" /><path clip-path="url(#clip430)" d="M2324.99 1205.62 Q2321.38 1205.62 2319.55 1209.18 Q2317.74 1212.73 2317.74 1219.86 Q2317.74 1226.96 2319.55 1230.53 Q2321.38 1234.07 2324.99 1234.07 Q2328.62 1234.07 2330.43 1230.53 Q2332.26 1226.96 2332.26 1219.86 Q2332.26 1212.73 2330.43 1209.18 Q2328.62 1205.62 2324.99 1205.62 M2324.99 1201.92 Q2330.8 1201.92 2333.85 1206.52 Q2336.93 1211.11 2336.93 1219.86 Q2336.93 1228.58 2333.85 1233.19 Q2330.8 1237.77 2324.99 1237.77 Q2319.18 1237.77 2316.1 1233.19 Q2313.04 1228.58 2313.04 1219.86 Q2313.04 1211.11 2316.1 1206.52 Q2319.18 1201.92 2324.99 1201.92 Z" fill="#000000" fill-rule="nonzero" fill-opacity="1" /><path clip-path="url(#clip430)" d="M1277.97 1297.28 Q1280.04 1297.99 1281.98 1300.28 Q1283.95 1302.57 1285.92 1306.58 L1292.45 1319.56 L1285.54 1319.56 L1279.46 1307.37 Q1277.11 1302.6 1274.88 1301.04 Q1272.68 1299.48 1268.86 1299.48 L1261.86 1299.48 L1261.86 1319.56 L1255.43 1319.56 L1255.43 1272.04 L1269.95 1272.04 Q1278.09 1272.04 1282.1 1275.45 Q1286.11 1278.86 1286.11 1285.73 Q1286.11 1290.22 1284.01 1293.18 Q1281.94 1296.14 1277.97 1297.28 M1261.86 1277.33 L1261.86 1294.2 L1269.95 1294.2 Q1274.59 1294.2 1276.95 1292.07 Q1279.33 1289.9 1279.33 1285.73 Q1279.33 1281.56 1276.95 1279.46 Q1274.59 1277.33 1269.95 1277.33 L1261.86 1277.33 Z" fill="#000000" fill-rule="nonzero" fill-opacity="1" /><path clip-path="url(#clip430)" d="M1328.03 1300.28 L1328.03 1303.14 L1301.11 1303.14 Q1301.49 1309.19 1304.73 1312.37 Q1308.01 1315.52 1313.84 1315.52 Q1317.21 1315.52 1320.36 1314.7 Q1323.54 1313.87 1326.66 1312.21 L1326.66 1317.75 Q1323.51 1319.09 1320.2 1319.79 Q1316.89 1320.49 1313.49 1320.49 Q1304.96 1320.49 1299.96 1315.52 Q1294.99 1310.56 1294.99 1302.09 Q1294.99 1293.34 1299.71 1288.21 Q1304.45 1283.06 1312.47 1283.06 Q1319.66 1283.06 1323.83 1287.7 Q1328.03 1292.32 1328.03 1300.28 M1322.18 1298.56 Q1322.11 1293.75 1319.47 1290.89 Q1316.86 1288.02 1312.53 1288.02 Q1307.63 1288.02 1304.67 1290.79 Q1301.74 1293.56 1301.3 1298.59 L1322.18 1298.56 Z" fill="#000000" fill-rule="nonzero" fill-opacity="1" /><path clip-path="url(#clip430)" d="M1351.71 1270.1 Q1347.45 1277.42 1345.38 1284.59 Q1343.31 1291.75 1343.31 1299.1 Q1343.31 1306.45 1345.38 1313.68 Q1347.48 1320.87 1351.71 1328.16 L1346.62 1328.16 Q1341.85 1320.68 1339.46 1313.45 Q1337.1 1306.23 1337.1 1299.1 Q1337.1 1292 1339.46 1284.81 Q1341.81 1277.61 1346.62 1270.1 L1351.71 1270.1 Z" fill="#000000" fill-rule="nonzero" fill-opacity="1" /><path clip-path="url(#clip430)" d="M1392.71 1283.92 L1379.82 1301.26 L1393.38 1319.56 L1386.47 1319.56 L1376.09 1305.56 L1365.72 1319.56 L1358.81 1319.56 L1372.66 1300.91 L1359.99 1283.92 L1366.9 1283.92 L1376.35 1296.62 L1385.8 1283.92 L1392.71 1283.92 Z" fill="#000000" fill-rule="nonzero" fill-opacity="1" /><path clip-path="url(#clip430)" d="M1400.73 1270.1 L1405.82 1270.1 Q1410.6 1277.61 1412.95 1284.81 Q1415.34 1292 1415.34 1299.1 Q1415.34 1306.23 1412.95 1313.45 Q1410.6 1320.68 1405.82 1328.16 L1400.73 1328.16 Q1404.96 1320.87 1407.03 1313.68 Q1409.13 1306.45 1409.13 1299.1 Q1409.13 1291.75 1407.03 1284.59 Q1404.96 1277.42 1400.73 1270.1 Z" fill="#000000" fill-rule="nonzero" fill-opacity="1" /><polyline clip-path="url(#clip430)" style="stroke:#000000; stroke-linecap:round; stroke-linejoin:round; stroke-width:4; stroke-opacity:1; fill:none" points="318.014,295.723 318.014,1174.7 "/>
<polyline clip-path="url(#clip430)" style="stroke:#000000; stroke-linecap:round; stroke-linejoin:round; stroke-width:4; stroke-opacity:1; fill:none" points="318.014,295.723 336.912,295.723 "/>
<polyline clip-path="url(#clip430)" style="stroke:#000000; stroke-linecap:round; stroke-linejoin:round; stroke-width:4; stroke-opacity:1; fill:none" points="318.014,471.519 336.912,471.519 "/>
<polyline clip-path="url(#clip430)" style="stroke:#000000; stroke-linecap:round; stroke-linejoin:round; stroke-width:4; stroke-opacity:1; fill:none" points="318.014,647.314 336.912,647.314 "/>
<polyline clip-path="url(#clip430)" style="stroke:#000000; stroke-linecap:round; stroke-linejoin:round; stroke-width:4; stroke-opacity:1; fill:none" points="318.014,823.11 336.912,823.11 "/>
<polyline clip-path="url(#clip430)" style="stroke:#000000; stroke-linecap:round; stroke-linejoin:round; stroke-width:4; stroke-opacity:1; fill:none" points="318.014,998.905 336.912,998.905 "/>
<polyline clip-path="url(#clip430)" style="stroke:#000000; stroke-linecap:round; stroke-linejoin:round; stroke-width:4; stroke-opacity:1; fill:none" points="318.014,1174.7 336.912,1174.7 "/>
<path clip-path="url(#clip430)" d="M114.746 296.174 L144.422 296.174 L144.422 300.11 L114.746 300.11 L114.746 296.174 Z" fill="#000000" fill-rule="nonzero" fill-opacity="1" /><path clip-path="url(#clip430)" d="M164.515 281.522 Q160.903 281.522 159.075 285.087 Q157.269 288.628 157.269 295.758 Q157.269 302.864 159.075 306.429 Q160.903 309.971 164.515 309.971 Q168.149 309.971 169.954 306.429 Q171.783 302.864 171.783 295.758 Q171.783 288.628 169.954 285.087 Q168.149 281.522 164.515 281.522 M164.515 277.818 Q170.325 277.818 173.38 282.425 Q176.459 287.008 176.459 295.758 Q176.459 304.485 173.38 309.091 Q170.325 313.674 164.515 313.674 Q158.704 313.674 155.626 309.091 Q152.57 304.485 152.57 295.758 Q152.57 287.008 155.626 282.425 Q158.704 277.818 164.515 277.818 Z" fill="#000000" fill-rule="nonzero" fill-opacity="1" /><path clip-path="url(#clip430)" d="M184.676 307.123 L189.561 307.123 L189.561 313.003 L184.676 313.003 L184.676 307.123 Z" fill="#000000" fill-rule="nonzero" fill-opacity="1" /><path clip-path="url(#clip430)" d="M209.746 281.522 Q206.135 281.522 204.306 285.087 Q202.5 288.628 202.5 295.758 Q202.5 302.864 204.306 306.429 Q206.135 309.971 209.746 309.971 Q213.38 309.971 215.186 306.429 Q217.014 302.864 217.014 295.758 Q217.014 288.628 215.186 285.087 Q213.38 281.522 209.746 281.522 M209.746 277.818 Q215.556 277.818 218.611 282.425 Q221.69 287.008 221.69 295.758 Q221.69 304.485 218.611 309.091 Q215.556 313.674 209.746 313.674 Q203.936 313.674 200.857 309.091 Q197.801 304.485 197.801 295.758 Q197.801 287.008 200.857 282.425 Q203.936 277.818 209.746 277.818 Z" fill="#000000" fill-rule="nonzero" fill-opacity="1" /><path clip-path="url(#clip430)" d="M230.718 309.068 L238.357 309.068 L238.357 282.702 L230.047 284.369 L230.047 280.11 L238.31 278.443 L242.986 278.443 L242.986 309.068 L250.625 309.068 L250.625 313.003 L230.718 313.003 L230.718 309.068 Z" fill="#000000" fill-rule="nonzero" fill-opacity="1" /><path clip-path="url(#clip430)" d="M270.07 281.522 Q266.458 281.522 264.63 285.087 Q262.824 288.628 262.824 295.758 Q262.824 302.864 264.63 306.429 Q266.458 309.971 270.07 309.971 Q273.704 309.971 275.509 306.429 Q277.338 302.864 277.338 295.758 Q277.338 288.628 275.509 285.087 Q273.704 281.522 270.07 281.522 M270.07 277.818 Q275.88 277.818 278.935 282.425 Q282.014 287.008 282.014 295.758 Q282.014 304.485 278.935 309.091 Q275.88 313.674 270.07 313.674 Q264.259 313.674 261.181 309.091 Q258.125 304.485 258.125 295.758 Q258.125 287.008 261.181 282.425 Q264.259 277.818 270.07 277.818 Z" fill="#000000" fill-rule="nonzero" fill-opacity="1" /><path clip-path="url(#clip430)" d="M114.839 471.97 L144.515 471.97 L144.515 475.905 L114.839 475.905 L114.839 471.97 Z" fill="#000000" fill-rule="nonzero" fill-opacity="1" /><path clip-path="url(#clip430)" d="M164.607 457.317 Q160.996 457.317 159.167 460.882 Q157.362 464.424 157.362 471.553 Q157.362 478.66 159.167 482.225 Q160.996 485.766 164.607 485.766 Q168.241 485.766 170.047 482.225 Q171.876 478.66 171.876 471.553 Q171.876 464.424 170.047 460.882 Q168.241 457.317 164.607 457.317 M164.607 453.614 Q170.417 453.614 173.473 458.22 Q176.551 462.803 176.551 471.553 Q176.551 480.28 173.473 484.887 Q170.417 489.47 164.607 489.47 Q158.797 489.47 155.718 484.887 Q152.663 480.28 152.663 471.553 Q152.663 462.803 155.718 458.22 Q158.797 453.614 164.607 453.614 Z" fill="#000000" fill-rule="nonzero" fill-opacity="1" /><path clip-path="url(#clip430)" d="M184.769 482.919 L189.653 482.919 L189.653 488.799 L184.769 488.799 L184.769 482.919 Z" fill="#000000" fill-rule="nonzero" fill-opacity="1" /><path clip-path="url(#clip430)" d="M209.838 457.317 Q206.227 457.317 204.399 460.882 Q202.593 464.424 202.593 471.553 Q202.593 478.66 204.399 482.225 Q206.227 485.766 209.838 485.766 Q213.473 485.766 215.278 482.225 Q217.107 478.66 217.107 471.553 Q217.107 464.424 215.278 460.882 Q213.473 457.317 209.838 457.317 M209.838 453.614 Q215.649 453.614 218.704 458.22 Q221.783 462.803 221.783 471.553 Q221.783 480.28 218.704 484.887 Q215.649 489.47 209.838 489.47 Q204.028 489.47 200.95 484.887 Q197.894 480.28 197.894 471.553 Q197.894 462.803 200.95 458.22 Q204.028 453.614 209.838 453.614 Z" fill="#000000" fill-rule="nonzero" fill-opacity="1" /><path clip-path="url(#clip430)" d="M240 457.317 Q236.389 457.317 234.56 460.882 Q232.755 464.424 232.755 471.553 Q232.755 478.66 234.56 482.225 Q236.389 485.766 240 485.766 Q243.634 485.766 245.44 482.225 Q247.269 478.66 247.269 471.553 Q247.269 464.424 245.44 460.882 Q243.634 457.317 240 457.317 M240 453.614 Q245.81 453.614 248.866 458.22 Q251.945 462.803 251.945 471.553 Q251.945 480.28 248.866 484.887 Q245.81 489.47 240 489.47 Q234.19 489.47 231.111 484.887 Q228.056 480.28 228.056 471.553 Q228.056 462.803 231.111 458.22 Q234.19 453.614 240 453.614 Z" fill="#000000" fill-rule="nonzero" fill-opacity="1" /><path clip-path="url(#clip430)" d="M270.162 472.387 Q266.829 472.387 264.907 474.169 Q263.009 475.951 263.009 479.076 Q263.009 482.201 264.907 483.984 Q266.829 485.766 270.162 485.766 Q273.495 485.766 275.417 483.984 Q277.338 482.178 277.338 479.076 Q277.338 475.951 275.417 474.169 Q273.519 472.387 270.162 472.387 M265.486 470.396 Q262.477 469.655 260.787 467.595 Q259.12 465.535 259.12 462.572 Q259.12 458.428 262.06 456.021 Q265.023 453.614 270.162 453.614 Q275.324 453.614 278.264 456.021 Q281.204 458.428 281.204 462.572 Q281.204 465.535 279.514 467.595 Q277.847 469.655 274.861 470.396 Q278.241 471.183 280.116 473.475 Q282.014 475.766 282.014 479.076 Q282.014 484.1 278.935 486.785 Q275.88 489.47 270.162 489.47 Q264.445 489.47 261.366 486.785 Q258.31 484.1 258.31 479.076 Q258.31 475.766 260.208 473.475 Q262.107 471.183 265.486 470.396 M263.773 463.012 Q263.773 465.697 265.44 467.202 Q267.13 468.706 270.162 468.706 Q273.171 468.706 274.861 467.202 Q276.574 465.697 276.574 463.012 Q276.574 460.327 274.861 458.822 Q273.171 457.317 270.162 457.317 Q267.13 457.317 265.44 458.822 Q263.773 460.327 263.773 463.012 Z" fill="#000000" fill-rule="nonzero" fill-opacity="1" /><path clip-path="url(#clip430)" d="M114.584 647.766 L144.26 647.766 L144.26 651.701 L114.584 651.701 L114.584 647.766 Z" fill="#000000" fill-rule="nonzero" fill-opacity="1" /><path clip-path="url(#clip430)" d="M164.352 633.113 Q160.741 633.113 158.913 636.678 Q157.107 640.219 157.107 647.349 Q157.107 654.455 158.913 658.02 Q160.741 661.562 164.352 661.562 Q167.987 661.562 169.792 658.02 Q171.621 654.455 171.621 647.349 Q171.621 640.219 169.792 636.678 Q167.987 633.113 164.352 633.113 M164.352 629.409 Q170.163 629.409 173.218 634.016 Q176.297 638.599 176.297 647.349 Q176.297 656.076 173.218 660.682 Q170.163 665.265 164.352 665.265 Q158.542 665.265 155.464 660.682 Q152.408 656.076 152.408 647.349 Q152.408 638.599 155.464 634.016 Q158.542 629.409 164.352 629.409 Z" fill="#000000" fill-rule="nonzero" fill-opacity="1" /><path clip-path="url(#clip430)" d="M184.514 658.715 L189.399 658.715 L189.399 664.594 L184.514 664.594 L184.514 658.715 Z" fill="#000000" fill-rule="nonzero" fill-opacity="1" /><path clip-path="url(#clip430)" d="M209.584 633.113 Q205.973 633.113 204.144 636.678 Q202.338 640.219 202.338 647.349 Q202.338 654.455 204.144 658.02 Q205.973 661.562 209.584 661.562 Q213.218 661.562 215.024 658.02 Q216.852 654.455 216.852 647.349 Q216.852 640.219 215.024 636.678 Q213.218 633.113 209.584 633.113 M209.584 629.409 Q215.394 629.409 218.449 634.016 Q221.528 638.599 221.528 647.349 Q221.528 656.076 218.449 660.682 Q215.394 665.265 209.584 665.265 Q203.774 665.265 200.695 660.682 Q197.639 656.076 197.639 647.349 Q197.639 638.599 200.695 634.016 Q203.774 629.409 209.584 629.409 Z" fill="#000000" fill-rule="nonzero" fill-opacity="1" /><path clip-path="url(#clip430)" d="M239.746 633.113 Q236.135 633.113 234.306 636.678 Q232.5 640.219 232.5 647.349 Q232.5 654.455 234.306 658.02 Q236.135 661.562 239.746 661.562 Q243.38 661.562 245.185 658.02 Q247.014 654.455 247.014 647.349 Q247.014 640.219 245.185 636.678 Q243.38 633.113 239.746 633.113 M239.746 629.409 Q245.556 629.409 248.611 634.016 Q251.69 638.599 251.69 647.349 Q251.69 656.076 248.611 660.682 Q245.556 665.265 239.746 665.265 Q233.935 665.265 230.857 660.682 Q227.801 656.076 227.801 647.349 Q227.801 638.599 230.857 634.016 Q233.935 629.409 239.746 629.409 Z" fill="#000000" fill-rule="nonzero" fill-opacity="1" /><path clip-path="url(#clip430)" d="M270.486 645.451 Q267.338 645.451 265.486 647.604 Q263.658 649.756 263.658 653.506 Q263.658 657.233 265.486 659.409 Q267.338 661.562 270.486 661.562 Q273.634 661.562 275.463 659.409 Q277.315 657.233 277.315 653.506 Q277.315 649.756 275.463 647.604 Q273.634 645.451 270.486 645.451 M279.769 630.798 L279.769 635.057 Q278.009 634.224 276.204 633.784 Q274.421 633.344 272.662 633.344 Q268.032 633.344 265.579 636.469 Q263.148 639.594 262.801 645.914 Q264.167 643.9 266.227 642.835 Q268.287 641.747 270.764 641.747 Q275.972 641.747 278.981 644.918 Q282.014 648.066 282.014 653.506 Q282.014 658.83 278.866 662.048 Q275.718 665.265 270.486 665.265 Q264.491 665.265 261.32 660.682 Q258.148 656.076 258.148 647.349 Q258.148 639.155 262.037 634.293 Q265.926 629.409 272.477 629.409 Q274.236 629.409 276.019 629.756 Q277.824 630.104 279.769 630.798 Z" fill="#000000" fill-rule="nonzero" fill-opacity="1" /><path clip-path="url(#clip430)" d="M114.26 823.561 L143.936 823.561 L143.936 827.496 L114.26 827.496 L114.26 823.561 Z" fill="#000000" fill-rule="nonzero" fill-opacity="1" /><path clip-path="url(#clip430)" d="M164.028 808.908 Q160.417 808.908 158.589 812.473 Q156.783 816.015 156.783 823.144 Q156.783 830.251 158.589 833.816 Q160.417 837.357 164.028 837.357 Q167.663 837.357 169.468 833.816 Q171.297 830.251 171.297 823.144 Q171.297 816.015 169.468 812.473 Q167.663 808.908 164.028 808.908 M164.028 805.205 Q169.839 805.205 172.894 809.811 Q175.973 814.395 175.973 823.144 Q175.973 831.871 172.894 836.478 Q169.839 841.061 164.028 841.061 Q158.218 841.061 155.14 836.478 Q152.084 831.871 152.084 823.144 Q152.084 814.395 155.14 809.811 Q158.218 805.205 164.028 805.205 Z" fill="#000000" fill-rule="nonzero" fill-opacity="1" /><path clip-path="url(#clip430)" d="M184.19 834.51 L189.075 834.51 L189.075 840.39 L184.19 840.39 L184.19 834.51 Z" fill="#000000" fill-rule="nonzero" fill-opacity="1" /><path clip-path="url(#clip430)" d="M209.26 808.908 Q205.649 808.908 203.82 812.473 Q202.014 816.015 202.014 823.144 Q202.014 830.251 203.82 833.816 Q205.649 837.357 209.26 837.357 Q212.894 837.357 214.699 833.816 Q216.528 830.251 216.528 823.144 Q216.528 816.015 214.699 812.473 Q212.894 808.908 209.26 808.908 M209.26 805.205 Q215.07 805.205 218.125 809.811 Q221.204 814.395 221.204 823.144 Q221.204 831.871 218.125 836.478 Q215.07 841.061 209.26 841.061 Q203.449 841.061 200.371 836.478 Q197.315 831.871 197.315 823.144 Q197.315 814.395 200.371 809.811 Q203.449 805.205 209.26 805.205 Z" fill="#000000" fill-rule="nonzero" fill-opacity="1" /><path clip-path="url(#clip430)" d="M239.422 808.908 Q235.81 808.908 233.982 812.473 Q232.176 816.015 232.176 823.144 Q232.176 830.251 233.982 833.816 Q235.81 837.357 239.422 837.357 Q243.056 837.357 244.861 833.816 Q246.69 830.251 246.69 823.144 Q246.69 816.015 244.861 812.473 Q243.056 808.908 239.422 808.908 M239.422 805.205 Q245.232 805.205 248.287 809.811 Q251.366 814.395 251.366 823.144 Q251.366 831.871 248.287 836.478 Q245.232 841.061 239.422 841.061 Q233.611 841.061 230.533 836.478 Q227.477 831.871 227.477 823.144 Q227.477 814.395 230.533 809.811 Q233.611 805.205 239.422 805.205 Z" fill="#000000" fill-rule="nonzero" fill-opacity="1" /><path clip-path="url(#clip430)" d="M272.431 809.904 L260.625 828.353 L272.431 828.353 L272.431 809.904 M271.204 805.83 L277.083 805.83 L277.083 828.353 L282.014 828.353 L282.014 832.242 L277.083 832.242 L277.083 840.39 L272.431 840.39 L272.431 832.242 L256.829 832.242 L256.829 827.728 L271.204 805.83 Z" fill="#000000" fill-rule="nonzero" fill-opacity="1" /><path clip-path="url(#clip430)" d="M116.343 999.357 L146.019 999.357 L146.019 1003.29 L116.343 1003.29 L116.343 999.357 Z" fill="#000000" fill-rule="nonzero" fill-opacity="1" /><path clip-path="url(#clip430)" d="M166.112 984.704 Q162.501 984.704 160.672 988.269 Q158.866 991.81 158.866 998.94 Q158.866 1006.05 160.672 1009.61 Q162.501 1013.15 166.112 1013.15 Q169.746 1013.15 171.552 1009.61 Q173.38 1006.05 173.38 998.94 Q173.38 991.81 171.552 988.269 Q169.746 984.704 166.112 984.704 M166.112 981 Q171.922 981 174.977 985.607 Q178.056 990.19 178.056 998.94 Q178.056 1007.67 174.977 1012.27 Q171.922 1016.86 166.112 1016.86 Q160.302 1016.86 157.223 1012.27 Q154.167 1007.67 154.167 998.94 Q154.167 990.19 157.223 985.607 Q160.302 981 166.112 981 Z" fill="#000000" fill-rule="nonzero" fill-opacity="1" /><path clip-path="url(#clip430)" d="M186.274 1010.31 L191.158 1010.31 L191.158 1016.19 L186.274 1016.19 L186.274 1010.31 Z" fill="#000000" fill-rule="nonzero" fill-opacity="1" /><path clip-path="url(#clip430)" d="M211.343 984.704 Q207.732 984.704 205.903 988.269 Q204.098 991.81 204.098 998.94 Q204.098 1006.05 205.903 1009.61 Q207.732 1013.15 211.343 1013.15 Q214.977 1013.15 216.783 1009.61 Q218.611 1006.05 218.611 998.94 Q218.611 991.81 216.783 988.269 Q214.977 984.704 211.343 984.704 M211.343 981 Q217.153 981 220.209 985.607 Q223.287 990.19 223.287 998.94 Q223.287 1007.67 220.209 1012.27 Q217.153 1016.86 211.343 1016.86 Q205.533 1016.86 202.454 1012.27 Q199.399 1007.67 199.399 998.94 Q199.399 990.19 202.454 985.607 Q205.533 981 211.343 981 Z" fill="#000000" fill-rule="nonzero" fill-opacity="1" /><path clip-path="url(#clip430)" d="M241.505 984.704 Q237.894 984.704 236.065 988.269 Q234.26 991.81 234.26 998.94 Q234.26 1006.05 236.065 1009.61 Q237.894 1013.15 241.505 1013.15 Q245.139 1013.15 246.945 1009.61 Q248.773 1006.05 248.773 998.94 Q248.773 991.81 246.945 988.269 Q245.139 984.704 241.505 984.704 M241.505 981 Q247.315 981 250.371 985.607 Q253.449 990.19 253.449 998.94 Q253.449 1007.67 250.371 1012.27 Q247.315 1016.86 241.505 1016.86 Q235.695 1016.86 232.616 1012.27 Q229.56 1007.67 229.56 998.94 Q229.56 990.19 232.616 985.607 Q235.695 981 241.505 981 Z" fill="#000000" fill-rule="nonzero" fill-opacity="1" /><path clip-path="url(#clip430)" d="M265.695 1012.25 L282.014 1012.25 L282.014 1016.19 L260.07 1016.19 L260.07 1012.25 Q262.732 1009.5 267.315 1004.87 Q271.921 1000.21 273.102 998.871 Q275.347 996.347 276.227 994.611 Q277.13 992.852 277.13 991.162 Q277.13 988.408 275.185 986.672 Q273.264 984.935 270.162 984.935 Q267.963 984.935 265.509 985.699 Q263.079 986.463 260.301 988.014 L260.301 983.292 Q263.125 982.158 265.579 981.579 Q268.032 981 270.07 981 Q275.44 981 278.634 983.685 Q281.829 986.371 281.829 990.861 Q281.829 992.991 281.019 994.912 Q280.231 996.81 278.125 999.403 Q277.546 1000.07 274.444 1003.29 Q271.343 1006.49 265.695 1012.25 Z" fill="#000000" fill-rule="nonzero" fill-opacity="1" /><path clip-path="url(#clip430)" d="M164.515 1160.5 Q160.903 1160.5 159.075 1164.06 Q157.269 1167.61 157.269 1174.74 Q157.269 1181.84 159.075 1185.41 Q160.903 1188.95 164.515 1188.95 Q168.149 1188.95 169.954 1185.41 Q171.783 1181.84 171.783 1174.74 Q171.783 1167.61 169.954 1164.06 Q168.149 1160.5 164.515 1160.5 M164.515 1156.8 Q170.325 1156.8 173.38 1161.4 Q176.459 1165.99 176.459 1174.74 Q176.459 1183.46 173.38 1188.07 Q170.325 1192.65 164.515 1192.65 Q158.704 1192.65 155.626 1188.07 Q152.57 1183.46 152.57 1174.74 Q152.57 1165.99 155.626 1161.4 Q158.704 1156.8 164.515 1156.8 Z" fill="#000000" fill-rule="nonzero" fill-opacity="1" /><path clip-path="url(#clip430)" d="M184.676 1186.1 L189.561 1186.1 L189.561 1191.98 L184.676 1191.98 L184.676 1186.1 Z" fill="#000000" fill-rule="nonzero" fill-opacity="1" /><path clip-path="url(#clip430)" d="M209.746 1160.5 Q206.135 1160.5 204.306 1164.06 Q202.5 1167.61 202.5 1174.74 Q202.5 1181.84 204.306 1185.41 Q206.135 1188.95 209.746 1188.95 Q213.38 1188.95 215.186 1185.41 Q217.014 1181.84 217.014 1174.74 Q217.014 1167.61 215.186 1164.06 Q213.38 1160.5 209.746 1160.5 M209.746 1156.8 Q215.556 1156.8 218.611 1161.4 Q221.69 1165.99 221.69 1174.74 Q221.69 1183.46 218.611 1188.07 Q215.556 1192.65 209.746 1192.65 Q203.936 1192.65 200.857 1188.07 Q197.801 1183.46 197.801 1174.74 Q197.801 1165.99 200.857 1161.4 Q203.936 1156.8 209.746 1156.8 Z" fill="#000000" fill-rule="nonzero" fill-opacity="1" /><path clip-path="url(#clip430)" d="M239.908 1160.5 Q236.297 1160.5 234.468 1164.06 Q232.662 1167.61 232.662 1174.74 Q232.662 1181.84 234.468 1185.41 Q236.297 1188.95 239.908 1188.95 Q243.542 1188.95 245.347 1185.41 Q247.176 1181.84 247.176 1174.74 Q247.176 1167.61 245.347 1164.06 Q243.542 1160.5 239.908 1160.5 M239.908 1156.8 Q245.718 1156.8 248.773 1161.4 Q251.852 1165.99 251.852 1174.74 Q251.852 1183.46 248.773 1188.07 Q245.718 1192.65 239.908 1192.65 Q234.097 1192.65 231.019 1188.07 Q227.963 1183.46 227.963 1174.74 Q227.963 1165.99 231.019 1161.4 Q234.097 1156.8 239.908 1156.8 Z" fill="#000000" fill-rule="nonzero" fill-opacity="1" /><path clip-path="url(#clip430)" d="M270.07 1160.5 Q266.458 1160.5 264.63 1164.06 Q262.824 1167.61 262.824 1174.74 Q262.824 1181.84 264.63 1185.41 Q266.458 1188.95 270.07 1188.95 Q273.704 1188.95 275.509 1185.41 Q277.338 1181.84 277.338 1174.74 Q277.338 1167.61 275.509 1164.06 Q273.704 1160.5 270.07 1160.5 M270.07 1156.8 Q275.88 1156.8 278.935 1161.4 Q282.014 1165.99 282.014 1174.74 Q282.014 1183.46 278.935 1188.07 Q275.88 1192.65 270.07 1192.65 Q264.259 1192.65 261.181 1188.07 Q258.125 1183.46 258.125 1174.74 Q258.125 1165.99 261.181 1161.4 Q264.259 1156.8 270.07 1156.8 Z" fill="#000000" fill-rule="nonzero" fill-opacity="1" /><path clip-path="url(#clip430)" d="M16.4842 815.293 L16.4842 808.863 L64.0042 808.863 L64.0042 815.293 L16.4842 815.293 Z" fill="#000000" fill-rule="nonzero" fill-opacity="1" /><path clip-path="url(#clip430)" d="M35.1993 768.568 Q31.2526 766.372 29.3747 763.317 Q27.4968 760.261 27.4968 756.123 Q27.4968 750.553 31.4117 747.53 Q35.2948 744.506 42.4881 744.506 L64.0042 744.506 L64.0042 750.394 L42.679 750.394 Q37.5546 750.394 35.072 752.208 Q32.5894 754.023 32.5894 757.747 Q32.5894 762.298 35.6131 764.94 Q38.6368 767.582 43.8567 767.582 L64.0042 767.582 L64.0042 773.47 L42.679 773.47 Q37.5228 773.47 35.072 775.284 Q32.5894 777.098 32.5894 780.886 Q32.5894 785.374 35.6449 788.016 Q38.6686 790.657 43.8567 790.657 L64.0042 790.657 L64.0042 796.546 L28.3562 796.546 L28.3562 790.657 L33.8944 790.657 Q30.616 788.652 29.0564 785.851 Q27.4968 783.05 27.4968 779.199 Q27.4968 775.316 29.4702 772.61 Q31.4436 769.873 35.1993 768.568 Z" fill="#000000" fill-rule="nonzero" fill-opacity="1" /><path clip-path="url(#clip430)" d="M14.5426 718.757 Q21.8632 723.022 29.0246 725.09 Q36.186 727.159 43.5384 727.159 Q50.8908 727.159 58.1159 725.09 Q65.3091 722.99 72.5979 718.757 L72.5979 723.849 Q65.1182 728.623 57.8931 731.011 Q50.668 733.366 43.5384 733.366 Q36.4406 733.366 29.2474 731.011 Q22.0542 728.655 14.5426 723.849 L14.5426 718.757 Z" fill="#000000" fill-rule="nonzero" fill-opacity="1" /><path clip-path="url(#clip430)" d="M28.3562 677.761 L45.7028 690.652 L64.0042 677.093 L64.0042 684 L49.9996 694.376 L64.0042 704.752 L64.0042 711.659 L45.3526 697.813 L28.3562 710.481 L28.3562 703.574 L41.0558 694.121 L28.3562 684.668 L28.3562 677.761 Z" fill="#000000" fill-rule="nonzero" fill-opacity="1" /><path clip-path="url(#clip430)" d="M14.5426 669.741 L14.5426 664.648 Q22.0542 659.874 29.2474 657.519 Q36.4406 655.131 43.5384 655.131 Q50.668 655.131 57.8931 657.519 Q65.1182 659.874 72.5979 664.648 L72.5979 669.741 Q65.3091 665.507 58.1159 663.439 Q50.8908 661.338 43.5384 661.338 Q36.186 661.338 29.0246 663.439 Q21.8632 665.507 14.5426 669.741 Z" fill="#000000" fill-rule="nonzero" fill-opacity="1" /><circle clip-path="url(#clip432)" cx="2295.17" cy="816.847" r="14.4" fill="#009af9" fill-rule="evenodd" fill-opacity="1" stroke="#000000" stroke-opacity="1" stroke-width="3.2"/>
<circle clip-path="url(#clip432)" cx="2208.33" cy="926.986" r="14.4" fill="#009af9" fill-rule="evenodd" fill-opacity="1" stroke="#000000" stroke-opacity="1" stroke-width="3.2"/>
<circle clip-path="url(#clip432)" cx="2163.29" cy="997.05" r="14.4" fill="#009af9" fill-rule="evenodd" fill-opacity="1" stroke="#000000" stroke-opacity="1" stroke-width="3.2"/>
<circle clip-path="url(#clip432)" cx="2109.49" cy="1033.07" r="14.4" fill="#009af9" fill-rule="evenodd" fill-opacity="1" stroke="#000000" stroke-opacity="1" stroke-width="3.2"/>
<circle clip-path="url(#clip432)" cx="2042.6" cy="1039.76" r="14.4" fill="#009af9" fill-rule="evenodd" fill-opacity="1" stroke="#000000" stroke-opacity="1" stroke-width="3.2"/>
<circle clip-path="url(#clip432)" cx="2008.81" cy="1018.04" r="14.4" fill="#009af9" fill-rule="evenodd" fill-opacity="1" stroke="#000000" stroke-opacity="1" stroke-width="3.2"/>
<circle clip-path="url(#clip432)" cx="1941.41" cy="951.125" r="14.4" fill="#009af9" fill-rule="evenodd" fill-opacity="1" stroke="#000000" stroke-opacity="1" stroke-width="3.2"/>
<circle clip-path="url(#clip432)" cx="1807.93" cy="836.059" r="14.4" fill="#009af9" fill-rule="evenodd" fill-opacity="1" stroke="#000000" stroke-opacity="1" stroke-width="3.2"/>
<circle clip-path="url(#clip432)" cx="1615.5" cy="737.654" r="14.4" fill="#009af9" fill-rule="evenodd" fill-opacity="1" stroke="#000000" stroke-opacity="1" stroke-width="3.2"/>
<circle clip-path="url(#clip432)" cx="1389.61" cy="683.688" r="14.4" fill="#009af9" fill-rule="evenodd" fill-opacity="1" stroke="#000000" stroke-opacity="1" stroke-width="3.2"/>
<circle clip-path="url(#clip432)" cx="1045.99" cy="659.215" r="14.4" fill="#009af9" fill-rule="evenodd" fill-opacity="1" stroke="#000000" stroke-opacity="1" stroke-width="3.2"/>
<circle clip-path="url(#clip432)" cx="788.79" cy="695.397" r="14.4" fill="#009af9" fill-rule="evenodd" fill-opacity="1" stroke="#000000" stroke-opacity="1" stroke-width="3.2"/>
<circle clip-path="url(#clip432)" cx="580.232" cy="775.795" r="14.4" fill="#009af9" fill-rule="evenodd" fill-opacity="1" stroke="#000000" stroke-opacity="1" stroke-width="3.2"/>
<circle clip-path="url(#clip432)" cx="375.601" cy="894.998" r="14.4" fill="#009af9" fill-rule="evenodd" fill-opacity="1" stroke="#000000" stroke-opacity="1" stroke-width="3.2"/>
<path clip-path="url(#clip430)" d="M385.839 445.268 L689.173 445.268 L689.173 341.588 L385.839 341.588  Z" fill="#ffffff" fill-rule="evenodd" fill-opacity="1"/>
<polyline clip-path="url(#clip430)" style="stroke:#000000; stroke-linecap:round; stroke-linejoin:round; stroke-width:4; stroke-opacity:1; fill:none" points="385.839,445.268 689.173,445.268 689.173,341.588 385.839,341.588 385.839,445.268 "/>
<circle clip-path="url(#clip430)" cx="476.272" cy="393.428" r="20.48" fill="#009af9" fill-rule="evenodd" fill-opacity="1" stroke="#000000" stroke-opacity="1" stroke-width="4.55111"/>
<path clip-path="url(#clip430)" d="M585.617 388.717 L585.617 374.689 L589.876 374.689 L589.876 410.708 L585.617 410.708 L585.617 406.819 Q584.274 409.134 582.214 410.268 Q580.177 411.379 577.306 411.379 Q572.607 411.379 569.644 407.629 Q566.705 403.879 566.705 397.768 Q566.705 391.657 569.644 387.907 Q572.607 384.157 577.306 384.157 Q580.177 384.157 582.214 385.291 Q584.274 386.402 585.617 388.717 M571.103 397.768 Q571.103 402.467 573.024 405.152 Q574.968 407.814 578.348 407.814 Q581.728 407.814 583.672 405.152 Q585.617 402.467 585.617 397.768 Q585.617 393.069 583.672 390.407 Q581.728 387.722 578.348 387.722 Q574.968 387.722 573.024 390.407 Q571.103 393.069 571.103 397.768 Z" fill="#000000" fill-rule="nonzero" fill-opacity="1" /><path clip-path="url(#clip430)" d="M610.431 397.675 Q605.269 397.675 603.278 398.856 Q601.288 400.036 601.288 402.884 Q601.288 405.152 602.769 406.495 Q604.274 407.814 606.843 407.814 Q610.385 407.814 612.515 405.314 Q614.667 402.791 614.667 398.624 L614.667 397.675 L610.431 397.675 M618.927 395.916 L618.927 410.708 L614.667 410.708 L614.667 406.772 Q613.209 409.134 611.033 410.268 Q608.857 411.379 605.709 411.379 Q601.728 411.379 599.366 409.157 Q597.028 406.911 597.028 403.161 Q597.028 398.786 599.945 396.564 Q602.885 394.342 608.695 394.342 L614.667 394.342 L614.667 393.925 Q614.667 390.985 612.723 389.388 Q610.802 387.768 607.306 387.768 Q605.084 387.768 602.978 388.3 Q600.871 388.833 598.927 389.898 L598.927 385.962 Q601.265 385.06 603.464 384.62 Q605.663 384.157 607.746 384.157 Q613.371 384.157 616.149 387.073 Q618.927 389.99 618.927 395.916 Z" fill="#000000" fill-rule="nonzero" fill-opacity="1" /><path clip-path="url(#clip430)" d="M631.913 377.421 L631.913 384.782 L640.686 384.782 L640.686 388.092 L631.913 388.092 L631.913 402.166 Q631.913 405.337 632.769 406.24 Q633.649 407.143 636.311 407.143 L640.686 407.143 L640.686 410.708 L636.311 410.708 Q631.38 410.708 629.505 408.879 Q627.63 407.027 627.63 402.166 L627.63 388.092 L624.505 388.092 L624.505 384.782 L627.63 384.782 L627.63 377.421 L631.913 377.421 Z" fill="#000000" fill-rule="nonzero" fill-opacity="1" /><path clip-path="url(#clip430)" d="M658.07 397.675 Q652.908 397.675 650.917 398.856 Q648.926 400.036 648.926 402.884 Q648.926 405.152 650.408 406.495 Q651.912 407.814 654.482 407.814 Q658.024 407.814 660.153 405.314 Q662.306 402.791 662.306 398.624 L662.306 397.675 L658.07 397.675 M666.565 395.916 L666.565 410.708 L662.306 410.708 L662.306 406.772 Q660.848 409.134 658.672 410.268 Q656.496 411.379 653.348 411.379 Q649.366 411.379 647.005 409.157 Q644.667 406.911 644.667 403.161 Q644.667 398.786 647.584 396.564 Q650.524 394.342 656.334 394.342 L662.306 394.342 L662.306 393.925 Q662.306 390.985 660.361 389.388 Q658.44 387.768 654.945 387.768 Q652.723 387.768 650.616 388.3 Q648.51 388.833 646.565 389.898 L646.565 385.962 Q648.903 385.06 651.102 384.62 Q653.301 384.157 655.385 384.157 Q661.01 384.157 663.787 387.073 Q666.565 389.99 666.565 395.916 Z" fill="#000000" fill-rule="nonzero" fill-opacity="1" /></svg>
