<?xml version="1.0" encoding="utf-8"?>
<svg xmlns="http://www.w3.org/2000/svg" xmlns:xlink="http://www.w3.org/1999/xlink" width="600" height="400" viewBox="0 0 2400 1600">
<defs>
  <clipPath id="clip700">
    <rect x="0" y="0" width="2400" height="1600"/>
  </clipPath>
</defs>
<path clip-path="url(#clip700)" d="M0 1600 L2400 1600 L2400 8.88178e-14 L0 8.88178e-14  Z" fill="#ffffff" fill-rule="evenodd" fill-opacity="1"/>
<defs>
  <clipPath id="clip701">
    <rect x="480" y="0" width="1681" height="1600"/>
  </clipPath>
</defs>
<path clip-path="url(#clip700)" d="M257.69 1423.18 L2352.76 1423.18 L2352.76 47.2441 L257.69 47.2441  Z" fill="#ffffff" fill-rule="evenodd" fill-opacity="1"/>
<defs>
  <clipPath id="clip702">
    <rect x="257" y="47" width="2096" height="1377"/>
  </clipPath>
</defs>
<polyline clip-path="url(#clip702)" style="stroke:#000000; stroke-linecap:round; stroke-linejoin:round; stroke-width:2; stroke-opacity:0.1; fill:none" points="611.483,47.2441 611.483,1423.18 "/>
<polyline clip-path="url(#clip702)" style="stroke:#000000; stroke-linecap:round; stroke-linejoin:round; stroke-width:2; stroke-opacity:0.1; fill:none" points="1157.08,47.2441 1157.08,1423.18 "/>
<polyline clip-path="url(#clip702)" style="stroke:#000000; stroke-linecap:round; stroke-linejoin:round; stroke-width:2; stroke-opacity:0.1; fill:none" points="1702.67,47.2441 1702.67,1423.18 "/>
<polyline clip-path="url(#clip702)" style="stroke:#000000; stroke-linecap:round; stroke-linejoin:round; stroke-width:2; stroke-opacity:0.1; fill:none" points="2248.27,47.2441 2248.27,1423.18 "/>
<polyline clip-path="url(#clip702)" style="stroke:#000000; stroke-linecap:round; stroke-linejoin:round; stroke-width:2; stroke-opacity:0.1; fill:none" points="257.69,200.918 2352.76,200.918 "/>
<polyline clip-path="url(#clip702)" style="stroke:#000000; stroke-linecap:round; stroke-linejoin:round; stroke-width:2; stroke-opacity:0.1; fill:none" points="257.69,473.715 2352.76,473.715 "/>
<polyline clip-path="url(#clip702)" style="stroke:#000000; stroke-linecap:round; stroke-linejoin:round; stroke-width:2; stroke-opacity:0.1; fill:none" points="257.69,746.513 2352.76,746.513 "/>
<polyline clip-path="url(#clip702)" style="stroke:#000000; stroke-linecap:round; stroke-linejoin:round; stroke-width:2; stroke-opacity:0.1; fill:none" points="257.69,1019.31 2352.76,1019.31 "/>
<polyline clip-path="url(#clip702)" style="stroke:#000000; stroke-linecap:round; stroke-linejoin:round; stroke-width:2; stroke-opacity:0.1; fill:none" points="257.69,1292.11 2352.76,1292.11 "/>
<polyline clip-path="url(#clip700)" style="stroke:#000000; stroke-linecap:round; stroke-linejoin:round; stroke-width:4; stroke-opacity:1; fill:none" points="257.69,1423.18 2352.76,1423.18 "/>
<polyline clip-path="url(#clip700)" style="stroke:#000000; stroke-linecap:round; stroke-linejoin:round; stroke-width:4; stroke-opacity:1; fill:none" points="611.483,1423.18 611.483,1404.28 "/>
<polyline clip-path="url(#clip700)" style="stroke:#000000; stroke-linecap:round; stroke-linejoin:round; stroke-width:4; stroke-opacity:1; fill:none" points="1157.08,1423.18 1157.08,1404.28 "/>
<polyline clip-path="url(#clip700)" style="stroke:#000000; stroke-linecap:round; stroke-linejoin:round; stroke-width:4; stroke-opacity:1; fill:none" points="1702.67,1423.18 1702.67,1404.28 "/>
<polyline clip-path="url(#clip700)" style="stroke:#000000; stroke-linecap:round; stroke-linejoin:round; stroke-width:4; stroke-opacity:1; fill:none" points="2248.27,1423.18 2248.27,1404.28 "/>
<path clip-path="url(#clip700)" d="M589.365 1454.1 Q585.754 1454.1 583.926 1457.66 Q582.12 1461.2 582.12 1468.33 Q582.12 1475.44 583.926 1479.01 Q585.754 1482.55 589.365 1482.55 Q593 1482.55 594.805 1479.01 Q596.634 1475.44 596.634 1468.33 Q596.634 1461.2 594.805 1457.66 Q593 1454.1 589.365 1454.1 M589.365 1450.39 Q595.176 1450.39 598.231 1455 Q601.31 1459.58 601.31 1468.33 Q601.31 1477.06 598.231 1481.67 Q595.176 1486.25 589.365 1486.25 Q583.555 1486.25 580.477 1481.67 Q577.421 1477.06 577.421 1468.33 Q577.421 1459.58 580.477 1455 Q583.555 1450.39 589.365 1450.39 Z" fill="#000000" fill-rule="nonzero" fill-opacity="1" /><path clip-path="url(#clip700)" d="M609.527 1479.7 L614.412 1479.7 L614.412 1485.58 L609.527 1485.58 L609.527 1479.7 Z" fill="#000000" fill-rule="nonzero" fill-opacity="1" /><path clip-path="url(#clip700)" d="M624.643 1451.02 L642.999 1451.02 L642.999 1454.96 L628.925 1454.96 L628.925 1463.43 Q629.944 1463.08 630.962 1462.92 Q631.981 1462.73 632.999 1462.73 Q638.786 1462.73 642.166 1465.9 Q645.546 1469.08 645.546 1474.49 Q645.546 1480.07 642.073 1483.17 Q638.601 1486.25 632.282 1486.25 Q630.106 1486.25 627.837 1485.88 Q625.592 1485.51 623.185 1484.77 L623.185 1480.07 Q625.268 1481.2 627.49 1481.76 Q629.712 1482.32 632.189 1482.32 Q636.194 1482.32 638.532 1480.21 Q640.87 1478.1 640.87 1474.49 Q640.87 1470.88 638.532 1468.77 Q636.194 1466.67 632.189 1466.67 Q630.314 1466.67 628.439 1467.08 Q626.587 1467.5 624.643 1468.38 L624.643 1451.02 Z" fill="#000000" fill-rule="nonzero" fill-opacity="1" /><path clip-path="url(#clip700)" d="M1124.23 1481.64 L1131.87 1481.64 L1131.87 1455.28 L1123.56 1456.95 L1123.56 1452.69 L1131.82 1451.02 L1136.5 1451.02 L1136.5 1481.64 L1144.14 1481.64 L1144.14 1485.58 L1124.23 1485.58 L1124.23 1481.64 Z" fill="#000000" fill-rule="nonzero" fill-opacity="1" /><path clip-path="url(#clip700)" d="M1153.58 1479.7 L1158.47 1479.7 L1158.47 1485.58 L1153.58 1485.58 L1153.58 1479.7 Z" fill="#000000" fill-rule="nonzero" fill-opacity="1" /><path clip-path="url(#clip700)" d="M1178.65 1454.1 Q1175.04 1454.1 1173.21 1457.66 Q1171.41 1461.2 1171.41 1468.33 Q1171.41 1475.44 1173.21 1479.01 Q1175.04 1482.55 1178.65 1482.55 Q1182.29 1482.55 1184.09 1479.01 Q1185.92 1475.44 1185.92 1468.33 Q1185.92 1461.2 1184.09 1457.66 Q1182.29 1454.1 1178.65 1454.1 M1178.65 1450.39 Q1184.46 1450.39 1187.52 1455 Q1190.6 1459.58 1190.6 1468.33 Q1190.6 1477.06 1187.52 1481.67 Q1184.46 1486.25 1178.65 1486.25 Q1172.84 1486.25 1169.76 1481.67 Q1166.71 1477.06 1166.71 1468.33 Q1166.71 1459.58 1169.76 1455 Q1172.84 1450.39 1178.65 1450.39 Z" fill="#000000" fill-rule="nonzero" fill-opacity="1" /><path clip-path="url(#clip700)" d="M1670.32 1481.64 L1677.96 1481.64 L1677.96 1455.28 L1669.65 1456.95 L1669.65 1452.69 L1677.92 1451.02 L1682.59 1451.02 L1682.59 1481.64 L1690.23 1481.64 L1690.23 1485.58 L1670.32 1485.58 L1670.32 1481.64 Z" fill="#000000" fill-rule="nonzero" fill-opacity="1" /><path clip-path="url(#clip700)" d="M1699.68 1479.7 L1704.56 1479.7 L1704.56 1485.58 L1699.68 1485.58 L1699.68 1479.7 Z" fill="#000000" fill-rule="nonzero" fill-opacity="1" /><path clip-path="url(#clip700)" d="M1714.79 1451.02 L1733.15 1451.02 L1733.15 1454.96 L1719.07 1454.96 L1719.07 1463.43 Q1720.09 1463.08 1721.11 1462.92 Q1722.13 1462.73 1723.15 1462.73 Q1728.93 1462.73 1732.31 1465.9 Q1735.69 1469.08 1735.69 1474.49 Q1735.69 1480.07 1732.22 1483.17 Q1728.75 1486.25 1722.43 1486.25 Q1720.25 1486.25 1717.99 1485.88 Q1715.74 1485.51 1713.33 1484.77 L1713.33 1480.07 Q1715.42 1481.2 1717.64 1481.76 Q1719.86 1482.32 1722.34 1482.32 Q1726.34 1482.32 1728.68 1480.21 Q1731.02 1478.1 1731.02 1474.49 Q1731.02 1470.88 1728.68 1468.77 Q1726.34 1466.67 1722.34 1466.67 Q1720.46 1466.67 1718.59 1467.08 Q1716.74 1467.5 1714.79 1468.38 L1714.79 1451.02 Z" fill="#000000" fill-rule="nonzero" fill-opacity="1" /><path clip-path="url(#clip700)" d="M2219.51 1481.64 L2235.83 1481.64 L2235.83 1485.58 L2213.88 1485.58 L2213.88 1481.64 Q2216.54 1478.89 2221.13 1474.26 Q2225.73 1469.61 2226.91 1468.27 Q2229.16 1465.74 2230.04 1464.01 Q2230.94 1462.25 2230.94 1460.56 Q2230.94 1457.8 2229 1456.07 Q2227.08 1454.33 2223.97 1454.33 Q2221.77 1454.33 2219.32 1455.09 Q2216.89 1455.86 2214.11 1457.41 L2214.11 1452.69 Q2216.94 1451.55 2219.39 1450.97 Q2221.84 1450.39 2223.88 1450.39 Q2229.25 1450.39 2232.45 1453.08 Q2235.64 1455.77 2235.64 1460.26 Q2235.64 1462.39 2234.83 1464.31 Q2234.04 1466.2 2231.94 1468.8 Q2231.36 1469.47 2228.26 1472.69 Q2225.15 1475.88 2219.51 1481.64 Z" fill="#000000" fill-rule="nonzero" fill-opacity="1" /><path clip-path="url(#clip700)" d="M2245.64 1479.7 L2250.52 1479.7 L2250.52 1485.58 L2245.64 1485.58 L2245.64 1479.7 Z" fill="#000000" fill-rule="nonzero" fill-opacity="1" /><path clip-path="url(#clip700)" d="M2270.71 1454.1 Q2267.1 1454.1 2265.27 1457.66 Q2263.46 1461.2 2263.46 1468.33 Q2263.46 1475.44 2265.27 1479.01 Q2267.1 1482.55 2270.71 1482.55 Q2274.34 1482.55 2276.15 1479.01 Q2277.98 1475.44 2277.98 1468.33 Q2277.98 1461.2 2276.15 1457.66 Q2274.34 1454.1 2270.71 1454.1 M2270.71 1450.39 Q2276.52 1450.39 2279.58 1455 Q2282.65 1459.58 2282.65 1468.33 Q2282.65 1477.06 2279.58 1481.67 Q2276.52 1486.25 2270.71 1486.25 Q2264.9 1486.25 2261.82 1481.67 Q2258.77 1477.06 2258.77 1468.33 Q2258.77 1459.58 2261.82 1455 Q2264.9 1450.39 2270.71 1450.39 Z" fill="#000000" fill-rule="nonzero" fill-opacity="1" /><path clip-path="url(#clip700)" d="M1201.67 1545.76 Q1203.74 1546.46 1205.68 1548.76 Q1207.65 1551.05 1209.63 1555.06 L1216.15 1568.04 L1209.24 1568.04 L1203.16 1555.85 Q1200.81 1551.08 1198.58 1549.52 Q1196.39 1547.96 1192.57 1547.96 L1185.56 1547.96 L1185.56 1568.04 L1179.13 1568.04 L1179.13 1520.52 L1193.65 1520.52 Q1201.8 1520.52 1205.81 1523.93 Q1209.82 1527.34 1209.82 1534.21 Q1209.82 1538.7 1207.72 1541.66 Q1205.65 1544.62 1201.67 1545.76 M1185.56 1525.81 L1185.56 1542.68 L1193.65 1542.68 Q1198.3 1542.68 1200.65 1540.54 Q1203.04 1538.38 1203.04 1534.21 Q1203.04 1530.04 1200.65 1527.94 Q1198.3 1525.81 1193.65 1525.81 L1185.56 1525.81 Z" fill="#000000" fill-rule="nonzero" fill-opacity="1" /><path clip-path="url(#clip700)" d="M1251.74 1548.76 L1251.74 1551.62 L1224.81 1551.62 Q1225.19 1557.67 1228.44 1560.85 Q1231.72 1564 1237.54 1564 Q1240.91 1564 1244.06 1563.17 Q1247.25 1562.35 1250.37 1560.69 L1250.37 1566.23 Q1247.22 1567.57 1243.91 1568.27 Q1240.6 1568.97 1237.19 1568.97 Q1228.66 1568.97 1223.66 1564 Q1218.7 1559.04 1218.7 1550.57 Q1218.7 1541.82 1223.41 1536.69 Q1228.15 1531.54 1236.17 1531.54 Q1243.36 1531.54 1247.53 1536.18 Q1251.74 1540.8 1251.74 1548.76 M1245.88 1547.04 Q1245.82 1542.23 1243.17 1539.37 Q1240.56 1536.5 1236.23 1536.5 Q1231.33 1536.5 1228.37 1539.27 Q1225.44 1542.04 1225 1547.07 L1245.88 1547.04 Z" fill="#000000" fill-rule="nonzero" fill-opacity="1" /><path clip-path="url(#clip700)" d="M1279.59 1520.52 L1316.92 1520.52 L1316.92 1525.43 L1286.87 1562.63 L1317.65 1562.63 L1317.65 1568.04 L1278.85 1568.04 L1278.85 1563.14 L1308.9 1525.93 L1279.59 1525.93 L1279.59 1520.52 Z" fill="#000000" fill-rule="nonzero" fill-opacity="1" /><path clip-path="url(#clip700)" d="M1357.85 1520.52 L1363.26 1520.52 L1346.71 1574.09 L1341.3 1574.09 L1357.85 1520.52 Z" fill="#000000" fill-rule="nonzero" fill-opacity="1" /><path clip-path="url(#clip700)" d="M1431.31 1562.38 L1431.31 1568.04 L1412.21 1568.04 L1412.21 1562.38 Q1417.85 1559.29 1421 1554.01 Q1424.15 1548.72 1424.15 1542.29 Q1424.15 1534.66 1419.95 1530.04 Q1415.75 1525.43 1408.87 1525.43 Q1402 1525.43 1397.76 1530.07 Q1393.56 1534.69 1393.56 1542.29 Q1393.56 1548.72 1396.71 1554.01 Q1399.9 1559.29 1405.56 1562.38 L1405.56 1568.04 L1386.47 1568.04 L1386.47 1562.38 L1396.62 1562.38 Q1391.59 1557.95 1389.27 1553.21 Q1386.97 1548.47 1386.97 1542.61 Q1386.97 1532.49 1393.09 1526.22 Q1399.16 1519.95 1408.87 1519.95 Q1418.52 1519.95 1424.66 1526.22 Q1430.77 1532.46 1430.77 1542.29 Q1430.77 1548.47 1428.51 1553.18 Q1426.25 1557.89 1421.13 1562.38 L1431.31 1562.38 Z" fill="#000000" fill-rule="nonzero" fill-opacity="1" /><polyline clip-path="url(#clip700)" style="stroke:#000000; stroke-linecap:round; stroke-linejoin:round; stroke-width:4; stroke-opacity:1; fill:none" points="257.69,47.2441 257.69,1423.18 "/>
<polyline clip-path="url(#clip700)" style="stroke:#000000; stroke-linecap:round; stroke-linejoin:round; stroke-width:4; stroke-opacity:1; fill:none" points="257.69,200.918 276.588,200.918 "/>
<polyline clip-path="url(#clip700)" style="stroke:#000000; stroke-linecap:round; stroke-linejoin:round; stroke-width:4; stroke-opacity:1; fill:none" points="257.69,473.715 276.588,473.715 "/>
<polyline clip-path="url(#clip700)" style="stroke:#000000; stroke-linecap:round; stroke-linejoin:round; stroke-width:4; stroke-opacity:1; fill:none" points="257.69,746.513 276.588,746.513 "/>
<polyline clip-path="url(#clip700)" style="stroke:#000000; stroke-linecap:round; stroke-linejoin:round; stroke-width:4; stroke-opacity:1; fill:none" points="257.69,1019.31 276.588,1019.31 "/>
<polyline clip-path="url(#clip700)" style="stroke:#000000; stroke-linecap:round; stroke-linejoin:round; stroke-width:4; stroke-opacity:1; fill:none" points="257.69,1292.11 276.588,1292.11 "/>
<path clip-path="url(#clip700)" d="M85.5798 201.37 L115.256 201.37 L115.256 205.305 L85.5798 205.305 L85.5798 201.37 Z" fill="#000000" fill-rule="nonzero" fill-opacity="1" /><path clip-path="url(#clip700)" d="M135.348 186.717 Q131.737 186.717 129.908 190.282 Q128.103 193.823 128.103 200.953 Q128.103 208.059 129.908 211.624 Q131.737 215.166 135.348 215.166 Q138.982 215.166 140.788 211.624 Q142.616 208.059 142.616 200.953 Q142.616 193.823 140.788 190.282 Q138.982 186.717 135.348 186.717 M135.348 183.013 Q141.158 183.013 144.214 187.62 Q147.292 192.203 147.292 200.953 Q147.292 209.68 144.214 214.286 Q141.158 218.869 135.348 218.869 Q129.538 218.869 126.459 214.286 Q123.404 209.68 123.404 200.953 Q123.404 192.203 126.459 187.62 Q129.538 183.013 135.348 183.013 Z" fill="#000000" fill-rule="nonzero" fill-opacity="1" /><path clip-path="url(#clip700)" d="M155.51 212.319 L160.394 212.319 L160.394 218.198 L155.51 218.198 L155.51 212.319 Z" fill="#000000" fill-rule="nonzero" fill-opacity="1" /><path clip-path="url(#clip700)" d="M169.399 183.638 L191.621 183.638 L191.621 185.629 L179.075 218.198 L174.19 218.198 L185.996 187.573 L169.399 187.573 L169.399 183.638 Z" fill="#000000" fill-rule="nonzero" fill-opacity="1" /><path clip-path="url(#clip700)" d="M200.787 183.638 L219.144 183.638 L219.144 187.573 L205.07 187.573 L205.07 196.045 Q206.088 195.698 207.107 195.536 Q208.125 195.351 209.144 195.351 Q214.931 195.351 218.311 198.522 Q221.69 201.694 221.69 207.11 Q221.69 212.689 218.218 215.791 Q214.746 218.869 208.426 218.869 Q206.25 218.869 203.982 218.499 Q201.737 218.129 199.329 217.388 L199.329 212.689 Q201.412 213.823 203.635 214.379 Q205.857 214.934 208.334 214.934 Q212.338 214.934 214.676 212.828 Q217.014 210.721 217.014 207.11 Q217.014 203.499 214.676 201.393 Q212.338 199.286 208.334 199.286 Q206.459 199.286 204.584 199.703 Q202.732 200.12 200.787 200.999 L200.787 183.638 Z" fill="#000000" fill-rule="nonzero" fill-opacity="1" /><path clip-path="url(#clip700)" d="M84.5844 474.167 L114.26 474.167 L114.26 478.102 L84.5844 478.102 L84.5844 474.167 Z" fill="#000000" fill-rule="nonzero" fill-opacity="1" /><path clip-path="url(#clip700)" d="M134.353 459.514 Q130.742 459.514 128.913 463.079 Q127.107 466.621 127.107 473.75 Q127.107 480.857 128.913 484.421 Q130.742 487.963 134.353 487.963 Q137.987 487.963 139.792 484.421 Q141.621 480.857 141.621 473.75 Q141.621 466.621 139.792 463.079 Q137.987 459.514 134.353 459.514 M134.353 455.81 Q140.163 455.81 143.218 460.417 Q146.297 465 146.297 473.75 Q146.297 482.477 143.218 487.083 Q140.163 491.667 134.353 491.667 Q128.542 491.667 125.464 487.083 Q122.408 482.477 122.408 473.75 Q122.408 465 125.464 460.417 Q128.542 455.81 134.353 455.81 Z" fill="#000000" fill-rule="nonzero" fill-opacity="1" /><path clip-path="url(#clip700)" d="M154.515 485.116 L159.399 485.116 L159.399 490.995 L154.515 490.995 L154.515 485.116 Z" fill="#000000" fill-rule="nonzero" fill-opacity="1" /><path clip-path="url(#clip700)" d="M169.63 456.435 L187.987 456.435 L187.987 460.371 L173.913 460.371 L173.913 468.843 Q174.931 468.496 175.95 468.334 Q176.968 468.148 177.987 468.148 Q183.774 468.148 187.153 471.32 Q190.533 474.491 190.533 479.908 Q190.533 485.486 187.061 488.588 Q183.588 491.667 177.269 491.667 Q175.093 491.667 172.825 491.296 Q170.579 490.926 168.172 490.185 L168.172 485.486 Q170.255 486.621 172.477 487.176 Q174.7 487.732 177.176 487.732 Q181.181 487.732 183.519 485.625 Q185.857 483.519 185.857 479.908 Q185.857 476.296 183.519 474.19 Q181.181 472.084 177.176 472.084 Q175.301 472.084 173.427 472.5 Q171.575 472.917 169.63 473.796 L169.63 456.435 Z" fill="#000000" fill-rule="nonzero" fill-opacity="1" /><path clip-path="url(#clip700)" d="M209.746 459.514 Q206.135 459.514 204.306 463.079 Q202.5 466.621 202.5 473.75 Q202.5 480.857 204.306 484.421 Q206.135 487.963 209.746 487.963 Q213.38 487.963 215.186 484.421 Q217.014 480.857 217.014 473.75 Q217.014 466.621 215.186 463.079 Q213.38 459.514 209.746 459.514 M209.746 455.81 Q215.556 455.81 218.611 460.417 Q221.69 465 221.69 473.75 Q221.69 482.477 218.611 487.083 Q215.556 491.667 209.746 491.667 Q203.936 491.667 200.857 487.083 Q197.801 482.477 197.801 473.75 Q197.801 465 200.857 460.417 Q203.936 455.81 209.746 455.81 Z" fill="#000000" fill-rule="nonzero" fill-opacity="1" /><path clip-path="url(#clip700)" d="M85.5798 746.964 L115.256 746.964 L115.256 750.899 L85.5798 750.899 L85.5798 746.964 Z" fill="#000000" fill-rule="nonzero" fill-opacity="1" /><path clip-path="url(#clip700)" d="M135.348 732.312 Q131.737 732.312 129.908 735.876 Q128.103 739.418 128.103 746.548 Q128.103 753.654 129.908 757.219 Q131.737 760.76 135.348 760.76 Q138.982 760.76 140.788 757.219 Q142.616 753.654 142.616 746.548 Q142.616 739.418 140.788 735.876 Q138.982 732.312 135.348 732.312 M135.348 728.608 Q141.158 728.608 144.214 733.214 Q147.292 737.798 147.292 746.548 Q147.292 755.274 144.214 759.881 Q141.158 764.464 135.348 764.464 Q129.538 764.464 126.459 759.881 Q123.404 755.274 123.404 746.548 Q123.404 737.798 126.459 733.214 Q129.538 728.608 135.348 728.608 Z" fill="#000000" fill-rule="nonzero" fill-opacity="1" /><path clip-path="url(#clip700)" d="M155.51 757.913 L160.394 757.913 L160.394 763.793 L155.51 763.793 L155.51 757.913 Z" fill="#000000" fill-rule="nonzero" fill-opacity="1" /><path clip-path="url(#clip700)" d="M174.607 759.858 L190.926 759.858 L190.926 763.793 L168.982 763.793 L168.982 759.858 Q171.644 757.103 176.227 752.473 Q180.834 747.821 182.014 746.478 Q184.26 743.955 185.139 742.219 Q186.042 740.46 186.042 738.77 Q186.042 736.015 184.098 734.279 Q182.176 732.543 179.075 732.543 Q176.876 732.543 174.422 733.307 Q171.991 734.071 169.214 735.622 L169.214 730.899 Q172.038 729.765 174.491 729.187 Q176.945 728.608 178.982 728.608 Q184.352 728.608 187.547 731.293 Q190.741 733.978 190.741 738.469 Q190.741 740.599 189.931 742.52 Q189.144 744.418 187.038 747.011 Q186.459 747.682 183.357 750.899 Q180.255 754.094 174.607 759.858 Z" fill="#000000" fill-rule="nonzero" fill-opacity="1" /><path clip-path="url(#clip700)" d="M200.787 729.233 L219.144 729.233 L219.144 733.168 L205.07 733.168 L205.07 741.64 Q206.088 741.293 207.107 741.131 Q208.125 740.946 209.144 740.946 Q214.931 740.946 218.311 744.117 Q221.69 747.288 221.69 752.705 Q221.69 758.284 218.218 761.385 Q214.746 764.464 208.426 764.464 Q206.25 764.464 203.982 764.094 Q201.737 763.723 199.329 762.983 L199.329 758.284 Q201.412 759.418 203.635 759.973 Q205.857 760.529 208.334 760.529 Q212.338 760.529 214.676 758.422 Q217.014 756.316 217.014 752.705 Q217.014 749.094 214.676 746.987 Q212.338 744.881 208.334 744.881 Q206.459 744.881 204.584 745.298 Q202.732 745.714 200.787 746.594 L200.787 729.233 Z" fill="#000000" fill-rule="nonzero" fill-opacity="1" /><path clip-path="url(#clip700)" d="M134.353 1005.11 Q130.742 1005.11 128.913 1008.67 Q127.107 1012.22 127.107 1019.34 Q127.107 1026.45 128.913 1030.02 Q130.742 1033.56 134.353 1033.56 Q137.987 1033.56 139.792 1030.02 Q141.621 1026.45 141.621 1019.34 Q141.621 1012.22 139.792 1008.67 Q137.987 1005.11 134.353 1005.11 M134.353 1001.41 Q140.163 1001.41 143.218 1006.01 Q146.297 1010.59 146.297 1019.34 Q146.297 1028.07 143.218 1032.68 Q140.163 1037.26 134.353 1037.26 Q128.542 1037.26 125.464 1032.68 Q122.408 1028.07 122.408 1019.34 Q122.408 1010.59 125.464 1006.01 Q128.542 1001.41 134.353 1001.41 Z" fill="#000000" fill-rule="nonzero" fill-opacity="1" /><path clip-path="url(#clip700)" d="M154.515 1030.71 L159.399 1030.71 L159.399 1036.59 L154.515 1036.59 L154.515 1030.71 Z" fill="#000000" fill-rule="nonzero" fill-opacity="1" /><path clip-path="url(#clip700)" d="M179.584 1005.11 Q175.973 1005.11 174.144 1008.67 Q172.339 1012.22 172.339 1019.34 Q172.339 1026.45 174.144 1030.02 Q175.973 1033.56 179.584 1033.56 Q183.218 1033.56 185.024 1030.02 Q186.852 1026.45 186.852 1019.34 Q186.852 1012.22 185.024 1008.67 Q183.218 1005.11 179.584 1005.11 M179.584 1001.41 Q185.394 1001.41 188.45 1006.01 Q191.528 1010.59 191.528 1019.34 Q191.528 1028.07 188.45 1032.68 Q185.394 1037.26 179.584 1037.26 Q173.774 1037.26 170.695 1032.68 Q167.64 1028.07 167.64 1019.34 Q167.64 1010.59 170.695 1006.01 Q173.774 1001.41 179.584 1001.41 Z" fill="#000000" fill-rule="nonzero" fill-opacity="1" /><path clip-path="url(#clip700)" d="M209.746 1005.11 Q206.135 1005.11 204.306 1008.67 Q202.5 1012.22 202.5 1019.34 Q202.5 1026.45 204.306 1030.02 Q206.135 1033.56 209.746 1033.56 Q213.38 1033.56 215.186 1030.02 Q217.014 1026.45 217.014 1019.34 Q217.014 1012.22 215.186 1008.67 Q213.38 1005.11 209.746 1005.11 M209.746 1001.41 Q215.556 1001.41 218.611 1006.01 Q221.69 1010.59 221.69 1019.34 Q221.69 1028.07 218.611 1032.68 Q215.556 1037.26 209.746 1037.26 Q203.936 1037.26 200.857 1032.68 Q197.801 1028.07 197.801 1019.34 Q197.801 1010.59 200.857 1006.01 Q203.936 1001.41 209.746 1001.41 Z" fill="#000000" fill-rule="nonzero" fill-opacity="1" /><path clip-path="url(#clip700)" d="M135.348 1277.91 Q131.737 1277.91 129.908 1281.47 Q128.103 1285.01 128.103 1292.14 Q128.103 1299.25 129.908 1302.81 Q131.737 1306.36 135.348 1306.36 Q138.982 1306.36 140.788 1302.81 Q142.616 1299.25 142.616 1292.14 Q142.616 1285.01 140.788 1281.47 Q138.982 1277.91 135.348 1277.91 M135.348 1274.2 Q141.158 1274.2 144.214 1278.81 Q147.292 1283.39 147.292 1292.14 Q147.292 1300.87 144.214 1305.48 Q141.158 1310.06 135.348 1310.06 Q129.538 1310.06 126.459 1305.48 Q123.404 1300.87 123.404 1292.14 Q123.404 1283.39 126.459 1278.81 Q129.538 1274.2 135.348 1274.2 Z" fill="#000000" fill-rule="nonzero" fill-opacity="1" /><path clip-path="url(#clip700)" d="M155.51 1303.51 L160.394 1303.51 L160.394 1309.39 L155.51 1309.39 L155.51 1303.51 Z" fill="#000000" fill-rule="nonzero" fill-opacity="1" /><path clip-path="url(#clip700)" d="M174.607 1305.45 L190.926 1305.45 L190.926 1309.39 L168.982 1309.39 L168.982 1305.45 Q171.644 1302.7 176.227 1298.07 Q180.834 1293.42 182.014 1292.07 Q184.26 1289.55 185.139 1287.81 Q186.042 1286.05 186.042 1284.36 Q186.042 1281.61 184.098 1279.87 Q182.176 1278.14 179.075 1278.14 Q176.876 1278.14 174.422 1278.9 Q171.991 1279.67 169.214 1281.22 L169.214 1276.49 Q172.038 1275.36 174.491 1274.78 Q176.945 1274.2 178.982 1274.2 Q184.352 1274.2 187.547 1276.89 Q190.741 1279.57 190.741 1284.06 Q190.741 1286.19 189.931 1288.11 Q189.144 1290.01 187.038 1292.61 Q186.459 1293.28 183.357 1296.49 Q180.255 1299.69 174.607 1305.45 Z" fill="#000000" fill-rule="nonzero" fill-opacity="1" /><path clip-path="url(#clip700)" d="M200.787 1274.83 L219.144 1274.83 L219.144 1278.76 L205.07 1278.76 L205.07 1287.23 Q206.088 1286.89 207.107 1286.73 Q208.125 1286.54 209.144 1286.54 Q214.931 1286.54 218.311 1289.71 Q221.69 1292.88 221.69 1298.3 Q221.69 1303.88 218.218 1306.98 Q214.746 1310.06 208.426 1310.06 Q206.25 1310.06 203.982 1309.69 Q201.737 1309.32 199.329 1308.58 L199.329 1303.88 Q201.412 1305.01 203.635 1305.57 Q205.857 1306.12 208.334 1306.12 Q212.338 1306.12 214.676 1304.02 Q217.014 1301.91 217.014 1298.3 Q217.014 1294.69 214.676 1292.58 Q212.338 1290.48 208.334 1290.48 Q206.459 1290.48 204.584 1290.89 Q202.732 1291.31 200.787 1292.19 L200.787 1274.83 Z" fill="#000000" fill-rule="nonzero" fill-opacity="1" /><path clip-path="url(#clip700)" d="M13.8626 874.796 L13.8626 857.64 L19.0825 857.64 L19.0825 874.796 L13.8626 874.796 Z" fill="#000000" fill-rule="nonzero" fill-opacity="1" /><path clip-path="url(#clip700)" d="M-13.1916 848.06 L-13.1916 841.631 L34.3284 841.631 L34.3284 848.06 L-13.1916 848.06 Z" fill="#000000" fill-rule="nonzero" fill-opacity="1" /><path clip-path="url(#clip700)" d="M5.52357 801.336 Q1.57683 799.14 -0.301054 796.084 Q-2.17894 793.028 -2.17894 788.891 Q-2.17894 783.321 1.73597 780.297 Q5.61905 777.273 12.8123 777.273 L34.3284 777.273 L34.3284 783.162 L13.0033 783.162 Q7.87888 783.162 5.39625 784.976 Q2.91363 786.79 2.91363 790.514 Q2.91363 795.066 5.93734 797.707 Q8.96105 800.349 14.1809 800.349 L34.3284 800.349 L34.3284 806.237 L13.0033 806.237 Q7.84705 806.237 5.39625 808.052 Q2.91363 809.866 2.91363 813.653 Q2.91363 818.141 5.96917 820.783 Q8.99288 823.425 14.1809 823.425 L34.3284 823.425 L34.3284 829.313 L-1.31957 829.313 L-1.31957 823.425 L4.2186 823.425 Q0.940259 821.42 -0.619339 818.619 Q-2.17894 815.818 -2.17894 811.966 Q-2.17894 808.083 -0.205568 805.378 Q1.7678 802.641 5.52357 801.336 Z" fill="#000000" fill-rule="nonzero" fill-opacity="1" /><path clip-path="url(#clip700)" d="M-13.1916 747.355 L-13.1916 710.02 L-8.29002 710.02 L28.9175 740.066 L28.9175 709.288 L34.3284 709.288 L34.3284 748.087 L29.4268 748.087 L-7.78076 718.04 L-7.78076 747.355 L-13.1916 747.355 Z" fill="#000000" fill-rule="nonzero" fill-opacity="1" /><path clip-path="url(#clip700)" d="M-13.1916 669.088 L-13.1916 663.677 L40.3758 680.228 L40.3758 685.639 L-13.1916 669.088 Z" fill="#000000" fill-rule="nonzero" fill-opacity="1" /><path clip-path="url(#clip700)" d="M28.6629 595.628 L34.3284 595.628 L34.3284 614.725 L28.6629 614.725 Q25.5755 609.091 20.292 605.94 Q15.0085 602.789 8.57911 602.789 Q0.940259 602.789 -3.67488 606.991 Q-8.29002 611.192 -8.29002 618.067 Q-8.29002 624.942 -3.64305 629.175 Q0.972088 633.377 8.57911 633.377 Q15.0085 633.377 20.292 630.226 Q25.5755 627.043 28.6629 621.377 L34.3284 621.377 L34.3284 640.474 L28.6629 640.474 L28.6629 630.321 Q24.2387 635.35 19.4963 637.673 Q14.7538 639.965 8.89739 639.965 Q-1.22408 639.965 -7.4943 633.854 Q-13.7645 627.775 -13.7645 618.067 Q-13.7645 608.423 -7.4943 602.28 Q-1.25591 596.169 8.57911 596.169 Q14.7538 596.169 19.4645 598.429 Q24.1751 600.689 28.6629 605.813 L28.6629 595.628 Z" fill="#000000" fill-rule="nonzero" fill-opacity="1" /><circle clip-path="url(#clip702)" cx="316.984" cy="1018.93" r="14.4" fill="#009af9" fill-rule="evenodd" fill-opacity="1" stroke="#000000" stroke-opacity="1" stroke-width="3.2"/>
<circle clip-path="url(#clip702)" cx="317.021" cy="1018.82" r="14.4" fill="#009af9" fill-rule="evenodd" fill-opacity="1" stroke="#000000" stroke-opacity="1" stroke-width="3.2"/>
<circle clip-path="url(#clip702)" cx="317.069" cy="1018.67" r="14.4" fill="#009af9" fill-rule="evenodd" fill-opacity="1" stroke="#000000" stroke-opacity="1" stroke-width="3.2"/>
<circle clip-path="url(#clip702)" cx="317.132" cy="1018.48" r="14.4" fill="#009af9" fill-rule="evenodd" fill-opacity="1" stroke="#000000" stroke-opacity="1" stroke-width="3.2"/>
<circle clip-path="url(#clip702)" cx="317.213" cy="1018.23" r="14.4" fill="#009af9" fill-rule="evenodd" fill-opacity="1" stroke="#000000" stroke-opacity="1" stroke-width="3.2"/>
<circle clip-path="url(#clip702)" cx="317.319" cy="1017.91" r="14.4" fill="#009af9" fill-rule="evenodd" fill-opacity="1" stroke="#000000" stroke-opacity="1" stroke-width="3.2"/>
<circle clip-path="url(#clip702)" cx="317.457" cy="1017.49" r="14.4" fill="#009af9" fill-rule="evenodd" fill-opacity="1" stroke="#000000" stroke-opacity="1" stroke-width="3.2"/>
<circle clip-path="url(#clip702)" cx="317.638" cy="1016.94" r="14.4" fill="#009af9" fill-rule="evenodd" fill-opacity="1" stroke="#000000" stroke-opacity="1" stroke-width="3.2"/>
<circle clip-path="url(#clip702)" cx="317.873" cy="1016.23" r="14.4" fill="#009af9" fill-rule="evenodd" fill-opacity="1" stroke="#000000" stroke-opacity="1" stroke-width="3.2"/>
<circle clip-path="url(#clip702)" cx="318.18" cy="1015.3" r="14.4" fill="#009af9" fill-rule="evenodd" fill-opacity="1" stroke="#000000" stroke-opacity="1" stroke-width="3.2"/>
<circle clip-path="url(#clip702)" cx="318.582" cy="1014.1" r="14.4" fill="#009af9" fill-rule="evenodd" fill-opacity="1" stroke="#000000" stroke-opacity="1" stroke-width="3.2"/>
<circle clip-path="url(#clip702)" cx="319.109" cy="1012.54" r="14.4" fill="#009af9" fill-rule="evenodd" fill-opacity="1" stroke="#000000" stroke-opacity="1" stroke-width="3.2"/>
<circle clip-path="url(#clip702)" cx="319.8" cy="1010.51" r="14.4" fill="#009af9" fill-rule="evenodd" fill-opacity="1" stroke="#000000" stroke-opacity="1" stroke-width="3.2"/>
<circle clip-path="url(#clip702)" cx="320.709" cy="1007.88" r="14.4" fill="#009af9" fill-rule="evenodd" fill-opacity="1" stroke="#000000" stroke-opacity="1" stroke-width="3.2"/>
<circle clip-path="url(#clip702)" cx="321.908" cy="1004.47" r="14.4" fill="#009af9" fill-rule="evenodd" fill-opacity="1" stroke="#000000" stroke-opacity="1" stroke-width="3.2"/>
<circle clip-path="url(#clip702)" cx="323.496" cy="1000.06" r="14.4" fill="#009af9" fill-rule="evenodd" fill-opacity="1" stroke="#000000" stroke-opacity="1" stroke-width="3.2"/>
<circle clip-path="url(#clip702)" cx="325.609" cy="994.359" r="14.4" fill="#009af9" fill-rule="evenodd" fill-opacity="1" stroke="#000000" stroke-opacity="1" stroke-width="3.2"/>
<circle clip-path="url(#clip702)" cx="328.436" cy="987.006" r="14.4" fill="#009af9" fill-rule="evenodd" fill-opacity="1" stroke="#000000" stroke-opacity="1" stroke-width="3.2"/>
<circle clip-path="url(#clip702)" cx="332.243" cy="977.552" r="14.4" fill="#009af9" fill-rule="evenodd" fill-opacity="1" stroke="#000000" stroke-opacity="1" stroke-width="3.2"/>
<circle clip-path="url(#clip702)" cx="337.404" cy="965.447" r="14.4" fill="#009af9" fill-rule="evenodd" fill-opacity="1" stroke="#000000" stroke-opacity="1" stroke-width="3.2"/>
<circle clip-path="url(#clip702)" cx="344.457" cy="950.035" r="14.4" fill="#009af9" fill-rule="evenodd" fill-opacity="1" stroke="#000000" stroke-opacity="1" stroke-width="3.2"/>
<circle clip-path="url(#clip702)" cx="354.168" cy="930.57" r="14.4" fill="#009af9" fill-rule="evenodd" fill-opacity="1" stroke="#000000" stroke-opacity="1" stroke-width="3.2"/>
<circle clip-path="url(#clip702)" cx="367.628" cy="906.263" r="14.4" fill="#009af9" fill-rule="evenodd" fill-opacity="1" stroke="#000000" stroke-opacity="1" stroke-width="3.2"/>
<circle clip-path="url(#clip702)" cx="386.365" cy="876.399" r="14.4" fill="#009af9" fill-rule="evenodd" fill-opacity="1" stroke="#000000" stroke-opacity="1" stroke-width="3.2"/>
<circle clip-path="url(#clip702)" cx="412.448" cy="840.566" r="14.4" fill="#009af9" fill-rule="evenodd" fill-opacity="1" stroke="#000000" stroke-opacity="1" stroke-width="3.2"/>
<circle clip-path="url(#clip702)" cx="448.512" cy="799.034" r="14.4" fill="#009af9" fill-rule="evenodd" fill-opacity="1" stroke="#000000" stroke-opacity="1" stroke-width="3.2"/>
<circle clip-path="url(#clip702)" cx="497.562" cy="753.3" r="14.4" fill="#009af9" fill-rule="evenodd" fill-opacity="1" stroke="#000000" stroke-opacity="1" stroke-width="3.2"/>
<circle clip-path="url(#clip702)" cx="562.35" cy="706.66" r="14.4" fill="#009af9" fill-rule="evenodd" fill-opacity="1" stroke="#000000" stroke-opacity="1" stroke-width="3.2"/>
<circle clip-path="url(#clip702)" cx="644.185" cy="664.439" r="14.4" fill="#009af9" fill-rule="evenodd" fill-opacity="1" stroke="#000000" stroke-opacity="1" stroke-width="3.2"/>
<circle clip-path="url(#clip702)" cx="741.432" cy="633.275" r="14.4" fill="#009af9" fill-rule="evenodd" fill-opacity="1" stroke="#000000" stroke-opacity="1" stroke-width="3.2"/>
<circle clip-path="url(#clip702)" cx="848.618" cy="619.134" r="14.4" fill="#009af9" fill-rule="evenodd" fill-opacity="1" stroke="#000000" stroke-opacity="1" stroke-width="3.2"/>
<circle clip-path="url(#clip702)" cx="957.263" cy="624.795" r="14.4" fill="#009af9" fill-rule="evenodd" fill-opacity="1" stroke="#000000" stroke-opacity="1" stroke-width="3.2"/>
<circle clip-path="url(#clip702)" cx="1058.53" cy="648.467" r="14.4" fill="#009af9" fill-rule="evenodd" fill-opacity="1" stroke="#000000" stroke-opacity="1" stroke-width="3.2"/>
<circle clip-path="url(#clip702)" cx="1146.11" cy="684.694" r="14.4" fill="#009af9" fill-rule="evenodd" fill-opacity="1" stroke="#000000" stroke-opacity="1" stroke-width="3.2"/>
<circle clip-path="url(#clip702)" cx="1217.49" cy="726.762" r="14.4" fill="#009af9" fill-rule="evenodd" fill-opacity="1" stroke="#000000" stroke-opacity="1" stroke-width="3.2"/>
<circle clip-path="url(#clip702)" cx="1273.39" cy="768.887" r="14.4" fill="#009af9" fill-rule="evenodd" fill-opacity="1" stroke="#000000" stroke-opacity="1" stroke-width="3.2"/>
<circle clip-path="url(#clip702)" cx="1316.33" cy="807.208" r="14.4" fill="#009af9" fill-rule="evenodd" fill-opacity="1" stroke="#000000" stroke-opacity="1" stroke-width="3.2"/>
<circle clip-path="url(#clip702)" cx="1349.33" cy="839.727" r="14.4" fill="#009af9" fill-rule="evenodd" fill-opacity="1" stroke="#000000" stroke-opacity="1" stroke-width="3.2"/>
<circle clip-path="url(#clip702)" cx="1375.17" cy="865.777" r="14.4" fill="#009af9" fill-rule="evenodd" fill-opacity="1" stroke="#000000" stroke-opacity="1" stroke-width="3.2"/>
<circle clip-path="url(#clip702)" cx="1396.16" cy="885.466" r="14.4" fill="#009af9" fill-rule="evenodd" fill-opacity="1" stroke="#000000" stroke-opacity="1" stroke-width="3.2"/>
<circle clip-path="url(#clip702)" cx="1414.05" cy="899.261" r="14.4" fill="#009af9" fill-rule="evenodd" fill-opacity="1" stroke="#000000" stroke-opacity="1" stroke-width="3.2"/>
<circle clip-path="url(#clip702)" cx="1430.21" cy="907.726" r="14.4" fill="#009af9" fill-rule="evenodd" fill-opacity="1" stroke="#000000" stroke-opacity="1" stroke-width="3.2"/>
<circle clip-path="url(#clip702)" cx="1445.66" cy="911.379" r="14.4" fill="#009af9" fill-rule="evenodd" fill-opacity="1" stroke="#000000" stroke-opacity="1" stroke-width="3.2"/>
<circle clip-path="url(#clip702)" cx="1461.24" cy="910.625" r="14.4" fill="#009af9" fill-rule="evenodd" fill-opacity="1" stroke="#000000" stroke-opacity="1" stroke-width="3.2"/>
<circle clip-path="url(#clip702)" cx="1477.67" cy="905.726" r="14.4" fill="#009af9" fill-rule="evenodd" fill-opacity="1" stroke="#000000" stroke-opacity="1" stroke-width="3.2"/>
<circle clip-path="url(#clip702)" cx="1495.57" cy="896.793" r="14.4" fill="#009af9" fill-rule="evenodd" fill-opacity="1" stroke="#000000" stroke-opacity="1" stroke-width="3.2"/>
<circle clip-path="url(#clip702)" cx="1515.57" cy="883.789" r="14.4" fill="#009af9" fill-rule="evenodd" fill-opacity="1" stroke="#000000" stroke-opacity="1" stroke-width="3.2"/>
<circle clip-path="url(#clip702)" cx="1538.3" cy="866.527" r="14.4" fill="#009af9" fill-rule="evenodd" fill-opacity="1" stroke="#000000" stroke-opacity="1" stroke-width="3.2"/>
<circle clip-path="url(#clip702)" cx="1564.44" cy="844.668" r="14.4" fill="#009af9" fill-rule="evenodd" fill-opacity="1" stroke="#000000" stroke-opacity="1" stroke-width="3.2"/>
<circle clip-path="url(#clip702)" cx="1594.76" cy="817.73" r="14.4" fill="#009af9" fill-rule="evenodd" fill-opacity="1" stroke="#000000" stroke-opacity="1" stroke-width="3.2"/>
<circle clip-path="url(#clip702)" cx="1630.05" cy="785.089" r="14.4" fill="#009af9" fill-rule="evenodd" fill-opacity="1" stroke="#000000" stroke-opacity="1" stroke-width="3.2"/>
<circle clip-path="url(#clip702)" cx="1671.21" cy="745.721" r="14.4" fill="#009af9" fill-rule="evenodd" fill-opacity="1" stroke="#000000" stroke-opacity="1" stroke-width="3.2"/>
<circle clip-path="url(#clip702)" cx="1720.01" cy="698.144" r="14.4" fill="#009af9" fill-rule="evenodd" fill-opacity="1" stroke="#000000" stroke-opacity="1" stroke-width="3.2"/>
<circle clip-path="url(#clip702)" cx="1779.6" cy="642.348" r="14.4" fill="#009af9" fill-rule="evenodd" fill-opacity="1" stroke="#000000" stroke-opacity="1" stroke-width="3.2"/>
<circle clip-path="url(#clip702)" cx="1851.17" cy="581.882" r="14.4" fill="#009af9" fill-rule="evenodd" fill-opacity="1" stroke="#000000" stroke-opacity="1" stroke-width="3.2"/>
<circle clip-path="url(#clip702)" cx="1928.45" cy="520.146" r="14.4" fill="#009af9" fill-rule="evenodd" fill-opacity="1" stroke="#000000" stroke-opacity="1" stroke-width="3.2"/>
<circle clip-path="url(#clip702)" cx="1998.84" cy="451.49" r="14.4" fill="#009af9" fill-rule="evenodd" fill-opacity="1" stroke="#000000" stroke-opacity="1" stroke-width="3.2"/>
<circle clip-path="url(#clip702)" cx="611.606" cy="1018.93" r="14.4" fill="#e26f46" fill-rule="evenodd" fill-opacity="1" stroke="#000000" stroke-opacity="1" stroke-width="3.2"/>
<circle clip-path="url(#clip702)" cx="611.642" cy="1018.82" r="14.4" fill="#e26f46" fill-rule="evenodd" fill-opacity="1" stroke="#000000" stroke-opacity="1" stroke-width="3.2"/>
<circle clip-path="url(#clip702)" cx="611.69" cy="1018.67" r="14.4" fill="#e26f46" fill-rule="evenodd" fill-opacity="1" stroke="#000000" stroke-opacity="1" stroke-width="3.2"/>
<circle clip-path="url(#clip702)" cx="611.753" cy="1018.48" r="14.4" fill="#e26f46" fill-rule="evenodd" fill-opacity="1" stroke="#000000" stroke-opacity="1" stroke-width="3.2"/>
<circle clip-path="url(#clip702)" cx="611.834" cy="1018.23" r="14.4" fill="#e26f46" fill-rule="evenodd" fill-opacity="1" stroke="#000000" stroke-opacity="1" stroke-width="3.2"/>
<circle clip-path="url(#clip702)" cx="611.94" cy="1017.91" r="14.4" fill="#e26f46" fill-rule="evenodd" fill-opacity="1" stroke="#000000" stroke-opacity="1" stroke-width="3.2"/>
<circle clip-path="url(#clip702)" cx="612.079" cy="1017.49" r="14.4" fill="#e26f46" fill-rule="evenodd" fill-opacity="1" stroke="#000000" stroke-opacity="1" stroke-width="3.2"/>
<circle clip-path="url(#clip702)" cx="612.259" cy="1016.94" r="14.4" fill="#e26f46" fill-rule="evenodd" fill-opacity="1" stroke="#000000" stroke-opacity="1" stroke-width="3.2"/>
<circle clip-path="url(#clip702)" cx="612.494" cy="1016.23" r="14.4" fill="#e26f46" fill-rule="evenodd" fill-opacity="1" stroke="#000000" stroke-opacity="1" stroke-width="3.2"/>
<circle clip-path="url(#clip702)" cx="612.802" cy="1015.3" r="14.4" fill="#e26f46" fill-rule="evenodd" fill-opacity="1" stroke="#000000" stroke-opacity="1" stroke-width="3.2"/>
<circle clip-path="url(#clip702)" cx="613.203" cy="1014.1" r="14.4" fill="#e26f46" fill-rule="evenodd" fill-opacity="1" stroke="#000000" stroke-opacity="1" stroke-width="3.2"/>
<circle clip-path="url(#clip702)" cx="613.73" cy="1012.54" r="14.4" fill="#e26f46" fill-rule="evenodd" fill-opacity="1" stroke="#000000" stroke-opacity="1" stroke-width="3.2"/>
<circle clip-path="url(#clip702)" cx="614.421" cy="1010.51" r="14.4" fill="#e26f46" fill-rule="evenodd" fill-opacity="1" stroke="#000000" stroke-opacity="1" stroke-width="3.2"/>
<circle clip-path="url(#clip702)" cx="615.33" cy="1007.88" r="14.4" fill="#e26f46" fill-rule="evenodd" fill-opacity="1" stroke="#000000" stroke-opacity="1" stroke-width="3.2"/>
<circle clip-path="url(#clip702)" cx="616.529" cy="1004.47" r="14.4" fill="#e26f46" fill-rule="evenodd" fill-opacity="1" stroke="#000000" stroke-opacity="1" stroke-width="3.2"/>
<circle clip-path="url(#clip702)" cx="618.117" cy="1000.06" r="14.4" fill="#e26f46" fill-rule="evenodd" fill-opacity="1" stroke="#000000" stroke-opacity="1" stroke-width="3.2"/>
<circle clip-path="url(#clip702)" cx="620.23" cy="994.359" r="14.4" fill="#e26f46" fill-rule="evenodd" fill-opacity="1" stroke="#000000" stroke-opacity="1" stroke-width="3.2"/>
<circle clip-path="url(#clip702)" cx="623.057" cy="987.006" r="14.4" fill="#e26f46" fill-rule="evenodd" fill-opacity="1" stroke="#000000" stroke-opacity="1" stroke-width="3.2"/>
<circle clip-path="url(#clip702)" cx="626.864" cy="977.552" r="14.4" fill="#e26f46" fill-rule="evenodd" fill-opacity="1" stroke="#000000" stroke-opacity="1" stroke-width="3.2"/>
<circle clip-path="url(#clip702)" cx="632.025" cy="965.447" r="14.4" fill="#e26f46" fill-rule="evenodd" fill-opacity="1" stroke="#000000" stroke-opacity="1" stroke-width="3.2"/>
<circle clip-path="url(#clip702)" cx="639.078" cy="950.035" r="14.4" fill="#e26f46" fill-rule="evenodd" fill-opacity="1" stroke="#000000" stroke-opacity="1" stroke-width="3.2"/>
<circle clip-path="url(#clip702)" cx="648.789" cy="930.57" r="14.4" fill="#e26f46" fill-rule="evenodd" fill-opacity="1" stroke="#000000" stroke-opacity="1" stroke-width="3.2"/>
<circle clip-path="url(#clip702)" cx="662.249" cy="906.263" r="14.4" fill="#e26f46" fill-rule="evenodd" fill-opacity="1" stroke="#000000" stroke-opacity="1" stroke-width="3.2"/>
<circle clip-path="url(#clip702)" cx="680.987" cy="876.399" r="14.4" fill="#e26f46" fill-rule="evenodd" fill-opacity="1" stroke="#000000" stroke-opacity="1" stroke-width="3.2"/>
<circle clip-path="url(#clip702)" cx="707.069" cy="840.566" r="14.4" fill="#e26f46" fill-rule="evenodd" fill-opacity="1" stroke="#000000" stroke-opacity="1" stroke-width="3.2"/>
<circle clip-path="url(#clip702)" cx="743.133" cy="799.034" r="14.4" fill="#e26f46" fill-rule="evenodd" fill-opacity="1" stroke="#000000" stroke-opacity="1" stroke-width="3.2"/>
<circle clip-path="url(#clip702)" cx="792.183" cy="753.3" r="14.4" fill="#e26f46" fill-rule="evenodd" fill-opacity="1" stroke="#000000" stroke-opacity="1" stroke-width="3.2"/>
<circle clip-path="url(#clip702)" cx="856.971" cy="706.66" r="14.4" fill="#e26f46" fill-rule="evenodd" fill-opacity="1" stroke="#000000" stroke-opacity="1" stroke-width="3.2"/>
<circle clip-path="url(#clip702)" cx="938.806" cy="664.439" r="14.4" fill="#e26f46" fill-rule="evenodd" fill-opacity="1" stroke="#000000" stroke-opacity="1" stroke-width="3.2"/>
<circle clip-path="url(#clip702)" cx="1036.05" cy="633.275" r="14.4" fill="#e26f46" fill-rule="evenodd" fill-opacity="1" stroke="#000000" stroke-opacity="1" stroke-width="3.2"/>
<circle clip-path="url(#clip702)" cx="1143.24" cy="619.134" r="14.4" fill="#e26f46" fill-rule="evenodd" fill-opacity="1" stroke="#000000" stroke-opacity="1" stroke-width="3.2"/>
<circle clip-path="url(#clip702)" cx="1251.88" cy="624.795" r="14.4" fill="#e26f46" fill-rule="evenodd" fill-opacity="1" stroke="#000000" stroke-opacity="1" stroke-width="3.2"/>
<circle clip-path="url(#clip702)" cx="1353.16" cy="648.467" r="14.4" fill="#e26f46" fill-rule="evenodd" fill-opacity="1" stroke="#000000" stroke-opacity="1" stroke-width="3.2"/>
<circle clip-path="url(#clip702)" cx="1440.73" cy="684.694" r="14.4" fill="#e26f46" fill-rule="evenodd" fill-opacity="1" stroke="#000000" stroke-opacity="1" stroke-width="3.2"/>
<circle clip-path="url(#clip702)" cx="1512.11" cy="726.762" r="14.4" fill="#e26f46" fill-rule="evenodd" fill-opacity="1" stroke="#000000" stroke-opacity="1" stroke-width="3.2"/>
<circle clip-path="url(#clip702)" cx="1568.01" cy="768.887" r="14.4" fill="#e26f46" fill-rule="evenodd" fill-opacity="1" stroke="#000000" stroke-opacity="1" stroke-width="3.2"/>
<circle clip-path="url(#clip702)" cx="1610.95" cy="807.208" r="14.4" fill="#e26f46" fill-rule="evenodd" fill-opacity="1" stroke="#000000" stroke-opacity="1" stroke-width="3.2"/>
<circle clip-path="url(#clip702)" cx="1643.95" cy="839.727" r="14.4" fill="#e26f46" fill-rule="evenodd" fill-opacity="1" stroke="#000000" stroke-opacity="1" stroke-width="3.2"/>
<circle clip-path="url(#clip702)" cx="1669.8" cy="865.777" r="14.4" fill="#e26f46" fill-rule="evenodd" fill-opacity="1" stroke="#000000" stroke-opacity="1" stroke-width="3.2"/>
<circle clip-path="url(#clip702)" cx="1690.78" cy="885.466" r="14.4" fill="#e26f46" fill-rule="evenodd" fill-opacity="1" stroke="#000000" stroke-opacity="1" stroke-width="3.2"/>
<circle clip-path="url(#clip702)" cx="1708.67" cy="899.261" r="14.4" fill="#e26f46" fill-rule="evenodd" fill-opacity="1" stroke="#000000" stroke-opacity="1" stroke-width="3.2"/>
<circle clip-path="url(#clip702)" cx="1724.83" cy="907.726" r="14.4" fill="#e26f46" fill-rule="evenodd" fill-opacity="1" stroke="#000000" stroke-opacity="1" stroke-width="3.2"/>
<circle clip-path="url(#clip702)" cx="1740.28" cy="911.379" r="14.4" fill="#e26f46" fill-rule="evenodd" fill-opacity="1" stroke="#000000" stroke-opacity="1" stroke-width="3.2"/>
<circle clip-path="url(#clip702)" cx="1755.87" cy="910.625" r="14.4" fill="#e26f46" fill-rule="evenodd" fill-opacity="1" stroke="#000000" stroke-opacity="1" stroke-width="3.2"/>
<circle clip-path="url(#clip702)" cx="1772.29" cy="905.726" r="14.4" fill="#e26f46" fill-rule="evenodd" fill-opacity="1" stroke="#000000" stroke-opacity="1" stroke-width="3.2"/>
<circle clip-path="url(#clip702)" cx="1790.19" cy="896.793" r="14.4" fill="#e26f46" fill-rule="evenodd" fill-opacity="1" stroke="#000000" stroke-opacity="1" stroke-width="3.2"/>
<circle clip-path="url(#clip702)" cx="1810.19" cy="883.789" r="14.4" fill="#e26f46" fill-rule="evenodd" fill-opacity="1" stroke="#000000" stroke-opacity="1" stroke-width="3.2"/>
<circle clip-path="url(#clip702)" cx="1832.92" cy="866.527" r="14.4" fill="#e26f46" fill-rule="evenodd" fill-opacity="1" stroke="#000000" stroke-opacity="1" stroke-width="3.2"/>
<circle clip-path="url(#clip702)" cx="1859.06" cy="844.668" r="14.4" fill="#e26f46" fill-rule="evenodd" fill-opacity="1" stroke="#000000" stroke-opacity="1" stroke-width="3.2"/>
<circle clip-path="url(#clip702)" cx="1889.38" cy="817.73" r="14.4" fill="#e26f46" fill-rule="evenodd" fill-opacity="1" stroke="#000000" stroke-opacity="1" stroke-width="3.2"/>
<circle clip-path="url(#clip702)" cx="1924.68" cy="785.089" r="14.4" fill="#e26f46" fill-rule="evenodd" fill-opacity="1" stroke="#000000" stroke-opacity="1" stroke-width="3.2"/>
<circle clip-path="url(#clip702)" cx="1965.84" cy="745.721" r="14.4" fill="#e26f46" fill-rule="evenodd" fill-opacity="1" stroke="#000000" stroke-opacity="1" stroke-width="3.2"/>
<circle clip-path="url(#clip702)" cx="2014.63" cy="698.144" r="14.4" fill="#e26f46" fill-rule="evenodd" fill-opacity="1" stroke="#000000" stroke-opacity="1" stroke-width="3.2"/>
<circle clip-path="url(#clip702)" cx="2074.23" cy="642.348" r="14.4" fill="#e26f46" fill-rule="evenodd" fill-opacity="1" stroke="#000000" stroke-opacity="1" stroke-width="3.2"/>
<circle clip-path="url(#clip702)" cx="2145.79" cy="581.882" r="14.4" fill="#e26f46" fill-rule="evenodd" fill-opacity="1" stroke="#000000" stroke-opacity="1" stroke-width="3.2"/>
<circle clip-path="url(#clip702)" cx="2223.07" cy="520.146" r="14.4" fill="#e26f46" fill-rule="evenodd" fill-opacity="1" stroke="#000000" stroke-opacity="1" stroke-width="3.2"/>
<circle clip-path="url(#clip702)" cx="2293.46" cy="451.49" r="14.4" fill="#e26f46" fill-rule="evenodd" fill-opacity="1" stroke="#000000" stroke-opacity="1" stroke-width="3.2"/>
</svg>
