<?xml version="1.0" encoding="utf-8"?>
<svg xmlns="http://www.w3.org/2000/svg" xmlns:xlink="http://www.w3.org/1999/xlink" width="600" height="400" viewBox="0 0 2400 1600">
<defs>
  <clipPath id="clip610">
    <rect x="0" y="0" width="2400" height="1600"/>
  </clipPath>
</defs>
<path clip-path="url(#clip610)" d="M0 1600 L2400 1600 L2400 8.88178e-14 L0 8.88178e-14  Z" fill="#ffffff" fill-rule="evenodd" fill-opacity="1"/>
<defs>
  <clipPath id="clip611">
    <rect x="480" y="0" width="1681" height="1600"/>
  </clipPath>
</defs>
<path clip-path="url(#clip610)" d="M287.366 1423.18 L2352.76 1423.18 L2352.76 47.2441 L287.366 47.2441  Z" fill="#ffffff" fill-rule="evenodd" fill-opacity="1"/>
<defs>
  <clipPath id="clip612">
    <rect x="287" y="47" width="2066" height="1377"/>
  </clipPath>
</defs>
<polyline clip-path="url(#clip612)" style="stroke:#000000; stroke-linecap:round; stroke-linejoin:round; stroke-width:2; stroke-opacity:0.1; fill:none" points="583.159,47.2441 583.159,1423.18 "/>
<polyline clip-path="url(#clip612)" style="stroke:#000000; stroke-linecap:round; stroke-linejoin:round; stroke-width:2; stroke-opacity:0.1; fill:none" points="1057.87,47.2441 1057.87,1423.18 "/>
<polyline clip-path="url(#clip612)" style="stroke:#000000; stroke-linecap:round; stroke-linejoin:round; stroke-width:2; stroke-opacity:0.1; fill:none" points="1532.58,47.2441 1532.58,1423.18 "/>
<polyline clip-path="url(#clip612)" style="stroke:#000000; stroke-linecap:round; stroke-linejoin:round; stroke-width:2; stroke-opacity:0.1; fill:none" points="2007.29,47.2441 2007.29,1423.18 "/>
<polyline clip-path="url(#clip612)" style="stroke:#000000; stroke-linecap:round; stroke-linejoin:round; stroke-width:2; stroke-opacity:0.1; fill:none" points="287.366,283.897 2352.76,283.897 "/>
<polyline clip-path="url(#clip612)" style="stroke:#000000; stroke-linecap:round; stroke-linejoin:round; stroke-width:2; stroke-opacity:0.1; fill:none" points="287.366,521.253 2352.76,521.253 "/>
<polyline clip-path="url(#clip612)" style="stroke:#000000; stroke-linecap:round; stroke-linejoin:round; stroke-width:2; stroke-opacity:0.1; fill:none" points="287.366,758.609 2352.76,758.609 "/>
<polyline clip-path="url(#clip612)" style="stroke:#000000; stroke-linecap:round; stroke-linejoin:round; stroke-width:2; stroke-opacity:0.1; fill:none" points="287.366,995.965 2352.76,995.965 "/>
<polyline clip-path="url(#clip612)" style="stroke:#000000; stroke-linecap:round; stroke-linejoin:round; stroke-width:2; stroke-opacity:0.1; fill:none" points="287.366,1233.32 2352.76,1233.32 "/>
<polyline clip-path="url(#clip610)" style="stroke:#000000; stroke-linecap:round; stroke-linejoin:round; stroke-width:4; stroke-opacity:1; fill:none" points="287.366,1423.18 2352.76,1423.18 "/>
<polyline clip-path="url(#clip610)" style="stroke:#000000; stroke-linecap:round; stroke-linejoin:round; stroke-width:4; stroke-opacity:1; fill:none" points="583.159,1423.18 583.159,1404.28 "/>
<polyline clip-path="url(#clip610)" style="stroke:#000000; stroke-linecap:round; stroke-linejoin:round; stroke-width:4; stroke-opacity:1; fill:none" points="1057.87,1423.18 1057.87,1404.28 "/>
<polyline clip-path="url(#clip610)" style="stroke:#000000; stroke-linecap:round; stroke-linejoin:round; stroke-width:4; stroke-opacity:1; fill:none" points="1532.58,1423.18 1532.58,1404.28 "/>
<polyline clip-path="url(#clip610)" style="stroke:#000000; stroke-linecap:round; stroke-linejoin:round; stroke-width:4; stroke-opacity:1; fill:none" points="2007.29,1423.18 2007.29,1404.28 "/>
<path clip-path="url(#clip610)" d="M561.041 1454.1 Q557.43 1454.1 555.602 1457.66 Q553.796 1461.2 553.796 1468.33 Q553.796 1475.44 555.602 1479.01 Q557.43 1482.55 561.041 1482.55 Q564.676 1482.55 566.481 1479.01 Q568.31 1475.44 568.31 1468.33 Q568.31 1461.2 566.481 1457.66 Q564.676 1454.1 561.041 1454.1 M561.041 1450.39 Q566.852 1450.39 569.907 1455 Q572.986 1459.58 572.986 1468.33 Q572.986 1477.06 569.907 1481.67 Q566.852 1486.25 561.041 1486.25 Q555.231 1486.25 552.153 1481.67 Q549.097 1477.06 549.097 1468.33 Q549.097 1459.58 552.153 1455 Q555.231 1450.39 561.041 1450.39 Z" fill="#000000" fill-rule="nonzero" fill-opacity="1" /><path clip-path="url(#clip610)" d="M581.203 1479.7 L586.088 1479.7 L586.088 1485.58 L581.203 1485.58 L581.203 1479.7 Z" fill="#000000" fill-rule="nonzero" fill-opacity="1" /><path clip-path="url(#clip610)" d="M596.319 1451.02 L614.675 1451.02 L614.675 1454.96 L600.601 1454.96 L600.601 1463.43 Q601.62 1463.08 602.638 1462.92 Q603.657 1462.73 604.675 1462.73 Q610.462 1462.73 613.842 1465.9 Q617.222 1469.08 617.222 1474.49 Q617.222 1480.07 613.749 1483.17 Q610.277 1486.25 603.958 1486.25 Q601.782 1486.25 599.513 1485.88 Q597.268 1485.51 594.861 1484.77 L594.861 1480.07 Q596.944 1481.2 599.166 1481.76 Q601.388 1482.32 603.865 1482.32 Q607.87 1482.32 610.208 1480.21 Q612.546 1478.1 612.546 1474.49 Q612.546 1470.88 610.208 1468.77 Q607.87 1466.67 603.865 1466.67 Q601.99 1466.67 600.115 1467.08 Q598.263 1467.5 596.319 1468.38 L596.319 1451.02 Z" fill="#000000" fill-rule="nonzero" fill-opacity="1" /><path clip-path="url(#clip610)" d="M1025.02 1481.64 L1032.66 1481.64 L1032.66 1455.28 L1024.35 1456.95 L1024.35 1452.69 L1032.62 1451.02 L1037.29 1451.02 L1037.29 1481.64 L1044.93 1481.64 L1044.93 1485.58 L1025.02 1485.58 L1025.02 1481.64 Z" fill="#000000" fill-rule="nonzero" fill-opacity="1" /><path clip-path="url(#clip610)" d="M1054.38 1479.7 L1059.26 1479.7 L1059.26 1485.58 L1054.38 1485.58 L1054.38 1479.7 Z" fill="#000000" fill-rule="nonzero" fill-opacity="1" /><path clip-path="url(#clip610)" d="M1079.45 1454.1 Q1075.83 1454.1 1074.01 1457.66 Q1072.2 1461.2 1072.2 1468.33 Q1072.2 1475.44 1074.01 1479.01 Q1075.83 1482.55 1079.45 1482.55 Q1083.08 1482.55 1084.88 1479.01 Q1086.71 1475.44 1086.71 1468.33 Q1086.71 1461.2 1084.88 1457.66 Q1083.08 1454.1 1079.45 1454.1 M1079.45 1450.39 Q1085.26 1450.39 1088.31 1455 Q1091.39 1459.58 1091.39 1468.33 Q1091.39 1477.06 1088.31 1481.67 Q1085.26 1486.25 1079.45 1486.25 Q1073.63 1486.25 1070.56 1481.67 Q1067.5 1477.06 1067.5 1468.33 Q1067.5 1459.58 1070.56 1455 Q1073.63 1450.39 1079.45 1450.39 Z" fill="#000000" fill-rule="nonzero" fill-opacity="1" /><path clip-path="url(#clip610)" d="M1500.23 1481.64 L1507.87 1481.64 L1507.87 1455.28 L1499.56 1456.95 L1499.56 1452.69 L1507.83 1451.02 L1512.5 1451.02 L1512.5 1481.64 L1520.14 1481.64 L1520.14 1485.58 L1500.23 1485.58 L1500.23 1481.64 Z" fill="#000000" fill-rule="nonzero" fill-opacity="1" /><path clip-path="url(#clip610)" d="M1529.59 1479.7 L1534.47 1479.7 L1534.47 1485.58 L1529.59 1485.58 L1529.59 1479.7 Z" fill="#000000" fill-rule="nonzero" fill-opacity="1" /><path clip-path="url(#clip610)" d="M1544.7 1451.02 L1563.06 1451.02 L1563.06 1454.96 L1548.98 1454.96 L1548.98 1463.43 Q1550 1463.08 1551.02 1462.92 Q1552.04 1462.73 1553.06 1462.73 Q1558.84 1462.73 1562.22 1465.9 Q1565.6 1469.08 1565.6 1474.49 Q1565.6 1480.07 1562.13 1483.17 Q1558.66 1486.25 1552.34 1486.25 Q1550.16 1486.25 1547.9 1485.88 Q1545.65 1485.51 1543.24 1484.77 L1543.24 1480.07 Q1545.33 1481.2 1547.55 1481.76 Q1549.77 1482.32 1552.25 1482.32 Q1556.25 1482.32 1558.59 1480.21 Q1560.93 1478.1 1560.93 1474.49 Q1560.93 1470.88 1558.59 1468.77 Q1556.25 1466.67 1552.25 1466.67 Q1550.37 1466.67 1548.5 1467.08 Q1546.65 1467.5 1544.7 1468.38 L1544.7 1451.02 Z" fill="#000000" fill-rule="nonzero" fill-opacity="1" /><path clip-path="url(#clip610)" d="M1978.53 1481.64 L1994.85 1481.64 L1994.85 1485.58 L1972.91 1485.58 L1972.91 1481.64 Q1975.57 1478.89 1980.15 1474.26 Q1984.76 1469.61 1985.94 1468.27 Q1988.19 1465.74 1989.07 1464.01 Q1989.97 1462.25 1989.97 1460.56 Q1989.97 1457.8 1988.02 1456.07 Q1986.1 1454.33 1983 1454.33 Q1980.8 1454.33 1978.35 1455.09 Q1975.92 1455.86 1973.14 1457.41 L1973.14 1452.69 Q1975.96 1451.55 1978.42 1450.97 Q1980.87 1450.39 1982.91 1450.39 Q1988.28 1450.39 1991.47 1453.08 Q1994.67 1455.77 1994.67 1460.26 Q1994.67 1462.39 1993.86 1464.31 Q1993.07 1466.2 1990.96 1468.8 Q1990.38 1469.47 1987.28 1472.69 Q1984.18 1475.88 1978.53 1481.64 Z" fill="#000000" fill-rule="nonzero" fill-opacity="1" /><path clip-path="url(#clip610)" d="M2004.67 1479.7 L2009.55 1479.7 L2009.55 1485.58 L2004.67 1485.58 L2004.67 1479.7 Z" fill="#000000" fill-rule="nonzero" fill-opacity="1" /><path clip-path="url(#clip610)" d="M2029.74 1454.1 Q2026.13 1454.1 2024.3 1457.66 Q2022.49 1461.2 2022.49 1468.33 Q2022.49 1475.44 2024.3 1479.01 Q2026.13 1482.55 2029.74 1482.55 Q2033.37 1482.55 2035.18 1479.01 Q2037 1475.44 2037 1468.33 Q2037 1461.2 2035.18 1457.66 Q2033.37 1454.1 2029.74 1454.1 M2029.74 1450.39 Q2035.55 1450.39 2038.6 1455 Q2041.68 1459.58 2041.68 1468.33 Q2041.68 1477.06 2038.6 1481.67 Q2035.55 1486.25 2029.74 1486.25 Q2023.93 1486.25 2020.85 1481.67 Q2017.79 1477.06 2017.79 1468.33 Q2017.79 1459.58 2020.85 1455 Q2023.93 1450.39 2029.74 1450.39 Z" fill="#000000" fill-rule="nonzero" fill-opacity="1" /><path clip-path="url(#clip610)" d="M1216.51 1545.76 Q1218.58 1546.46 1220.52 1548.76 Q1222.49 1551.05 1224.46 1555.06 L1230.99 1568.04 L1224.08 1568.04 L1218 1555.85 Q1215.65 1551.08 1213.42 1549.52 Q1211.22 1547.96 1207.4 1547.96 L1200.4 1547.96 L1200.4 1568.04 L1193.97 1568.04 L1193.97 1520.52 L1208.49 1520.52 Q1216.63 1520.52 1220.64 1523.93 Q1224.65 1527.34 1224.65 1534.21 Q1224.65 1538.7 1222.55 1541.66 Q1220.49 1544.62 1216.51 1545.76 M1200.4 1525.81 L1200.4 1542.68 L1208.49 1542.68 Q1213.13 1542.68 1215.49 1540.54 Q1217.88 1538.38 1217.88 1534.21 Q1217.88 1530.04 1215.49 1527.94 Q1213.13 1525.81 1208.49 1525.81 L1200.4 1525.81 Z" fill="#000000" fill-rule="nonzero" fill-opacity="1" /><path clip-path="url(#clip610)" d="M1266.57 1548.76 L1266.57 1551.62 L1239.65 1551.62 Q1240.03 1557.67 1243.27 1560.85 Q1246.55 1564 1252.38 1564 Q1255.75 1564 1258.9 1563.17 Q1262.09 1562.35 1265.2 1560.69 L1265.2 1566.23 Q1262.05 1567.57 1258.74 1568.27 Q1255.43 1568.97 1252.03 1568.97 Q1243.5 1568.97 1238.5 1564 Q1233.54 1559.04 1233.54 1550.57 Q1233.54 1541.82 1238.25 1536.69 Q1242.99 1531.54 1251.01 1531.54 Q1258.2 1531.54 1262.37 1536.18 Q1266.57 1540.8 1266.57 1548.76 M1260.72 1547.04 Q1260.65 1542.23 1258.01 1539.37 Q1255.4 1536.5 1251.07 1536.5 Q1246.17 1536.5 1243.21 1539.27 Q1240.28 1542.04 1239.84 1547.07 L1260.72 1547.04 Z" fill="#000000" fill-rule="nonzero" fill-opacity="1" /><path clip-path="url(#clip610)" d="M1294.42 1520.52 L1331.76 1520.52 L1331.76 1525.43 L1301.71 1562.63 L1332.49 1562.63 L1332.49 1568.04 L1293.69 1568.04 L1293.69 1563.14 L1323.74 1525.93 L1294.42 1525.93 L1294.42 1520.52 Z" fill="#000000" fill-rule="nonzero" fill-opacity="1" /><path clip-path="url(#clip610)" d="M1372.69 1520.52 L1378.1 1520.52 L1361.55 1574.09 L1356.14 1574.09 L1372.69 1520.52 Z" fill="#000000" fill-rule="nonzero" fill-opacity="1" /><path clip-path="url(#clip610)" d="M1446.15 1562.38 L1446.15 1568.04 L1427.05 1568.04 L1427.05 1562.38 Q1432.69 1559.29 1435.84 1554.01 Q1438.99 1548.72 1438.99 1542.29 Q1438.99 1534.66 1434.79 1530.04 Q1430.59 1525.43 1423.71 1525.43 Q1416.84 1525.43 1412.6 1530.07 Q1408.4 1534.69 1408.4 1542.29 Q1408.4 1548.72 1411.55 1554.01 Q1414.73 1559.29 1420.4 1562.38 L1420.4 1568.04 L1401.3 1568.04 L1401.3 1562.38 L1411.46 1562.38 Q1406.43 1557.95 1404.1 1553.21 Q1401.81 1548.47 1401.81 1542.61 Q1401.81 1532.49 1407.92 1526.22 Q1414 1519.95 1423.71 1519.95 Q1433.35 1519.95 1439.5 1526.22 Q1445.61 1532.46 1445.61 1542.29 Q1445.61 1548.47 1443.35 1553.18 Q1441.09 1557.89 1435.96 1562.38 L1446.15 1562.38 Z" fill="#000000" fill-rule="nonzero" fill-opacity="1" /><polyline clip-path="url(#clip610)" style="stroke:#000000; stroke-linecap:round; stroke-linejoin:round; stroke-width:4; stroke-opacity:1; fill:none" points="287.366,47.2441 287.366,1423.18 "/>
<polyline clip-path="url(#clip610)" style="stroke:#000000; stroke-linecap:round; stroke-linejoin:round; stroke-width:4; stroke-opacity:1; fill:none" points="287.366,283.897 306.264,283.897 "/>
<polyline clip-path="url(#clip610)" style="stroke:#000000; stroke-linecap:round; stroke-linejoin:round; stroke-width:4; stroke-opacity:1; fill:none" points="287.366,521.253 306.264,521.253 "/>
<polyline clip-path="url(#clip610)" style="stroke:#000000; stroke-linecap:round; stroke-linejoin:round; stroke-width:4; stroke-opacity:1; fill:none" points="287.366,758.609 306.264,758.609 "/>
<polyline clip-path="url(#clip610)" style="stroke:#000000; stroke-linecap:round; stroke-linejoin:round; stroke-width:4; stroke-opacity:1; fill:none" points="287.366,995.965 306.264,995.965 "/>
<polyline clip-path="url(#clip610)" style="stroke:#000000; stroke-linecap:round; stroke-linejoin:round; stroke-width:4; stroke-opacity:1; fill:none" points="287.366,1233.32 306.264,1233.32 "/>
<path clip-path="url(#clip610)" d="M114.26 284.349 L143.936 284.349 L143.936 288.284 L114.26 288.284 L114.26 284.349 Z" fill="#000000" fill-rule="nonzero" fill-opacity="1" /><path clip-path="url(#clip610)" d="M154.839 297.242 L162.477 297.242 L162.477 270.877 L154.167 272.543 L154.167 268.284 L162.431 266.617 L167.107 266.617 L167.107 297.242 L174.746 297.242 L174.746 301.177 L154.839 301.177 L154.839 297.242 Z" fill="#000000" fill-rule="nonzero" fill-opacity="1" /><path clip-path="url(#clip610)" d="M184.19 295.298 L189.075 295.298 L189.075 301.177 L184.19 301.177 L184.19 295.298 Z" fill="#000000" fill-rule="nonzero" fill-opacity="1" /><path clip-path="url(#clip610)" d="M209.26 269.696 Q205.649 269.696 203.82 273.261 Q202.014 276.803 202.014 283.932 Q202.014 291.039 203.82 294.603 Q205.649 298.145 209.26 298.145 Q212.894 298.145 214.699 294.603 Q216.528 291.039 216.528 283.932 Q216.528 276.803 214.699 273.261 Q212.894 269.696 209.26 269.696 M209.26 265.992 Q215.07 265.992 218.125 270.599 Q221.204 275.182 221.204 283.932 Q221.204 292.659 218.125 297.265 Q215.07 301.849 209.26 301.849 Q203.449 301.849 200.371 297.265 Q197.315 292.659 197.315 283.932 Q197.315 275.182 200.371 270.599 Q203.449 265.992 209.26 265.992 Z" fill="#000000" fill-rule="nonzero" fill-opacity="1" /><path clip-path="url(#clip610)" d="M239.422 269.696 Q235.81 269.696 233.982 273.261 Q232.176 276.803 232.176 283.932 Q232.176 291.039 233.982 294.603 Q235.81 298.145 239.422 298.145 Q243.056 298.145 244.861 294.603 Q246.69 291.039 246.69 283.932 Q246.69 276.803 244.861 273.261 Q243.056 269.696 239.422 269.696 M239.422 265.992 Q245.232 265.992 248.287 270.599 Q251.366 275.182 251.366 283.932 Q251.366 292.659 248.287 297.265 Q245.232 301.849 239.422 301.849 Q233.611 301.849 230.533 297.265 Q227.477 292.659 227.477 283.932 Q227.477 275.182 230.533 270.599 Q233.611 265.992 239.422 265.992 Z" fill="#000000" fill-rule="nonzero" fill-opacity="1" /><path clip-path="url(#clip610)" d="M115.256 521.705 L144.931 521.705 L144.931 525.64 L115.256 525.64 L115.256 521.705 Z" fill="#000000" fill-rule="nonzero" fill-opacity="1" /><path clip-path="url(#clip610)" d="M165.024 507.052 Q161.413 507.052 159.584 510.617 Q157.778 514.158 157.778 521.288 Q157.778 528.395 159.584 531.959 Q161.413 535.501 165.024 535.501 Q168.658 535.501 170.464 531.959 Q172.292 528.395 172.292 521.288 Q172.292 514.158 170.464 510.617 Q168.658 507.052 165.024 507.052 M165.024 503.348 Q170.834 503.348 173.889 507.955 Q176.968 512.538 176.968 521.288 Q176.968 530.015 173.889 534.621 Q170.834 539.205 165.024 539.205 Q159.214 539.205 156.135 534.621 Q153.079 530.015 153.079 521.288 Q153.079 512.538 156.135 507.955 Q159.214 503.348 165.024 503.348 Z" fill="#000000" fill-rule="nonzero" fill-opacity="1" /><path clip-path="url(#clip610)" d="M185.186 532.654 L190.07 532.654 L190.07 538.533 L185.186 538.533 L185.186 532.654 Z" fill="#000000" fill-rule="nonzero" fill-opacity="1" /><path clip-path="url(#clip610)" d="M199.075 503.973 L221.297 503.973 L221.297 505.964 L208.75 538.533 L203.866 538.533 L215.672 507.909 L199.075 507.909 L199.075 503.973 Z" fill="#000000" fill-rule="nonzero" fill-opacity="1" /><path clip-path="url(#clip610)" d="M230.463 503.973 L248.82 503.973 L248.82 507.909 L234.746 507.909 L234.746 516.381 Q235.764 516.033 236.783 515.871 Q237.801 515.686 238.82 515.686 Q244.607 515.686 247.986 518.858 Q251.366 522.029 251.366 527.445 Q251.366 533.024 247.894 536.126 Q244.421 539.205 238.102 539.205 Q235.926 539.205 233.658 538.834 Q231.412 538.464 229.005 537.723 L229.005 533.024 Q231.088 534.158 233.31 534.714 Q235.533 535.269 238.009 535.269 Q242.014 535.269 244.352 533.163 Q246.69 531.057 246.69 527.445 Q246.69 523.834 244.352 521.728 Q242.014 519.621 238.009 519.621 Q236.135 519.621 234.26 520.038 Q232.408 520.455 230.463 521.334 L230.463 503.973 Z" fill="#000000" fill-rule="nonzero" fill-opacity="1" /><path clip-path="url(#clip610)" d="M114.26 759.061 L143.936 759.061 L143.936 762.996 L114.26 762.996 L114.26 759.061 Z" fill="#000000" fill-rule="nonzero" fill-opacity="1" /><path clip-path="url(#clip610)" d="M164.028 744.408 Q160.417 744.408 158.589 747.973 Q156.783 751.514 156.783 758.644 Q156.783 765.75 158.589 769.315 Q160.417 772.857 164.028 772.857 Q167.663 772.857 169.468 769.315 Q171.297 765.75 171.297 758.644 Q171.297 751.514 169.468 747.973 Q167.663 744.408 164.028 744.408 M164.028 740.704 Q169.839 740.704 172.894 745.311 Q175.973 749.894 175.973 758.644 Q175.973 767.371 172.894 771.977 Q169.839 776.56 164.028 776.56 Q158.218 776.56 155.14 771.977 Q152.084 767.371 152.084 758.644 Q152.084 749.894 155.14 745.311 Q158.218 740.704 164.028 740.704 Z" fill="#000000" fill-rule="nonzero" fill-opacity="1" /><path clip-path="url(#clip610)" d="M184.19 770.01 L189.075 770.01 L189.075 775.889 L184.19 775.889 L184.19 770.01 Z" fill="#000000" fill-rule="nonzero" fill-opacity="1" /><path clip-path="url(#clip610)" d="M199.306 741.329 L217.662 741.329 L217.662 745.264 L203.588 745.264 L203.588 753.737 Q204.607 753.389 205.625 753.227 Q206.644 753.042 207.662 753.042 Q213.449 753.042 216.829 756.213 Q220.209 759.385 220.209 764.801 Q220.209 770.38 216.736 773.482 Q213.264 776.56 206.945 776.56 Q204.769 776.56 202.5 776.19 Q200.255 775.82 197.848 775.079 L197.848 770.38 Q199.931 771.514 202.153 772.07 Q204.375 772.625 206.852 772.625 Q210.857 772.625 213.195 770.519 Q215.533 768.412 215.533 764.801 Q215.533 761.19 213.195 759.084 Q210.857 756.977 206.852 756.977 Q204.977 756.977 203.102 757.394 Q201.25 757.811 199.306 758.69 L199.306 741.329 Z" fill="#000000" fill-rule="nonzero" fill-opacity="1" /><path clip-path="url(#clip610)" d="M239.422 744.408 Q235.81 744.408 233.982 747.973 Q232.176 751.514 232.176 758.644 Q232.176 765.75 233.982 769.315 Q235.81 772.857 239.422 772.857 Q243.056 772.857 244.861 769.315 Q246.69 765.75 246.69 758.644 Q246.69 751.514 244.861 747.973 Q243.056 744.408 239.422 744.408 M239.422 740.704 Q245.232 740.704 248.287 745.311 Q251.366 749.894 251.366 758.644 Q251.366 767.371 248.287 771.977 Q245.232 776.56 239.422 776.56 Q233.611 776.56 230.533 771.977 Q227.477 767.371 227.477 758.644 Q227.477 749.894 230.533 745.311 Q233.611 740.704 239.422 740.704 Z" fill="#000000" fill-rule="nonzero" fill-opacity="1" /><path clip-path="url(#clip610)" d="M115.256 996.416 L144.931 996.416 L144.931 1000.35 L115.256 1000.35 L115.256 996.416 Z" fill="#000000" fill-rule="nonzero" fill-opacity="1" /><path clip-path="url(#clip610)" d="M165.024 981.764 Q161.413 981.764 159.584 985.329 Q157.778 988.87 157.778 996 Q157.778 1003.11 159.584 1006.67 Q161.413 1010.21 165.024 1010.21 Q168.658 1010.21 170.464 1006.67 Q172.292 1003.11 172.292 996 Q172.292 988.87 170.464 985.329 Q168.658 981.764 165.024 981.764 M165.024 978.06 Q170.834 978.06 173.889 982.667 Q176.968 987.25 176.968 996 Q176.968 1004.73 173.889 1009.33 Q170.834 1013.92 165.024 1013.92 Q159.214 1013.92 156.135 1009.33 Q153.079 1004.73 153.079 996 Q153.079 987.25 156.135 982.667 Q159.214 978.06 165.024 978.06 Z" fill="#000000" fill-rule="nonzero" fill-opacity="1" /><path clip-path="url(#clip610)" d="M185.186 1007.37 L190.07 1007.37 L190.07 1013.25 L185.186 1013.25 L185.186 1007.37 Z" fill="#000000" fill-rule="nonzero" fill-opacity="1" /><path clip-path="url(#clip610)" d="M204.283 1009.31 L220.602 1009.31 L220.602 1013.25 L198.658 1013.25 L198.658 1009.31 Q201.32 1006.56 205.903 1001.93 Q210.51 997.273 211.69 995.93 Q213.936 993.407 214.815 991.671 Q215.718 989.912 215.718 988.222 Q215.718 985.467 213.774 983.731 Q211.852 981.995 208.75 981.995 Q206.551 981.995 204.098 982.759 Q201.667 983.523 198.889 985.074 L198.889 980.352 Q201.713 979.217 204.167 978.639 Q206.621 978.06 208.658 978.06 Q214.028 978.06 217.223 980.745 Q220.417 983.43 220.417 987.921 Q220.417 990.051 219.607 991.972 Q218.82 993.87 216.713 996.463 Q216.135 997.134 213.033 1000.35 Q209.931 1003.55 204.283 1009.31 Z" fill="#000000" fill-rule="nonzero" fill-opacity="1" /><path clip-path="url(#clip610)" d="M230.463 978.685 L248.82 978.685 L248.82 982.62 L234.746 982.62 L234.746 991.092 Q235.764 990.745 236.783 990.583 Q237.801 990.398 238.82 990.398 Q244.607 990.398 247.986 993.569 Q251.366 996.741 251.366 1002.16 Q251.366 1007.74 247.894 1010.84 Q244.421 1013.92 238.102 1013.92 Q235.926 1013.92 233.658 1013.55 Q231.412 1013.18 229.005 1012.43 L229.005 1007.74 Q231.088 1008.87 233.31 1009.43 Q235.533 1009.98 238.009 1009.98 Q242.014 1009.98 244.352 1007.87 Q246.69 1005.77 246.69 1002.16 Q246.69 998.546 244.352 996.44 Q242.014 994.333 238.009 994.333 Q236.135 994.333 234.26 994.75 Q232.408 995.166 230.463 996.046 L230.463 978.685 Z" fill="#000000" fill-rule="nonzero" fill-opacity="1" /><path clip-path="url(#clip610)" d="M164.028 1219.12 Q160.417 1219.12 158.589 1222.68 Q156.783 1226.23 156.783 1233.36 Q156.783 1240.46 158.589 1244.03 Q160.417 1247.57 164.028 1247.57 Q167.663 1247.57 169.468 1244.03 Q171.297 1240.46 171.297 1233.36 Q171.297 1226.23 169.468 1222.68 Q167.663 1219.12 164.028 1219.12 M164.028 1215.42 Q169.839 1215.42 172.894 1220.02 Q175.973 1224.61 175.973 1233.36 Q175.973 1242.08 172.894 1246.69 Q169.839 1251.27 164.028 1251.27 Q158.218 1251.27 155.14 1246.69 Q152.084 1242.08 152.084 1233.36 Q152.084 1224.61 155.14 1220.02 Q158.218 1215.42 164.028 1215.42 Z" fill="#000000" fill-rule="nonzero" fill-opacity="1" /><path clip-path="url(#clip610)" d="M184.19 1244.72 L189.075 1244.72 L189.075 1250.6 L184.19 1250.6 L184.19 1244.72 Z" fill="#000000" fill-rule="nonzero" fill-opacity="1" /><path clip-path="url(#clip610)" d="M209.26 1219.12 Q205.649 1219.12 203.82 1222.68 Q202.014 1226.23 202.014 1233.36 Q202.014 1240.46 203.82 1244.03 Q205.649 1247.57 209.26 1247.57 Q212.894 1247.57 214.699 1244.03 Q216.528 1240.46 216.528 1233.36 Q216.528 1226.23 214.699 1222.68 Q212.894 1219.12 209.26 1219.12 M209.26 1215.42 Q215.07 1215.42 218.125 1220.02 Q221.204 1224.61 221.204 1233.36 Q221.204 1242.08 218.125 1246.69 Q215.07 1251.27 209.26 1251.27 Q203.449 1251.27 200.371 1246.69 Q197.315 1242.08 197.315 1233.36 Q197.315 1224.61 200.371 1220.02 Q203.449 1215.42 209.26 1215.42 Z" fill="#000000" fill-rule="nonzero" fill-opacity="1" /><path clip-path="url(#clip610)" d="M239.422 1219.12 Q235.81 1219.12 233.982 1222.68 Q232.176 1226.23 232.176 1233.36 Q232.176 1240.46 233.982 1244.03 Q235.81 1247.57 239.422 1247.57 Q243.056 1247.57 244.861 1244.03 Q246.69 1240.46 246.69 1233.36 Q246.69 1226.23 244.861 1222.68 Q243.056 1219.12 239.422 1219.12 M239.422 1215.42 Q245.232 1215.42 248.287 1220.02 Q251.366 1224.61 251.366 1233.36 Q251.366 1242.08 248.287 1246.69 Q245.232 1251.27 239.422 1251.27 Q233.611 1251.27 230.533 1246.69 Q227.477 1242.08 227.477 1233.36 Q227.477 1224.61 230.533 1220.02 Q233.611 1215.42 239.422 1215.42 Z" fill="#000000" fill-rule="nonzero" fill-opacity="1" /><path clip-path="url(#clip610)" d="M43.5384 874.796 L43.5384 857.64 L48.7583 857.64 L48.7583 874.796 L43.5384 874.796 Z" fill="#000000" fill-rule="nonzero" fill-opacity="1" /><path clip-path="url(#clip610)" d="M16.4842 848.06 L16.4842 841.631 L64.0042 841.631 L64.0042 848.06 L16.4842 848.06 Z" fill="#000000" fill-rule="nonzero" fill-opacity="1" /><path clip-path="url(#clip610)" d="M35.1993 801.336 Q31.2526 799.14 29.3747 796.084 Q27.4968 793.028 27.4968 788.891 Q27.4968 783.321 31.4117 780.297 Q35.2948 777.273 42.4881 777.273 L64.0042 777.273 L64.0042 783.162 L42.679 783.162 Q37.5546 783.162 35.072 784.976 Q32.5894 786.79 32.5894 790.514 Q32.5894 795.066 35.6131 797.707 Q38.6368 800.349 43.8567 800.349 L64.0042 800.349 L64.0042 806.237 L42.679 806.237 Q37.5228 806.237 35.072 808.052 Q32.5894 809.866 32.5894 813.653 Q32.5894 818.141 35.6449 820.783 Q38.6686 823.425 43.8567 823.425 L64.0042 823.425 L64.0042 829.313 L28.3562 829.313 L28.3562 823.425 L33.8944 823.425 Q30.616 821.42 29.0564 818.619 Q27.4968 815.818 27.4968 811.966 Q27.4968 808.083 29.4702 805.378 Q31.4436 802.641 35.1993 801.336 Z" fill="#000000" fill-rule="nonzero" fill-opacity="1" /><path clip-path="url(#clip610)" d="M16.4842 747.355 L16.4842 710.02 L21.3858 710.02 L58.5933 740.066 L58.5933 709.288 L64.0042 709.288 L64.0042 748.087 L59.1026 748.087 L21.895 718.04 L21.895 747.355 L16.4842 747.355 Z" fill="#000000" fill-rule="nonzero" fill-opacity="1" /><path clip-path="url(#clip610)" d="M16.4842 669.088 L16.4842 663.677 L70.0516 680.228 L70.0516 685.639 L16.4842 669.088 Z" fill="#000000" fill-rule="nonzero" fill-opacity="1" /><path clip-path="url(#clip610)" d="M58.3387 595.628 L64.0042 595.628 L64.0042 614.725 L58.3387 614.725 Q55.2513 609.091 49.9678 605.94 Q44.6842 602.789 38.2549 602.789 Q30.616 602.789 26.0009 606.991 Q21.3858 611.192 21.3858 618.067 Q21.3858 624.942 26.0327 629.175 Q30.6479 633.377 38.2549 633.377 Q44.6842 633.377 49.9678 630.226 Q55.2513 627.043 58.3387 621.377 L64.0042 621.377 L64.0042 640.474 L58.3387 640.474 L58.3387 630.321 Q53.9145 635.35 49.1721 637.673 Q44.4296 639.965 38.5732 639.965 Q28.4517 639.965 22.1815 633.854 Q15.9112 627.775 15.9112 618.067 Q15.9112 608.423 22.1815 602.28 Q28.4199 596.169 38.2549 596.169 Q44.4296 596.169 49.1402 598.429 Q53.8509 600.689 58.3387 605.813 L58.3387 595.628 Z" fill="#000000" fill-rule="nonzero" fill-opacity="1" /><circle clip-path="url(#clip612)" cx="345.887" cy="1233.16" r="14.4" fill="#009af9" fill-rule="evenodd" fill-opacity="1" stroke="#000000" stroke-opacity="1" stroke-width="3.2"/>
<circle clip-path="url(#clip612)" cx="345.909" cy="1233.11" r="14.4" fill="#009af9" fill-rule="evenodd" fill-opacity="1" stroke="#000000" stroke-opacity="1" stroke-width="3.2"/>
<circle clip-path="url(#clip612)" cx="345.937" cy="1233.06" r="14.4" fill="#009af9" fill-rule="evenodd" fill-opacity="1" stroke="#000000" stroke-opacity="1" stroke-width="3.2"/>
<circle clip-path="url(#clip612)" cx="345.971" cy="1232.99" r="14.4" fill="#009af9" fill-rule="evenodd" fill-opacity="1" stroke="#000000" stroke-opacity="1" stroke-width="3.2"/>
<circle clip-path="url(#clip612)" cx="346.014" cy="1232.91" r="14.4" fill="#009af9" fill-rule="evenodd" fill-opacity="1" stroke="#000000" stroke-opacity="1" stroke-width="3.2"/>
<circle clip-path="url(#clip612)" cx="346.069" cy="1232.8" r="14.4" fill="#009af9" fill-rule="evenodd" fill-opacity="1" stroke="#000000" stroke-opacity="1" stroke-width="3.2"/>
<circle clip-path="url(#clip612)" cx="346.138" cy="1232.67" r="14.4" fill="#009af9" fill-rule="evenodd" fill-opacity="1" stroke="#000000" stroke-opacity="1" stroke-width="3.2"/>
<circle clip-path="url(#clip612)" cx="346.225" cy="1232.5" r="14.4" fill="#009af9" fill-rule="evenodd" fill-opacity="1" stroke="#000000" stroke-opacity="1" stroke-width="3.2"/>
<circle clip-path="url(#clip612)" cx="346.334" cy="1232.28" r="14.4" fill="#009af9" fill-rule="evenodd" fill-opacity="1" stroke="#000000" stroke-opacity="1" stroke-width="3.2"/>
<circle clip-path="url(#clip612)" cx="346.471" cy="1232.01" r="14.4" fill="#009af9" fill-rule="evenodd" fill-opacity="1" stroke="#000000" stroke-opacity="1" stroke-width="3.2"/>
<circle clip-path="url(#clip612)" cx="346.645" cy="1231.68" r="14.4" fill="#009af9" fill-rule="evenodd" fill-opacity="1" stroke="#000000" stroke-opacity="1" stroke-width="3.2"/>
<circle clip-path="url(#clip612)" cx="346.863" cy="1231.25" r="14.4" fill="#009af9" fill-rule="evenodd" fill-opacity="1" stroke="#000000" stroke-opacity="1" stroke-width="3.2"/>
<circle clip-path="url(#clip612)" cx="347.139" cy="1230.72" r="14.4" fill="#009af9" fill-rule="evenodd" fill-opacity="1" stroke="#000000" stroke-opacity="1" stroke-width="3.2"/>
<circle clip-path="url(#clip612)" cx="347.486" cy="1230.05" r="14.4" fill="#009af9" fill-rule="evenodd" fill-opacity="1" stroke="#000000" stroke-opacity="1" stroke-width="3.2"/>
<circle clip-path="url(#clip612)" cx="347.924" cy="1229.2" r="14.4" fill="#009af9" fill-rule="evenodd" fill-opacity="1" stroke="#000000" stroke-opacity="1" stroke-width="3.2"/>
<circle clip-path="url(#clip612)" cx="348.478" cy="1228.14" r="14.4" fill="#009af9" fill-rule="evenodd" fill-opacity="1" stroke="#000000" stroke-opacity="1" stroke-width="3.2"/>
<circle clip-path="url(#clip612)" cx="349.177" cy="1226.81" r="14.4" fill="#009af9" fill-rule="evenodd" fill-opacity="1" stroke="#000000" stroke-opacity="1" stroke-width="3.2"/>
<circle clip-path="url(#clip612)" cx="350.061" cy="1225.14" r="14.4" fill="#009af9" fill-rule="evenodd" fill-opacity="1" stroke="#000000" stroke-opacity="1" stroke-width="3.2"/>
<circle clip-path="url(#clip612)" cx="351.18" cy="1223.05" r="14.4" fill="#009af9" fill-rule="evenodd" fill-opacity="1" stroke="#000000" stroke-opacity="1" stroke-width="3.2"/>
<circle clip-path="url(#clip612)" cx="352.597" cy="1220.42" r="14.4" fill="#009af9" fill-rule="evenodd" fill-opacity="1" stroke="#000000" stroke-opacity="1" stroke-width="3.2"/>
<circle clip-path="url(#clip612)" cx="354.397" cy="1217.15" r="14.4" fill="#009af9" fill-rule="evenodd" fill-opacity="1" stroke="#000000" stroke-opacity="1" stroke-width="3.2"/>
<circle clip-path="url(#clip612)" cx="356.685" cy="1213.05" r="14.4" fill="#009af9" fill-rule="evenodd" fill-opacity="1" stroke="#000000" stroke-opacity="1" stroke-width="3.2"/>
<circle clip-path="url(#clip612)" cx="359.6" cy="1207.96" r="14.4" fill="#009af9" fill-rule="evenodd" fill-opacity="1" stroke="#000000" stroke-opacity="1" stroke-width="3.2"/>
<circle clip-path="url(#clip612)" cx="363.323" cy="1201.63" r="14.4" fill="#009af9" fill-rule="evenodd" fill-opacity="1" stroke="#000000" stroke-opacity="1" stroke-width="3.2"/>
<circle clip-path="url(#clip612)" cx="368.089" cy="1193.8" r="14.4" fill="#009af9" fill-rule="evenodd" fill-opacity="1" stroke="#000000" stroke-opacity="1" stroke-width="3.2"/>
<circle clip-path="url(#clip612)" cx="374.206" cy="1184.17" r="14.4" fill="#009af9" fill-rule="evenodd" fill-opacity="1" stroke="#000000" stroke-opacity="1" stroke-width="3.2"/>
<circle clip-path="url(#clip612)" cx="382.077" cy="1172.4" r="14.4" fill="#009af9" fill-rule="evenodd" fill-opacity="1" stroke="#000000" stroke-opacity="1" stroke-width="3.2"/>
<circle clip-path="url(#clip612)" cx="392.225" cy="1158.13" r="14.4" fill="#009af9" fill-rule="evenodd" fill-opacity="1" stroke="#000000" stroke-opacity="1" stroke-width="3.2"/>
<circle clip-path="url(#clip612)" cx="405.322" cy="1141.02" r="14.4" fill="#009af9" fill-rule="evenodd" fill-opacity="1" stroke="#000000" stroke-opacity="1" stroke-width="3.2"/>
<circle clip-path="url(#clip612)" cx="422.216" cy="1120.83" r="14.4" fill="#009af9" fill-rule="evenodd" fill-opacity="1" stroke="#000000" stroke-opacity="1" stroke-width="3.2"/>
<circle clip-path="url(#clip612)" cx="443.934" cy="1097.45" r="14.4" fill="#009af9" fill-rule="evenodd" fill-opacity="1" stroke="#000000" stroke-opacity="1" stroke-width="3.2"/>
<circle clip-path="url(#clip612)" cx="471.659" cy="1071.09" r="14.4" fill="#009af9" fill-rule="evenodd" fill-opacity="1" stroke="#000000" stroke-opacity="1" stroke-width="3.2"/>
<circle clip-path="url(#clip612)" cx="506.633" cy="1042.38" r="14.4" fill="#009af9" fill-rule="evenodd" fill-opacity="1" stroke="#000000" stroke-opacity="1" stroke-width="3.2"/>
<circle clip-path="url(#clip612)" cx="549.95" cy="1012.53" r="14.4" fill="#009af9" fill-rule="evenodd" fill-opacity="1" stroke="#000000" stroke-opacity="1" stroke-width="3.2"/>
<circle clip-path="url(#clip612)" cx="602.255" cy="983.361" r="14.4" fill="#009af9" fill-rule="evenodd" fill-opacity="1" stroke="#000000" stroke-opacity="1" stroke-width="3.2"/>
<circle clip-path="url(#clip612)" cx="663.369" cy="957.143" r="14.4" fill="#009af9" fill-rule="evenodd" fill-opacity="1" stroke="#000000" stroke-opacity="1" stroke-width="3.2"/>
<circle clip-path="url(#clip612)" cx="732.009" cy="936.194" r="14.4" fill="#009af9" fill-rule="evenodd" fill-opacity="1" stroke="#000000" stroke-opacity="1" stroke-width="3.2"/>
<circle clip-path="url(#clip612)" cx="805.77" cy="922.284" r="14.4" fill="#009af9" fill-rule="evenodd" fill-opacity="1" stroke="#000000" stroke-opacity="1" stroke-width="3.2"/>
<circle clip-path="url(#clip612)" cx="881.524" cy="916.059" r="14.4" fill="#009af9" fill-rule="evenodd" fill-opacity="1" stroke="#000000" stroke-opacity="1" stroke-width="3.2"/>
<circle clip-path="url(#clip612)" cx="956.105" cy="916.79" r="14.4" fill="#009af9" fill-rule="evenodd" fill-opacity="1" stroke="#000000" stroke-opacity="1" stroke-width="3.2"/>
<circle clip-path="url(#clip612)" cx="1027.02" cy="922.565" r="14.4" fill="#009af9" fill-rule="evenodd" fill-opacity="1" stroke="#000000" stroke-opacity="1" stroke-width="3.2"/>
<circle clip-path="url(#clip612)" cx="1092.88" cy="930.801" r="14.4" fill="#009af9" fill-rule="evenodd" fill-opacity="1" stroke="#000000" stroke-opacity="1" stroke-width="3.2"/>
<circle clip-path="url(#clip612)" cx="1153.45" cy="938.822" r="14.4" fill="#009af9" fill-rule="evenodd" fill-opacity="1" stroke="#000000" stroke-opacity="1" stroke-width="3.2"/>
<circle clip-path="url(#clip612)" cx="1209.4" cy="944.258" r="14.4" fill="#009af9" fill-rule="evenodd" fill-opacity="1" stroke="#000000" stroke-opacity="1" stroke-width="3.2"/>
<circle clip-path="url(#clip612)" cx="1262" cy="945.216" r="14.4" fill="#009af9" fill-rule="evenodd" fill-opacity="1" stroke="#000000" stroke-opacity="1" stroke-width="3.2"/>
<circle clip-path="url(#clip612)" cx="1312.84" cy="940.255" r="14.4" fill="#009af9" fill-rule="evenodd" fill-opacity="1" stroke="#000000" stroke-opacity="1" stroke-width="3.2"/>
<circle clip-path="url(#clip612)" cx="1363.62" cy="928.266" r="14.4" fill="#009af9" fill-rule="evenodd" fill-opacity="1" stroke="#000000" stroke-opacity="1" stroke-width="3.2"/>
<circle clip-path="url(#clip612)" cx="1416.07" cy="908.323" r="14.4" fill="#009af9" fill-rule="evenodd" fill-opacity="1" stroke="#000000" stroke-opacity="1" stroke-width="3.2"/>
<circle clip-path="url(#clip612)" cx="1471.94" cy="879.539" r="14.4" fill="#009af9" fill-rule="evenodd" fill-opacity="1" stroke="#000000" stroke-opacity="1" stroke-width="3.2"/>
<circle clip-path="url(#clip612)" cx="1533.01" cy="840.965" r="14.4" fill="#009af9" fill-rule="evenodd" fill-opacity="1" stroke="#000000" stroke-opacity="1" stroke-width="3.2"/>
<circle clip-path="url(#clip612)" cx="1601.09" cy="791.526" r="14.4" fill="#009af9" fill-rule="evenodd" fill-opacity="1" stroke="#000000" stroke-opacity="1" stroke-width="3.2"/>
<circle clip-path="url(#clip612)" cx="1677.98" cy="729.554" r="14.4" fill="#009af9" fill-rule="evenodd" fill-opacity="1" stroke="#000000" stroke-opacity="1" stroke-width="3.2"/>
<circle clip-path="url(#clip612)" cx="1766.88" cy="652.552" r="14.4" fill="#009af9" fill-rule="evenodd" fill-opacity="1" stroke="#000000" stroke-opacity="1" stroke-width="3.2"/>
<circle clip-path="url(#clip612)" cx="1873.41" cy="560.312" r="14.4" fill="#009af9" fill-rule="evenodd" fill-opacity="1" stroke="#000000" stroke-opacity="1" stroke-width="3.2"/>
<circle clip-path="url(#clip612)" cx="2000.21" cy="458.755" r="14.4" fill="#009af9" fill-rule="evenodd" fill-opacity="1" stroke="#000000" stroke-opacity="1" stroke-width="3.2"/>
<circle clip-path="url(#clip612)" cx="2137.41" cy="354.183" r="14.4" fill="#009af9" fill-rule="evenodd" fill-opacity="1" stroke="#000000" stroke-opacity="1" stroke-width="3.2"/>
<circle clip-path="url(#clip612)" cx="2263.66" cy="238.039" r="14.4" fill="#009af9" fill-rule="evenodd" fill-opacity="1" stroke="#000000" stroke-opacity="1" stroke-width="3.2"/>
<circle clip-path="url(#clip612)" cx="345.82" cy="1233.27" r="14.4" fill="#e26f46" fill-rule="evenodd" fill-opacity="1" stroke="#000000" stroke-opacity="1" stroke-width="3.2"/>
<circle clip-path="url(#clip612)" cx="345.825" cy="1233.25" r="14.4" fill="#e26f46" fill-rule="evenodd" fill-opacity="1" stroke="#000000" stroke-opacity="1" stroke-width="3.2"/>
<circle clip-path="url(#clip612)" cx="345.832" cy="1233.23" r="14.4" fill="#e26f46" fill-rule="evenodd" fill-opacity="1" stroke="#000000" stroke-opacity="1" stroke-width="3.2"/>
<circle clip-path="url(#clip612)" cx="345.841" cy="1233.21" r="14.4" fill="#e26f46" fill-rule="evenodd" fill-opacity="1" stroke="#000000" stroke-opacity="1" stroke-width="3.2"/>
<circle clip-path="url(#clip612)" cx="345.852" cy="1233.17" r="14.4" fill="#e26f46" fill-rule="evenodd" fill-opacity="1" stroke="#000000" stroke-opacity="1" stroke-width="3.2"/>
<circle clip-path="url(#clip612)" cx="345.866" cy="1233.13" r="14.4" fill="#e26f46" fill-rule="evenodd" fill-opacity="1" stroke="#000000" stroke-opacity="1" stroke-width="3.2"/>
<circle clip-path="url(#clip612)" cx="345.885" cy="1233.07" r="14.4" fill="#e26f46" fill-rule="evenodd" fill-opacity="1" stroke="#000000" stroke-opacity="1" stroke-width="3.2"/>
<circle clip-path="url(#clip612)" cx="345.91" cy="1232.99" r="14.4" fill="#e26f46" fill-rule="evenodd" fill-opacity="1" stroke="#000000" stroke-opacity="1" stroke-width="3.2"/>
<circle clip-path="url(#clip612)" cx="345.942" cy="1232.9" r="14.4" fill="#e26f46" fill-rule="evenodd" fill-opacity="1" stroke="#000000" stroke-opacity="1" stroke-width="3.2"/>
<circle clip-path="url(#clip612)" cx="345.984" cy="1232.77" r="14.4" fill="#e26f46" fill-rule="evenodd" fill-opacity="1" stroke="#000000" stroke-opacity="1" stroke-width="3.2"/>
<circle clip-path="url(#clip612)" cx="346.038" cy="1232.6" r="14.4" fill="#e26f46" fill-rule="evenodd" fill-opacity="1" stroke="#000000" stroke-opacity="1" stroke-width="3.2"/>
<circle clip-path="url(#clip612)" cx="346.109" cy="1232.38" r="14.4" fill="#e26f46" fill-rule="evenodd" fill-opacity="1" stroke="#000000" stroke-opacity="1" stroke-width="3.2"/>
<circle clip-path="url(#clip612)" cx="346.201" cy="1232.1" r="14.4" fill="#e26f46" fill-rule="evenodd" fill-opacity="1" stroke="#000000" stroke-opacity="1" stroke-width="3.2"/>
<circle clip-path="url(#clip612)" cx="346.321" cy="1231.74" r="14.4" fill="#e26f46" fill-rule="evenodd" fill-opacity="1" stroke="#000000" stroke-opacity="1" stroke-width="3.2"/>
<circle clip-path="url(#clip612)" cx="346.478" cy="1231.26" r="14.4" fill="#e26f46" fill-rule="evenodd" fill-opacity="1" stroke="#000000" stroke-opacity="1" stroke-width="3.2"/>
<circle clip-path="url(#clip612)" cx="346.683" cy="1230.64" r="14.4" fill="#e26f46" fill-rule="evenodd" fill-opacity="1" stroke="#000000" stroke-opacity="1" stroke-width="3.2"/>
<circle clip-path="url(#clip612)" cx="346.95" cy="1229.83" r="14.4" fill="#e26f46" fill-rule="evenodd" fill-opacity="1" stroke="#000000" stroke-opacity="1" stroke-width="3.2"/>
<circle clip-path="url(#clip612)" cx="347.3" cy="1228.79" r="14.4" fill="#e26f46" fill-rule="evenodd" fill-opacity="1" stroke="#000000" stroke-opacity="1" stroke-width="3.2"/>
<circle clip-path="url(#clip612)" cx="347.758" cy="1227.43" r="14.4" fill="#e26f46" fill-rule="evenodd" fill-opacity="1" stroke="#000000" stroke-opacity="1" stroke-width="3.2"/>
<circle clip-path="url(#clip612)" cx="348.359" cy="1225.67" r="14.4" fill="#e26f46" fill-rule="evenodd" fill-opacity="1" stroke="#000000" stroke-opacity="1" stroke-width="3.2"/>
<circle clip-path="url(#clip612)" cx="349.15" cy="1223.38" r="14.4" fill="#e26f46" fill-rule="evenodd" fill-opacity="1" stroke="#000000" stroke-opacity="1" stroke-width="3.2"/>
<circle clip-path="url(#clip612)" cx="350.193" cy="1220.41" r="14.4" fill="#e26f46" fill-rule="evenodd" fill-opacity="1" stroke="#000000" stroke-opacity="1" stroke-width="3.2"/>
<circle clip-path="url(#clip612)" cx="351.574" cy="1216.57" r="14.4" fill="#e26f46" fill-rule="evenodd" fill-opacity="1" stroke="#000000" stroke-opacity="1" stroke-width="3.2"/>
<circle clip-path="url(#clip612)" cx="353.411" cy="1211.61" r="14.4" fill="#e26f46" fill-rule="evenodd" fill-opacity="1" stroke="#000000" stroke-opacity="1" stroke-width="3.2"/>
<circle clip-path="url(#clip612)" cx="355.868" cy="1205.21" r="14.4" fill="#e26f46" fill-rule="evenodd" fill-opacity="1" stroke="#000000" stroke-opacity="1" stroke-width="3.2"/>
<circle clip-path="url(#clip612)" cx="359.173" cy="1196.99" r="14.4" fill="#e26f46" fill-rule="evenodd" fill-opacity="1" stroke="#000000" stroke-opacity="1" stroke-width="3.2"/>
<circle clip-path="url(#clip612)" cx="363.651" cy="1186.46" r="14.4" fill="#e26f46" fill-rule="evenodd" fill-opacity="1" stroke="#000000" stroke-opacity="1" stroke-width="3.2"/>
<circle clip-path="url(#clip612)" cx="369.763" cy="1173.05" r="14.4" fill="#e26f46" fill-rule="evenodd" fill-opacity="1" stroke="#000000" stroke-opacity="1" stroke-width="3.2"/>
<circle clip-path="url(#clip612)" cx="378.165" cy="1156.11" r="14.4" fill="#e26f46" fill-rule="evenodd" fill-opacity="1" stroke="#000000" stroke-opacity="1" stroke-width="3.2"/>
<circle clip-path="url(#clip612)" cx="389.785" cy="1134.95" r="14.4" fill="#e26f46" fill-rule="evenodd" fill-opacity="1" stroke="#000000" stroke-opacity="1" stroke-width="3.2"/>
<circle clip-path="url(#clip612)" cx="405.915" cy="1108.93" r="14.4" fill="#e26f46" fill-rule="evenodd" fill-opacity="1" stroke="#000000" stroke-opacity="1" stroke-width="3.2"/>
<circle clip-path="url(#clip612)" cx="428.288" cy="1077.65" r="14.4" fill="#e26f46" fill-rule="evenodd" fill-opacity="1" stroke="#000000" stroke-opacity="1" stroke-width="3.2"/>
<circle clip-path="url(#clip612)" cx="459.098" cy="1041.26" r="14.4" fill="#e26f46" fill-rule="evenodd" fill-opacity="1" stroke="#000000" stroke-opacity="1" stroke-width="3.2"/>
<circle clip-path="url(#clip612)" cx="500.824" cy="1000.86" r="14.4" fill="#e26f46" fill-rule="evenodd" fill-opacity="1" stroke="#000000" stroke-opacity="1" stroke-width="3.2"/>
<circle clip-path="url(#clip612)" cx="555.737" cy="958.958" r="14.4" fill="#e26f46" fill-rule="evenodd" fill-opacity="1" stroke="#000000" stroke-opacity="1" stroke-width="3.2"/>
<circle clip-path="url(#clip612)" cx="624.988" cy="919.567" r="14.4" fill="#e26f46" fill-rule="evenodd" fill-opacity="1" stroke="#000000" stroke-opacity="1" stroke-width="3.2"/>
<circle clip-path="url(#clip612)" cx="707.502" cy="887.678" r="14.4" fill="#e26f46" fill-rule="evenodd" fill-opacity="1" stroke="#000000" stroke-opacity="1" stroke-width="3.2"/>
<circle clip-path="url(#clip612)" cx="799.345" cy="867.755" r="14.4" fill="#e26f46" fill-rule="evenodd" fill-opacity="1" stroke="#000000" stroke-opacity="1" stroke-width="3.2"/>
<circle clip-path="url(#clip612)" cx="894.355" cy="861.915" r="14.4" fill="#e26f46" fill-rule="evenodd" fill-opacity="1" stroke="#000000" stroke-opacity="1" stroke-width="3.2"/>
<circle clip-path="url(#clip612)" cx="986.035" cy="868.919" r="14.4" fill="#e26f46" fill-rule="evenodd" fill-opacity="1" stroke="#000000" stroke-opacity="1" stroke-width="3.2"/>
<circle clip-path="url(#clip612)" cx="1069.61" cy="884.747" r="14.4" fill="#e26f46" fill-rule="evenodd" fill-opacity="1" stroke="#000000" stroke-opacity="1" stroke-width="3.2"/>
<circle clip-path="url(#clip612)" cx="1143.07" cy="904.249" r="14.4" fill="#e26f46" fill-rule="evenodd" fill-opacity="1" stroke="#000000" stroke-opacity="1" stroke-width="3.2"/>
<circle clip-path="url(#clip612)" cx="1206.82" cy="922.714" r="14.4" fill="#e26f46" fill-rule="evenodd" fill-opacity="1" stroke="#000000" stroke-opacity="1" stroke-width="3.2"/>
<circle clip-path="url(#clip612)" cx="1262.79" cy="936.66" r="14.4" fill="#e26f46" fill-rule="evenodd" fill-opacity="1" stroke="#000000" stroke-opacity="1" stroke-width="3.2"/>
<circle clip-path="url(#clip612)" cx="1313.5" cy="943.874" r="14.4" fill="#e26f46" fill-rule="evenodd" fill-opacity="1" stroke="#000000" stroke-opacity="1" stroke-width="3.2"/>
<circle clip-path="url(#clip612)" cx="1361.52" cy="943.082" r="14.4" fill="#e26f46" fill-rule="evenodd" fill-opacity="1" stroke="#000000" stroke-opacity="1" stroke-width="3.2"/>
<circle clip-path="url(#clip612)" cx="1409.2" cy="933.555" r="14.4" fill="#e26f46" fill-rule="evenodd" fill-opacity="1" stroke="#000000" stroke-opacity="1" stroke-width="3.2"/>
<circle clip-path="url(#clip612)" cx="1458.66" cy="914.782" r="14.4" fill="#e26f46" fill-rule="evenodd" fill-opacity="1" stroke="#000000" stroke-opacity="1" stroke-width="3.2"/>
<circle clip-path="url(#clip612)" cx="1511.83" cy="886.246" r="14.4" fill="#e26f46" fill-rule="evenodd" fill-opacity="1" stroke="#000000" stroke-opacity="1" stroke-width="3.2"/>
<circle clip-path="url(#clip612)" cx="1570.6" cy="847.289" r="14.4" fill="#e26f46" fill-rule="evenodd" fill-opacity="1" stroke="#000000" stroke-opacity="1" stroke-width="3.2"/>
<circle clip-path="url(#clip612)" cx="1636.79" cy="797.052" r="14.4" fill="#e26f46" fill-rule="evenodd" fill-opacity="1" stroke="#000000" stroke-opacity="1" stroke-width="3.2"/>
<circle clip-path="url(#clip612)" cx="1712.2" cy="733.999" r="14.4" fill="#e26f46" fill-rule="evenodd" fill-opacity="1" stroke="#000000" stroke-opacity="1" stroke-width="3.2"/>
<circle clip-path="url(#clip612)" cx="1800.05" cy="655.725" r="14.4" fill="#e26f46" fill-rule="evenodd" fill-opacity="1" stroke="#000000" stroke-opacity="1" stroke-width="3.2"/>
<circle clip-path="url(#clip612)" cx="1906.01" cy="562.211" r="14.4" fill="#e26f46" fill-rule="evenodd" fill-opacity="1" stroke="#000000" stroke-opacity="1" stroke-width="3.2"/>
<circle clip-path="url(#clip612)" cx="2032.52" cy="459.642" r="14.4" fill="#e26f46" fill-rule="evenodd" fill-opacity="1" stroke="#000000" stroke-opacity="1" stroke-width="3.2"/>
<circle clip-path="url(#clip612)" cx="2169.2" cy="354.318" r="14.4" fill="#e26f46" fill-rule="evenodd" fill-opacity="1" stroke="#000000" stroke-opacity="1" stroke-width="3.2"/>
<circle clip-path="url(#clip612)" cx="2294.3" cy="237.155" r="14.4" fill="#e26f46" fill-rule="evenodd" fill-opacity="1" stroke="#000000" stroke-opacity="1" stroke-width="3.2"/>
</svg>
