<?xml version="1.0" encoding="utf-8"?>
<svg xmlns="http://www.w3.org/2000/svg" xmlns:xlink="http://www.w3.org/1999/xlink" width="600" height="400" viewBox="0 0 2400 1600">
<defs>
  <clipPath id="clip240">
    <rect x="0" y="0" width="2400" height="1600"/>
  </clipPath>
</defs>
<path clip-path="url(#clip240)" d="M0 1600 L2400 1600 L2400 8.88178e-14 L0 8.88178e-14  Z" fill="#ffffff" fill-rule="evenodd" fill-opacity="1"/>
<defs>
  <clipPath id="clip241">
    <rect x="480" y="0" width="1681" height="1600"/>
  </clipPath>
</defs>
<path clip-path="url(#clip240)" d="M318.014 1423.18 L2352.76 1423.18 L2352.76 47.2441 L318.014 47.2441  Z" fill="#ffffff" fill-rule="evenodd" fill-opacity="1"/>
<defs>
  <clipPath id="clip242">
    <rect x="318" y="47" width="2036" height="1377"/>
  </clipPath>
</defs>
<polyline clip-path="url(#clip242)" style="stroke:#000000; stroke-linecap:round; stroke-linejoin:round; stroke-width:2; stroke-opacity:0.1; fill:none" points="699.135,47.2441 699.135,1423.18 "/>
<polyline clip-path="url(#clip242)" style="stroke:#000000; stroke-linecap:round; stroke-linejoin:round; stroke-width:2; stroke-opacity:0.1; fill:none" points="1093,47.2441 1093,1423.18 "/>
<polyline clip-path="url(#clip242)" style="stroke:#000000; stroke-linecap:round; stroke-linejoin:round; stroke-width:2; stroke-opacity:0.1; fill:none" points="1486.86,47.2441 1486.86,1423.18 "/>
<polyline clip-path="url(#clip242)" style="stroke:#000000; stroke-linecap:round; stroke-linejoin:round; stroke-width:2; stroke-opacity:0.1; fill:none" points="1880.73,47.2441 1880.73,1423.18 "/>
<polyline clip-path="url(#clip242)" style="stroke:#000000; stroke-linecap:round; stroke-linejoin:round; stroke-width:2; stroke-opacity:0.1; fill:none" points="2274.59,47.2441 2274.59,1423.18 "/>
<polyline clip-path="url(#clip242)" style="stroke:#000000; stroke-linecap:round; stroke-linejoin:round; stroke-width:2; stroke-opacity:0.1; fill:none" points="318.014,80.6379 2352.76,80.6379 "/>
<polyline clip-path="url(#clip242)" style="stroke:#000000; stroke-linecap:round; stroke-linejoin:round; stroke-width:2; stroke-opacity:0.1; fill:none" points="318.014,277.57 2352.76,277.57 "/>
<polyline clip-path="url(#clip242)" style="stroke:#000000; stroke-linecap:round; stroke-linejoin:round; stroke-width:2; stroke-opacity:0.1; fill:none" points="318.014,474.502 2352.76,474.502 "/>
<polyline clip-path="url(#clip242)" style="stroke:#000000; stroke-linecap:round; stroke-linejoin:round; stroke-width:2; stroke-opacity:0.1; fill:none" points="318.014,671.434 2352.76,671.434 "/>
<polyline clip-path="url(#clip242)" style="stroke:#000000; stroke-linecap:round; stroke-linejoin:round; stroke-width:2; stroke-opacity:0.1; fill:none" points="318.014,868.367 2352.76,868.367 "/>
<polyline clip-path="url(#clip242)" style="stroke:#000000; stroke-linecap:round; stroke-linejoin:round; stroke-width:2; stroke-opacity:0.1; fill:none" points="318.014,1065.3 2352.76,1065.3 "/>
<polyline clip-path="url(#clip242)" style="stroke:#000000; stroke-linecap:round; stroke-linejoin:round; stroke-width:2; stroke-opacity:0.1; fill:none" points="318.014,1262.23 2352.76,1262.23 "/>
<polyline clip-path="url(#clip240)" style="stroke:#000000; stroke-linecap:round; stroke-linejoin:round; stroke-width:4; stroke-opacity:1; fill:none" points="318.014,1423.18 2352.76,1423.18 "/>
<polyline clip-path="url(#clip240)" style="stroke:#000000; stroke-linecap:round; stroke-linejoin:round; stroke-width:4; stroke-opacity:1; fill:none" points="699.135,1423.18 699.135,1404.28 "/>
<polyline clip-path="url(#clip240)" style="stroke:#000000; stroke-linecap:round; stroke-linejoin:round; stroke-width:4; stroke-opacity:1; fill:none" points="1093,1423.18 1093,1404.28 "/>
<polyline clip-path="url(#clip240)" style="stroke:#000000; stroke-linecap:round; stroke-linejoin:round; stroke-width:4; stroke-opacity:1; fill:none" points="1486.86,1423.18 1486.86,1404.28 "/>
<polyline clip-path="url(#clip240)" style="stroke:#000000; stroke-linecap:round; stroke-linejoin:round; stroke-width:4; stroke-opacity:1; fill:none" points="1880.73,1423.18 1880.73,1404.28 "/>
<polyline clip-path="url(#clip240)" style="stroke:#000000; stroke-linecap:round; stroke-linejoin:round; stroke-width:4; stroke-opacity:1; fill:none" points="2274.59,1423.18 2274.59,1404.28 "/>
<path clip-path="url(#clip240)" d="M646.358 1454.1 Q642.747 1454.1 640.918 1457.66 Q639.113 1461.2 639.113 1468.33 Q639.113 1475.44 640.918 1479.01 Q642.747 1482.55 646.358 1482.55 Q649.992 1482.55 651.798 1479.01 Q653.626 1475.44 653.626 1468.33 Q653.626 1461.2 651.798 1457.66 Q649.992 1454.1 646.358 1454.1 M646.358 1450.39 Q652.168 1450.39 655.224 1455 Q658.302 1459.58 658.302 1468.33 Q658.302 1477.06 655.224 1481.67 Q652.168 1486.25 646.358 1486.25 Q640.548 1486.25 637.469 1481.67 Q634.413 1477.06 634.413 1468.33 Q634.413 1459.58 637.469 1455 Q640.548 1450.39 646.358 1450.39 Z" fill="#000000" fill-rule="nonzero" fill-opacity="1" /><path clip-path="url(#clip240)" d="M666.52 1479.7 L671.404 1479.7 L671.404 1485.58 L666.52 1485.58 L666.52 1479.7 Z" fill="#000000" fill-rule="nonzero" fill-opacity="1" /><path clip-path="url(#clip240)" d="M691.589 1454.1 Q687.978 1454.1 686.149 1457.66 Q684.344 1461.2 684.344 1468.33 Q684.344 1475.44 686.149 1479.01 Q687.978 1482.55 691.589 1482.55 Q695.223 1482.55 697.029 1479.01 Q698.858 1475.44 698.858 1468.33 Q698.858 1461.2 697.029 1457.66 Q695.223 1454.1 691.589 1454.1 M691.589 1450.39 Q697.399 1450.39 700.455 1455 Q703.533 1459.58 703.533 1468.33 Q703.533 1477.06 700.455 1481.67 Q697.399 1486.25 691.589 1486.25 Q685.779 1486.25 682.7 1481.67 Q679.645 1477.06 679.645 1468.33 Q679.645 1459.58 682.7 1455 Q685.779 1450.39 691.589 1450.39 Z" fill="#000000" fill-rule="nonzero" fill-opacity="1" /><path clip-path="url(#clip240)" d="M711.797 1451.02 L730.154 1451.02 L730.154 1454.96 L716.08 1454.96 L716.08 1463.43 Q717.098 1463.08 718.117 1462.92 Q719.135 1462.73 720.154 1462.73 Q725.941 1462.73 729.32 1465.9 Q732.7 1469.08 732.7 1474.49 Q732.7 1480.07 729.228 1483.17 Q725.756 1486.25 719.436 1486.25 Q717.26 1486.25 714.992 1485.88 Q712.746 1485.51 710.339 1484.77 L710.339 1480.07 Q712.422 1481.2 714.645 1481.76 Q716.867 1482.32 719.344 1482.32 Q723.348 1482.32 725.686 1480.21 Q728.024 1478.1 728.024 1474.49 Q728.024 1470.88 725.686 1468.77 Q723.348 1466.67 719.344 1466.67 Q717.469 1466.67 715.594 1467.08 Q713.742 1467.5 711.797 1468.38 L711.797 1451.02 Z" fill="#000000" fill-rule="nonzero" fill-opacity="1" /><path clip-path="url(#clip240)" d="M751.913 1454.1 Q748.302 1454.1 746.473 1457.66 Q744.668 1461.2 744.668 1468.33 Q744.668 1475.44 746.473 1479.01 Q748.302 1482.55 751.913 1482.55 Q755.547 1482.55 757.353 1479.01 Q759.181 1475.44 759.181 1468.33 Q759.181 1461.2 757.353 1457.66 Q755.547 1454.1 751.913 1454.1 M751.913 1450.39 Q757.723 1450.39 760.779 1455 Q763.857 1459.58 763.857 1468.33 Q763.857 1477.06 760.779 1481.67 Q757.723 1486.25 751.913 1486.25 Q746.103 1486.25 743.024 1481.67 Q739.968 1477.06 739.968 1468.33 Q739.968 1459.58 743.024 1455 Q746.103 1450.39 751.913 1450.39 Z" fill="#000000" fill-rule="nonzero" fill-opacity="1" /><path clip-path="url(#clip240)" d="M1040.72 1454.1 Q1037.11 1454.1 1035.28 1457.66 Q1033.47 1461.2 1033.47 1468.33 Q1033.47 1475.44 1035.28 1479.01 Q1037.11 1482.55 1040.72 1482.55 Q1044.35 1482.55 1046.16 1479.01 Q1047.99 1475.44 1047.99 1468.33 Q1047.99 1461.2 1046.16 1457.66 Q1044.35 1454.1 1040.72 1454.1 M1040.72 1450.39 Q1046.53 1450.39 1049.59 1455 Q1052.66 1459.58 1052.66 1468.33 Q1052.66 1477.06 1049.59 1481.67 Q1046.53 1486.25 1040.72 1486.25 Q1034.91 1486.25 1031.83 1481.67 Q1028.78 1477.06 1028.78 1468.33 Q1028.78 1459.58 1031.83 1455 Q1034.91 1450.39 1040.72 1450.39 Z" fill="#000000" fill-rule="nonzero" fill-opacity="1" /><path clip-path="url(#clip240)" d="M1060.88 1479.7 L1065.77 1479.7 L1065.77 1485.58 L1060.88 1485.58 L1060.88 1479.7 Z" fill="#000000" fill-rule="nonzero" fill-opacity="1" /><path clip-path="url(#clip240)" d="M1085.95 1454.1 Q1082.34 1454.1 1080.51 1457.66 Q1078.71 1461.2 1078.71 1468.33 Q1078.71 1475.44 1080.51 1479.01 Q1082.34 1482.55 1085.95 1482.55 Q1089.59 1482.55 1091.39 1479.01 Q1093.22 1475.44 1093.22 1468.33 Q1093.22 1461.2 1091.39 1457.66 Q1089.59 1454.1 1085.95 1454.1 M1085.95 1450.39 Q1091.76 1450.39 1094.82 1455 Q1097.9 1459.58 1097.9 1468.33 Q1097.9 1477.06 1094.82 1481.67 Q1091.76 1486.25 1085.95 1486.25 Q1080.14 1486.25 1077.06 1481.67 Q1074.01 1477.06 1074.01 1468.33 Q1074.01 1459.58 1077.06 1455 Q1080.14 1450.39 1085.95 1450.39 Z" fill="#000000" fill-rule="nonzero" fill-opacity="1" /><path clip-path="url(#clip240)" d="M1106.16 1451.02 L1124.52 1451.02 L1124.52 1454.96 L1110.44 1454.96 L1110.44 1463.43 Q1111.46 1463.08 1112.48 1462.92 Q1113.5 1462.73 1114.52 1462.73 Q1120.3 1462.73 1123.68 1465.9 Q1127.06 1469.08 1127.06 1474.49 Q1127.06 1480.07 1123.59 1483.17 Q1120.12 1486.25 1113.8 1486.25 Q1111.62 1486.25 1109.35 1485.88 Q1107.11 1485.51 1104.7 1484.77 L1104.7 1480.07 Q1106.78 1481.2 1109.01 1481.76 Q1111.23 1482.32 1113.71 1482.32 Q1117.71 1482.32 1120.05 1480.21 Q1122.39 1478.1 1122.39 1474.49 Q1122.39 1470.88 1120.05 1468.77 Q1117.71 1466.67 1113.71 1466.67 Q1111.83 1466.67 1109.96 1467.08 Q1108.1 1467.5 1106.16 1468.38 L1106.16 1451.02 Z" fill="#000000" fill-rule="nonzero" fill-opacity="1" /><path clip-path="url(#clip240)" d="M1136.32 1451.02 L1154.68 1451.02 L1154.68 1454.96 L1140.6 1454.96 L1140.6 1463.43 Q1141.62 1463.08 1142.64 1462.92 Q1143.66 1462.73 1144.68 1462.73 Q1150.46 1462.73 1153.84 1465.9 Q1157.22 1469.08 1157.22 1474.49 Q1157.22 1480.07 1153.75 1483.17 Q1150.28 1486.25 1143.96 1486.25 Q1141.78 1486.25 1139.52 1485.88 Q1137.27 1485.51 1134.86 1484.77 L1134.86 1480.07 Q1136.95 1481.2 1139.17 1481.76 Q1141.39 1482.32 1143.87 1482.32 Q1147.87 1482.32 1150.21 1480.21 Q1152.55 1478.1 1152.55 1474.49 Q1152.55 1470.88 1150.21 1468.77 Q1147.87 1466.67 1143.87 1466.67 Q1141.99 1466.67 1140.12 1467.08 Q1138.27 1467.5 1136.32 1468.38 L1136.32 1451.02 Z" fill="#000000" fill-rule="nonzero" fill-opacity="1" /><path clip-path="url(#clip240)" d="M1434.09 1454.1 Q1430.48 1454.1 1428.65 1457.66 Q1426.84 1461.2 1426.84 1468.33 Q1426.84 1475.44 1428.65 1479.01 Q1430.48 1482.55 1434.09 1482.55 Q1437.72 1482.55 1439.53 1479.01 Q1441.36 1475.44 1441.36 1468.33 Q1441.36 1461.2 1439.53 1457.66 Q1437.72 1454.1 1434.09 1454.1 M1434.09 1450.39 Q1439.9 1450.39 1442.95 1455 Q1446.03 1459.58 1446.03 1468.33 Q1446.03 1477.06 1442.95 1481.67 Q1439.9 1486.25 1434.09 1486.25 Q1428.28 1486.25 1425.2 1481.67 Q1422.14 1477.06 1422.14 1468.33 Q1422.14 1459.58 1425.2 1455 Q1428.28 1450.39 1434.09 1450.39 Z" fill="#000000" fill-rule="nonzero" fill-opacity="1" /><path clip-path="url(#clip240)" d="M1454.25 1479.7 L1459.13 1479.7 L1459.13 1485.58 L1454.25 1485.58 L1454.25 1479.7 Z" fill="#000000" fill-rule="nonzero" fill-opacity="1" /><path clip-path="url(#clip240)" d="M1479.32 1454.1 Q1475.71 1454.1 1473.88 1457.66 Q1472.07 1461.2 1472.07 1468.33 Q1472.07 1475.44 1473.88 1479.01 Q1475.71 1482.55 1479.32 1482.55 Q1482.95 1482.55 1484.76 1479.01 Q1486.59 1475.44 1486.59 1468.33 Q1486.59 1461.2 1484.76 1457.66 Q1482.95 1454.1 1479.32 1454.1 M1479.32 1450.39 Q1485.13 1450.39 1488.18 1455 Q1491.26 1459.58 1491.26 1468.33 Q1491.26 1477.06 1488.18 1481.67 Q1485.13 1486.25 1479.32 1486.25 Q1473.51 1486.25 1470.43 1481.67 Q1467.37 1477.06 1467.37 1468.33 Q1467.37 1459.58 1470.43 1455 Q1473.51 1450.39 1479.32 1450.39 Z" fill="#000000" fill-rule="nonzero" fill-opacity="1" /><path clip-path="url(#clip240)" d="M1510.06 1466.44 Q1506.91 1466.44 1505.06 1468.59 Q1503.23 1470.74 1503.23 1474.49 Q1503.23 1478.22 1505.06 1480.39 Q1506.91 1482.55 1510.06 1482.55 Q1513.21 1482.55 1515.04 1480.39 Q1516.89 1478.22 1516.89 1474.49 Q1516.89 1470.74 1515.04 1468.59 Q1513.21 1466.44 1510.06 1466.44 M1519.34 1451.78 L1519.34 1456.04 Q1517.58 1455.21 1515.78 1454.77 Q1513.99 1454.33 1512.23 1454.33 Q1507.6 1454.33 1505.15 1457.45 Q1502.72 1460.58 1502.37 1466.9 Q1503.74 1464.89 1505.8 1463.82 Q1507.86 1462.73 1510.34 1462.73 Q1515.54 1462.73 1518.55 1465.9 Q1521.59 1469.05 1521.59 1474.49 Q1521.59 1479.82 1518.44 1483.03 Q1515.29 1486.25 1510.06 1486.25 Q1504.06 1486.25 1500.89 1481.67 Q1497.72 1477.06 1497.72 1468.33 Q1497.72 1460.14 1501.61 1455.28 Q1505.5 1450.39 1512.05 1450.39 Q1513.81 1450.39 1515.59 1450.74 Q1517.4 1451.09 1519.34 1451.78 Z" fill="#000000" fill-rule="nonzero" fill-opacity="1" /><path clip-path="url(#clip240)" d="M1539.64 1454.1 Q1536.03 1454.1 1534.2 1457.66 Q1532.4 1461.2 1532.4 1468.33 Q1532.4 1475.44 1534.2 1479.01 Q1536.03 1482.55 1539.64 1482.55 Q1543.28 1482.55 1545.08 1479.01 Q1546.91 1475.44 1546.91 1468.33 Q1546.91 1461.2 1545.08 1457.66 Q1543.28 1454.1 1539.64 1454.1 M1539.64 1450.39 Q1545.45 1450.39 1548.51 1455 Q1551.59 1459.58 1551.59 1468.33 Q1551.59 1477.06 1548.51 1481.67 Q1545.45 1486.25 1539.64 1486.25 Q1533.83 1486.25 1530.75 1481.67 Q1527.7 1477.06 1527.7 1468.33 Q1527.7 1459.58 1530.75 1455 Q1533.83 1450.39 1539.64 1450.39 Z" fill="#000000" fill-rule="nonzero" fill-opacity="1" /><path clip-path="url(#clip240)" d="M1828.45 1454.1 Q1824.84 1454.1 1823.01 1457.66 Q1821.2 1461.2 1821.2 1468.33 Q1821.2 1475.44 1823.01 1479.01 Q1824.84 1482.55 1828.45 1482.55 Q1832.08 1482.55 1833.89 1479.01 Q1835.72 1475.44 1835.72 1468.33 Q1835.72 1461.2 1833.89 1457.66 Q1832.08 1454.1 1828.45 1454.1 M1828.45 1450.39 Q1834.26 1450.39 1837.31 1455 Q1840.39 1459.58 1840.39 1468.33 Q1840.39 1477.06 1837.31 1481.67 Q1834.26 1486.25 1828.45 1486.25 Q1822.64 1486.25 1819.56 1481.67 Q1816.5 1477.06 1816.5 1468.33 Q1816.5 1459.58 1819.56 1455 Q1822.64 1450.39 1828.45 1450.39 Z" fill="#000000" fill-rule="nonzero" fill-opacity="1" /><path clip-path="url(#clip240)" d="M1848.61 1479.7 L1853.49 1479.7 L1853.49 1485.58 L1848.61 1485.58 L1848.61 1479.7 Z" fill="#000000" fill-rule="nonzero" fill-opacity="1" /><path clip-path="url(#clip240)" d="M1873.68 1454.1 Q1870.07 1454.1 1868.24 1457.66 Q1866.43 1461.2 1866.43 1468.33 Q1866.43 1475.44 1868.24 1479.01 Q1870.07 1482.55 1873.68 1482.55 Q1877.31 1482.55 1879.12 1479.01 Q1880.95 1475.44 1880.95 1468.33 Q1880.95 1461.2 1879.12 1457.66 Q1877.31 1454.1 1873.68 1454.1 M1873.68 1450.39 Q1879.49 1450.39 1882.55 1455 Q1885.62 1459.58 1885.62 1468.33 Q1885.62 1477.06 1882.55 1481.67 Q1879.49 1486.25 1873.68 1486.25 Q1867.87 1486.25 1864.79 1481.67 Q1861.74 1477.06 1861.74 1468.33 Q1861.74 1459.58 1864.79 1455 Q1867.87 1450.39 1873.68 1450.39 Z" fill="#000000" fill-rule="nonzero" fill-opacity="1" /><path clip-path="url(#clip240)" d="M1904.42 1466.44 Q1901.27 1466.44 1899.42 1468.59 Q1897.59 1470.74 1897.59 1474.49 Q1897.59 1478.22 1899.42 1480.39 Q1901.27 1482.55 1904.42 1482.55 Q1907.57 1482.55 1909.4 1480.39 Q1911.25 1478.22 1911.25 1474.49 Q1911.25 1470.74 1909.4 1468.59 Q1907.57 1466.44 1904.42 1466.44 M1913.7 1451.78 L1913.7 1456.04 Q1911.94 1455.21 1910.14 1454.77 Q1908.36 1454.33 1906.6 1454.33 Q1901.97 1454.33 1899.51 1457.45 Q1897.08 1460.58 1896.74 1466.9 Q1898.1 1464.89 1900.16 1463.82 Q1902.22 1462.73 1904.7 1462.73 Q1909.91 1462.73 1912.92 1465.9 Q1915.95 1469.05 1915.95 1474.49 Q1915.95 1479.82 1912.8 1483.03 Q1909.65 1486.25 1904.42 1486.25 Q1898.43 1486.25 1895.25 1481.67 Q1892.08 1477.06 1892.08 1468.33 Q1892.08 1460.14 1895.97 1455.28 Q1899.86 1450.39 1906.41 1450.39 Q1908.17 1450.39 1909.95 1450.74 Q1911.76 1451.09 1913.7 1451.78 Z" fill="#000000" fill-rule="nonzero" fill-opacity="1" /><path clip-path="url(#clip240)" d="M1924.05 1451.02 L1942.41 1451.02 L1942.41 1454.96 L1928.33 1454.96 L1928.33 1463.43 Q1929.35 1463.08 1930.37 1462.92 Q1931.39 1462.73 1932.41 1462.73 Q1938.19 1462.73 1941.57 1465.9 Q1944.95 1469.08 1944.95 1474.49 Q1944.95 1480.07 1941.48 1483.17 Q1938.01 1486.25 1931.69 1486.25 Q1929.51 1486.25 1927.24 1485.88 Q1925 1485.51 1922.59 1484.77 L1922.59 1480.07 Q1924.67 1481.2 1926.9 1481.76 Q1929.12 1482.32 1931.6 1482.32 Q1935.6 1482.32 1937.94 1480.21 Q1940.28 1478.1 1940.28 1474.49 Q1940.28 1470.88 1937.94 1468.77 Q1935.6 1466.67 1931.6 1466.67 Q1929.72 1466.67 1927.85 1467.08 Q1925.99 1467.5 1924.05 1468.38 L1924.05 1451.02 Z" fill="#000000" fill-rule="nonzero" fill-opacity="1" /><path clip-path="url(#clip240)" d="M2221.82 1454.1 Q2218.2 1454.1 2216.38 1457.66 Q2214.57 1461.2 2214.57 1468.33 Q2214.57 1475.44 2216.38 1479.01 Q2218.2 1482.55 2221.82 1482.55 Q2225.45 1482.55 2227.26 1479.01 Q2229.08 1475.44 2229.08 1468.33 Q2229.08 1461.2 2227.26 1457.66 Q2225.45 1454.1 2221.82 1454.1 M2221.82 1450.39 Q2227.63 1450.39 2230.68 1455 Q2233.76 1459.58 2233.76 1468.33 Q2233.76 1477.06 2230.68 1481.67 Q2227.63 1486.25 2221.82 1486.25 Q2216.01 1486.25 2212.93 1481.67 Q2209.87 1477.06 2209.87 1468.33 Q2209.87 1459.58 2212.93 1455 Q2216.01 1450.39 2221.82 1450.39 Z" fill="#000000" fill-rule="nonzero" fill-opacity="1" /><path clip-path="url(#clip240)" d="M2241.98 1479.7 L2246.86 1479.7 L2246.86 1485.58 L2241.98 1485.58 L2241.98 1479.7 Z" fill="#000000" fill-rule="nonzero" fill-opacity="1" /><path clip-path="url(#clip240)" d="M2267.05 1454.1 Q2263.44 1454.1 2261.61 1457.66 Q2259.8 1461.2 2259.8 1468.33 Q2259.8 1475.44 2261.61 1479.01 Q2263.44 1482.55 2267.05 1482.55 Q2270.68 1482.55 2272.49 1479.01 Q2274.31 1475.44 2274.31 1468.33 Q2274.31 1461.2 2272.49 1457.66 Q2270.68 1454.1 2267.05 1454.1 M2267.05 1450.39 Q2272.86 1450.39 2275.91 1455 Q2278.99 1459.58 2278.99 1468.33 Q2278.99 1477.06 2275.91 1481.67 Q2272.86 1486.25 2267.05 1486.25 Q2261.24 1486.25 2258.16 1481.67 Q2255.1 1477.06 2255.1 1468.33 Q2255.1 1459.58 2258.16 1455 Q2261.24 1450.39 2267.05 1450.39 Z" fill="#000000" fill-rule="nonzero" fill-opacity="1" /><path clip-path="url(#clip240)" d="M2286.03 1451.02 L2308.25 1451.02 L2308.25 1453.01 L2295.7 1485.58 L2290.82 1485.58 L2302.63 1454.96 L2286.03 1454.96 L2286.03 1451.02 Z" fill="#000000" fill-rule="nonzero" fill-opacity="1" /><path clip-path="url(#clip240)" d="M2327.37 1454.1 Q2323.76 1454.1 2321.93 1457.66 Q2320.12 1461.2 2320.12 1468.33 Q2320.12 1475.44 2321.93 1479.01 Q2323.76 1482.55 2327.37 1482.55 Q2331 1482.55 2332.81 1479.01 Q2334.64 1475.44 2334.64 1468.33 Q2334.64 1461.2 2332.81 1457.66 Q2331 1454.1 2327.37 1454.1 M2327.37 1450.39 Q2333.18 1450.39 2336.24 1455 Q2339.31 1459.58 2339.31 1468.33 Q2339.31 1477.06 2336.24 1481.67 Q2333.18 1486.25 2327.37 1486.25 Q2321.56 1486.25 2318.48 1481.67 Q2315.43 1477.06 2315.43 1468.33 Q2315.43 1459.58 2318.48 1455 Q2321.56 1450.39 2327.37 1450.39 Z" fill="#000000" fill-rule="nonzero" fill-opacity="1" /><path clip-path="url(#clip240)" d="M1231.83 1545.76 Q1233.9 1546.46 1235.84 1548.76 Q1237.81 1551.05 1239.79 1555.06 L1246.31 1568.04 L1239.41 1568.04 L1233.33 1555.85 Q1230.97 1551.08 1228.74 1549.52 Q1226.55 1547.96 1222.73 1547.96 L1215.73 1547.96 L1215.73 1568.04 L1209.3 1568.04 L1209.3 1520.52 L1223.81 1520.52 Q1231.96 1520.52 1235.97 1523.93 Q1239.98 1527.34 1239.98 1534.21 Q1239.98 1538.7 1237.88 1541.66 Q1235.81 1544.62 1231.83 1545.76 M1215.73 1525.81 L1215.73 1542.68 L1223.81 1542.68 Q1228.46 1542.68 1230.81 1540.54 Q1233.2 1538.38 1233.2 1534.21 Q1233.2 1530.04 1230.81 1527.94 Q1228.46 1525.81 1223.81 1525.81 L1215.73 1525.81 Z" fill="#000000" fill-rule="nonzero" fill-opacity="1" /><path clip-path="url(#clip240)" d="M1281.9 1548.76 L1281.9 1551.62 L1254.97 1551.62 Q1255.35 1557.67 1258.6 1560.85 Q1261.88 1564 1267.7 1564 Q1271.08 1564 1274.23 1563.17 Q1277.41 1562.35 1280.53 1560.69 L1280.53 1566.23 Q1277.38 1567.57 1274.07 1568.27 Q1270.76 1568.97 1267.35 1568.97 Q1258.82 1568.97 1253.82 1564 Q1248.86 1559.04 1248.86 1550.57 Q1248.86 1541.82 1253.57 1536.69 Q1258.31 1531.54 1266.33 1531.54 Q1273.53 1531.54 1277.7 1536.18 Q1281.9 1540.8 1281.9 1548.76 M1276.04 1547.04 Q1275.98 1542.23 1273.34 1539.37 Q1270.73 1536.5 1266.4 1536.5 Q1261.49 1536.5 1258.53 1539.27 Q1255.61 1542.04 1255.16 1547.07 L1276.04 1547.04 Z" fill="#000000" fill-rule="nonzero" fill-opacity="1" /><path clip-path="url(#clip240)" d="M1309.75 1520.52 L1347.08 1520.52 L1347.08 1525.43 L1317.04 1562.63 L1347.81 1562.63 L1347.81 1568.04 L1309.01 1568.04 L1309.01 1563.14 L1339.06 1525.93 L1309.75 1525.93 L1309.75 1520.52 Z" fill="#000000" fill-rule="nonzero" fill-opacity="1" /><path clip-path="url(#clip240)" d="M1388.01 1520.52 L1393.42 1520.52 L1376.87 1574.09 L1371.46 1574.09 L1388.01 1520.52 Z" fill="#000000" fill-rule="nonzero" fill-opacity="1" /><path clip-path="url(#clip240)" d="M1461.47 1562.38 L1461.47 1568.04 L1442.38 1568.04 L1442.38 1562.38 Q1448.01 1559.29 1451.16 1554.01 Q1454.31 1548.72 1454.31 1542.29 Q1454.31 1534.66 1450.11 1530.04 Q1445.91 1525.43 1439.03 1525.43 Q1432.16 1525.43 1427.93 1530.07 Q1423.72 1534.69 1423.72 1542.29 Q1423.72 1548.72 1426.88 1554.01 Q1430.06 1559.29 1435.72 1562.38 L1435.72 1568.04 L1416.63 1568.04 L1416.63 1562.38 L1426.78 1562.38 Q1421.75 1557.95 1419.43 1553.21 Q1417.14 1548.47 1417.14 1542.61 Q1417.14 1532.49 1423.25 1526.22 Q1429.33 1519.95 1439.03 1519.95 Q1448.68 1519.95 1454.82 1526.22 Q1460.93 1532.46 1460.93 1542.29 Q1460.93 1548.47 1458.67 1553.18 Q1456.41 1557.89 1451.29 1562.38 L1461.47 1562.38 Z" fill="#000000" fill-rule="nonzero" fill-opacity="1" /><polyline clip-path="url(#clip240)" style="stroke:#000000; stroke-linecap:round; stroke-linejoin:round; stroke-width:4; stroke-opacity:1; fill:none" points="318.014,47.2441 318.014,1423.18 "/>
<polyline clip-path="url(#clip240)" style="stroke:#000000; stroke-linecap:round; stroke-linejoin:round; stroke-width:4; stroke-opacity:1; fill:none" points="318.014,80.6379 336.912,80.6379 "/>
<polyline clip-path="url(#clip240)" style="stroke:#000000; stroke-linecap:round; stroke-linejoin:round; stroke-width:4; stroke-opacity:1; fill:none" points="318.014,277.57 336.912,277.57 "/>
<polyline clip-path="url(#clip240)" style="stroke:#000000; stroke-linecap:round; stroke-linejoin:round; stroke-width:4; stroke-opacity:1; fill:none" points="318.014,474.502 336.912,474.502 "/>
<polyline clip-path="url(#clip240)" style="stroke:#000000; stroke-linecap:round; stroke-linejoin:round; stroke-width:4; stroke-opacity:1; fill:none" points="318.014,671.434 336.912,671.434 "/>
<polyline clip-path="url(#clip240)" style="stroke:#000000; stroke-linecap:round; stroke-linejoin:round; stroke-width:4; stroke-opacity:1; fill:none" points="318.014,868.367 336.912,868.367 "/>
<polyline clip-path="url(#clip240)" style="stroke:#000000; stroke-linecap:round; stroke-linejoin:round; stroke-width:4; stroke-opacity:1; fill:none" points="318.014,1065.3 336.912,1065.3 "/>
<polyline clip-path="url(#clip240)" style="stroke:#000000; stroke-linecap:round; stroke-linejoin:round; stroke-width:4; stroke-opacity:1; fill:none" points="318.014,1262.23 336.912,1262.23 "/>
<path clip-path="url(#clip240)" d="M85.5798 81.0893 L115.256 81.0893 L115.256 85.0245 L85.5798 85.0245 L85.5798 81.0893 Z" fill="#000000" fill-rule="nonzero" fill-opacity="1" /><path clip-path="url(#clip240)" d="M135.348 66.4366 Q131.737 66.4366 129.908 70.0014 Q128.103 73.5431 128.103 80.6727 Q128.103 87.7791 129.908 91.3439 Q131.737 94.8855 135.348 94.8855 Q138.982 94.8855 140.788 91.3439 Q142.616 87.7791 142.616 80.6727 Q142.616 73.5431 140.788 70.0014 Q138.982 66.4366 135.348 66.4366 M135.348 62.7329 Q141.158 62.7329 144.214 67.3394 Q147.292 71.9227 147.292 80.6727 Q147.292 89.3995 144.214 94.0059 Q141.158 98.5892 135.348 98.5892 Q129.538 98.5892 126.459 94.0059 Q123.404 89.3995 123.404 80.6727 Q123.404 71.9227 126.459 67.3394 Q129.538 62.7329 135.348 62.7329 Z" fill="#000000" fill-rule="nonzero" fill-opacity="1" /><path clip-path="url(#clip240)" d="M155.51 92.0383 L160.394 92.0383 L160.394 97.9179 L155.51 97.9179 L155.51 92.0383 Z" fill="#000000" fill-rule="nonzero" fill-opacity="1" /><path clip-path="url(#clip240)" d="M180.579 66.4366 Q176.968 66.4366 175.139 70.0014 Q173.334 73.5431 173.334 80.6727 Q173.334 87.7791 175.139 91.3439 Q176.968 94.8855 180.579 94.8855 Q184.213 94.8855 186.019 91.3439 Q187.848 87.7791 187.848 80.6727 Q187.848 73.5431 186.019 70.0014 Q184.213 66.4366 180.579 66.4366 M180.579 62.7329 Q186.389 62.7329 189.445 67.3394 Q192.524 71.9227 192.524 80.6727 Q192.524 89.3995 189.445 94.0059 Q186.389 98.5892 180.579 98.5892 Q174.769 98.5892 171.69 94.0059 Q168.635 89.3995 168.635 80.6727 Q168.635 71.9227 171.69 67.3394 Q174.769 62.7329 180.579 62.7329 Z" fill="#000000" fill-rule="nonzero" fill-opacity="1" /><path clip-path="url(#clip240)" d="M201.551 93.9828 L209.19 93.9828 L209.19 67.6172 L200.88 69.2838 L200.88 65.0246 L209.144 63.3579 L213.82 63.3579 L213.82 93.9828 L221.459 93.9828 L221.459 97.9179 L201.551 97.9179 L201.551 93.9828 Z" fill="#000000" fill-rule="nonzero" fill-opacity="1" /><path clip-path="url(#clip240)" d="M234.931 93.9828 L251.25 93.9828 L251.25 97.9179 L229.306 97.9179 L229.306 93.9828 Q231.968 91.2282 236.551 86.5985 Q241.158 81.9458 242.338 80.6032 Q244.584 78.0801 245.463 76.344 Q246.366 74.5847 246.366 72.8949 Q246.366 70.1403 244.421 68.4042 Q242.5 66.6681 239.398 66.6681 Q237.199 66.6681 234.746 67.432 Q232.315 68.1959 229.537 69.7468 L229.537 65.0246 Q232.361 63.8903 234.815 63.3116 Q237.269 62.7329 239.306 62.7329 Q244.676 62.7329 247.871 65.4181 Q251.065 68.1033 251.065 72.594 Q251.065 74.7236 250.255 76.6449 Q249.468 78.543 247.361 81.1356 Q246.783 81.8069 243.681 85.0245 Q240.579 88.2189 234.931 93.9828 Z" fill="#000000" fill-rule="nonzero" fill-opacity="1" /><path clip-path="url(#clip240)" d="M261.111 63.3579 L279.468 63.3579 L279.468 67.2931 L265.394 67.2931 L265.394 75.7653 Q266.412 75.418 267.431 75.256 Q268.449 75.0708 269.468 75.0708 Q275.255 75.0708 278.634 78.2421 Q282.014 81.4134 282.014 86.83 Q282.014 92.4087 278.542 95.5105 Q275.069 98.5892 268.75 98.5892 Q266.574 98.5892 264.306 98.2189 Q262.06 97.8485 259.653 97.1077 L259.653 92.4087 Q261.736 93.543 263.958 94.0985 Q266.181 94.6541 268.657 94.6541 Q272.662 94.6541 275 92.5476 Q277.338 90.4411 277.338 86.83 Q277.338 83.2189 275 81.1125 Q272.662 79.006 268.657 79.006 Q266.782 79.006 264.907 79.4227 Q263.056 79.8393 261.111 80.7189 L261.111 63.3579 Z" fill="#000000" fill-rule="nonzero" fill-opacity="1" /><path clip-path="url(#clip240)" d="M84.5844 278.021 L114.26 278.021 L114.26 281.957 L84.5844 281.957 L84.5844 278.021 Z" fill="#000000" fill-rule="nonzero" fill-opacity="1" /><path clip-path="url(#clip240)" d="M134.353 263.369 Q130.742 263.369 128.913 266.934 Q127.107 270.475 127.107 277.605 Q127.107 284.711 128.913 288.276 Q130.742 291.818 134.353 291.818 Q137.987 291.818 139.792 288.276 Q141.621 284.711 141.621 277.605 Q141.621 270.475 139.792 266.934 Q137.987 263.369 134.353 263.369 M134.353 259.665 Q140.163 259.665 143.218 264.272 Q146.297 268.855 146.297 277.605 Q146.297 286.332 143.218 290.938 Q140.163 295.521 134.353 295.521 Q128.542 295.521 125.464 290.938 Q122.408 286.332 122.408 277.605 Q122.408 268.855 125.464 264.272 Q128.542 259.665 134.353 259.665 Z" fill="#000000" fill-rule="nonzero" fill-opacity="1" /><path clip-path="url(#clip240)" d="M154.515 288.971 L159.399 288.971 L159.399 294.85 L154.515 294.85 L154.515 288.971 Z" fill="#000000" fill-rule="nonzero" fill-opacity="1" /><path clip-path="url(#clip240)" d="M179.584 263.369 Q175.973 263.369 174.144 266.934 Q172.339 270.475 172.339 277.605 Q172.339 284.711 174.144 288.276 Q175.973 291.818 179.584 291.818 Q183.218 291.818 185.024 288.276 Q186.852 284.711 186.852 277.605 Q186.852 270.475 185.024 266.934 Q183.218 263.369 179.584 263.369 M179.584 259.665 Q185.394 259.665 188.45 264.272 Q191.528 268.855 191.528 277.605 Q191.528 286.332 188.45 290.938 Q185.394 295.521 179.584 295.521 Q173.774 295.521 170.695 290.938 Q167.64 286.332 167.64 277.605 Q167.64 268.855 170.695 264.272 Q173.774 259.665 179.584 259.665 Z" fill="#000000" fill-rule="nonzero" fill-opacity="1" /><path clip-path="url(#clip240)" d="M200.556 290.915 L208.195 290.915 L208.195 264.549 L199.885 266.216 L199.885 261.957 L208.149 260.29 L212.824 260.29 L212.824 290.915 L220.463 290.915 L220.463 294.85 L200.556 294.85 L200.556 290.915 Z" fill="#000000" fill-rule="nonzero" fill-opacity="1" /><path clip-path="url(#clip240)" d="M239.908 263.369 Q236.297 263.369 234.468 266.934 Q232.662 270.475 232.662 277.605 Q232.662 284.711 234.468 288.276 Q236.297 291.818 239.908 291.818 Q243.542 291.818 245.347 288.276 Q247.176 284.711 247.176 277.605 Q247.176 270.475 245.347 266.934 Q243.542 263.369 239.908 263.369 M239.908 259.665 Q245.718 259.665 248.773 264.272 Q251.852 268.855 251.852 277.605 Q251.852 286.332 248.773 290.938 Q245.718 295.521 239.908 295.521 Q234.097 295.521 231.019 290.938 Q227.963 286.332 227.963 277.605 Q227.963 268.855 231.019 264.272 Q234.097 259.665 239.908 259.665 Z" fill="#000000" fill-rule="nonzero" fill-opacity="1" /><path clip-path="url(#clip240)" d="M270.07 263.369 Q266.458 263.369 264.63 266.934 Q262.824 270.475 262.824 277.605 Q262.824 284.711 264.63 288.276 Q266.458 291.818 270.07 291.818 Q273.704 291.818 275.509 288.276 Q277.338 284.711 277.338 277.605 Q277.338 270.475 275.509 266.934 Q273.704 263.369 270.07 263.369 M270.07 259.665 Q275.88 259.665 278.935 264.272 Q282.014 268.855 282.014 277.605 Q282.014 286.332 278.935 290.938 Q275.88 295.521 270.07 295.521 Q264.259 295.521 261.181 290.938 Q258.125 286.332 258.125 277.605 Q258.125 268.855 261.181 264.272 Q264.259 259.665 270.07 259.665 Z" fill="#000000" fill-rule="nonzero" fill-opacity="1" /><path clip-path="url(#clip240)" d="M85.5798 474.954 L115.256 474.954 L115.256 478.889 L85.5798 478.889 L85.5798 474.954 Z" fill="#000000" fill-rule="nonzero" fill-opacity="1" /><path clip-path="url(#clip240)" d="M135.348 460.301 Q131.737 460.301 129.908 463.866 Q128.103 467.407 128.103 474.537 Q128.103 481.643 129.908 485.208 Q131.737 488.75 135.348 488.75 Q138.982 488.75 140.788 485.208 Q142.616 481.643 142.616 474.537 Q142.616 467.407 140.788 463.866 Q138.982 460.301 135.348 460.301 M135.348 456.597 Q141.158 456.597 144.214 461.204 Q147.292 465.787 147.292 474.537 Q147.292 483.264 144.214 487.87 Q141.158 492.454 135.348 492.454 Q129.538 492.454 126.459 487.87 Q123.404 483.264 123.404 474.537 Q123.404 465.787 126.459 461.204 Q129.538 456.597 135.348 456.597 Z" fill="#000000" fill-rule="nonzero" fill-opacity="1" /><path clip-path="url(#clip240)" d="M155.51 485.903 L160.394 485.903 L160.394 491.782 L155.51 491.782 L155.51 485.903 Z" fill="#000000" fill-rule="nonzero" fill-opacity="1" /><path clip-path="url(#clip240)" d="M180.579 460.301 Q176.968 460.301 175.139 463.866 Q173.334 467.407 173.334 474.537 Q173.334 481.643 175.139 485.208 Q176.968 488.75 180.579 488.75 Q184.213 488.75 186.019 485.208 Q187.848 481.643 187.848 474.537 Q187.848 467.407 186.019 463.866 Q184.213 460.301 180.579 460.301 M180.579 456.597 Q186.389 456.597 189.445 461.204 Q192.524 465.787 192.524 474.537 Q192.524 483.264 189.445 487.87 Q186.389 492.454 180.579 492.454 Q174.769 492.454 171.69 487.87 Q168.635 483.264 168.635 474.537 Q168.635 465.787 171.69 461.204 Q174.769 456.597 180.579 456.597 Z" fill="#000000" fill-rule="nonzero" fill-opacity="1" /><path clip-path="url(#clip240)" d="M210.741 460.301 Q207.13 460.301 205.301 463.866 Q203.496 467.407 203.496 474.537 Q203.496 481.643 205.301 485.208 Q207.13 488.75 210.741 488.75 Q214.375 488.75 216.181 485.208 Q218.01 481.643 218.01 474.537 Q218.01 467.407 216.181 463.866 Q214.375 460.301 210.741 460.301 M210.741 456.597 Q216.551 456.597 219.607 461.204 Q222.686 465.787 222.686 474.537 Q222.686 483.264 219.607 487.87 Q216.551 492.454 210.741 492.454 Q204.931 492.454 201.852 487.87 Q198.797 483.264 198.797 474.537 Q198.797 465.787 201.852 461.204 Q204.931 456.597 210.741 456.597 Z" fill="#000000" fill-rule="nonzero" fill-opacity="1" /><path clip-path="url(#clip240)" d="M229.723 457.222 L251.945 457.222 L251.945 459.213 L239.398 491.782 L234.514 491.782 L246.32 461.157 L229.723 461.157 L229.723 457.222 Z" fill="#000000" fill-rule="nonzero" fill-opacity="1" /><path clip-path="url(#clip240)" d="M261.111 457.222 L279.468 457.222 L279.468 461.157 L265.394 461.157 L265.394 469.63 Q266.412 469.282 267.431 469.12 Q268.449 468.935 269.468 468.935 Q275.255 468.935 278.634 472.106 Q282.014 475.278 282.014 480.694 Q282.014 486.273 278.542 489.375 Q275.069 492.454 268.75 492.454 Q266.574 492.454 264.306 492.083 Q262.06 491.713 259.653 490.972 L259.653 486.273 Q261.736 487.407 263.958 487.963 Q266.181 488.518 268.657 488.518 Q272.662 488.518 275 486.412 Q277.338 484.305 277.338 480.694 Q277.338 477.083 275 474.977 Q272.662 472.87 268.657 472.87 Q266.782 472.87 264.907 473.287 Q263.056 473.704 261.111 474.583 L261.111 457.222 Z" fill="#000000" fill-rule="nonzero" fill-opacity="1" /><path clip-path="url(#clip240)" d="M84.5844 671.886 L114.26 671.886 L114.26 675.821 L84.5844 675.821 L84.5844 671.886 Z" fill="#000000" fill-rule="nonzero" fill-opacity="1" /><path clip-path="url(#clip240)" d="M134.353 657.233 Q130.742 657.233 128.913 660.798 Q127.107 664.34 127.107 671.469 Q127.107 678.576 128.913 682.14 Q130.742 685.682 134.353 685.682 Q137.987 685.682 139.792 682.14 Q141.621 678.576 141.621 671.469 Q141.621 664.34 139.792 660.798 Q137.987 657.233 134.353 657.233 M134.353 653.529 Q140.163 653.529 143.218 658.136 Q146.297 662.719 146.297 671.469 Q146.297 680.196 143.218 684.802 Q140.163 689.386 134.353 689.386 Q128.542 689.386 125.464 684.802 Q122.408 680.196 122.408 671.469 Q122.408 662.719 125.464 658.136 Q128.542 653.529 134.353 653.529 Z" fill="#000000" fill-rule="nonzero" fill-opacity="1" /><path clip-path="url(#clip240)" d="M154.515 682.835 L159.399 682.835 L159.399 688.714 L154.515 688.714 L154.515 682.835 Z" fill="#000000" fill-rule="nonzero" fill-opacity="1" /><path clip-path="url(#clip240)" d="M179.584 657.233 Q175.973 657.233 174.144 660.798 Q172.339 664.34 172.339 671.469 Q172.339 678.576 174.144 682.14 Q175.973 685.682 179.584 685.682 Q183.218 685.682 185.024 682.14 Q186.852 678.576 186.852 671.469 Q186.852 664.34 185.024 660.798 Q183.218 657.233 179.584 657.233 M179.584 653.529 Q185.394 653.529 188.45 658.136 Q191.528 662.719 191.528 671.469 Q191.528 680.196 188.45 684.802 Q185.394 689.386 179.584 689.386 Q173.774 689.386 170.695 684.802 Q167.64 680.196 167.64 671.469 Q167.64 662.719 170.695 658.136 Q173.774 653.529 179.584 653.529 Z" fill="#000000" fill-rule="nonzero" fill-opacity="1" /><path clip-path="url(#clip240)" d="M209.746 657.233 Q206.135 657.233 204.306 660.798 Q202.5 664.34 202.5 671.469 Q202.5 678.576 204.306 682.14 Q206.135 685.682 209.746 685.682 Q213.38 685.682 215.186 682.14 Q217.014 678.576 217.014 671.469 Q217.014 664.34 215.186 660.798 Q213.38 657.233 209.746 657.233 M209.746 653.529 Q215.556 653.529 218.611 658.136 Q221.69 662.719 221.69 671.469 Q221.69 680.196 218.611 684.802 Q215.556 689.386 209.746 689.386 Q203.936 689.386 200.857 684.802 Q197.801 680.196 197.801 671.469 Q197.801 662.719 200.857 658.136 Q203.936 653.529 209.746 653.529 Z" fill="#000000" fill-rule="nonzero" fill-opacity="1" /><path clip-path="url(#clip240)" d="M229.954 654.154 L248.31 654.154 L248.31 658.09 L234.236 658.09 L234.236 666.562 Q235.255 666.215 236.273 666.053 Q237.292 665.867 238.31 665.867 Q244.097 665.867 247.477 669.039 Q250.857 672.21 250.857 677.627 Q250.857 683.205 247.384 686.307 Q243.912 689.386 237.593 689.386 Q235.417 689.386 233.148 689.015 Q230.903 688.645 228.496 687.904 L228.496 683.205 Q230.579 684.339 232.801 684.895 Q235.023 685.451 237.5 685.451 Q241.505 685.451 243.843 683.344 Q246.181 681.238 246.181 677.627 Q246.181 674.015 243.843 671.909 Q241.505 669.803 237.5 669.803 Q235.625 669.803 233.75 670.219 Q231.898 670.636 229.954 671.515 L229.954 654.154 Z" fill="#000000" fill-rule="nonzero" fill-opacity="1" /><path clip-path="url(#clip240)" d="M270.07 657.233 Q266.458 657.233 264.63 660.798 Q262.824 664.34 262.824 671.469 Q262.824 678.576 264.63 682.14 Q266.458 685.682 270.07 685.682 Q273.704 685.682 275.509 682.14 Q277.338 678.576 277.338 671.469 Q277.338 664.34 275.509 660.798 Q273.704 657.233 270.07 657.233 M270.07 653.529 Q275.88 653.529 278.935 658.136 Q282.014 662.719 282.014 671.469 Q282.014 680.196 278.935 684.802 Q275.88 689.386 270.07 689.386 Q264.259 689.386 261.181 684.802 Q258.125 680.196 258.125 671.469 Q258.125 662.719 261.181 658.136 Q264.259 653.529 270.07 653.529 Z" fill="#000000" fill-rule="nonzero" fill-opacity="1" /><path clip-path="url(#clip240)" d="M85.5798 868.818 L115.256 868.818 L115.256 872.753 L85.5798 872.753 L85.5798 868.818 Z" fill="#000000" fill-rule="nonzero" fill-opacity="1" /><path clip-path="url(#clip240)" d="M135.348 854.165 Q131.737 854.165 129.908 857.73 Q128.103 861.272 128.103 868.401 Q128.103 875.508 129.908 879.073 Q131.737 882.614 135.348 882.614 Q138.982 882.614 140.788 879.073 Q142.616 875.508 142.616 868.401 Q142.616 861.272 140.788 857.73 Q138.982 854.165 135.348 854.165 M135.348 850.462 Q141.158 850.462 144.214 855.068 Q147.292 859.651 147.292 868.401 Q147.292 877.128 144.214 881.735 Q141.158 886.318 135.348 886.318 Q129.538 886.318 126.459 881.735 Q123.404 877.128 123.404 868.401 Q123.404 859.651 126.459 855.068 Q129.538 850.462 135.348 850.462 Z" fill="#000000" fill-rule="nonzero" fill-opacity="1" /><path clip-path="url(#clip240)" d="M155.51 879.767 L160.394 879.767 L160.394 885.647 L155.51 885.647 L155.51 879.767 Z" fill="#000000" fill-rule="nonzero" fill-opacity="1" /><path clip-path="url(#clip240)" d="M180.579 854.165 Q176.968 854.165 175.139 857.73 Q173.334 861.272 173.334 868.401 Q173.334 875.508 175.139 879.073 Q176.968 882.614 180.579 882.614 Q184.213 882.614 186.019 879.073 Q187.848 875.508 187.848 868.401 Q187.848 861.272 186.019 857.73 Q184.213 854.165 180.579 854.165 M180.579 850.462 Q186.389 850.462 189.445 855.068 Q192.524 859.651 192.524 868.401 Q192.524 877.128 189.445 881.735 Q186.389 886.318 180.579 886.318 Q174.769 886.318 171.69 881.735 Q168.635 877.128 168.635 868.401 Q168.635 859.651 171.69 855.068 Q174.769 850.462 180.579 850.462 Z" fill="#000000" fill-rule="nonzero" fill-opacity="1" /><path clip-path="url(#clip240)" d="M210.741 854.165 Q207.13 854.165 205.301 857.73 Q203.496 861.272 203.496 868.401 Q203.496 875.508 205.301 879.073 Q207.13 882.614 210.741 882.614 Q214.375 882.614 216.181 879.073 Q218.01 875.508 218.01 868.401 Q218.01 861.272 216.181 857.73 Q214.375 854.165 210.741 854.165 M210.741 850.462 Q216.551 850.462 219.607 855.068 Q222.686 859.651 222.686 868.401 Q222.686 877.128 219.607 881.735 Q216.551 886.318 210.741 886.318 Q204.931 886.318 201.852 881.735 Q198.797 877.128 198.797 868.401 Q198.797 859.651 201.852 855.068 Q204.931 850.462 210.741 850.462 Z" fill="#000000" fill-rule="nonzero" fill-opacity="1" /><path clip-path="url(#clip240)" d="M234.931 881.711 L251.25 881.711 L251.25 885.647 L229.306 885.647 L229.306 881.711 Q231.968 878.957 236.551 874.327 Q241.158 869.674 242.338 868.332 Q244.584 865.809 245.463 864.073 Q246.366 862.313 246.366 860.624 Q246.366 857.869 244.421 856.133 Q242.5 854.397 239.398 854.397 Q237.199 854.397 234.746 855.161 Q232.315 855.925 229.537 857.475 L229.537 852.753 Q232.361 851.619 234.815 851.04 Q237.269 850.462 239.306 850.462 Q244.676 850.462 247.871 853.147 Q251.065 855.832 251.065 860.323 Q251.065 862.452 250.255 864.374 Q249.468 866.272 247.361 868.864 Q246.783 869.536 243.681 872.753 Q240.579 875.948 234.931 881.711 Z" fill="#000000" fill-rule="nonzero" fill-opacity="1" /><path clip-path="url(#clip240)" d="M261.111 851.087 L279.468 851.087 L279.468 855.022 L265.394 855.022 L265.394 863.494 Q266.412 863.147 267.431 862.985 Q268.449 862.8 269.468 862.8 Q275.255 862.8 278.634 865.971 Q282.014 869.142 282.014 874.559 Q282.014 880.137 278.542 883.239 Q275.069 886.318 268.75 886.318 Q266.574 886.318 264.306 885.948 Q262.06 885.577 259.653 884.836 L259.653 880.137 Q261.736 881.272 263.958 881.827 Q266.181 882.383 268.657 882.383 Q272.662 882.383 275 880.276 Q277.338 878.17 277.338 874.559 Q277.338 870.948 275 868.841 Q272.662 866.735 268.657 866.735 Q266.782 866.735 264.907 867.151 Q263.056 867.568 261.111 868.448 L261.111 851.087 Z" fill="#000000" fill-rule="nonzero" fill-opacity="1" /><path clip-path="url(#clip240)" d="M134.353 1051.1 Q130.742 1051.1 128.913 1054.66 Q127.107 1058.2 127.107 1065.33 Q127.107 1072.44 128.913 1076 Q130.742 1079.55 134.353 1079.55 Q137.987 1079.55 139.792 1076 Q141.621 1072.44 141.621 1065.33 Q141.621 1058.2 139.792 1054.66 Q137.987 1051.1 134.353 1051.1 M134.353 1047.39 Q140.163 1047.39 143.218 1052 Q146.297 1056.58 146.297 1065.33 Q146.297 1074.06 143.218 1078.67 Q140.163 1083.25 134.353 1083.25 Q128.542 1083.25 125.464 1078.67 Q122.408 1074.06 122.408 1065.33 Q122.408 1056.58 125.464 1052 Q128.542 1047.39 134.353 1047.39 Z" fill="#000000" fill-rule="nonzero" fill-opacity="1" /><path clip-path="url(#clip240)" d="M154.515 1076.7 L159.399 1076.7 L159.399 1082.58 L154.515 1082.58 L154.515 1076.7 Z" fill="#000000" fill-rule="nonzero" fill-opacity="1" /><path clip-path="url(#clip240)" d="M179.584 1051.1 Q175.973 1051.1 174.144 1054.66 Q172.339 1058.2 172.339 1065.33 Q172.339 1072.44 174.144 1076 Q175.973 1079.55 179.584 1079.55 Q183.218 1079.55 185.024 1076 Q186.852 1072.44 186.852 1065.33 Q186.852 1058.2 185.024 1054.66 Q183.218 1051.1 179.584 1051.1 M179.584 1047.39 Q185.394 1047.39 188.45 1052 Q191.528 1056.58 191.528 1065.33 Q191.528 1074.06 188.45 1078.67 Q185.394 1083.25 179.584 1083.25 Q173.774 1083.25 170.695 1078.67 Q167.64 1074.06 167.64 1065.33 Q167.64 1056.58 170.695 1052 Q173.774 1047.39 179.584 1047.39 Z" fill="#000000" fill-rule="nonzero" fill-opacity="1" /><path clip-path="url(#clip240)" d="M209.746 1051.1 Q206.135 1051.1 204.306 1054.66 Q202.5 1058.2 202.5 1065.33 Q202.5 1072.44 204.306 1076 Q206.135 1079.55 209.746 1079.55 Q213.38 1079.55 215.186 1076 Q217.014 1072.44 217.014 1065.33 Q217.014 1058.2 215.186 1054.66 Q213.38 1051.1 209.746 1051.1 M209.746 1047.39 Q215.556 1047.39 218.611 1052 Q221.69 1056.58 221.69 1065.33 Q221.69 1074.06 218.611 1078.67 Q215.556 1083.25 209.746 1083.25 Q203.936 1083.25 200.857 1078.67 Q197.801 1074.06 197.801 1065.33 Q197.801 1056.58 200.857 1052 Q203.936 1047.39 209.746 1047.39 Z" fill="#000000" fill-rule="nonzero" fill-opacity="1" /><path clip-path="url(#clip240)" d="M239.908 1051.1 Q236.297 1051.1 234.468 1054.66 Q232.662 1058.2 232.662 1065.33 Q232.662 1072.44 234.468 1076 Q236.297 1079.55 239.908 1079.55 Q243.542 1079.55 245.347 1076 Q247.176 1072.44 247.176 1065.33 Q247.176 1058.2 245.347 1054.66 Q243.542 1051.1 239.908 1051.1 M239.908 1047.39 Q245.718 1047.39 248.773 1052 Q251.852 1056.58 251.852 1065.33 Q251.852 1074.06 248.773 1078.67 Q245.718 1083.25 239.908 1083.25 Q234.097 1083.25 231.019 1078.67 Q227.963 1074.06 227.963 1065.33 Q227.963 1056.58 231.019 1052 Q234.097 1047.39 239.908 1047.39 Z" fill="#000000" fill-rule="nonzero" fill-opacity="1" /><path clip-path="url(#clip240)" d="M270.07 1051.1 Q266.458 1051.1 264.63 1054.66 Q262.824 1058.2 262.824 1065.33 Q262.824 1072.44 264.63 1076 Q266.458 1079.55 270.07 1079.55 Q273.704 1079.55 275.509 1076 Q277.338 1072.44 277.338 1065.33 Q277.338 1058.2 275.509 1054.66 Q273.704 1051.1 270.07 1051.1 M270.07 1047.39 Q275.88 1047.39 278.935 1052 Q282.014 1056.58 282.014 1065.33 Q282.014 1074.06 278.935 1078.67 Q275.88 1083.25 270.07 1083.25 Q264.259 1083.25 261.181 1078.67 Q258.125 1074.06 258.125 1065.33 Q258.125 1056.58 261.181 1052 Q264.259 1047.39 270.07 1047.39 Z" fill="#000000" fill-rule="nonzero" fill-opacity="1" /><path clip-path="url(#clip240)" d="M135.348 1248.03 Q131.737 1248.03 129.908 1251.59 Q128.103 1255.14 128.103 1262.27 Q128.103 1269.37 129.908 1272.94 Q131.737 1276.48 135.348 1276.48 Q138.982 1276.48 140.788 1272.94 Q142.616 1269.37 142.616 1262.27 Q142.616 1255.14 140.788 1251.59 Q138.982 1248.03 135.348 1248.03 M135.348 1244.33 Q141.158 1244.33 144.214 1248.93 Q147.292 1253.52 147.292 1262.27 Q147.292 1270.99 144.214 1275.6 Q141.158 1280.18 135.348 1280.18 Q129.538 1280.18 126.459 1275.6 Q123.404 1270.99 123.404 1262.27 Q123.404 1253.52 126.459 1248.93 Q129.538 1244.33 135.348 1244.33 Z" fill="#000000" fill-rule="nonzero" fill-opacity="1" /><path clip-path="url(#clip240)" d="M155.51 1273.63 L160.394 1273.63 L160.394 1279.51 L155.51 1279.51 L155.51 1273.63 Z" fill="#000000" fill-rule="nonzero" fill-opacity="1" /><path clip-path="url(#clip240)" d="M180.579 1248.03 Q176.968 1248.03 175.139 1251.59 Q173.334 1255.14 173.334 1262.27 Q173.334 1269.37 175.139 1272.94 Q176.968 1276.48 180.579 1276.48 Q184.213 1276.48 186.019 1272.94 Q187.848 1269.37 187.848 1262.27 Q187.848 1255.14 186.019 1251.59 Q184.213 1248.03 180.579 1248.03 M180.579 1244.33 Q186.389 1244.33 189.445 1248.93 Q192.524 1253.52 192.524 1262.27 Q192.524 1270.99 189.445 1275.6 Q186.389 1280.18 180.579 1280.18 Q174.769 1280.18 171.69 1275.6 Q168.635 1270.99 168.635 1262.27 Q168.635 1253.52 171.69 1248.93 Q174.769 1244.33 180.579 1244.33 Z" fill="#000000" fill-rule="nonzero" fill-opacity="1" /><path clip-path="url(#clip240)" d="M210.741 1248.03 Q207.13 1248.03 205.301 1251.59 Q203.496 1255.14 203.496 1262.27 Q203.496 1269.37 205.301 1272.94 Q207.13 1276.48 210.741 1276.48 Q214.375 1276.48 216.181 1272.94 Q218.01 1269.37 218.01 1262.27 Q218.01 1255.14 216.181 1251.59 Q214.375 1248.03 210.741 1248.03 M210.741 1244.33 Q216.551 1244.33 219.607 1248.93 Q222.686 1253.52 222.686 1262.27 Q222.686 1270.99 219.607 1275.6 Q216.551 1280.18 210.741 1280.18 Q204.931 1280.18 201.852 1275.6 Q198.797 1270.99 198.797 1262.27 Q198.797 1253.52 201.852 1248.93 Q204.931 1244.33 210.741 1244.33 Z" fill="#000000" fill-rule="nonzero" fill-opacity="1" /><path clip-path="url(#clip240)" d="M234.931 1275.58 L251.25 1275.58 L251.25 1279.51 L229.306 1279.51 L229.306 1275.58 Q231.968 1272.82 236.551 1268.19 Q241.158 1263.54 242.338 1262.2 Q244.584 1259.67 245.463 1257.94 Q246.366 1256.18 246.366 1254.49 Q246.366 1251.73 244.421 1250 Q242.5 1248.26 239.398 1248.26 Q237.199 1248.26 234.746 1249.03 Q232.315 1249.79 229.537 1251.34 L229.537 1246.62 Q232.361 1245.48 234.815 1244.9 Q237.269 1244.33 239.306 1244.33 Q244.676 1244.33 247.871 1247.01 Q251.065 1249.7 251.065 1254.19 Q251.065 1256.32 250.255 1258.24 Q249.468 1260.14 247.361 1262.73 Q246.783 1263.4 243.681 1266.62 Q240.579 1269.81 234.931 1275.58 Z" fill="#000000" fill-rule="nonzero" fill-opacity="1" /><path clip-path="url(#clip240)" d="M261.111 1244.95 L279.468 1244.95 L279.468 1248.89 L265.394 1248.89 L265.394 1257.36 Q266.412 1257.01 267.431 1256.85 Q268.449 1256.66 269.468 1256.66 Q275.255 1256.66 278.634 1259.84 Q282.014 1263.01 282.014 1268.42 Q282.014 1274 278.542 1277.1 Q275.069 1280.18 268.75 1280.18 Q266.574 1280.18 264.306 1279.81 Q262.06 1279.44 259.653 1278.7 L259.653 1274 Q261.736 1275.14 263.958 1275.69 Q266.181 1276.25 268.657 1276.25 Q272.662 1276.25 275 1274.14 Q277.338 1272.03 277.338 1268.42 Q277.338 1264.81 275 1262.71 Q272.662 1260.6 268.657 1260.6 Q266.782 1260.6 264.907 1261.02 Q263.056 1261.43 261.111 1262.31 L261.111 1244.95 Z" fill="#000000" fill-rule="nonzero" fill-opacity="1" /><path clip-path="url(#clip240)" d="M13.8626 874.796 L13.8626 857.64 L19.0825 857.64 L19.0825 874.796 L13.8626 874.796 Z" fill="#000000" fill-rule="nonzero" fill-opacity="1" /><path clip-path="url(#clip240)" d="M-13.1916 848.06 L-13.1916 841.631 L34.3284 841.631 L34.3284 848.06 L-13.1916 848.06 Z" fill="#000000" fill-rule="nonzero" fill-opacity="1" /><path clip-path="url(#clip240)" d="M5.52357 801.336 Q1.57683 799.14 -0.301054 796.084 Q-2.17894 793.028 -2.17894 788.891 Q-2.17894 783.321 1.73597 780.297 Q5.61905 777.273 12.8123 777.273 L34.3284 777.273 L34.3284 783.162 L13.0033 783.162 Q7.87888 783.162 5.39625 784.976 Q2.91363 786.79 2.91363 790.514 Q2.91363 795.066 5.93734 797.707 Q8.96105 800.349 14.1809 800.349 L34.3284 800.349 L34.3284 806.237 L13.0033 806.237 Q7.84705 806.237 5.39625 808.052 Q2.91363 809.866 2.91363 813.653 Q2.91363 818.141 5.96917 820.783 Q8.99288 823.425 14.1809 823.425 L34.3284 823.425 L34.3284 829.313 L-1.31957 829.313 L-1.31957 823.425 L4.2186 823.425 Q0.940259 821.42 -0.619339 818.619 Q-2.17894 815.818 -2.17894 811.966 Q-2.17894 808.083 -0.205568 805.378 Q1.7678 802.641 5.52357 801.336 Z" fill="#000000" fill-rule="nonzero" fill-opacity="1" /><path clip-path="url(#clip240)" d="M-13.1916 747.355 L-13.1916 710.02 L-8.29002 710.02 L28.9175 740.066 L28.9175 709.288 L34.3284 709.288 L34.3284 748.087 L29.4268 748.087 L-7.78076 718.04 L-7.78076 747.355 L-13.1916 747.355 Z" fill="#000000" fill-rule="nonzero" fill-opacity="1" /><path clip-path="url(#clip240)" d="M-13.1916 669.088 L-13.1916 663.677 L40.3758 680.228 L40.3758 685.639 L-13.1916 669.088 Z" fill="#000000" fill-rule="nonzero" fill-opacity="1" /><path clip-path="url(#clip240)" d="M28.6629 595.628 L34.3284 595.628 L34.3284 614.725 L28.6629 614.725 Q25.5755 609.091 20.292 605.94 Q15.0085 602.789 8.57911 602.789 Q0.940259 602.789 -3.67488 606.991 Q-8.29002 611.192 -8.29002 618.067 Q-8.29002 624.942 -3.64305 629.175 Q0.972088 633.377 8.57911 633.377 Q15.0085 633.377 20.292 630.226 Q25.5755 627.043 28.6629 621.377 L34.3284 621.377 L34.3284 640.474 L28.6629 640.474 L28.6629 630.321 Q24.2387 635.35 19.4963 637.673 Q14.7538 639.965 8.89739 639.965 Q-1.22408 639.965 -7.4943 633.854 Q-13.7645 627.775 -13.7645 618.067 Q-13.7645 608.423 -7.4943 602.28 Q-1.25591 596.169 8.57911 596.169 Q14.7538 596.169 19.4645 598.429 Q24.1751 600.689 28.6629 605.813 L28.6629 595.628 Z" fill="#000000" fill-rule="nonzero" fill-opacity="1" /><circle clip-path="url(#clip242)" cx="2295.17" cy="744.595" r="14.4" fill="#009af9" fill-rule="evenodd" fill-opacity="1" stroke="#000000" stroke-opacity="1" stroke-width="3.2"/>
<circle clip-path="url(#clip242)" cx="2217.34" cy="843.3" r="14.4" fill="#009af9" fill-rule="evenodd" fill-opacity="1" stroke="#000000" stroke-opacity="1" stroke-width="3.2"/>
<circle clip-path="url(#clip242)" cx="2176.98" cy="906.09" r="14.4" fill="#009af9" fill-rule="evenodd" fill-opacity="1" stroke="#000000" stroke-opacity="1" stroke-width="3.2"/>
<circle clip-path="url(#clip242)" cx="2128.77" cy="938.367" r="14.4" fill="#009af9" fill-rule="evenodd" fill-opacity="1" stroke="#000000" stroke-opacity="1" stroke-width="3.2"/>
<circle clip-path="url(#clip242)" cx="2068.82" cy="944.364" r="14.4" fill="#009af9" fill-rule="evenodd" fill-opacity="1" stroke="#000000" stroke-opacity="1" stroke-width="3.2"/>
<circle clip-path="url(#clip242)" cx="2038.53" cy="924.906" r="14.4" fill="#009af9" fill-rule="evenodd" fill-opacity="1" stroke="#000000" stroke-opacity="1" stroke-width="3.2"/>
<circle clip-path="url(#clip242)" cx="1978.14" cy="864.933" r="14.4" fill="#009af9" fill-rule="evenodd" fill-opacity="1" stroke="#000000" stroke-opacity="1" stroke-width="3.2"/>
<circle clip-path="url(#clip242)" cx="1858.51" cy="761.813" r="14.4" fill="#009af9" fill-rule="evenodd" fill-opacity="1" stroke="#000000" stroke-opacity="1" stroke-width="3.2"/>
<circle clip-path="url(#clip242)" cx="1686.06" cy="673.623" r="14.4" fill="#009af9" fill-rule="evenodd" fill-opacity="1" stroke="#000000" stroke-opacity="1" stroke-width="3.2"/>
<circle clip-path="url(#clip242)" cx="1483.62" cy="625.259" r="14.4" fill="#009af9" fill-rule="evenodd" fill-opacity="1" stroke="#000000" stroke-opacity="1" stroke-width="3.2"/>
<circle clip-path="url(#clip242)" cx="1175.67" cy="603.327" r="14.4" fill="#009af9" fill-rule="evenodd" fill-opacity="1" stroke="#000000" stroke-opacity="1" stroke-width="3.2"/>
<circle clip-path="url(#clip242)" cx="945.171" cy="635.753" r="14.4" fill="#009af9" fill-rule="evenodd" fill-opacity="1" stroke="#000000" stroke-opacity="1" stroke-width="3.2"/>
<circle clip-path="url(#clip242)" cx="758.264" cy="707.805" r="14.4" fill="#009af9" fill-rule="evenodd" fill-opacity="1" stroke="#000000" stroke-opacity="1" stroke-width="3.2"/>
<circle clip-path="url(#clip242)" cx="574.877" cy="814.633" r="14.4" fill="#009af9" fill-rule="evenodd" fill-opacity="1" stroke="#000000" stroke-opacity="1" stroke-width="3.2"/>
<circle clip-path="url(#clip242)" cx="2125.85" cy="810.361" r="14.4" fill="#e26f46" fill-rule="evenodd" fill-opacity="1" stroke="#000000" stroke-opacity="1" stroke-width="3.2"/>
<circle clip-path="url(#clip242)" cx="2051.49" cy="879.765" r="14.4" fill="#e26f46" fill-rule="evenodd" fill-opacity="1" stroke="#000000" stroke-opacity="1" stroke-width="3.2"/>
<circle clip-path="url(#clip242)" cx="1997.28" cy="925.011" r="14.4" fill="#e26f46" fill-rule="evenodd" fill-opacity="1" stroke="#000000" stroke-opacity="1" stroke-width="3.2"/>
<circle clip-path="url(#clip242)" cx="1956.42" cy="950.692" r="14.4" fill="#e26f46" fill-rule="evenodd" fill-opacity="1" stroke="#000000" stroke-opacity="1" stroke-width="3.2"/>
<circle clip-path="url(#clip242)" cx="1912.94" cy="956.425" r="14.4" fill="#e26f46" fill-rule="evenodd" fill-opacity="1" stroke="#000000" stroke-opacity="1" stroke-width="3.2"/>
<circle clip-path="url(#clip242)" cx="1880.04" cy="936.241" r="14.4" fill="#e26f46" fill-rule="evenodd" fill-opacity="1" stroke="#000000" stroke-opacity="1" stroke-width="3.2"/>
<circle clip-path="url(#clip242)" cx="1837" cy="888.035" r="14.4" fill="#e26f46" fill-rule="evenodd" fill-opacity="1" stroke="#000000" stroke-opacity="1" stroke-width="3.2"/>
<circle clip-path="url(#clip242)" cx="1734.29" cy="767.935" r="14.4" fill="#e26f46" fill-rule="evenodd" fill-opacity="1" stroke="#000000" stroke-opacity="1" stroke-width="3.2"/>
<circle clip-path="url(#clip242)" cx="1581.28" cy="638.241" r="14.4" fill="#e26f46" fill-rule="evenodd" fill-opacity="1" stroke="#000000" stroke-opacity="1" stroke-width="3.2"/>
<circle clip-path="url(#clip242)" cx="1328.03" cy="520.808" r="14.4" fill="#e26f46" fill-rule="evenodd" fill-opacity="1" stroke="#000000" stroke-opacity="1" stroke-width="3.2"/>
<circle clip-path="url(#clip242)" cx="899.484" cy="513.999" r="14.4" fill="#e26f46" fill-rule="evenodd" fill-opacity="1" stroke="#000000" stroke-opacity="1" stroke-width="3.2"/>
<circle clip-path="url(#clip242)" cx="635.381" cy="630.162" r="14.4" fill="#e26f46" fill-rule="evenodd" fill-opacity="1" stroke="#000000" stroke-opacity="1" stroke-width="3.2"/>
<circle clip-path="url(#clip242)" cx="475.448" cy="769.043" r="14.4" fill="#e26f46" fill-rule="evenodd" fill-opacity="1" stroke="#000000" stroke-opacity="1" stroke-width="3.2"/>
<circle clip-path="url(#clip242)" cx="375.601" cy="907.231" r="14.4" fill="#e26f46" fill-rule="evenodd" fill-opacity="1" stroke="#000000" stroke-opacity="1" stroke-width="3.2"/>
<path clip-path="url(#clip240)" d="M385.839 248.629 L866.672 248.629 L866.672 93.1086 L385.839 93.1086  Z" fill="#ffffff" fill-rule="evenodd" fill-opacity="1"/>
<polyline clip-path="url(#clip240)" style="stroke:#000000; stroke-linecap:round; stroke-linejoin:round; stroke-width:4; stroke-opacity:1; fill:none" points="385.839,248.629 866.672,248.629 866.672,93.1086 385.839,93.1086 385.839,248.629 "/>
<circle clip-path="url(#clip240)" cx="476.272" cy="144.949" r="20.48" fill="#009af9" fill-rule="evenodd" fill-opacity="1" stroke="#000000" stroke-opacity="1" stroke-width="4.55111"/>
<path clip-path="url(#clip240)" d="M585.617 140.238 L585.617 126.21 L589.876 126.21 L589.876 162.229 L585.617 162.229 L585.617 158.34 Q584.274 160.655 582.214 161.789 Q580.177 162.9 577.306 162.9 Q572.607 162.9 569.644 159.15 Q566.705 155.4 566.705 149.289 Q566.705 143.178 569.644 139.428 Q572.607 135.678 577.306 135.678 Q580.177 135.678 582.214 136.812 Q584.274 137.923 585.617 140.238 M571.103 149.289 Q571.103 153.988 573.024 156.673 Q574.968 159.335 578.348 159.335 Q581.728 159.335 583.672 156.673 Q585.617 153.988 585.617 149.289 Q585.617 144.59 583.672 141.928 Q581.728 139.243 578.348 139.243 Q574.968 139.243 573.024 141.928 Q571.103 144.59 571.103 149.289 Z" fill="#000000" fill-rule="nonzero" fill-opacity="1" /><path clip-path="url(#clip240)" d="M610.431 149.196 Q605.269 149.196 603.278 150.377 Q601.288 151.557 601.288 154.405 Q601.288 156.673 602.769 158.016 Q604.274 159.335 606.843 159.335 Q610.385 159.335 612.515 156.835 Q614.667 154.312 614.667 150.145 L614.667 149.196 L610.431 149.196 M618.927 147.437 L618.927 162.229 L614.667 162.229 L614.667 158.293 Q613.209 160.655 611.033 161.789 Q608.857 162.9 605.709 162.9 Q601.728 162.9 599.366 160.678 Q597.028 158.432 597.028 154.682 Q597.028 150.307 599.945 148.085 Q602.885 145.863 608.695 145.863 L614.667 145.863 L614.667 145.446 Q614.667 142.507 612.723 140.909 Q610.802 139.289 607.306 139.289 Q605.084 139.289 602.978 139.821 Q600.871 140.354 598.927 141.419 L598.927 137.483 Q601.265 136.581 603.464 136.141 Q605.663 135.678 607.746 135.678 Q613.371 135.678 616.149 138.594 Q618.927 141.511 618.927 147.437 Z" fill="#000000" fill-rule="nonzero" fill-opacity="1" /><path clip-path="url(#clip240)" d="M631.913 128.942 L631.913 136.303 L640.686 136.303 L640.686 139.613 L631.913 139.613 L631.913 153.687 Q631.913 156.858 632.769 157.761 Q633.649 158.664 636.311 158.664 L640.686 158.664 L640.686 162.229 L636.311 162.229 Q631.38 162.229 629.505 160.4 Q627.63 158.548 627.63 153.687 L627.63 139.613 L624.505 139.613 L624.505 136.303 L627.63 136.303 L627.63 128.942 L631.913 128.942 Z" fill="#000000" fill-rule="nonzero" fill-opacity="1" /><path clip-path="url(#clip240)" d="M658.07 149.196 Q652.908 149.196 650.917 150.377 Q648.926 151.557 648.926 154.405 Q648.926 156.673 650.408 158.016 Q651.912 159.335 654.482 159.335 Q658.024 159.335 660.153 156.835 Q662.306 154.312 662.306 150.145 L662.306 149.196 L658.07 149.196 M666.565 147.437 L666.565 162.229 L662.306 162.229 L662.306 158.293 Q660.848 160.655 658.672 161.789 Q656.496 162.9 653.348 162.9 Q649.366 162.9 647.005 160.678 Q644.667 158.432 644.667 154.682 Q644.667 150.307 647.584 148.085 Q650.524 145.863 656.334 145.863 L662.306 145.863 L662.306 145.446 Q662.306 142.507 660.361 140.909 Q658.44 139.289 654.945 139.289 Q652.723 139.289 650.616 139.821 Q648.51 140.354 646.565 141.419 L646.565 137.483 Q648.903 136.581 651.102 136.141 Q653.301 135.678 655.385 135.678 Q661.01 135.678 663.787 138.594 Q666.565 141.511 666.565 147.437 Z" fill="#000000" fill-rule="nonzero" fill-opacity="1" /><circle clip-path="url(#clip240)" cx="476.272" cy="196.789" r="20.48" fill="#e26f46" fill-rule="evenodd" fill-opacity="1" stroke="#000000" stroke-opacity="1" stroke-width="4.55111"/>
<path clip-path="url(#clip240)" d="M566.705 188.143 L570.964 188.143 L570.964 214.069 L566.705 214.069 L566.705 188.143 M566.705 178.05 L570.964 178.05 L570.964 183.444 L566.705 183.444 L566.705 178.05 Z" fill="#000000" fill-rule="nonzero" fill-opacity="1" /><path clip-path="url(#clip240)" d="M601.427 198.421 L601.427 214.069 L597.167 214.069 L597.167 198.559 Q597.167 194.879 595.732 193.05 Q594.297 191.222 591.427 191.222 Q587.978 191.222 585.987 193.421 Q583.996 195.62 583.996 199.416 L583.996 214.069 L579.714 214.069 L579.714 188.143 L583.996 188.143 L583.996 192.171 Q585.524 189.833 587.584 188.675 Q589.667 187.518 592.376 187.518 Q596.843 187.518 599.135 190.296 Q601.427 193.05 601.427 198.421 Z" fill="#000000" fill-rule="nonzero" fill-opacity="1" /><path clip-path="url(#clip240)" d="M609.922 188.143 L614.181 188.143 L614.181 214.069 L609.922 214.069 L609.922 188.143 M609.922 178.05 L614.181 178.05 L614.181 183.444 L609.922 183.444 L609.922 178.05 Z" fill="#000000" fill-rule="nonzero" fill-opacity="1" /><path clip-path="url(#clip240)" d="M627.306 180.782 L627.306 188.143 L636.079 188.143 L636.079 191.453 L627.306 191.453 L627.306 205.527 Q627.306 208.698 628.163 209.601 Q629.042 210.504 631.704 210.504 L636.079 210.504 L636.079 214.069 L631.704 214.069 Q626.774 214.069 624.899 212.24 Q623.024 210.388 623.024 205.527 L623.024 191.453 L619.899 191.453 L619.899 188.143 L623.024 188.143 L623.024 180.782 L627.306 180.782 Z" fill="#000000" fill-rule="nonzero" fill-opacity="1" /><path clip-path="url(#clip240)" d="M641.681 188.143 L645.94 188.143 L645.94 214.069 L641.681 214.069 L641.681 188.143 M641.681 178.05 L645.94 178.05 L645.94 183.444 L641.681 183.444 L641.681 178.05 Z" fill="#000000" fill-rule="nonzero" fill-opacity="1" /><path clip-path="url(#clip240)" d="M666.635 201.036 Q661.473 201.036 659.482 202.217 Q657.491 203.397 657.491 206.245 Q657.491 208.513 658.973 209.856 Q660.477 211.175 663.047 211.175 Q666.588 211.175 668.718 208.675 Q670.871 206.152 670.871 201.985 L670.871 201.036 L666.635 201.036 M675.13 199.277 L675.13 214.069 L670.871 214.069 L670.871 210.133 Q669.412 212.495 667.236 213.629 Q665.061 214.74 661.912 214.74 Q657.931 214.74 655.57 212.518 Q653.232 210.272 653.232 206.522 Q653.232 202.147 656.149 199.925 Q659.088 197.703 664.898 197.703 L670.871 197.703 L670.871 197.286 Q670.871 194.347 668.926 192.749 Q667.005 191.129 663.51 191.129 Q661.287 191.129 659.181 191.661 Q657.074 192.194 655.13 193.259 L655.13 189.323 Q657.468 188.421 659.667 187.981 Q661.866 187.518 663.949 187.518 Q669.574 187.518 672.352 190.434 Q675.13 193.351 675.13 199.277 Z" fill="#000000" fill-rule="nonzero" fill-opacity="1" /><path clip-path="url(#clip240)" d="M683.903 178.05 L688.162 178.05 L688.162 214.069 L683.903 214.069 L683.903 178.05 Z" fill="#000000" fill-rule="nonzero" fill-opacity="1" /><path clip-path="url(#clip240)" d="M729.204 200.805 Q729.204 196.175 727.282 193.629 Q725.384 191.083 721.935 191.083 Q718.509 191.083 716.588 193.629 Q714.69 196.175 714.69 200.805 Q714.69 205.411 716.588 207.958 Q718.509 210.504 721.935 210.504 Q725.384 210.504 727.282 207.958 Q729.204 205.411 729.204 200.805 M733.463 210.851 Q733.463 217.471 730.523 220.689 Q727.583 223.93 721.519 223.93 Q719.273 223.93 717.282 223.582 Q715.292 223.258 713.417 222.564 L713.417 218.42 Q715.292 219.439 717.12 219.925 Q718.949 220.411 720.847 220.411 Q725.037 220.411 727.12 218.212 Q729.204 216.036 729.204 211.615 L729.204 209.508 Q727.884 211.8 725.824 212.934 Q723.764 214.069 720.894 214.069 Q716.125 214.069 713.208 210.434 Q710.292 206.8 710.292 200.805 Q710.292 194.786 713.208 191.152 Q716.125 187.518 720.894 187.518 Q723.764 187.518 725.824 188.652 Q727.884 189.786 729.204 192.078 L729.204 188.143 L733.463 188.143 L733.463 210.851 Z" fill="#000000" fill-rule="nonzero" fill-opacity="1" /><path clip-path="url(#clip240)" d="M741.796 203.837 L741.796 188.143 L746.055 188.143 L746.055 203.675 Q746.055 207.356 747.491 209.208 Q748.926 211.036 751.796 211.036 Q755.245 211.036 757.236 208.837 Q759.25 206.638 759.25 202.842 L759.25 188.143 L763.509 188.143 L763.509 214.069 L759.25 214.069 L759.25 210.087 Q757.699 212.448 755.639 213.606 Q753.602 214.74 750.893 214.74 Q746.426 214.74 744.111 211.962 Q741.796 209.184 741.796 203.837 M752.514 187.518 L752.514 187.518 Z" fill="#000000" fill-rule="nonzero" fill-opacity="1" /><path clip-path="url(#clip240)" d="M794.458 200.041 L794.458 202.124 L774.875 202.124 Q775.153 206.522 777.514 208.837 Q779.898 211.129 784.134 211.129 Q786.588 211.129 788.879 210.527 Q791.194 209.925 793.463 208.721 L793.463 212.749 Q791.171 213.721 788.764 214.231 Q786.356 214.74 783.879 214.74 Q777.676 214.74 774.041 211.129 Q770.43 207.518 770.43 201.36 Q770.43 194.995 773.856 191.268 Q777.305 187.518 783.139 187.518 Q788.37 187.518 791.402 190.897 Q794.458 194.254 794.458 200.041 M790.199 198.791 Q790.152 195.296 788.231 193.212 Q786.333 191.129 783.185 191.129 Q779.62 191.129 777.467 193.143 Q775.338 195.157 775.014 198.814 L790.199 198.791 Z" fill="#000000" fill-rule="nonzero" fill-opacity="1" /><path clip-path="url(#clip240)" d="M817.976 188.907 L817.976 192.934 Q816.171 192.009 814.226 191.546 Q812.282 191.083 810.199 191.083 Q807.027 191.083 805.43 192.055 Q803.856 193.027 803.856 194.971 Q803.856 196.453 804.99 197.309 Q806.125 198.143 809.551 198.907 L811.009 199.231 Q815.546 200.203 817.444 201.985 Q819.365 203.745 819.365 206.916 Q819.365 210.527 816.495 212.633 Q813.648 214.74 808.648 214.74 Q806.564 214.74 804.296 214.323 Q802.051 213.93 799.551 213.12 L799.551 208.721 Q801.912 209.948 804.203 210.573 Q806.495 211.175 808.74 211.175 Q811.75 211.175 813.37 210.157 Q814.99 209.115 814.99 207.24 Q814.99 205.504 813.81 204.578 Q812.652 203.652 808.694 202.796 L807.213 202.448 Q803.254 201.615 801.495 199.902 Q799.736 198.166 799.736 195.157 Q799.736 191.499 802.328 189.509 Q804.921 187.518 809.689 187.518 Q812.05 187.518 814.134 187.865 Q816.217 188.212 817.976 188.907 Z" fill="#000000" fill-rule="nonzero" fill-opacity="1" /><path clip-path="url(#clip240)" d="M842.675 188.907 L842.675 192.934 Q840.87 192.009 838.925 191.546 Q836.981 191.083 834.898 191.083 Q831.726 191.083 830.129 192.055 Q828.555 193.027 828.555 194.971 Q828.555 196.453 829.689 197.309 Q830.824 198.143 834.249 198.907 L835.708 199.231 Q840.245 200.203 842.143 201.985 Q844.064 203.745 844.064 206.916 Q844.064 210.527 841.194 212.633 Q838.347 214.74 833.347 214.74 Q831.263 214.74 828.995 214.323 Q826.749 213.93 824.249 213.12 L824.249 208.721 Q826.611 209.948 828.902 210.573 Q831.194 211.175 833.439 211.175 Q836.449 211.175 838.069 210.157 Q839.689 209.115 839.689 207.24 Q839.689 205.504 838.509 204.578 Q837.351 203.652 833.393 202.796 L831.911 202.448 Q827.953 201.615 826.194 199.902 Q824.435 198.166 824.435 195.157 Q824.435 191.499 827.027 189.509 Q829.62 187.518 834.388 187.518 Q836.749 187.518 838.833 187.865 Q840.916 188.212 842.675 188.907 Z" fill="#000000" fill-rule="nonzero" fill-opacity="1" /></svg>
