<?xml version="1.0" encoding="utf-8"?>
<svg xmlns="http://www.w3.org/2000/svg" xmlns:xlink="http://www.w3.org/1999/xlink" width="600" height="400" viewBox="0 0 2400 1600">
<defs>
  <clipPath id="clip340">
    <rect x="0" y="0" width="2400" height="1600"/>
  </clipPath>
</defs>
<path clip-path="url(#clip340)" d="M0 1600 L2400 1600 L2400 8.88178e-14 L0 8.88178e-14  Z" fill="#ffffff" fill-rule="evenodd" fill-opacity="1"/>
<defs>
  <clipPath id="clip341">
    <rect x="480" y="0" width="1681" height="1600"/>
  </clipPath>
</defs>
<path clip-path="url(#clip340)" d="M257.69 1423.18 L2352.76 1423.18 L2352.76 47.2441 L257.69 47.2441  Z" fill="#ffffff" fill-rule="evenodd" fill-opacity="1"/>
<defs>
  <clipPath id="clip342">
    <rect x="257" y="47" width="2096" height="1377"/>
  </clipPath>
</defs>
<polyline clip-path="url(#clip342)" style="stroke:#000000; stroke-linecap:round; stroke-linejoin:round; stroke-width:2; stroke-opacity:0.1; fill:none" points="316.984,47.2441 316.984,1423.18 "/>
<polyline clip-path="url(#clip342)" style="stroke:#000000; stroke-linecap:round; stroke-linejoin:round; stroke-width:2; stroke-opacity:0.1; fill:none" points="811.104,47.2441 811.104,1423.18 "/>
<polyline clip-path="url(#clip342)" style="stroke:#000000; stroke-linecap:round; stroke-linejoin:round; stroke-width:2; stroke-opacity:0.1; fill:none" points="1305.22,47.2441 1305.22,1423.18 "/>
<polyline clip-path="url(#clip342)" style="stroke:#000000; stroke-linecap:round; stroke-linejoin:round; stroke-width:2; stroke-opacity:0.1; fill:none" points="1799.34,47.2441 1799.34,1423.18 "/>
<polyline clip-path="url(#clip342)" style="stroke:#000000; stroke-linecap:round; stroke-linejoin:round; stroke-width:2; stroke-opacity:0.1; fill:none" points="2293.46,47.2441 2293.46,1423.18 "/>
<polyline clip-path="url(#clip342)" style="stroke:#000000; stroke-linecap:round; stroke-linejoin:round; stroke-width:2; stroke-opacity:0.1; fill:none" points="257.69,241.097 2352.76,241.097 "/>
<polyline clip-path="url(#clip342)" style="stroke:#000000; stroke-linecap:round; stroke-linejoin:round; stroke-width:2; stroke-opacity:0.1; fill:none" points="257.69,488.157 2352.76,488.157 "/>
<polyline clip-path="url(#clip342)" style="stroke:#000000; stroke-linecap:round; stroke-linejoin:round; stroke-width:2; stroke-opacity:0.1; fill:none" points="257.69,735.217 2352.76,735.217 "/>
<polyline clip-path="url(#clip342)" style="stroke:#000000; stroke-linecap:round; stroke-linejoin:round; stroke-width:2; stroke-opacity:0.1; fill:none" points="257.69,982.277 2352.76,982.277 "/>
<polyline clip-path="url(#clip342)" style="stroke:#000000; stroke-linecap:round; stroke-linejoin:round; stroke-width:2; stroke-opacity:0.1; fill:none" points="257.69,1229.34 2352.76,1229.34 "/>
<polyline clip-path="url(#clip340)" style="stroke:#000000; stroke-linecap:round; stroke-linejoin:round; stroke-width:4; stroke-opacity:1; fill:none" points="257.69,1423.18 2352.76,1423.18 "/>
<polyline clip-path="url(#clip340)" style="stroke:#000000; stroke-linecap:round; stroke-linejoin:round; stroke-width:4; stroke-opacity:1; fill:none" points="316.984,1423.18 316.984,1404.28 "/>
<polyline clip-path="url(#clip340)" style="stroke:#000000; stroke-linecap:round; stroke-linejoin:round; stroke-width:4; stroke-opacity:1; fill:none" points="811.104,1423.18 811.104,1404.28 "/>
<polyline clip-path="url(#clip340)" style="stroke:#000000; stroke-linecap:round; stroke-linejoin:round; stroke-width:4; stroke-opacity:1; fill:none" points="1305.22,1423.18 1305.22,1404.28 "/>
<polyline clip-path="url(#clip340)" style="stroke:#000000; stroke-linecap:round; stroke-linejoin:round; stroke-width:4; stroke-opacity:1; fill:none" points="1799.34,1423.18 1799.34,1404.28 "/>
<polyline clip-path="url(#clip340)" style="stroke:#000000; stroke-linecap:round; stroke-linejoin:round; stroke-width:4; stroke-opacity:1; fill:none" points="2293.46,1423.18 2293.46,1404.28 "/>
<path clip-path="url(#clip340)" d="M294.369 1454.1 Q290.758 1454.1 288.929 1457.66 Q287.124 1461.2 287.124 1468.33 Q287.124 1475.44 288.929 1479.01 Q290.758 1482.55 294.369 1482.55 Q298.003 1482.55 299.809 1479.01 Q301.637 1475.44 301.637 1468.33 Q301.637 1461.2 299.809 1457.66 Q298.003 1454.1 294.369 1454.1 M294.369 1450.39 Q300.179 1450.39 303.235 1455 Q306.313 1459.58 306.313 1468.33 Q306.313 1477.06 303.235 1481.67 Q300.179 1486.25 294.369 1486.25 Q288.559 1486.25 285.48 1481.67 Q282.424 1477.06 282.424 1468.33 Q282.424 1459.58 285.48 1455 Q288.559 1450.39 294.369 1450.39 Z" fill="#000000" fill-rule="nonzero" fill-opacity="1" /><path clip-path="url(#clip340)" d="M314.531 1479.7 L319.415 1479.7 L319.415 1485.58 L314.531 1485.58 L314.531 1479.7 Z" fill="#000000" fill-rule="nonzero" fill-opacity="1" /><path clip-path="url(#clip340)" d="M339.6 1454.1 Q335.989 1454.1 334.16 1457.66 Q332.355 1461.2 332.355 1468.33 Q332.355 1475.44 334.16 1479.01 Q335.989 1482.55 339.6 1482.55 Q343.234 1482.55 345.04 1479.01 Q346.869 1475.44 346.869 1468.33 Q346.869 1461.2 345.04 1457.66 Q343.234 1454.1 339.6 1454.1 M339.6 1450.39 Q345.41 1450.39 348.466 1455 Q351.544 1459.58 351.544 1468.33 Q351.544 1477.06 348.466 1481.67 Q345.41 1486.25 339.6 1486.25 Q333.79 1486.25 330.711 1481.67 Q327.656 1477.06 327.656 1468.33 Q327.656 1459.58 330.711 1455 Q333.79 1450.39 339.6 1450.39 Z" fill="#000000" fill-rule="nonzero" fill-opacity="1" /><path clip-path="url(#clip340)" d="M788.986 1454.1 Q785.375 1454.1 783.546 1457.66 Q781.741 1461.2 781.741 1468.33 Q781.741 1475.44 783.546 1479.01 Q785.375 1482.55 788.986 1482.55 Q792.62 1482.55 794.426 1479.01 Q796.255 1475.44 796.255 1468.33 Q796.255 1461.2 794.426 1457.66 Q792.62 1454.1 788.986 1454.1 M788.986 1450.39 Q794.796 1450.39 797.852 1455 Q800.93 1459.58 800.93 1468.33 Q800.93 1477.06 797.852 1481.67 Q794.796 1486.25 788.986 1486.25 Q783.176 1486.25 780.097 1481.67 Q777.042 1477.06 777.042 1468.33 Q777.042 1459.58 780.097 1455 Q783.176 1450.39 788.986 1450.39 Z" fill="#000000" fill-rule="nonzero" fill-opacity="1" /><path clip-path="url(#clip340)" d="M809.148 1479.7 L814.032 1479.7 L814.032 1485.58 L809.148 1485.58 L809.148 1479.7 Z" fill="#000000" fill-rule="nonzero" fill-opacity="1" /><path clip-path="url(#clip340)" d="M824.264 1451.02 L842.62 1451.02 L842.62 1454.96 L828.546 1454.96 L828.546 1463.43 Q829.565 1463.08 830.583 1462.92 Q831.602 1462.73 832.62 1462.73 Q838.407 1462.73 841.787 1465.9 Q845.166 1469.08 845.166 1474.49 Q845.166 1480.07 841.694 1483.17 Q838.222 1486.25 831.902 1486.25 Q829.727 1486.25 827.458 1485.88 Q825.213 1485.51 822.805 1484.77 L822.805 1480.07 Q824.889 1481.2 827.111 1481.76 Q829.333 1482.32 831.81 1482.32 Q835.814 1482.32 838.152 1480.21 Q840.49 1478.1 840.49 1474.49 Q840.49 1470.88 838.152 1468.77 Q835.814 1466.67 831.81 1466.67 Q829.935 1466.67 828.06 1467.08 Q826.208 1467.5 824.264 1468.38 L824.264 1451.02 Z" fill="#000000" fill-rule="nonzero" fill-opacity="1" /><path clip-path="url(#clip340)" d="M1272.38 1481.64 L1280.02 1481.64 L1280.02 1455.28 L1271.71 1456.95 L1271.71 1452.69 L1279.97 1451.02 L1284.64 1451.02 L1284.64 1481.64 L1292.28 1481.64 L1292.28 1485.58 L1272.38 1485.58 L1272.38 1481.64 Z" fill="#000000" fill-rule="nonzero" fill-opacity="1" /><path clip-path="url(#clip340)" d="M1301.73 1479.7 L1306.61 1479.7 L1306.61 1485.58 L1301.73 1485.58 L1301.73 1479.7 Z" fill="#000000" fill-rule="nonzero" fill-opacity="1" /><path clip-path="url(#clip340)" d="M1326.8 1454.1 Q1323.19 1454.1 1321.36 1457.66 Q1319.55 1461.2 1319.55 1468.33 Q1319.55 1475.44 1321.36 1479.01 Q1323.19 1482.55 1326.8 1482.55 Q1330.43 1482.55 1332.24 1479.01 Q1334.07 1475.44 1334.07 1468.33 Q1334.07 1461.2 1332.24 1457.66 Q1330.43 1454.1 1326.8 1454.1 M1326.8 1450.39 Q1332.61 1450.39 1335.66 1455 Q1338.74 1459.58 1338.74 1468.33 Q1338.74 1477.06 1335.66 1481.67 Q1332.61 1486.25 1326.8 1486.25 Q1320.99 1486.25 1317.91 1481.67 Q1314.85 1477.06 1314.85 1468.33 Q1314.85 1459.58 1317.91 1455 Q1320.99 1450.39 1326.8 1450.39 Z" fill="#000000" fill-rule="nonzero" fill-opacity="1" /><path clip-path="url(#clip340)" d="M1766.99 1481.64 L1774.63 1481.64 L1774.63 1455.28 L1766.32 1456.95 L1766.32 1452.69 L1774.59 1451.02 L1779.26 1451.02 L1779.26 1481.64 L1786.9 1481.64 L1786.9 1485.58 L1766.99 1485.58 L1766.99 1481.64 Z" fill="#000000" fill-rule="nonzero" fill-opacity="1" /><path clip-path="url(#clip340)" d="M1796.35 1479.7 L1801.23 1479.7 L1801.23 1485.58 L1796.35 1485.58 L1796.35 1479.7 Z" fill="#000000" fill-rule="nonzero" fill-opacity="1" /><path clip-path="url(#clip340)" d="M1811.46 1451.02 L1829.82 1451.02 L1829.82 1454.96 L1815.74 1454.96 L1815.74 1463.43 Q1816.76 1463.08 1817.78 1462.92 Q1818.8 1462.73 1819.82 1462.73 Q1825.6 1462.73 1828.98 1465.9 Q1832.36 1469.08 1832.36 1474.49 Q1832.36 1480.07 1828.89 1483.17 Q1825.42 1486.25 1819.1 1486.25 Q1816.92 1486.25 1814.66 1485.88 Q1812.41 1485.51 1810 1484.77 L1810 1480.07 Q1812.09 1481.2 1814.31 1481.76 Q1816.53 1482.32 1819.01 1482.32 Q1823.01 1482.32 1825.35 1480.21 Q1827.69 1478.1 1827.69 1474.49 Q1827.69 1470.88 1825.35 1468.77 Q1823.01 1466.67 1819.01 1466.67 Q1817.13 1466.67 1815.26 1467.08 Q1813.41 1467.5 1811.46 1468.38 L1811.46 1451.02 Z" fill="#000000" fill-rule="nonzero" fill-opacity="1" /><path clip-path="url(#clip340)" d="M2264.7 1481.64 L2281.02 1481.64 L2281.02 1485.58 L2259.08 1485.58 L2259.08 1481.64 Q2261.74 1478.89 2266.32 1474.26 Q2270.93 1469.61 2272.11 1468.27 Q2274.35 1465.74 2275.23 1464.01 Q2276.14 1462.25 2276.14 1460.56 Q2276.14 1457.8 2274.19 1456.07 Q2272.27 1454.33 2269.17 1454.33 Q2266.97 1454.33 2264.52 1455.09 Q2262.09 1455.86 2259.31 1457.41 L2259.31 1452.69 Q2262.13 1451.55 2264.59 1450.97 Q2267.04 1450.39 2269.08 1450.39 Q2274.45 1450.39 2277.64 1453.08 Q2280.84 1455.77 2280.84 1460.26 Q2280.84 1462.39 2280.03 1464.31 Q2279.24 1466.2 2277.13 1468.8 Q2276.55 1469.47 2273.45 1472.69 Q2270.35 1475.88 2264.7 1481.64 Z" fill="#000000" fill-rule="nonzero" fill-opacity="1" /><path clip-path="url(#clip340)" d="M2290.84 1479.7 L2295.72 1479.7 L2295.72 1485.58 L2290.84 1485.58 L2290.84 1479.7 Z" fill="#000000" fill-rule="nonzero" fill-opacity="1" /><path clip-path="url(#clip340)" d="M2315.9 1454.1 Q2312.29 1454.1 2310.46 1457.66 Q2308.66 1461.2 2308.66 1468.33 Q2308.66 1475.44 2310.46 1479.01 Q2312.29 1482.55 2315.9 1482.55 Q2319.54 1482.55 2321.34 1479.01 Q2323.17 1475.44 2323.17 1468.33 Q2323.17 1461.2 2321.34 1457.66 Q2319.54 1454.1 2315.9 1454.1 M2315.9 1450.39 Q2321.71 1450.39 2324.77 1455 Q2327.85 1459.58 2327.85 1468.33 Q2327.85 1477.06 2324.77 1481.67 Q2321.71 1486.25 2315.9 1486.25 Q2310.09 1486.25 2307.02 1481.67 Q2303.96 1477.06 2303.96 1468.33 Q2303.96 1459.58 2307.02 1455 Q2310.09 1450.39 2315.9 1450.39 Z" fill="#000000" fill-rule="nonzero" fill-opacity="1" /><path clip-path="url(#clip340)" d="M1201.67 1545.76 Q1203.74 1546.46 1205.68 1548.76 Q1207.65 1551.05 1209.63 1555.06 L1216.15 1568.04 L1209.24 1568.04 L1203.16 1555.85 Q1200.81 1551.08 1198.58 1549.52 Q1196.39 1547.96 1192.57 1547.96 L1185.56 1547.96 L1185.56 1568.04 L1179.13 1568.04 L1179.13 1520.52 L1193.65 1520.52 Q1201.8 1520.52 1205.81 1523.93 Q1209.82 1527.34 1209.82 1534.21 Q1209.82 1538.7 1207.72 1541.66 Q1205.65 1544.62 1201.67 1545.76 M1185.56 1525.81 L1185.56 1542.68 L1193.65 1542.68 Q1198.3 1542.68 1200.65 1540.54 Q1203.04 1538.38 1203.04 1534.21 Q1203.04 1530.04 1200.65 1527.94 Q1198.3 1525.81 1193.65 1525.81 L1185.56 1525.81 Z" fill="#000000" fill-rule="nonzero" fill-opacity="1" /><path clip-path="url(#clip340)" d="M1251.74 1548.76 L1251.74 1551.62 L1224.81 1551.62 Q1225.19 1557.67 1228.44 1560.85 Q1231.72 1564 1237.54 1564 Q1240.91 1564 1244.06 1563.17 Q1247.25 1562.35 1250.37 1560.69 L1250.37 1566.23 Q1247.22 1567.57 1243.91 1568.27 Q1240.6 1568.97 1237.19 1568.97 Q1228.66 1568.97 1223.66 1564 Q1218.7 1559.04 1218.7 1550.57 Q1218.7 1541.82 1223.41 1536.69 Q1228.15 1531.54 1236.17 1531.54 Q1243.36 1531.54 1247.53 1536.18 Q1251.74 1540.8 1251.74 1548.76 M1245.88 1547.04 Q1245.82 1542.23 1243.17 1539.37 Q1240.56 1536.5 1236.23 1536.5 Q1231.33 1536.5 1228.37 1539.27 Q1225.44 1542.04 1225 1547.07 L1245.88 1547.04 Z" fill="#000000" fill-rule="nonzero" fill-opacity="1" /><path clip-path="url(#clip340)" d="M1279.59 1520.52 L1316.92 1520.52 L1316.92 1525.43 L1286.87 1562.63 L1317.65 1562.63 L1317.65 1568.04 L1278.85 1568.04 L1278.85 1563.14 L1308.9 1525.93 L1279.59 1525.93 L1279.59 1520.52 Z" fill="#000000" fill-rule="nonzero" fill-opacity="1" /><path clip-path="url(#clip340)" d="M1357.85 1520.52 L1363.26 1520.52 L1346.71 1574.09 L1341.3 1574.09 L1357.85 1520.52 Z" fill="#000000" fill-rule="nonzero" fill-opacity="1" /><path clip-path="url(#clip340)" d="M1431.31 1562.38 L1431.31 1568.04 L1412.21 1568.04 L1412.21 1562.38 Q1417.85 1559.29 1421 1554.01 Q1424.15 1548.72 1424.15 1542.29 Q1424.15 1534.66 1419.95 1530.04 Q1415.75 1525.43 1408.87 1525.43 Q1402 1525.43 1397.76 1530.07 Q1393.56 1534.69 1393.56 1542.29 Q1393.56 1548.72 1396.71 1554.01 Q1399.9 1559.29 1405.56 1562.38 L1405.56 1568.04 L1386.47 1568.04 L1386.47 1562.38 L1396.62 1562.38 Q1391.59 1557.95 1389.27 1553.21 Q1386.97 1548.47 1386.97 1542.61 Q1386.97 1532.49 1393.09 1526.22 Q1399.16 1519.95 1408.87 1519.95 Q1418.52 1519.95 1424.66 1526.22 Q1430.77 1532.46 1430.77 1542.29 Q1430.77 1548.47 1428.51 1553.18 Q1426.25 1557.89 1421.13 1562.38 L1431.31 1562.38 Z" fill="#000000" fill-rule="nonzero" fill-opacity="1" /><polyline clip-path="url(#clip340)" style="stroke:#000000; stroke-linecap:round; stroke-linejoin:round; stroke-width:4; stroke-opacity:1; fill:none" points="257.69,47.2441 257.69,1423.18 "/>
<polyline clip-path="url(#clip340)" style="stroke:#000000; stroke-linecap:round; stroke-linejoin:round; stroke-width:4; stroke-opacity:1; fill:none" points="257.69,241.097 276.588,241.097 "/>
<polyline clip-path="url(#clip340)" style="stroke:#000000; stroke-linecap:round; stroke-linejoin:round; stroke-width:4; stroke-opacity:1; fill:none" points="257.69,488.157 276.588,488.157 "/>
<polyline clip-path="url(#clip340)" style="stroke:#000000; stroke-linecap:round; stroke-linejoin:round; stroke-width:4; stroke-opacity:1; fill:none" points="257.69,735.217 276.588,735.217 "/>
<polyline clip-path="url(#clip340)" style="stroke:#000000; stroke-linecap:round; stroke-linejoin:round; stroke-width:4; stroke-opacity:1; fill:none" points="257.69,982.277 276.588,982.277 "/>
<polyline clip-path="url(#clip340)" style="stroke:#000000; stroke-linecap:round; stroke-linejoin:round; stroke-width:4; stroke-opacity:1; fill:none" points="257.69,1229.34 276.588,1229.34 "/>
<path clip-path="url(#clip340)" d="M85.5798 241.549 L115.256 241.549 L115.256 245.484 L85.5798 245.484 L85.5798 241.549 Z" fill="#000000" fill-rule="nonzero" fill-opacity="1" /><path clip-path="url(#clip340)" d="M135.348 226.896 Q131.737 226.896 129.908 230.461 Q128.103 234.003 128.103 241.132 Q128.103 248.239 129.908 251.803 Q131.737 255.345 135.348 255.345 Q138.982 255.345 140.788 251.803 Q142.616 248.239 142.616 241.132 Q142.616 234.003 140.788 230.461 Q138.982 226.896 135.348 226.896 M135.348 223.192 Q141.158 223.192 144.214 227.799 Q147.292 232.382 147.292 241.132 Q147.292 249.859 144.214 254.465 Q141.158 259.049 135.348 259.049 Q129.538 259.049 126.459 254.465 Q123.404 249.859 123.404 241.132 Q123.404 232.382 126.459 227.799 Q129.538 223.192 135.348 223.192 Z" fill="#000000" fill-rule="nonzero" fill-opacity="1" /><path clip-path="url(#clip340)" d="M155.51 252.498 L160.394 252.498 L160.394 258.377 L155.51 258.377 L155.51 252.498 Z" fill="#000000" fill-rule="nonzero" fill-opacity="1" /><path clip-path="url(#clip340)" d="M169.399 223.817 L191.621 223.817 L191.621 225.808 L179.075 258.377 L174.19 258.377 L185.996 227.753 L169.399 227.753 L169.399 223.817 Z" fill="#000000" fill-rule="nonzero" fill-opacity="1" /><path clip-path="url(#clip340)" d="M200.787 223.817 L219.144 223.817 L219.144 227.753 L205.07 227.753 L205.07 236.225 Q206.088 235.877 207.107 235.715 Q208.125 235.53 209.144 235.53 Q214.931 235.53 218.311 238.702 Q221.69 241.873 221.69 247.289 Q221.69 252.868 218.218 255.97 Q214.746 259.049 208.426 259.049 Q206.25 259.049 203.982 258.678 Q201.737 258.308 199.329 257.567 L199.329 252.868 Q201.412 254.002 203.635 254.558 Q205.857 255.114 208.334 255.114 Q212.338 255.114 214.676 253.007 Q217.014 250.901 217.014 247.289 Q217.014 243.678 214.676 241.572 Q212.338 239.465 208.334 239.465 Q206.459 239.465 204.584 239.882 Q202.732 240.299 200.787 241.178 L200.787 223.817 Z" fill="#000000" fill-rule="nonzero" fill-opacity="1" /><path clip-path="url(#clip340)" d="M84.5844 488.609 L114.26 488.609 L114.26 492.544 L84.5844 492.544 L84.5844 488.609 Z" fill="#000000" fill-rule="nonzero" fill-opacity="1" /><path clip-path="url(#clip340)" d="M134.353 473.956 Q130.742 473.956 128.913 477.521 Q127.107 481.062 127.107 488.192 Q127.107 495.298 128.913 498.863 Q130.742 502.405 134.353 502.405 Q137.987 502.405 139.792 498.863 Q141.621 495.298 141.621 488.192 Q141.621 481.062 139.792 477.521 Q137.987 473.956 134.353 473.956 M134.353 470.252 Q140.163 470.252 143.218 474.859 Q146.297 479.442 146.297 488.192 Q146.297 496.919 143.218 501.525 Q140.163 506.108 134.353 506.108 Q128.542 506.108 125.464 501.525 Q122.408 496.919 122.408 488.192 Q122.408 479.442 125.464 474.859 Q128.542 470.252 134.353 470.252 Z" fill="#000000" fill-rule="nonzero" fill-opacity="1" /><path clip-path="url(#clip340)" d="M154.515 499.558 L159.399 499.558 L159.399 505.437 L154.515 505.437 L154.515 499.558 Z" fill="#000000" fill-rule="nonzero" fill-opacity="1" /><path clip-path="url(#clip340)" d="M169.63 470.877 L187.987 470.877 L187.987 474.812 L173.913 474.812 L173.913 483.284 Q174.931 482.937 175.95 482.775 Q176.968 482.59 177.987 482.59 Q183.774 482.59 187.153 485.761 Q190.533 488.933 190.533 494.349 Q190.533 499.928 187.061 503.03 Q183.588 506.108 177.269 506.108 Q175.093 506.108 172.825 505.738 Q170.579 505.368 168.172 504.627 L168.172 499.928 Q170.255 501.062 172.477 501.618 Q174.7 502.173 177.176 502.173 Q181.181 502.173 183.519 500.067 Q185.857 497.96 185.857 494.349 Q185.857 490.738 183.519 488.632 Q181.181 486.525 177.176 486.525 Q175.301 486.525 173.427 486.942 Q171.575 487.359 169.63 488.238 L169.63 470.877 Z" fill="#000000" fill-rule="nonzero" fill-opacity="1" /><path clip-path="url(#clip340)" d="M209.746 473.956 Q206.135 473.956 204.306 477.521 Q202.5 481.062 202.5 488.192 Q202.5 495.298 204.306 498.863 Q206.135 502.405 209.746 502.405 Q213.38 502.405 215.186 498.863 Q217.014 495.298 217.014 488.192 Q217.014 481.062 215.186 477.521 Q213.38 473.956 209.746 473.956 M209.746 470.252 Q215.556 470.252 218.611 474.859 Q221.69 479.442 221.69 488.192 Q221.69 496.919 218.611 501.525 Q215.556 506.108 209.746 506.108 Q203.936 506.108 200.857 501.525 Q197.801 496.919 197.801 488.192 Q197.801 479.442 200.857 474.859 Q203.936 470.252 209.746 470.252 Z" fill="#000000" fill-rule="nonzero" fill-opacity="1" /><path clip-path="url(#clip340)" d="M85.5798 735.668 L115.256 735.668 L115.256 739.603 L85.5798 739.603 L85.5798 735.668 Z" fill="#000000" fill-rule="nonzero" fill-opacity="1" /><path clip-path="url(#clip340)" d="M135.348 721.016 Q131.737 721.016 129.908 724.58 Q128.103 728.122 128.103 735.252 Q128.103 742.358 129.908 745.923 Q131.737 749.465 135.348 749.465 Q138.982 749.465 140.788 745.923 Q142.616 742.358 142.616 735.252 Q142.616 728.122 140.788 724.58 Q138.982 721.016 135.348 721.016 M135.348 717.312 Q141.158 717.312 144.214 721.918 Q147.292 726.502 147.292 735.252 Q147.292 743.978 144.214 748.585 Q141.158 753.168 135.348 753.168 Q129.538 753.168 126.459 748.585 Q123.404 743.978 123.404 735.252 Q123.404 726.502 126.459 721.918 Q129.538 717.312 135.348 717.312 Z" fill="#000000" fill-rule="nonzero" fill-opacity="1" /><path clip-path="url(#clip340)" d="M155.51 746.617 L160.394 746.617 L160.394 752.497 L155.51 752.497 L155.51 746.617 Z" fill="#000000" fill-rule="nonzero" fill-opacity="1" /><path clip-path="url(#clip340)" d="M174.607 748.562 L190.926 748.562 L190.926 752.497 L168.982 752.497 L168.982 748.562 Q171.644 745.807 176.227 741.178 Q180.834 736.525 182.014 735.182 Q184.26 732.659 185.139 730.923 Q186.042 729.164 186.042 727.474 Q186.042 724.719 184.098 722.983 Q182.176 721.247 179.075 721.247 Q176.876 721.247 174.422 722.011 Q171.991 722.775 169.214 724.326 L169.214 719.604 Q172.038 718.469 174.491 717.891 Q176.945 717.312 178.982 717.312 Q184.352 717.312 187.547 719.997 Q190.741 722.682 190.741 727.173 Q190.741 729.303 189.931 731.224 Q189.144 733.122 187.038 735.715 Q186.459 736.386 183.357 739.603 Q180.255 742.798 174.607 748.562 Z" fill="#000000" fill-rule="nonzero" fill-opacity="1" /><path clip-path="url(#clip340)" d="M200.787 717.937 L219.144 717.937 L219.144 721.872 L205.07 721.872 L205.07 730.344 Q206.088 729.997 207.107 729.835 Q208.125 729.65 209.144 729.65 Q214.931 729.65 218.311 732.821 Q221.69 735.992 221.69 741.409 Q221.69 746.988 218.218 750.09 Q214.746 753.168 208.426 753.168 Q206.25 753.168 203.982 752.798 Q201.737 752.427 199.329 751.687 L199.329 746.988 Q201.412 748.122 203.635 748.677 Q205.857 749.233 208.334 749.233 Q212.338 749.233 214.676 747.127 Q217.014 745.02 217.014 741.409 Q217.014 737.798 214.676 735.691 Q212.338 733.585 208.334 733.585 Q206.459 733.585 204.584 734.002 Q202.732 734.418 200.787 735.298 L200.787 717.937 Z" fill="#000000" fill-rule="nonzero" fill-opacity="1" /><path clip-path="url(#clip340)" d="M134.353 968.075 Q130.742 968.075 128.913 971.64 Q127.107 975.182 127.107 982.311 Q127.107 989.418 128.913 992.983 Q130.742 996.524 134.353 996.524 Q137.987 996.524 139.792 992.983 Q141.621 989.418 141.621 982.311 Q141.621 975.182 139.792 971.64 Q137.987 968.075 134.353 968.075 M134.353 964.372 Q140.163 964.372 143.218 968.978 Q146.297 973.561 146.297 982.311 Q146.297 991.038 143.218 995.645 Q140.163 1000.23 134.353 1000.23 Q128.542 1000.23 125.464 995.645 Q122.408 991.038 122.408 982.311 Q122.408 973.561 125.464 968.978 Q128.542 964.372 134.353 964.372 Z" fill="#000000" fill-rule="nonzero" fill-opacity="1" /><path clip-path="url(#clip340)" d="M154.515 993.677 L159.399 993.677 L159.399 999.557 L154.515 999.557 L154.515 993.677 Z" fill="#000000" fill-rule="nonzero" fill-opacity="1" /><path clip-path="url(#clip340)" d="M179.584 968.075 Q175.973 968.075 174.144 971.64 Q172.339 975.182 172.339 982.311 Q172.339 989.418 174.144 992.983 Q175.973 996.524 179.584 996.524 Q183.218 996.524 185.024 992.983 Q186.852 989.418 186.852 982.311 Q186.852 975.182 185.024 971.64 Q183.218 968.075 179.584 968.075 M179.584 964.372 Q185.394 964.372 188.45 968.978 Q191.528 973.561 191.528 982.311 Q191.528 991.038 188.45 995.645 Q185.394 1000.23 179.584 1000.23 Q173.774 1000.23 170.695 995.645 Q167.64 991.038 167.64 982.311 Q167.64 973.561 170.695 968.978 Q173.774 964.372 179.584 964.372 Z" fill="#000000" fill-rule="nonzero" fill-opacity="1" /><path clip-path="url(#clip340)" d="M209.746 968.075 Q206.135 968.075 204.306 971.64 Q202.5 975.182 202.5 982.311 Q202.5 989.418 204.306 992.983 Q206.135 996.524 209.746 996.524 Q213.38 996.524 215.186 992.983 Q217.014 989.418 217.014 982.311 Q217.014 975.182 215.186 971.64 Q213.38 968.075 209.746 968.075 M209.746 964.372 Q215.556 964.372 218.611 968.978 Q221.69 973.561 221.69 982.311 Q221.69 991.038 218.611 995.645 Q215.556 1000.23 209.746 1000.23 Q203.936 1000.23 200.857 995.645 Q197.801 991.038 197.801 982.311 Q197.801 973.561 200.857 968.978 Q203.936 964.372 209.746 964.372 Z" fill="#000000" fill-rule="nonzero" fill-opacity="1" /><path clip-path="url(#clip340)" d="M135.348 1215.14 Q131.737 1215.14 129.908 1218.7 Q128.103 1222.24 128.103 1229.37 Q128.103 1236.48 129.908 1240.04 Q131.737 1243.58 135.348 1243.58 Q138.982 1243.58 140.788 1240.04 Q142.616 1236.48 142.616 1229.37 Q142.616 1222.24 140.788 1218.7 Q138.982 1215.14 135.348 1215.14 M135.348 1211.43 Q141.158 1211.43 144.214 1216.04 Q147.292 1220.62 147.292 1229.37 Q147.292 1238.1 144.214 1242.7 Q141.158 1247.29 135.348 1247.29 Q129.538 1247.29 126.459 1242.7 Q123.404 1238.1 123.404 1229.37 Q123.404 1220.62 126.459 1216.04 Q129.538 1211.43 135.348 1211.43 Z" fill="#000000" fill-rule="nonzero" fill-opacity="1" /><path clip-path="url(#clip340)" d="M155.51 1240.74 L160.394 1240.74 L160.394 1246.62 L155.51 1246.62 L155.51 1240.74 Z" fill="#000000" fill-rule="nonzero" fill-opacity="1" /><path clip-path="url(#clip340)" d="M174.607 1242.68 L190.926 1242.68 L190.926 1246.62 L168.982 1246.62 L168.982 1242.68 Q171.644 1239.93 176.227 1235.3 Q180.834 1230.64 182.014 1229.3 Q184.26 1226.78 185.139 1225.04 Q186.042 1223.28 186.042 1221.59 Q186.042 1218.84 184.098 1217.1 Q182.176 1215.37 179.075 1215.37 Q176.876 1215.37 174.422 1216.13 Q171.991 1216.89 169.214 1218.45 L169.214 1213.72 Q172.038 1212.59 174.491 1212.01 Q176.945 1211.43 178.982 1211.43 Q184.352 1211.43 187.547 1214.12 Q190.741 1216.8 190.741 1221.29 Q190.741 1223.42 189.931 1225.34 Q189.144 1227.24 187.038 1229.83 Q186.459 1230.51 183.357 1233.72 Q180.255 1236.92 174.607 1242.68 Z" fill="#000000" fill-rule="nonzero" fill-opacity="1" /><path clip-path="url(#clip340)" d="M200.787 1212.06 L219.144 1212.06 L219.144 1215.99 L205.07 1215.99 L205.07 1224.46 Q206.088 1224.12 207.107 1223.95 Q208.125 1223.77 209.144 1223.77 Q214.931 1223.77 218.311 1226.94 Q221.69 1230.11 221.69 1235.53 Q221.69 1241.11 218.218 1244.21 Q214.746 1247.29 208.426 1247.29 Q206.25 1247.29 203.982 1246.92 Q201.737 1246.55 199.329 1245.81 L199.329 1241.11 Q201.412 1242.24 203.635 1242.8 Q205.857 1243.35 208.334 1243.35 Q212.338 1243.35 214.676 1241.25 Q217.014 1239.14 217.014 1235.53 Q217.014 1231.92 214.676 1229.81 Q212.338 1227.7 208.334 1227.7 Q206.459 1227.7 204.584 1228.12 Q202.732 1228.54 200.787 1229.42 L200.787 1212.06 Z" fill="#000000" fill-rule="nonzero" fill-opacity="1" /><path clip-path="url(#clip340)" d="M13.8626 874.796 L13.8626 857.64 L19.0825 857.64 L19.0825 874.796 L13.8626 874.796 Z" fill="#000000" fill-rule="nonzero" fill-opacity="1" /><path clip-path="url(#clip340)" d="M-13.1916 848.06 L-13.1916 841.631 L34.3284 841.631 L34.3284 848.06 L-13.1916 848.06 Z" fill="#000000" fill-rule="nonzero" fill-opacity="1" /><path clip-path="url(#clip340)" d="M5.52357 801.336 Q1.57683 799.14 -0.301054 796.084 Q-2.17894 793.028 -2.17894 788.891 Q-2.17894 783.321 1.73597 780.297 Q5.61905 777.273 12.8123 777.273 L34.3284 777.273 L34.3284 783.162 L13.0033 783.162 Q7.87888 783.162 5.39625 784.976 Q2.91363 786.79 2.91363 790.514 Q2.91363 795.066 5.93734 797.707 Q8.96105 800.349 14.1809 800.349 L34.3284 800.349 L34.3284 806.237 L13.0033 806.237 Q7.84705 806.237 5.39625 808.052 Q2.91363 809.866 2.91363 813.653 Q2.91363 818.141 5.96917 820.783 Q8.99288 823.425 14.1809 823.425 L34.3284 823.425 L34.3284 829.313 L-1.31957 829.313 L-1.31957 823.425 L4.2186 823.425 Q0.940259 821.42 -0.619339 818.619 Q-2.17894 815.818 -2.17894 811.966 Q-2.17894 808.083 -0.205568 805.378 Q1.7678 802.641 5.52357 801.336 Z" fill="#000000" fill-rule="nonzero" fill-opacity="1" /><path clip-path="url(#clip340)" d="M-13.1916 747.355 L-13.1916 710.02 L-8.29002 710.02 L28.9175 740.066 L28.9175 709.288 L34.3284 709.288 L34.3284 748.087 L29.4268 748.087 L-7.78076 718.04 L-7.78076 747.355 L-13.1916 747.355 Z" fill="#000000" fill-rule="nonzero" fill-opacity="1" /><path clip-path="url(#clip340)" d="M-13.1916 669.088 L-13.1916 663.677 L40.3758 680.228 L40.3758 685.639 L-13.1916 669.088 Z" fill="#000000" fill-rule="nonzero" fill-opacity="1" /><path clip-path="url(#clip340)" d="M28.6629 595.628 L34.3284 595.628 L34.3284 614.725 L28.6629 614.725 Q25.5755 609.091 20.292 605.94 Q15.0085 602.789 8.57911 602.789 Q0.940259 602.789 -3.67488 606.991 Q-8.29002 611.192 -8.29002 618.067 Q-8.29002 624.942 -3.64305 629.175 Q0.972088 633.377 8.57911 633.377 Q15.0085 633.377 20.292 630.226 Q25.5755 627.043 28.6629 621.377 L34.3284 621.377 L34.3284 640.474 L28.6629 640.474 L28.6629 630.321 Q24.2387 635.35 19.4963 637.673 Q14.7538 639.965 8.89739 639.965 Q-1.22408 639.965 -7.4943 633.854 Q-13.7645 627.775 -13.7645 618.067 Q-13.7645 608.423 -7.4943 602.28 Q-1.25591 596.169 8.57911 596.169 Q14.7538 596.169 19.4645 598.429 Q24.1751 600.689 28.6629 605.813 L28.6629 595.628 Z" fill="#000000" fill-rule="nonzero" fill-opacity="1" /><circle clip-path="url(#clip342)" cx="316.984" cy="982.267" r="14.4" fill="#009af9" fill-rule="evenodd" fill-opacity="1" stroke="#000000" stroke-opacity="1" stroke-width="3.2"/>
<circle clip-path="url(#clip342)" cx="316.984" cy="982.263" r="14.4" fill="#009af9" fill-rule="evenodd" fill-opacity="1" stroke="#000000" stroke-opacity="1" stroke-width="3.2"/>
<circle clip-path="url(#clip342)" cx="316.984" cy="982.258" r="14.4" fill="#009af9" fill-rule="evenodd" fill-opacity="1" stroke="#000000" stroke-opacity="1" stroke-width="3.2"/>
<circle clip-path="url(#clip342)" cx="316.984" cy="982.25" r="14.4" fill="#009af9" fill-rule="evenodd" fill-opacity="1" stroke="#000000" stroke-opacity="1" stroke-width="3.2"/>
<circle clip-path="url(#clip342)" cx="316.984" cy="982.24" r="14.4" fill="#009af9" fill-rule="evenodd" fill-opacity="1" stroke="#000000" stroke-opacity="1" stroke-width="3.2"/>
<circle clip-path="url(#clip342)" cx="316.984" cy="982.225" r="14.4" fill="#009af9" fill-rule="evenodd" fill-opacity="1" stroke="#000000" stroke-opacity="1" stroke-width="3.2"/>
<circle clip-path="url(#clip342)" cx="316.984" cy="982.206" r="14.4" fill="#009af9" fill-rule="evenodd" fill-opacity="1" stroke="#000000" stroke-opacity="1" stroke-width="3.2"/>
<circle clip-path="url(#clip342)" cx="316.984" cy="982.178" r="14.4" fill="#009af9" fill-rule="evenodd" fill-opacity="1" stroke="#000000" stroke-opacity="1" stroke-width="3.2"/>
<circle clip-path="url(#clip342)" cx="316.984" cy="982.139" r="14.4" fill="#009af9" fill-rule="evenodd" fill-opacity="1" stroke="#000000" stroke-opacity="1" stroke-width="3.2"/>
<circle clip-path="url(#clip342)" cx="316.984" cy="982.086" r="14.4" fill="#009af9" fill-rule="evenodd" fill-opacity="1" stroke="#000000" stroke-opacity="1" stroke-width="3.2"/>
<circle clip-path="url(#clip342)" cx="316.985" cy="982.012" r="14.4" fill="#009af9" fill-rule="evenodd" fill-opacity="1" stroke="#000000" stroke-opacity="1" stroke-width="3.2"/>
<circle clip-path="url(#clip342)" cx="316.985" cy="981.908" r="14.4" fill="#009af9" fill-rule="evenodd" fill-opacity="1" stroke="#000000" stroke-opacity="1" stroke-width="3.2"/>
<circle clip-path="url(#clip342)" cx="316.985" cy="981.765" r="14.4" fill="#009af9" fill-rule="evenodd" fill-opacity="1" stroke="#000000" stroke-opacity="1" stroke-width="3.2"/>
<circle clip-path="url(#clip342)" cx="316.985" cy="981.565" r="14.4" fill="#009af9" fill-rule="evenodd" fill-opacity="1" stroke="#000000" stroke-opacity="1" stroke-width="3.2"/>
<circle clip-path="url(#clip342)" cx="316.985" cy="981.288" r="14.4" fill="#009af9" fill-rule="evenodd" fill-opacity="1" stroke="#000000" stroke-opacity="1" stroke-width="3.2"/>
<circle clip-path="url(#clip342)" cx="316.986" cy="980.904" r="14.4" fill="#009af9" fill-rule="evenodd" fill-opacity="1" stroke="#000000" stroke-opacity="1" stroke-width="3.2"/>
<circle clip-path="url(#clip342)" cx="316.988" cy="980.369" r="14.4" fill="#009af9" fill-rule="evenodd" fill-opacity="1" stroke="#000000" stroke-opacity="1" stroke-width="3.2"/>
<circle clip-path="url(#clip342)" cx="316.992" cy="979.626" r="14.4" fill="#009af9" fill-rule="evenodd" fill-opacity="1" stroke="#000000" stroke-opacity="1" stroke-width="3.2"/>
<circle clip-path="url(#clip342)" cx="316.998" cy="978.593" r="14.4" fill="#009af9" fill-rule="evenodd" fill-opacity="1" stroke="#000000" stroke-opacity="1" stroke-width="3.2"/>
<circle clip-path="url(#clip342)" cx="317.011" cy="977.158" r="14.4" fill="#009af9" fill-rule="evenodd" fill-opacity="1" stroke="#000000" stroke-opacity="1" stroke-width="3.2"/>
<circle clip-path="url(#clip342)" cx="317.036" cy="975.165" r="14.4" fill="#009af9" fill-rule="evenodd" fill-opacity="1" stroke="#000000" stroke-opacity="1" stroke-width="3.2"/>
<circle clip-path="url(#clip342)" cx="317.083" cy="972.395" r="14.4" fill="#009af9" fill-rule="evenodd" fill-opacity="1" stroke="#000000" stroke-opacity="1" stroke-width="3.2"/>
<circle clip-path="url(#clip342)" cx="317.175" cy="968.548" r="14.4" fill="#009af9" fill-rule="evenodd" fill-opacity="1" stroke="#000000" stroke-opacity="1" stroke-width="3.2"/>
<circle clip-path="url(#clip342)" cx="317.353" cy="963.204" r="14.4" fill="#009af9" fill-rule="evenodd" fill-opacity="1" stroke="#000000" stroke-opacity="1" stroke-width="3.2"/>
<circle clip-path="url(#clip342)" cx="317.695" cy="955.784" r="14.4" fill="#009af9" fill-rule="evenodd" fill-opacity="1" stroke="#000000" stroke-opacity="1" stroke-width="3.2"/>
<circle clip-path="url(#clip342)" cx="318.356" cy="945.49" r="14.4" fill="#009af9" fill-rule="evenodd" fill-opacity="1" stroke="#000000" stroke-opacity="1" stroke-width="3.2"/>
<circle clip-path="url(#clip342)" cx="319.629" cy="931.228" r="14.4" fill="#009af9" fill-rule="evenodd" fill-opacity="1" stroke="#000000" stroke-opacity="1" stroke-width="3.2"/>
<circle clip-path="url(#clip342)" cx="322.077" cy="911.521" r="14.4" fill="#009af9" fill-rule="evenodd" fill-opacity="1" stroke="#000000" stroke-opacity="1" stroke-width="3.2"/>
<circle clip-path="url(#clip342)" cx="326.769" cy="884.431" r="14.4" fill="#009af9" fill-rule="evenodd" fill-opacity="1" stroke="#000000" stroke-opacity="1" stroke-width="3.2"/>
<circle clip-path="url(#clip342)" cx="335.703" cy="847.562" r="14.4" fill="#009af9" fill-rule="evenodd" fill-opacity="1" stroke="#000000" stroke-opacity="1" stroke-width="3.2"/>
<circle clip-path="url(#clip342)" cx="352.498" cy="798.334" r="14.4" fill="#009af9" fill-rule="evenodd" fill-opacity="1" stroke="#000000" stroke-opacity="1" stroke-width="3.2"/>
<circle clip-path="url(#clip342)" cx="383.332" cy="734.961" r="14.4" fill="#009af9" fill-rule="evenodd" fill-opacity="1" stroke="#000000" stroke-opacity="1" stroke-width="3.2"/>
<circle clip-path="url(#clip342)" cx="437.548" cy="658.842" r="14.4" fill="#009af9" fill-rule="evenodd" fill-opacity="1" stroke="#000000" stroke-opacity="1" stroke-width="3.2"/>
<circle clip-path="url(#clip342)" cx="526.021" cy="578.691" r="14.4" fill="#009af9" fill-rule="evenodd" fill-opacity="1" stroke="#000000" stroke-opacity="1" stroke-width="3.2"/>
<circle clip-path="url(#clip342)" cx="654.187" cy="513.735" r="14.4" fill="#009af9" fill-rule="evenodd" fill-opacity="1" stroke="#000000" stroke-opacity="1" stroke-width="3.2"/>
<circle clip-path="url(#clip342)" cx="811.104" cy="488.157" r="14.4" fill="#009af9" fill-rule="evenodd" fill-opacity="1" stroke="#000000" stroke-opacity="1" stroke-width="3.2"/>
<circle clip-path="url(#clip342)" cx="968.021" cy="513.735" r="14.4" fill="#009af9" fill-rule="evenodd" fill-opacity="1" stroke="#000000" stroke-opacity="1" stroke-width="3.2"/>
<circle clip-path="url(#clip342)" cx="1096.19" cy="578.691" r="14.4" fill="#009af9" fill-rule="evenodd" fill-opacity="1" stroke="#000000" stroke-opacity="1" stroke-width="3.2"/>
<circle clip-path="url(#clip342)" cx="1184.66" cy="658.842" r="14.4" fill="#009af9" fill-rule="evenodd" fill-opacity="1" stroke="#000000" stroke-opacity="1" stroke-width="3.2"/>
<circle clip-path="url(#clip342)" cx="1238.88" cy="734.961" r="14.4" fill="#009af9" fill-rule="evenodd" fill-opacity="1" stroke="#000000" stroke-opacity="1" stroke-width="3.2"/>
<circle clip-path="url(#clip342)" cx="1269.71" cy="798.334" r="14.4" fill="#009af9" fill-rule="evenodd" fill-opacity="1" stroke="#000000" stroke-opacity="1" stroke-width="3.2"/>
<circle clip-path="url(#clip342)" cx="1286.51" cy="847.562" r="14.4" fill="#009af9" fill-rule="evenodd" fill-opacity="1" stroke="#000000" stroke-opacity="1" stroke-width="3.2"/>
<circle clip-path="url(#clip342)" cx="1295.44" cy="884.431" r="14.4" fill="#009af9" fill-rule="evenodd" fill-opacity="1" stroke="#000000" stroke-opacity="1" stroke-width="3.2"/>
<circle clip-path="url(#clip342)" cx="1300.13" cy="911.521" r="14.4" fill="#009af9" fill-rule="evenodd" fill-opacity="1" stroke="#000000" stroke-opacity="1" stroke-width="3.2"/>
<circle clip-path="url(#clip342)" cx="1302.58" cy="931.228" r="14.4" fill="#009af9" fill-rule="evenodd" fill-opacity="1" stroke="#000000" stroke-opacity="1" stroke-width="3.2"/>
<circle clip-path="url(#clip342)" cx="1303.85" cy="945.49" r="14.4" fill="#009af9" fill-rule="evenodd" fill-opacity="1" stroke="#000000" stroke-opacity="1" stroke-width="3.2"/>
<circle clip-path="url(#clip342)" cx="1304.51" cy="955.784" r="14.4" fill="#009af9" fill-rule="evenodd" fill-opacity="1" stroke="#000000" stroke-opacity="1" stroke-width="3.2"/>
<circle clip-path="url(#clip342)" cx="1304.86" cy="963.204" r="14.4" fill="#009af9" fill-rule="evenodd" fill-opacity="1" stroke="#000000" stroke-opacity="1" stroke-width="3.2"/>
<circle clip-path="url(#clip342)" cx="1305.03" cy="968.548" r="14.4" fill="#009af9" fill-rule="evenodd" fill-opacity="1" stroke="#000000" stroke-opacity="1" stroke-width="3.2"/>
<circle clip-path="url(#clip342)" cx="1305.12" cy="972.395" r="14.4" fill="#009af9" fill-rule="evenodd" fill-opacity="1" stroke="#000000" stroke-opacity="1" stroke-width="3.2"/>
<circle clip-path="url(#clip342)" cx="1305.17" cy="975.165" r="14.4" fill="#009af9" fill-rule="evenodd" fill-opacity="1" stroke="#000000" stroke-opacity="1" stroke-width="3.2"/>
<circle clip-path="url(#clip342)" cx="1305.2" cy="977.158" r="14.4" fill="#009af9" fill-rule="evenodd" fill-opacity="1" stroke="#000000" stroke-opacity="1" stroke-width="3.2"/>
<circle clip-path="url(#clip342)" cx="1305.21" cy="978.593" r="14.4" fill="#009af9" fill-rule="evenodd" fill-opacity="1" stroke="#000000" stroke-opacity="1" stroke-width="3.2"/>
<circle clip-path="url(#clip342)" cx="1305.22" cy="979.626" r="14.4" fill="#009af9" fill-rule="evenodd" fill-opacity="1" stroke="#000000" stroke-opacity="1" stroke-width="3.2"/>
<circle clip-path="url(#clip342)" cx="1305.22" cy="980.369" r="14.4" fill="#009af9" fill-rule="evenodd" fill-opacity="1" stroke="#000000" stroke-opacity="1" stroke-width="3.2"/>
<circle clip-path="url(#clip342)" cx="1305.22" cy="980.904" r="14.4" fill="#009af9" fill-rule="evenodd" fill-opacity="1" stroke="#000000" stroke-opacity="1" stroke-width="3.2"/>
<circle clip-path="url(#clip342)" cx="1305.22" cy="981.288" r="14.4" fill="#009af9" fill-rule="evenodd" fill-opacity="1" stroke="#000000" stroke-opacity="1" stroke-width="3.2"/>
<circle clip-path="url(#clip342)" cx="1305.22" cy="982.267" r="14.4" fill="#e26f46" fill-rule="evenodd" fill-opacity="1" stroke="#000000" stroke-opacity="1" stroke-width="3.2"/>
<circle clip-path="url(#clip342)" cx="1305.22" cy="982.263" r="14.4" fill="#e26f46" fill-rule="evenodd" fill-opacity="1" stroke="#000000" stroke-opacity="1" stroke-width="3.2"/>
<circle clip-path="url(#clip342)" cx="1305.22" cy="982.258" r="14.4" fill="#e26f46" fill-rule="evenodd" fill-opacity="1" stroke="#000000" stroke-opacity="1" stroke-width="3.2"/>
<circle clip-path="url(#clip342)" cx="1305.22" cy="982.25" r="14.4" fill="#e26f46" fill-rule="evenodd" fill-opacity="1" stroke="#000000" stroke-opacity="1" stroke-width="3.2"/>
<circle clip-path="url(#clip342)" cx="1305.22" cy="982.24" r="14.4" fill="#e26f46" fill-rule="evenodd" fill-opacity="1" stroke="#000000" stroke-opacity="1" stroke-width="3.2"/>
<circle clip-path="url(#clip342)" cx="1305.22" cy="982.225" r="14.4" fill="#e26f46" fill-rule="evenodd" fill-opacity="1" stroke="#000000" stroke-opacity="1" stroke-width="3.2"/>
<circle clip-path="url(#clip342)" cx="1305.22" cy="982.206" r="14.4" fill="#e26f46" fill-rule="evenodd" fill-opacity="1" stroke="#000000" stroke-opacity="1" stroke-width="3.2"/>
<circle clip-path="url(#clip342)" cx="1305.22" cy="982.178" r="14.4" fill="#e26f46" fill-rule="evenodd" fill-opacity="1" stroke="#000000" stroke-opacity="1" stroke-width="3.2"/>
<circle clip-path="url(#clip342)" cx="1305.22" cy="982.139" r="14.4" fill="#e26f46" fill-rule="evenodd" fill-opacity="1" stroke="#000000" stroke-opacity="1" stroke-width="3.2"/>
<circle clip-path="url(#clip342)" cx="1305.22" cy="982.086" r="14.4" fill="#e26f46" fill-rule="evenodd" fill-opacity="1" stroke="#000000" stroke-opacity="1" stroke-width="3.2"/>
<circle clip-path="url(#clip342)" cx="1305.22" cy="982.012" r="14.4" fill="#e26f46" fill-rule="evenodd" fill-opacity="1" stroke="#000000" stroke-opacity="1" stroke-width="3.2"/>
<circle clip-path="url(#clip342)" cx="1305.22" cy="981.908" r="14.4" fill="#e26f46" fill-rule="evenodd" fill-opacity="1" stroke="#000000" stroke-opacity="1" stroke-width="3.2"/>
<circle clip-path="url(#clip342)" cx="1305.22" cy="981.765" r="14.4" fill="#e26f46" fill-rule="evenodd" fill-opacity="1" stroke="#000000" stroke-opacity="1" stroke-width="3.2"/>
<circle clip-path="url(#clip342)" cx="1305.22" cy="981.565" r="14.4" fill="#e26f46" fill-rule="evenodd" fill-opacity="1" stroke="#000000" stroke-opacity="1" stroke-width="3.2"/>
<circle clip-path="url(#clip342)" cx="1305.22" cy="981.288" r="14.4" fill="#e26f46" fill-rule="evenodd" fill-opacity="1" stroke="#000000" stroke-opacity="1" stroke-width="3.2"/>
<circle clip-path="url(#clip342)" cx="1305.23" cy="980.904" r="14.4" fill="#e26f46" fill-rule="evenodd" fill-opacity="1" stroke="#000000" stroke-opacity="1" stroke-width="3.2"/>
<circle clip-path="url(#clip342)" cx="1305.23" cy="980.369" r="14.4" fill="#e26f46" fill-rule="evenodd" fill-opacity="1" stroke="#000000" stroke-opacity="1" stroke-width="3.2"/>
<circle clip-path="url(#clip342)" cx="1305.23" cy="979.626" r="14.4" fill="#e26f46" fill-rule="evenodd" fill-opacity="1" stroke="#000000" stroke-opacity="1" stroke-width="3.2"/>
<circle clip-path="url(#clip342)" cx="1305.24" cy="978.593" r="14.4" fill="#e26f46" fill-rule="evenodd" fill-opacity="1" stroke="#000000" stroke-opacity="1" stroke-width="3.2"/>
<circle clip-path="url(#clip342)" cx="1305.25" cy="977.158" r="14.4" fill="#e26f46" fill-rule="evenodd" fill-opacity="1" stroke="#000000" stroke-opacity="1" stroke-width="3.2"/>
<circle clip-path="url(#clip342)" cx="1305.27" cy="975.165" r="14.4" fill="#e26f46" fill-rule="evenodd" fill-opacity="1" stroke="#000000" stroke-opacity="1" stroke-width="3.2"/>
<circle clip-path="url(#clip342)" cx="1305.32" cy="972.395" r="14.4" fill="#e26f46" fill-rule="evenodd" fill-opacity="1" stroke="#000000" stroke-opacity="1" stroke-width="3.2"/>
<circle clip-path="url(#clip342)" cx="1305.41" cy="968.548" r="14.4" fill="#e26f46" fill-rule="evenodd" fill-opacity="1" stroke="#000000" stroke-opacity="1" stroke-width="3.2"/>
<circle clip-path="url(#clip342)" cx="1305.59" cy="963.204" r="14.4" fill="#e26f46" fill-rule="evenodd" fill-opacity="1" stroke="#000000" stroke-opacity="1" stroke-width="3.2"/>
<circle clip-path="url(#clip342)" cx="1305.93" cy="955.784" r="14.4" fill="#e26f46" fill-rule="evenodd" fill-opacity="1" stroke="#000000" stroke-opacity="1" stroke-width="3.2"/>
<circle clip-path="url(#clip342)" cx="1306.59" cy="945.49" r="14.4" fill="#e26f46" fill-rule="evenodd" fill-opacity="1" stroke="#000000" stroke-opacity="1" stroke-width="3.2"/>
<circle clip-path="url(#clip342)" cx="1307.87" cy="931.228" r="14.4" fill="#e26f46" fill-rule="evenodd" fill-opacity="1" stroke="#000000" stroke-opacity="1" stroke-width="3.2"/>
<circle clip-path="url(#clip342)" cx="1310.32" cy="911.521" r="14.4" fill="#e26f46" fill-rule="evenodd" fill-opacity="1" stroke="#000000" stroke-opacity="1" stroke-width="3.2"/>
<circle clip-path="url(#clip342)" cx="1315.01" cy="884.431" r="14.4" fill="#e26f46" fill-rule="evenodd" fill-opacity="1" stroke="#000000" stroke-opacity="1" stroke-width="3.2"/>
<circle clip-path="url(#clip342)" cx="1323.94" cy="847.562" r="14.4" fill="#e26f46" fill-rule="evenodd" fill-opacity="1" stroke="#000000" stroke-opacity="1" stroke-width="3.2"/>
<circle clip-path="url(#clip342)" cx="1340.74" cy="798.334" r="14.4" fill="#e26f46" fill-rule="evenodd" fill-opacity="1" stroke="#000000" stroke-opacity="1" stroke-width="3.2"/>
<circle clip-path="url(#clip342)" cx="1371.57" cy="734.961" r="14.4" fill="#e26f46" fill-rule="evenodd" fill-opacity="1" stroke="#000000" stroke-opacity="1" stroke-width="3.2"/>
<circle clip-path="url(#clip342)" cx="1425.79" cy="658.842" r="14.4" fill="#e26f46" fill-rule="evenodd" fill-opacity="1" stroke="#000000" stroke-opacity="1" stroke-width="3.2"/>
<circle clip-path="url(#clip342)" cx="1514.26" cy="578.691" r="14.4" fill="#e26f46" fill-rule="evenodd" fill-opacity="1" stroke="#000000" stroke-opacity="1" stroke-width="3.2"/>
<circle clip-path="url(#clip342)" cx="1642.43" cy="513.735" r="14.4" fill="#e26f46" fill-rule="evenodd" fill-opacity="1" stroke="#000000" stroke-opacity="1" stroke-width="3.2"/>
<circle clip-path="url(#clip342)" cx="1799.34" cy="488.157" r="14.4" fill="#e26f46" fill-rule="evenodd" fill-opacity="1" stroke="#000000" stroke-opacity="1" stroke-width="3.2"/>
<circle clip-path="url(#clip342)" cx="1956.26" cy="513.735" r="14.4" fill="#e26f46" fill-rule="evenodd" fill-opacity="1" stroke="#000000" stroke-opacity="1" stroke-width="3.2"/>
<circle clip-path="url(#clip342)" cx="2084.43" cy="578.691" r="14.4" fill="#e26f46" fill-rule="evenodd" fill-opacity="1" stroke="#000000" stroke-opacity="1" stroke-width="3.2"/>
<circle clip-path="url(#clip342)" cx="2172.9" cy="658.842" r="14.4" fill="#e26f46" fill-rule="evenodd" fill-opacity="1" stroke="#000000" stroke-opacity="1" stroke-width="3.2"/>
<circle clip-path="url(#clip342)" cx="2227.12" cy="734.961" r="14.4" fill="#e26f46" fill-rule="evenodd" fill-opacity="1" stroke="#000000" stroke-opacity="1" stroke-width="3.2"/>
<circle clip-path="url(#clip342)" cx="2257.95" cy="798.334" r="14.4" fill="#e26f46" fill-rule="evenodd" fill-opacity="1" stroke="#000000" stroke-opacity="1" stroke-width="3.2"/>
<circle clip-path="url(#clip342)" cx="2274.74" cy="847.562" r="14.4" fill="#e26f46" fill-rule="evenodd" fill-opacity="1" stroke="#000000" stroke-opacity="1" stroke-width="3.2"/>
<circle clip-path="url(#clip342)" cx="2283.68" cy="884.431" r="14.4" fill="#e26f46" fill-rule="evenodd" fill-opacity="1" stroke="#000000" stroke-opacity="1" stroke-width="3.2"/>
<circle clip-path="url(#clip342)" cx="2288.37" cy="911.521" r="14.4" fill="#e26f46" fill-rule="evenodd" fill-opacity="1" stroke="#000000" stroke-opacity="1" stroke-width="3.2"/>
<circle clip-path="url(#clip342)" cx="2290.82" cy="931.228" r="14.4" fill="#e26f46" fill-rule="evenodd" fill-opacity="1" stroke="#000000" stroke-opacity="1" stroke-width="3.2"/>
<circle clip-path="url(#clip342)" cx="2292.09" cy="945.49" r="14.4" fill="#e26f46" fill-rule="evenodd" fill-opacity="1" stroke="#000000" stroke-opacity="1" stroke-width="3.2"/>
<circle clip-path="url(#clip342)" cx="2292.75" cy="955.784" r="14.4" fill="#e26f46" fill-rule="evenodd" fill-opacity="1" stroke="#000000" stroke-opacity="1" stroke-width="3.2"/>
<circle clip-path="url(#clip342)" cx="2293.09" cy="963.204" r="14.4" fill="#e26f46" fill-rule="evenodd" fill-opacity="1" stroke="#000000" stroke-opacity="1" stroke-width="3.2"/>
<circle clip-path="url(#clip342)" cx="2293.27" cy="968.548" r="14.4" fill="#e26f46" fill-rule="evenodd" fill-opacity="1" stroke="#000000" stroke-opacity="1" stroke-width="3.2"/>
<circle clip-path="url(#clip342)" cx="2293.36" cy="972.395" r="14.4" fill="#e26f46" fill-rule="evenodd" fill-opacity="1" stroke="#000000" stroke-opacity="1" stroke-width="3.2"/>
<circle clip-path="url(#clip342)" cx="2293.41" cy="975.165" r="14.4" fill="#e26f46" fill-rule="evenodd" fill-opacity="1" stroke="#000000" stroke-opacity="1" stroke-width="3.2"/>
<circle clip-path="url(#clip342)" cx="2293.44" cy="977.158" r="14.4" fill="#e26f46" fill-rule="evenodd" fill-opacity="1" stroke="#000000" stroke-opacity="1" stroke-width="3.2"/>
<circle clip-path="url(#clip342)" cx="2293.45" cy="978.593" r="14.4" fill="#e26f46" fill-rule="evenodd" fill-opacity="1" stroke="#000000" stroke-opacity="1" stroke-width="3.2"/>
<circle clip-path="url(#clip342)" cx="2293.46" cy="979.626" r="14.4" fill="#e26f46" fill-rule="evenodd" fill-opacity="1" stroke="#000000" stroke-opacity="1" stroke-width="3.2"/>
<circle clip-path="url(#clip342)" cx="2293.46" cy="980.369" r="14.4" fill="#e26f46" fill-rule="evenodd" fill-opacity="1" stroke="#000000" stroke-opacity="1" stroke-width="3.2"/>
<circle clip-path="url(#clip342)" cx="2293.46" cy="980.904" r="14.4" fill="#e26f46" fill-rule="evenodd" fill-opacity="1" stroke="#000000" stroke-opacity="1" stroke-width="3.2"/>
<circle clip-path="url(#clip342)" cx="2293.46" cy="981.288" r="14.4" fill="#e26f46" fill-rule="evenodd" fill-opacity="1" stroke="#000000" stroke-opacity="1" stroke-width="3.2"/>
</svg>
