<?xml version="1.0" encoding="utf-8"?>
<svg xmlns="http://www.w3.org/2000/svg" xmlns:xlink="http://www.w3.org/1999/xlink" width="600" height="400" viewBox="0 0 2400 1600">
<defs>
  <clipPath id="clip790">
    <rect x="0" y="0" width="2400" height="1600"/>
  </clipPath>
</defs>
<path clip-path="url(#clip790)" d="M0 1600 L2400 1600 L2400 8.88178e-14 L0 8.88178e-14  Z" fill="#ffffff" fill-rule="evenodd" fill-opacity="1"/>
<defs>
  <clipPath id="clip791">
    <rect x="480" y="0" width="1681" height="1600"/>
  </clipPath>
</defs>
<path clip-path="url(#clip790)" d="M257.69 1423.18 L2352.76 1423.18 L2352.76 47.2441 L257.69 47.2441  Z" fill="#ffffff" fill-rule="evenodd" fill-opacity="1"/>
<defs>
  <clipPath id="clip792">
    <rect x="257" y="47" width="2096" height="1377"/>
  </clipPath>
</defs>
<polyline clip-path="url(#clip792)" style="stroke:#000000; stroke-linecap:round; stroke-linejoin:round; stroke-width:2; stroke-opacity:0.1; fill:none" points="342.488,47.2441 342.488,1423.18 "/>
<polyline clip-path="url(#clip792)" style="stroke:#000000; stroke-linecap:round; stroke-linejoin:round; stroke-width:2; stroke-opacity:0.1; fill:none" points="663.072,47.2441 663.072,1423.18 "/>
<polyline clip-path="url(#clip792)" style="stroke:#000000; stroke-linecap:round; stroke-linejoin:round; stroke-width:2; stroke-opacity:0.1; fill:none" points="983.657,47.2441 983.657,1423.18 "/>
<polyline clip-path="url(#clip792)" style="stroke:#000000; stroke-linecap:round; stroke-linejoin:round; stroke-width:2; stroke-opacity:0.1; fill:none" points="1304.24,47.2441 1304.24,1423.18 "/>
<polyline clip-path="url(#clip792)" style="stroke:#000000; stroke-linecap:round; stroke-linejoin:round; stroke-width:2; stroke-opacity:0.1; fill:none" points="1624.83,47.2441 1624.83,1423.18 "/>
<polyline clip-path="url(#clip792)" style="stroke:#000000; stroke-linecap:round; stroke-linejoin:round; stroke-width:2; stroke-opacity:0.1; fill:none" points="1945.41,47.2441 1945.41,1423.18 "/>
<polyline clip-path="url(#clip792)" style="stroke:#000000; stroke-linecap:round; stroke-linejoin:round; stroke-width:2; stroke-opacity:0.1; fill:none" points="2266,47.2441 2266,1423.18 "/>
<polyline clip-path="url(#clip792)" style="stroke:#000000; stroke-linecap:round; stroke-linejoin:round; stroke-width:2; stroke-opacity:0.1; fill:none" points="257.69,299.674 2352.76,299.674 "/>
<polyline clip-path="url(#clip792)" style="stroke:#000000; stroke-linecap:round; stroke-linejoin:round; stroke-width:2; stroke-opacity:0.1; fill:none" points="257.69,556.142 2352.76,556.142 "/>
<polyline clip-path="url(#clip792)" style="stroke:#000000; stroke-linecap:round; stroke-linejoin:round; stroke-width:2; stroke-opacity:0.1; fill:none" points="257.69,812.609 2352.76,812.609 "/>
<polyline clip-path="url(#clip792)" style="stroke:#000000; stroke-linecap:round; stroke-linejoin:round; stroke-width:2; stroke-opacity:0.1; fill:none" points="257.69,1069.08 2352.76,1069.08 "/>
<polyline clip-path="url(#clip792)" style="stroke:#000000; stroke-linecap:round; stroke-linejoin:round; stroke-width:2; stroke-opacity:0.1; fill:none" points="257.69,1325.55 2352.76,1325.55 "/>
<polyline clip-path="url(#clip790)" style="stroke:#000000; stroke-linecap:round; stroke-linejoin:round; stroke-width:4; stroke-opacity:1; fill:none" points="257.69,1423.18 2352.76,1423.18 "/>
<polyline clip-path="url(#clip790)" style="stroke:#000000; stroke-linecap:round; stroke-linejoin:round; stroke-width:4; stroke-opacity:1; fill:none" points="342.488,1423.18 342.488,1404.28 "/>
<polyline clip-path="url(#clip790)" style="stroke:#000000; stroke-linecap:round; stroke-linejoin:round; stroke-width:4; stroke-opacity:1; fill:none" points="663.072,1423.18 663.072,1404.28 "/>
<polyline clip-path="url(#clip790)" style="stroke:#000000; stroke-linecap:round; stroke-linejoin:round; stroke-width:4; stroke-opacity:1; fill:none" points="983.657,1423.18 983.657,1404.28 "/>
<polyline clip-path="url(#clip790)" style="stroke:#000000; stroke-linecap:round; stroke-linejoin:round; stroke-width:4; stroke-opacity:1; fill:none" points="1304.24,1423.18 1304.24,1404.28 "/>
<polyline clip-path="url(#clip790)" style="stroke:#000000; stroke-linecap:round; stroke-linejoin:round; stroke-width:4; stroke-opacity:1; fill:none" points="1624.83,1423.18 1624.83,1404.28 "/>
<polyline clip-path="url(#clip790)" style="stroke:#000000; stroke-linecap:round; stroke-linejoin:round; stroke-width:4; stroke-opacity:1; fill:none" points="1945.41,1423.18 1945.41,1404.28 "/>
<polyline clip-path="url(#clip790)" style="stroke:#000000; stroke-linecap:round; stroke-linejoin:round; stroke-width:4; stroke-opacity:1; fill:none" points="2266,1423.18 2266,1404.28 "/>
<path clip-path="url(#clip790)" d="M305.289 1454.1 Q301.678 1454.1 299.849 1457.66 Q298.043 1461.2 298.043 1468.33 Q298.043 1475.44 299.849 1479.01 Q301.678 1482.55 305.289 1482.55 Q308.923 1482.55 310.728 1479.01 Q312.557 1475.44 312.557 1468.33 Q312.557 1461.2 310.728 1457.66 Q308.923 1454.1 305.289 1454.1 M305.289 1450.39 Q311.099 1450.39 314.154 1455 Q317.233 1459.58 317.233 1468.33 Q317.233 1477.06 314.154 1481.67 Q311.099 1486.25 305.289 1486.25 Q299.478 1486.25 296.4 1481.67 Q293.344 1477.06 293.344 1468.33 Q293.344 1459.58 296.4 1455 Q299.478 1450.39 305.289 1450.39 Z" fill="#000000" fill-rule="nonzero" fill-opacity="1" /><path clip-path="url(#clip790)" d="M325.451 1479.7 L330.335 1479.7 L330.335 1485.58 L325.451 1485.58 L325.451 1479.7 Z" fill="#000000" fill-rule="nonzero" fill-opacity="1" /><path clip-path="url(#clip790)" d="M344.548 1481.64 L360.867 1481.64 L360.867 1485.58 L338.923 1485.58 L338.923 1481.64 Q341.585 1478.89 346.168 1474.26 Q350.775 1469.61 351.955 1468.27 Q354.2 1465.74 355.08 1464.01 Q355.983 1462.25 355.983 1460.56 Q355.983 1457.8 354.038 1456.07 Q352.117 1454.33 349.015 1454.33 Q346.816 1454.33 344.363 1455.09 Q341.932 1455.86 339.154 1457.41 L339.154 1452.69 Q341.978 1451.55 344.432 1450.97 Q346.886 1450.39 348.923 1450.39 Q354.293 1450.39 357.487 1453.08 Q360.682 1455.77 360.682 1460.26 Q360.682 1462.39 359.872 1464.31 Q359.085 1466.2 356.978 1468.8 Q356.399 1469.47 353.298 1472.69 Q350.196 1475.88 344.548 1481.64 Z" fill="#000000" fill-rule="nonzero" fill-opacity="1" /><path clip-path="url(#clip790)" d="M370.728 1451.02 L389.084 1451.02 L389.084 1454.96 L375.01 1454.96 L375.01 1463.43 Q376.029 1463.08 377.048 1462.92 Q378.066 1462.73 379.085 1462.73 Q384.872 1462.73 388.251 1465.9 Q391.631 1469.08 391.631 1474.49 Q391.631 1480.07 388.159 1483.17 Q384.686 1486.25 378.367 1486.25 Q376.191 1486.25 373.923 1485.88 Q371.677 1485.51 369.27 1484.77 L369.27 1480.07 Q371.353 1481.2 373.575 1481.76 Q375.798 1482.32 378.274 1482.32 Q382.279 1482.32 384.617 1480.21 Q386.955 1478.1 386.955 1474.49 Q386.955 1470.88 384.617 1468.77 Q382.279 1466.67 378.274 1466.67 Q376.399 1466.67 374.524 1467.08 Q372.673 1467.5 370.728 1468.38 L370.728 1451.02 Z" fill="#000000" fill-rule="nonzero" fill-opacity="1" /><path clip-path="url(#clip790)" d="M625.376 1454.1 Q621.765 1454.1 619.936 1457.66 Q618.131 1461.2 618.131 1468.33 Q618.131 1475.44 619.936 1479.01 Q621.765 1482.55 625.376 1482.55 Q629.01 1482.55 630.816 1479.01 Q632.644 1475.44 632.644 1468.33 Q632.644 1461.2 630.816 1457.66 Q629.01 1454.1 625.376 1454.1 M625.376 1450.39 Q631.186 1450.39 634.242 1455 Q637.32 1459.58 637.32 1468.33 Q637.32 1477.06 634.242 1481.67 Q631.186 1486.25 625.376 1486.25 Q619.566 1486.25 616.487 1481.67 Q613.432 1477.06 613.432 1468.33 Q613.432 1459.58 616.487 1455 Q619.566 1450.39 625.376 1450.39 Z" fill="#000000" fill-rule="nonzero" fill-opacity="1" /><path clip-path="url(#clip790)" d="M645.538 1479.7 L650.422 1479.7 L650.422 1485.58 L645.538 1485.58 L645.538 1479.7 Z" fill="#000000" fill-rule="nonzero" fill-opacity="1" /><path clip-path="url(#clip790)" d="M660.654 1451.02 L679.01 1451.02 L679.01 1454.96 L664.936 1454.96 L664.936 1463.43 Q665.954 1463.08 666.973 1462.92 Q667.991 1462.73 669.01 1462.73 Q674.797 1462.73 678.177 1465.9 Q681.556 1469.08 681.556 1474.49 Q681.556 1480.07 678.084 1483.17 Q674.612 1486.25 668.292 1486.25 Q666.116 1486.25 663.848 1485.88 Q661.603 1485.51 659.195 1484.77 L659.195 1480.07 Q661.279 1481.2 663.501 1481.76 Q665.723 1482.32 668.2 1482.32 Q672.204 1482.32 674.542 1480.21 Q676.88 1478.1 676.88 1474.49 Q676.88 1470.88 674.542 1468.77 Q672.204 1466.67 668.2 1466.67 Q666.325 1466.67 664.45 1467.08 Q662.598 1467.5 660.654 1468.38 L660.654 1451.02 Z" fill="#000000" fill-rule="nonzero" fill-opacity="1" /><path clip-path="url(#clip790)" d="M700.769 1454.1 Q697.158 1454.1 695.329 1457.66 Q693.524 1461.2 693.524 1468.33 Q693.524 1475.44 695.329 1479.01 Q697.158 1482.55 700.769 1482.55 Q704.403 1482.55 706.209 1479.01 Q708.038 1475.44 708.038 1468.33 Q708.038 1461.2 706.209 1457.66 Q704.403 1454.1 700.769 1454.1 M700.769 1450.39 Q706.579 1450.39 709.635 1455 Q712.713 1459.58 712.713 1468.33 Q712.713 1477.06 709.635 1481.67 Q706.579 1486.25 700.769 1486.25 Q694.959 1486.25 691.88 1481.67 Q688.825 1477.06 688.825 1468.33 Q688.825 1459.58 691.88 1455 Q694.959 1450.39 700.769 1450.39 Z" fill="#000000" fill-rule="nonzero" fill-opacity="1" /><path clip-path="url(#clip790)" d="M946.459 1454.1 Q942.847 1454.1 941.019 1457.66 Q939.213 1461.2 939.213 1468.33 Q939.213 1475.44 941.019 1479.01 Q942.847 1482.55 946.459 1482.55 Q950.093 1482.55 951.898 1479.01 Q953.727 1475.44 953.727 1468.33 Q953.727 1461.2 951.898 1457.66 Q950.093 1454.1 946.459 1454.1 M946.459 1450.39 Q952.269 1450.39 955.324 1455 Q958.403 1459.58 958.403 1468.33 Q958.403 1477.06 955.324 1481.67 Q952.269 1486.25 946.459 1486.25 Q940.648 1486.25 937.57 1481.67 Q934.514 1477.06 934.514 1468.33 Q934.514 1459.58 937.57 1455 Q940.648 1450.39 946.459 1450.39 Z" fill="#000000" fill-rule="nonzero" fill-opacity="1" /><path clip-path="url(#clip790)" d="M966.621 1479.7 L971.505 1479.7 L971.505 1485.58 L966.621 1485.58 L966.621 1479.7 Z" fill="#000000" fill-rule="nonzero" fill-opacity="1" /><path clip-path="url(#clip790)" d="M980.509 1451.02 L1002.73 1451.02 L1002.73 1453.01 L990.185 1485.58 L985.301 1485.58 L997.106 1454.96 L980.509 1454.96 L980.509 1451.02 Z" fill="#000000" fill-rule="nonzero" fill-opacity="1" /><path clip-path="url(#clip790)" d="M1011.9 1451.02 L1030.25 1451.02 L1030.25 1454.96 L1016.18 1454.96 L1016.18 1463.43 Q1017.2 1463.08 1018.22 1462.92 Q1019.24 1462.73 1020.25 1462.73 Q1026.04 1462.73 1029.42 1465.9 Q1032.8 1469.08 1032.8 1474.49 Q1032.8 1480.07 1029.33 1483.17 Q1025.86 1486.25 1019.54 1486.25 Q1017.36 1486.25 1015.09 1485.88 Q1012.85 1485.51 1010.44 1484.77 L1010.44 1480.07 Q1012.52 1481.2 1014.75 1481.76 Q1016.97 1482.32 1019.44 1482.32 Q1023.45 1482.32 1025.79 1480.21 Q1028.12 1478.1 1028.12 1474.49 Q1028.12 1470.88 1025.79 1468.77 Q1023.45 1466.67 1019.44 1466.67 Q1017.57 1466.67 1015.69 1467.08 Q1013.84 1467.5 1011.9 1468.38 L1011.9 1451.02 Z" fill="#000000" fill-rule="nonzero" fill-opacity="1" /><path clip-path="url(#clip790)" d="M1256.31 1481.64 L1263.95 1481.64 L1263.95 1455.28 L1255.64 1456.95 L1255.64 1452.69 L1263.91 1451.02 L1268.58 1451.02 L1268.58 1481.64 L1276.22 1481.64 L1276.22 1485.58 L1256.31 1485.58 L1256.31 1481.64 Z" fill="#000000" fill-rule="nonzero" fill-opacity="1" /><path clip-path="url(#clip790)" d="M1285.67 1479.7 L1290.55 1479.7 L1290.55 1485.58 L1285.67 1485.58 L1285.67 1479.7 Z" fill="#000000" fill-rule="nonzero" fill-opacity="1" /><path clip-path="url(#clip790)" d="M1310.74 1454.1 Q1307.12 1454.1 1305.3 1457.66 Q1303.49 1461.2 1303.49 1468.33 Q1303.49 1475.44 1305.3 1479.01 Q1307.12 1482.55 1310.74 1482.55 Q1314.37 1482.55 1316.18 1479.01 Q1318 1475.44 1318 1468.33 Q1318 1461.2 1316.18 1457.66 Q1314.37 1454.1 1310.74 1454.1 M1310.74 1450.39 Q1316.55 1450.39 1319.6 1455 Q1322.68 1459.58 1322.68 1468.33 Q1322.68 1477.06 1319.6 1481.67 Q1316.55 1486.25 1310.74 1486.25 Q1304.93 1486.25 1301.85 1481.67 Q1298.79 1477.06 1298.79 1468.33 Q1298.79 1459.58 1301.85 1455 Q1304.93 1450.39 1310.74 1450.39 Z" fill="#000000" fill-rule="nonzero" fill-opacity="1" /><path clip-path="url(#clip790)" d="M1340.9 1454.1 Q1337.29 1454.1 1335.46 1457.66 Q1333.65 1461.2 1333.65 1468.33 Q1333.65 1475.44 1335.46 1479.01 Q1337.29 1482.55 1340.9 1482.55 Q1344.53 1482.55 1346.34 1479.01 Q1348.17 1475.44 1348.17 1468.33 Q1348.17 1461.2 1346.34 1457.66 Q1344.53 1454.1 1340.9 1454.1 M1340.9 1450.39 Q1346.71 1450.39 1349.76 1455 Q1352.84 1459.58 1352.84 1468.33 Q1352.84 1477.06 1349.76 1481.67 Q1346.71 1486.25 1340.9 1486.25 Q1335.09 1486.25 1332.01 1481.67 Q1328.95 1477.06 1328.95 1468.33 Q1328.95 1459.58 1332.01 1455 Q1335.09 1450.39 1340.9 1450.39 Z" fill="#000000" fill-rule="nonzero" fill-opacity="1" /><path clip-path="url(#clip790)" d="M1577.4 1481.64 L1585.04 1481.64 L1585.04 1455.28 L1576.73 1456.95 L1576.73 1452.69 L1584.99 1451.02 L1589.67 1451.02 L1589.67 1481.64 L1597.3 1481.64 L1597.3 1485.58 L1577.4 1485.58 L1577.4 1481.64 Z" fill="#000000" fill-rule="nonzero" fill-opacity="1" /><path clip-path="url(#clip790)" d="M1606.75 1479.7 L1611.63 1479.7 L1611.63 1485.58 L1606.75 1485.58 L1606.75 1479.7 Z" fill="#000000" fill-rule="nonzero" fill-opacity="1" /><path clip-path="url(#clip790)" d="M1625.85 1481.64 L1642.17 1481.64 L1642.17 1485.58 L1620.22 1485.58 L1620.22 1481.64 Q1622.88 1478.89 1627.47 1474.26 Q1632.07 1469.61 1633.25 1468.27 Q1635.5 1465.74 1636.38 1464.01 Q1637.28 1462.25 1637.28 1460.56 Q1637.28 1457.8 1635.34 1456.07 Q1633.42 1454.33 1630.31 1454.33 Q1628.11 1454.33 1625.66 1455.09 Q1623.23 1455.86 1620.45 1457.41 L1620.45 1452.69 Q1623.28 1451.55 1625.73 1450.97 Q1628.18 1450.39 1630.22 1450.39 Q1635.59 1450.39 1638.79 1453.08 Q1641.98 1455.77 1641.98 1460.26 Q1641.98 1462.39 1641.17 1464.31 Q1640.38 1466.2 1638.28 1468.8 Q1637.7 1469.47 1634.6 1472.69 Q1631.49 1475.88 1625.85 1481.64 Z" fill="#000000" fill-rule="nonzero" fill-opacity="1" /><path clip-path="url(#clip790)" d="M1652.03 1451.02 L1670.38 1451.02 L1670.38 1454.96 L1656.31 1454.96 L1656.31 1463.43 Q1657.33 1463.08 1658.35 1462.92 Q1659.36 1462.73 1660.38 1462.73 Q1666.17 1462.73 1669.55 1465.9 Q1672.93 1469.08 1672.93 1474.49 Q1672.93 1480.07 1669.46 1483.17 Q1665.98 1486.25 1659.67 1486.25 Q1657.49 1486.25 1655.22 1485.88 Q1652.98 1485.51 1650.57 1484.77 L1650.57 1480.07 Q1652.65 1481.2 1654.87 1481.76 Q1657.1 1482.32 1659.57 1482.32 Q1663.58 1482.32 1665.92 1480.21 Q1668.25 1478.1 1668.25 1474.49 Q1668.25 1470.88 1665.92 1468.77 Q1663.58 1466.67 1659.57 1466.67 Q1657.7 1466.67 1655.82 1467.08 Q1653.97 1467.5 1652.03 1468.38 L1652.03 1451.02 Z" fill="#000000" fill-rule="nonzero" fill-opacity="1" /><path clip-path="url(#clip790)" d="M1897.48 1481.64 L1905.12 1481.64 L1905.12 1455.28 L1896.81 1456.95 L1896.81 1452.69 L1905.08 1451.02 L1909.75 1451.02 L1909.75 1481.64 L1917.39 1481.64 L1917.39 1485.58 L1897.48 1485.58 L1897.48 1481.64 Z" fill="#000000" fill-rule="nonzero" fill-opacity="1" /><path clip-path="url(#clip790)" d="M1926.84 1479.7 L1931.72 1479.7 L1931.72 1485.58 L1926.84 1485.58 L1926.84 1479.7 Z" fill="#000000" fill-rule="nonzero" fill-opacity="1" /><path clip-path="url(#clip790)" d="M1941.95 1451.02 L1960.31 1451.02 L1960.31 1454.96 L1946.23 1454.96 L1946.23 1463.43 Q1947.25 1463.08 1948.27 1462.92 Q1949.29 1462.73 1950.31 1462.73 Q1956.1 1462.73 1959.47 1465.9 Q1962.85 1469.08 1962.85 1474.49 Q1962.85 1480.07 1959.38 1483.17 Q1955.91 1486.25 1949.59 1486.25 Q1947.41 1486.25 1945.15 1485.88 Q1942.9 1485.51 1940.49 1484.77 L1940.49 1480.07 Q1942.58 1481.2 1944.8 1481.76 Q1947.02 1482.32 1949.5 1482.32 Q1953.5 1482.32 1955.84 1480.21 Q1958.18 1478.1 1958.18 1474.49 Q1958.18 1470.88 1955.84 1468.77 Q1953.5 1466.67 1949.5 1466.67 Q1947.62 1466.67 1945.75 1467.08 Q1943.9 1467.5 1941.95 1468.38 L1941.95 1451.02 Z" fill="#000000" fill-rule="nonzero" fill-opacity="1" /><path clip-path="url(#clip790)" d="M1982.07 1454.1 Q1978.46 1454.1 1976.63 1457.66 Q1974.82 1461.2 1974.82 1468.33 Q1974.82 1475.44 1976.63 1479.01 Q1978.46 1482.55 1982.07 1482.55 Q1985.7 1482.55 1987.51 1479.01 Q1989.34 1475.44 1989.34 1468.33 Q1989.34 1461.2 1987.51 1457.66 Q1985.7 1454.1 1982.07 1454.1 M1982.07 1450.39 Q1987.88 1450.39 1990.93 1455 Q1994.01 1459.58 1994.01 1468.33 Q1994.01 1477.06 1990.93 1481.67 Q1987.88 1486.25 1982.07 1486.25 Q1976.26 1486.25 1973.18 1481.67 Q1970.12 1477.06 1970.12 1468.33 Q1970.12 1459.58 1973.18 1455 Q1976.26 1450.39 1982.07 1450.39 Z" fill="#000000" fill-rule="nonzero" fill-opacity="1" /><path clip-path="url(#clip790)" d="M2218.57 1481.64 L2226.21 1481.64 L2226.21 1455.28 L2217.9 1456.95 L2217.9 1452.69 L2226.16 1451.02 L2230.84 1451.02 L2230.84 1481.64 L2238.47 1481.64 L2238.47 1485.58 L2218.57 1485.58 L2218.57 1481.64 Z" fill="#000000" fill-rule="nonzero" fill-opacity="1" /><path clip-path="url(#clip790)" d="M2247.92 1479.7 L2252.8 1479.7 L2252.8 1485.58 L2247.92 1485.58 L2247.92 1479.7 Z" fill="#000000" fill-rule="nonzero" fill-opacity="1" /><path clip-path="url(#clip790)" d="M2261.81 1451.02 L2284.03 1451.02 L2284.03 1453.01 L2271.48 1485.58 L2266.6 1485.58 L2278.4 1454.96 L2261.81 1454.96 L2261.81 1451.02 Z" fill="#000000" fill-rule="nonzero" fill-opacity="1" /><path clip-path="url(#clip790)" d="M2293.2 1451.02 L2311.55 1451.02 L2311.55 1454.96 L2297.48 1454.96 L2297.48 1463.43 Q2298.5 1463.08 2299.52 1462.92 Q2300.53 1462.73 2301.55 1462.73 Q2307.34 1462.73 2310.72 1465.9 Q2314.1 1469.08 2314.1 1474.49 Q2314.1 1480.07 2310.63 1483.17 Q2307.15 1486.25 2300.84 1486.25 Q2298.66 1486.25 2296.39 1485.88 Q2294.15 1485.51 2291.74 1484.77 L2291.74 1480.07 Q2293.82 1481.2 2296.04 1481.76 Q2298.27 1482.32 2300.74 1482.32 Q2304.75 1482.32 2307.09 1480.21 Q2309.42 1478.1 2309.42 1474.49 Q2309.42 1470.88 2307.09 1468.77 Q2304.75 1466.67 2300.74 1466.67 Q2298.87 1466.67 2296.99 1467.08 Q2295.14 1467.5 2293.2 1468.38 L2293.2 1451.02 Z" fill="#000000" fill-rule="nonzero" fill-opacity="1" /><path clip-path="url(#clip790)" d="M1201.67 1545.76 Q1203.74 1546.46 1205.68 1548.76 Q1207.65 1551.05 1209.63 1555.06 L1216.15 1568.04 L1209.24 1568.04 L1203.16 1555.85 Q1200.81 1551.08 1198.58 1549.52 Q1196.39 1547.96 1192.57 1547.96 L1185.56 1547.96 L1185.56 1568.04 L1179.13 1568.04 L1179.13 1520.52 L1193.65 1520.52 Q1201.8 1520.52 1205.81 1523.93 Q1209.82 1527.34 1209.82 1534.21 Q1209.82 1538.7 1207.72 1541.66 Q1205.65 1544.62 1201.67 1545.76 M1185.56 1525.81 L1185.56 1542.68 L1193.65 1542.68 Q1198.3 1542.68 1200.65 1540.54 Q1203.04 1538.38 1203.04 1534.21 Q1203.04 1530.04 1200.65 1527.94 Q1198.3 1525.81 1193.65 1525.81 L1185.56 1525.81 Z" fill="#000000" fill-rule="nonzero" fill-opacity="1" /><path clip-path="url(#clip790)" d="M1251.74 1548.76 L1251.74 1551.62 L1224.81 1551.62 Q1225.19 1557.67 1228.44 1560.85 Q1231.72 1564 1237.54 1564 Q1240.91 1564 1244.06 1563.17 Q1247.25 1562.35 1250.37 1560.69 L1250.37 1566.23 Q1247.22 1567.57 1243.91 1568.27 Q1240.6 1568.97 1237.19 1568.97 Q1228.66 1568.97 1223.66 1564 Q1218.7 1559.04 1218.7 1550.57 Q1218.7 1541.82 1223.41 1536.69 Q1228.15 1531.54 1236.17 1531.54 Q1243.36 1531.54 1247.53 1536.18 Q1251.74 1540.8 1251.74 1548.76 M1245.88 1547.04 Q1245.82 1542.23 1243.17 1539.37 Q1240.56 1536.5 1236.23 1536.5 Q1231.33 1536.5 1228.37 1539.27 Q1225.44 1542.04 1225 1547.07 L1245.88 1547.04 Z" fill="#000000" fill-rule="nonzero" fill-opacity="1" /><path clip-path="url(#clip790)" d="M1279.59 1520.52 L1316.92 1520.52 L1316.92 1525.43 L1286.87 1562.63 L1317.65 1562.63 L1317.65 1568.04 L1278.85 1568.04 L1278.85 1563.14 L1308.9 1525.93 L1279.59 1525.93 L1279.59 1520.52 Z" fill="#000000" fill-rule="nonzero" fill-opacity="1" /><path clip-path="url(#clip790)" d="M1357.85 1520.52 L1363.26 1520.52 L1346.71 1574.09 L1341.3 1574.09 L1357.85 1520.52 Z" fill="#000000" fill-rule="nonzero" fill-opacity="1" /><path clip-path="url(#clip790)" d="M1431.31 1562.38 L1431.31 1568.04 L1412.21 1568.04 L1412.21 1562.38 Q1417.85 1559.29 1421 1554.01 Q1424.15 1548.72 1424.15 1542.29 Q1424.15 1534.66 1419.95 1530.04 Q1415.75 1525.43 1408.87 1525.43 Q1402 1525.43 1397.76 1530.07 Q1393.56 1534.69 1393.56 1542.29 Q1393.56 1548.72 1396.71 1554.01 Q1399.9 1559.29 1405.56 1562.38 L1405.56 1568.04 L1386.47 1568.04 L1386.47 1562.38 L1396.62 1562.38 Q1391.59 1557.95 1389.27 1553.21 Q1386.97 1548.47 1386.97 1542.61 Q1386.97 1532.49 1393.09 1526.22 Q1399.16 1519.95 1408.87 1519.95 Q1418.52 1519.95 1424.66 1526.22 Q1430.77 1532.46 1430.77 1542.29 Q1430.77 1548.47 1428.51 1553.18 Q1426.25 1557.89 1421.13 1562.38 L1431.31 1562.38 Z" fill="#000000" fill-rule="nonzero" fill-opacity="1" /><polyline clip-path="url(#clip790)" style="stroke:#000000; stroke-linecap:round; stroke-linejoin:round; stroke-width:4; stroke-opacity:1; fill:none" points="257.69,47.2441 257.69,1423.18 "/>
<polyline clip-path="url(#clip790)" style="stroke:#000000; stroke-linecap:round; stroke-linejoin:round; stroke-width:4; stroke-opacity:1; fill:none" points="257.69,299.674 276.588,299.674 "/>
<polyline clip-path="url(#clip790)" style="stroke:#000000; stroke-linecap:round; stroke-linejoin:round; stroke-width:4; stroke-opacity:1; fill:none" points="257.69,556.142 276.588,556.142 "/>
<polyline clip-path="url(#clip790)" style="stroke:#000000; stroke-linecap:round; stroke-linejoin:round; stroke-width:4; stroke-opacity:1; fill:none" points="257.69,812.609 276.588,812.609 "/>
<polyline clip-path="url(#clip790)" style="stroke:#000000; stroke-linecap:round; stroke-linejoin:round; stroke-width:4; stroke-opacity:1; fill:none" points="257.69,1069.08 276.588,1069.08 "/>
<polyline clip-path="url(#clip790)" style="stroke:#000000; stroke-linecap:round; stroke-linejoin:round; stroke-width:4; stroke-opacity:1; fill:none" points="257.69,1325.55 276.588,1325.55 "/>
<path clip-path="url(#clip790)" d="M114.584 300.125 L144.26 300.125 L144.26 304.06 L114.584 304.06 L114.584 300.125 Z" fill="#000000" fill-rule="nonzero" fill-opacity="1" /><path clip-path="url(#clip790)" d="M164.352 285.472 Q160.741 285.472 158.913 289.037 Q157.107 292.579 157.107 299.708 Q157.107 306.815 158.913 310.379 Q160.741 313.921 164.352 313.921 Q167.987 313.921 169.792 310.379 Q171.621 306.815 171.621 299.708 Q171.621 292.579 169.792 289.037 Q167.987 285.472 164.352 285.472 M164.352 281.769 Q170.163 281.769 173.218 286.375 Q176.297 290.958 176.297 299.708 Q176.297 308.435 173.218 313.042 Q170.163 317.625 164.352 317.625 Q158.542 317.625 155.464 313.042 Q152.408 308.435 152.408 299.708 Q152.408 290.958 155.464 286.375 Q158.542 281.769 164.352 281.769 Z" fill="#000000" fill-rule="nonzero" fill-opacity="1" /><path clip-path="url(#clip790)" d="M184.514 311.074 L189.399 311.074 L189.399 316.954 L184.514 316.954 L184.514 311.074 Z" fill="#000000" fill-rule="nonzero" fill-opacity="1" /><path clip-path="url(#clip790)" d="M210.162 297.81 Q207.014 297.81 205.162 299.963 Q203.334 302.116 203.334 305.866 Q203.334 309.592 205.162 311.768 Q207.014 313.921 210.162 313.921 Q213.311 313.921 215.139 311.768 Q216.991 309.592 216.991 305.866 Q216.991 302.116 215.139 299.963 Q213.311 297.81 210.162 297.81 M219.445 283.157 L219.445 287.417 Q217.686 286.583 215.88 286.144 Q214.098 285.704 212.338 285.704 Q207.709 285.704 205.255 288.829 Q202.824 291.954 202.477 298.273 Q203.843 296.259 205.903 295.194 Q207.963 294.106 210.44 294.106 Q215.649 294.106 218.658 297.278 Q221.69 300.426 221.69 305.866 Q221.69 311.19 218.542 314.407 Q215.394 317.625 210.162 317.625 Q204.167 317.625 200.996 313.042 Q197.825 308.435 197.825 299.708 Q197.825 291.514 201.713 286.653 Q205.602 281.769 212.153 281.769 Q213.912 281.769 215.695 282.116 Q217.5 282.463 219.445 283.157 Z" fill="#000000" fill-rule="nonzero" fill-opacity="1" /><path clip-path="url(#clip790)" d="M114.26 556.593 L143.936 556.593 L143.936 560.528 L114.26 560.528 L114.26 556.593 Z" fill="#000000" fill-rule="nonzero" fill-opacity="1" /><path clip-path="url(#clip790)" d="M164.028 541.94 Q160.417 541.94 158.589 545.505 Q156.783 549.047 156.783 556.176 Q156.783 563.283 158.589 566.847 Q160.417 570.389 164.028 570.389 Q167.663 570.389 169.468 566.847 Q171.297 563.283 171.297 556.176 Q171.297 549.047 169.468 545.505 Q167.663 541.94 164.028 541.94 M164.028 538.237 Q169.839 538.237 172.894 542.843 Q175.973 547.426 175.973 556.176 Q175.973 564.903 172.894 569.509 Q169.839 574.093 164.028 574.093 Q158.218 574.093 155.14 569.509 Q152.084 564.903 152.084 556.176 Q152.084 547.426 155.14 542.843 Q158.218 538.237 164.028 538.237 Z" fill="#000000" fill-rule="nonzero" fill-opacity="1" /><path clip-path="url(#clip790)" d="M184.19 567.542 L189.075 567.542 L189.075 573.422 L184.19 573.422 L184.19 567.542 Z" fill="#000000" fill-rule="nonzero" fill-opacity="1" /><path clip-path="url(#clip790)" d="M212.107 542.936 L200.301 561.385 L212.107 561.385 L212.107 542.936 M210.88 538.862 L216.76 538.862 L216.76 561.385 L221.69 561.385 L221.69 565.273 L216.76 565.273 L216.76 573.422 L212.107 573.422 L212.107 565.273 L196.505 565.273 L196.505 560.76 L210.88 538.862 Z" fill="#000000" fill-rule="nonzero" fill-opacity="1" /><path clip-path="url(#clip790)" d="M116.343 813.061 L146.019 813.061 L146.019 816.996 L116.343 816.996 L116.343 813.061 Z" fill="#000000" fill-rule="nonzero" fill-opacity="1" /><path clip-path="url(#clip790)" d="M166.112 798.408 Q162.501 798.408 160.672 801.973 Q158.866 805.515 158.866 812.644 Q158.866 819.751 160.672 823.315 Q162.501 826.857 166.112 826.857 Q169.746 826.857 171.552 823.315 Q173.38 819.751 173.38 812.644 Q173.38 805.515 171.552 801.973 Q169.746 798.408 166.112 798.408 M166.112 794.704 Q171.922 794.704 174.977 799.311 Q178.056 803.894 178.056 812.644 Q178.056 821.371 174.977 825.977 Q171.922 830.561 166.112 830.561 Q160.302 830.561 157.223 825.977 Q154.167 821.371 154.167 812.644 Q154.167 803.894 157.223 799.311 Q160.302 794.704 166.112 794.704 Z" fill="#000000" fill-rule="nonzero" fill-opacity="1" /><path clip-path="url(#clip790)" d="M186.274 824.01 L191.158 824.01 L191.158 829.889 L186.274 829.889 L186.274 824.01 Z" fill="#000000" fill-rule="nonzero" fill-opacity="1" /><path clip-path="url(#clip790)" d="M205.371 825.954 L221.69 825.954 L221.69 829.889 L199.746 829.889 L199.746 825.954 Q202.408 823.2 206.991 818.57 Q211.598 813.917 212.778 812.575 Q215.024 810.052 215.903 808.316 Q216.806 806.556 216.806 804.866 Q216.806 802.112 214.861 800.376 Q212.94 798.64 209.838 798.64 Q207.639 798.64 205.186 799.404 Q202.755 800.167 199.977 801.718 L199.977 796.996 Q202.801 795.862 205.255 795.283 Q207.709 794.704 209.746 794.704 Q215.116 794.704 218.311 797.39 Q221.505 800.075 221.505 804.566 Q221.505 806.695 220.695 808.616 Q219.908 810.515 217.801 813.107 Q217.223 813.778 214.121 816.996 Q211.019 820.19 205.371 825.954 Z" fill="#000000" fill-rule="nonzero" fill-opacity="1" /><path clip-path="url(#clip790)" d="M164.515 1054.88 Q160.903 1054.88 159.075 1058.44 Q157.269 1061.98 157.269 1069.11 Q157.269 1076.22 159.075 1079.78 Q160.903 1083.33 164.515 1083.33 Q168.149 1083.33 169.954 1079.78 Q171.783 1076.22 171.783 1069.11 Q171.783 1061.98 169.954 1058.44 Q168.149 1054.88 164.515 1054.88 M164.515 1051.17 Q170.325 1051.17 173.38 1055.78 Q176.459 1060.36 176.459 1069.11 Q176.459 1077.84 173.38 1082.45 Q170.325 1087.03 164.515 1087.03 Q158.704 1087.03 155.626 1082.45 Q152.57 1077.84 152.57 1069.11 Q152.57 1060.36 155.626 1055.78 Q158.704 1051.17 164.515 1051.17 Z" fill="#000000" fill-rule="nonzero" fill-opacity="1" /><path clip-path="url(#clip790)" d="M184.676 1080.48 L189.561 1080.48 L189.561 1086.36 L184.676 1086.36 L184.676 1080.48 Z" fill="#000000" fill-rule="nonzero" fill-opacity="1" /><path clip-path="url(#clip790)" d="M209.746 1054.88 Q206.135 1054.88 204.306 1058.44 Q202.5 1061.98 202.5 1069.11 Q202.5 1076.22 204.306 1079.78 Q206.135 1083.33 209.746 1083.33 Q213.38 1083.33 215.186 1079.78 Q217.014 1076.22 217.014 1069.11 Q217.014 1061.98 215.186 1058.44 Q213.38 1054.88 209.746 1054.88 M209.746 1051.17 Q215.556 1051.17 218.611 1055.78 Q221.69 1060.36 221.69 1069.11 Q221.69 1077.84 218.611 1082.45 Q215.556 1087.03 209.746 1087.03 Q203.936 1087.03 200.857 1082.45 Q197.801 1077.84 197.801 1069.11 Q197.801 1060.36 200.857 1055.78 Q203.936 1051.17 209.746 1051.17 Z" fill="#000000" fill-rule="nonzero" fill-opacity="1" /><path clip-path="url(#clip790)" d="M166.112 1311.34 Q162.501 1311.34 160.672 1314.91 Q158.866 1318.45 158.866 1325.58 Q158.866 1332.69 160.672 1336.25 Q162.501 1339.79 166.112 1339.79 Q169.746 1339.79 171.552 1336.25 Q173.38 1332.69 173.38 1325.58 Q173.38 1318.45 171.552 1314.91 Q169.746 1311.34 166.112 1311.34 M166.112 1307.64 Q171.922 1307.64 174.977 1312.25 Q178.056 1316.83 178.056 1325.58 Q178.056 1334.31 174.977 1338.91 Q171.922 1343.5 166.112 1343.5 Q160.302 1343.5 157.223 1338.91 Q154.167 1334.31 154.167 1325.58 Q154.167 1316.83 157.223 1312.25 Q160.302 1307.64 166.112 1307.64 Z" fill="#000000" fill-rule="nonzero" fill-opacity="1" /><path clip-path="url(#clip790)" d="M186.274 1336.95 L191.158 1336.95 L191.158 1342.83 L186.274 1342.83 L186.274 1336.95 Z" fill="#000000" fill-rule="nonzero" fill-opacity="1" /><path clip-path="url(#clip790)" d="M205.371 1338.89 L221.69 1338.89 L221.69 1342.83 L199.746 1342.83 L199.746 1338.89 Q202.408 1336.14 206.991 1331.51 Q211.598 1326.85 212.778 1325.51 Q215.024 1322.99 215.903 1321.25 Q216.806 1319.49 216.806 1317.8 Q216.806 1315.05 214.861 1313.31 Q212.94 1311.58 209.838 1311.58 Q207.639 1311.58 205.186 1312.34 Q202.755 1313.1 199.977 1314.65 L199.977 1309.93 Q202.801 1308.8 205.255 1308.22 Q207.709 1307.64 209.746 1307.64 Q215.116 1307.64 218.311 1310.33 Q221.505 1313.01 221.505 1317.5 Q221.505 1319.63 220.695 1321.55 Q219.908 1323.45 217.801 1326.04 Q217.223 1326.71 214.121 1329.93 Q211.019 1333.13 205.371 1338.89 Z" fill="#000000" fill-rule="nonzero" fill-opacity="1" /><path clip-path="url(#clip790)" d="M43.5384 874.796 L43.5384 857.64 L48.7583 857.64 L48.7583 874.796 L43.5384 874.796 Z" fill="#000000" fill-rule="nonzero" fill-opacity="1" /><path clip-path="url(#clip790)" d="M16.4842 848.06 L16.4842 841.631 L64.0042 841.631 L64.0042 848.06 L16.4842 848.06 Z" fill="#000000" fill-rule="nonzero" fill-opacity="1" /><path clip-path="url(#clip790)" d="M35.1993 801.336 Q31.2526 799.14 29.3747 796.084 Q27.4968 793.028 27.4968 788.891 Q27.4968 783.321 31.4117 780.297 Q35.2948 777.273 42.4881 777.273 L64.0042 777.273 L64.0042 783.162 L42.679 783.162 Q37.5546 783.162 35.072 784.976 Q32.5894 786.79 32.5894 790.514 Q32.5894 795.066 35.6131 797.707 Q38.6368 800.349 43.8567 800.349 L64.0042 800.349 L64.0042 806.237 L42.679 806.237 Q37.5228 806.237 35.072 808.052 Q32.5894 809.866 32.5894 813.653 Q32.5894 818.141 35.6449 820.783 Q38.6686 823.425 43.8567 823.425 L64.0042 823.425 L64.0042 829.313 L28.3562 829.313 L28.3562 823.425 L33.8944 823.425 Q30.616 821.42 29.0564 818.619 Q27.4968 815.818 27.4968 811.966 Q27.4968 808.083 29.4702 805.378 Q31.4436 802.641 35.1993 801.336 Z" fill="#000000" fill-rule="nonzero" fill-opacity="1" /><path clip-path="url(#clip790)" d="M16.4842 747.355 L16.4842 710.02 L21.3858 710.02 L58.5933 740.066 L58.5933 709.288 L64.0042 709.288 L64.0042 748.087 L59.1026 748.087 L21.895 718.04 L21.895 747.355 L16.4842 747.355 Z" fill="#000000" fill-rule="nonzero" fill-opacity="1" /><path clip-path="url(#clip790)" d="M16.4842 669.088 L16.4842 663.677 L70.0516 680.228 L70.0516 685.639 L16.4842 669.088 Z" fill="#000000" fill-rule="nonzero" fill-opacity="1" /><path clip-path="url(#clip790)" d="M58.3387 595.628 L64.0042 595.628 L64.0042 614.725 L58.3387 614.725 Q55.2513 609.091 49.9678 605.94 Q44.6842 602.789 38.2549 602.789 Q30.616 602.789 26.0009 606.991 Q21.3858 611.192 21.3858 618.067 Q21.3858 624.942 26.0327 629.175 Q30.6479 633.377 38.2549 633.377 Q44.6842 633.377 49.9678 630.226 Q55.2513 627.043 58.3387 621.377 L64.0042 621.377 L64.0042 640.474 L58.3387 640.474 L58.3387 630.321 Q53.9145 635.35 49.1721 637.673 Q44.4296 639.965 38.5732 639.965 Q28.4517 639.965 22.1815 633.854 Q15.9112 627.775 15.9112 618.067 Q15.9112 608.423 22.1815 602.28 Q28.4199 596.169 38.2549 596.169 Q44.4296 596.169 49.1402 598.429 Q53.8509 600.689 58.3387 605.813 L58.3387 595.628 Z" fill="#000000" fill-rule="nonzero" fill-opacity="1" /><circle clip-path="url(#clip792)" cx="316.984" cy="1068.64" r="14.4" fill="#009af9" fill-rule="evenodd" fill-opacity="1" stroke="#000000" stroke-opacity="1" stroke-width="3.2"/>
<circle clip-path="url(#clip792)" cx="317.028" cy="1068.5" r="14.4" fill="#009af9" fill-rule="evenodd" fill-opacity="1" stroke="#000000" stroke-opacity="1" stroke-width="3.2"/>
<circle clip-path="url(#clip792)" cx="317.084" cy="1068.33" r="14.4" fill="#009af9" fill-rule="evenodd" fill-opacity="1" stroke="#000000" stroke-opacity="1" stroke-width="3.2"/>
<circle clip-path="url(#clip792)" cx="317.158" cy="1068.1" r="14.4" fill="#009af9" fill-rule="evenodd" fill-opacity="1" stroke="#000000" stroke-opacity="1" stroke-width="3.2"/>
<circle clip-path="url(#clip792)" cx="317.253" cy="1067.81" r="14.4" fill="#009af9" fill-rule="evenodd" fill-opacity="1" stroke="#000000" stroke-opacity="1" stroke-width="3.2"/>
<circle clip-path="url(#clip792)" cx="317.378" cy="1067.43" r="14.4" fill="#009af9" fill-rule="evenodd" fill-opacity="1" stroke="#000000" stroke-opacity="1" stroke-width="3.2"/>
<circle clip-path="url(#clip792)" cx="317.54" cy="1066.94" r="14.4" fill="#009af9" fill-rule="evenodd" fill-opacity="1" stroke="#000000" stroke-opacity="1" stroke-width="3.2"/>
<circle clip-path="url(#clip792)" cx="317.752" cy="1066.29" r="14.4" fill="#009af9" fill-rule="evenodd" fill-opacity="1" stroke="#000000" stroke-opacity="1" stroke-width="3.2"/>
<circle clip-path="url(#clip792)" cx="318.029" cy="1065.46" r="14.4" fill="#009af9" fill-rule="evenodd" fill-opacity="1" stroke="#000000" stroke-opacity="1" stroke-width="3.2"/>
<circle clip-path="url(#clip792)" cx="318.39" cy="1064.37" r="14.4" fill="#009af9" fill-rule="evenodd" fill-opacity="1" stroke="#000000" stroke-opacity="1" stroke-width="3.2"/>
<circle clip-path="url(#clip792)" cx="318.862" cy="1062.96" r="14.4" fill="#009af9" fill-rule="evenodd" fill-opacity="1" stroke="#000000" stroke-opacity="1" stroke-width="3.2"/>
<circle clip-path="url(#clip792)" cx="319.481" cy="1061.12" r="14.4" fill="#009af9" fill-rule="evenodd" fill-opacity="1" stroke="#000000" stroke-opacity="1" stroke-width="3.2"/>
<circle clip-path="url(#clip792)" cx="320.293" cy="1058.74" r="14.4" fill="#009af9" fill-rule="evenodd" fill-opacity="1" stroke="#000000" stroke-opacity="1" stroke-width="3.2"/>
<circle clip-path="url(#clip792)" cx="321.361" cy="1055.65" r="14.4" fill="#009af9" fill-rule="evenodd" fill-opacity="1" stroke="#000000" stroke-opacity="1" stroke-width="3.2"/>
<circle clip-path="url(#clip792)" cx="322.77" cy="1051.64" r="14.4" fill="#009af9" fill-rule="evenodd" fill-opacity="1" stroke="#000000" stroke-opacity="1" stroke-width="3.2"/>
<circle clip-path="url(#clip792)" cx="324.637" cy="1046.46" r="14.4" fill="#009af9" fill-rule="evenodd" fill-opacity="1" stroke="#000000" stroke-opacity="1" stroke-width="3.2"/>
<circle clip-path="url(#clip792)" cx="327.12" cy="1039.76" r="14.4" fill="#009af9" fill-rule="evenodd" fill-opacity="1" stroke="#000000" stroke-opacity="1" stroke-width="3.2"/>
<circle clip-path="url(#clip792)" cx="330.442" cy="1031.11" r="14.4" fill="#009af9" fill-rule="evenodd" fill-opacity="1" stroke="#000000" stroke-opacity="1" stroke-width="3.2"/>
<circle clip-path="url(#clip792)" cx="334.915" cy="1020" r="14.4" fill="#009af9" fill-rule="evenodd" fill-opacity="1" stroke="#000000" stroke-opacity="1" stroke-width="3.2"/>
<circle clip-path="url(#clip792)" cx="340.981" cy="1005.78" r="14.4" fill="#009af9" fill-rule="evenodd" fill-opacity="1" stroke="#000000" stroke-opacity="1" stroke-width="3.2"/>
<circle clip-path="url(#clip792)" cx="349.269" cy="987.667" r="14.4" fill="#009af9" fill-rule="evenodd" fill-opacity="1" stroke="#000000" stroke-opacity="1" stroke-width="3.2"/>
<circle clip-path="url(#clip792)" cx="360.681" cy="964.792" r="14.4" fill="#009af9" fill-rule="evenodd" fill-opacity="1" stroke="#000000" stroke-opacity="1" stroke-width="3.2"/>
<circle clip-path="url(#clip792)" cx="376.5" cy="936.227" r="14.4" fill="#009af9" fill-rule="evenodd" fill-opacity="1" stroke="#000000" stroke-opacity="1" stroke-width="3.2"/>
<circle clip-path="url(#clip792)" cx="398.519" cy="901.132" r="14.4" fill="#009af9" fill-rule="evenodd" fill-opacity="1" stroke="#000000" stroke-opacity="1" stroke-width="3.2"/>
<circle clip-path="url(#clip792)" cx="429.171" cy="859.022" r="14.4" fill="#009af9" fill-rule="evenodd" fill-opacity="1" stroke="#000000" stroke-opacity="1" stroke-width="3.2"/>
<circle clip-path="url(#clip792)" cx="471.552" cy="810.214" r="14.4" fill="#009af9" fill-rule="evenodd" fill-opacity="1" stroke="#000000" stroke-opacity="1" stroke-width="3.2"/>
<circle clip-path="url(#clip792)" cx="529.195" cy="756.468" r="14.4" fill="#009af9" fill-rule="evenodd" fill-opacity="1" stroke="#000000" stroke-opacity="1" stroke-width="3.2"/>
<circle clip-path="url(#clip792)" cx="605.332" cy="701.658" r="14.4" fill="#009af9" fill-rule="evenodd" fill-opacity="1" stroke="#000000" stroke-opacity="1" stroke-width="3.2"/>
<circle clip-path="url(#clip792)" cx="701.502" cy="652.042" r="14.4" fill="#009af9" fill-rule="evenodd" fill-opacity="1" stroke="#000000" stroke-opacity="1" stroke-width="3.2"/>
<circle clip-path="url(#clip792)" cx="815.785" cy="615.418" r="14.4" fill="#009af9" fill-rule="evenodd" fill-opacity="1" stroke="#000000" stroke-opacity="1" stroke-width="3.2"/>
<circle clip-path="url(#clip792)" cx="941.747" cy="598.8" r="14.4" fill="#009af9" fill-rule="evenodd" fill-opacity="1" stroke="#000000" stroke-opacity="1" stroke-width="3.2"/>
<circle clip-path="url(#clip792)" cx="1069.42" cy="605.453" r="14.4" fill="#009af9" fill-rule="evenodd" fill-opacity="1" stroke="#000000" stroke-opacity="1" stroke-width="3.2"/>
<circle clip-path="url(#clip792)" cx="1188.44" cy="633.272" r="14.4" fill="#009af9" fill-rule="evenodd" fill-opacity="1" stroke="#000000" stroke-opacity="1" stroke-width="3.2"/>
<circle clip-path="url(#clip792)" cx="1291.36" cy="675.845" r="14.4" fill="#009af9" fill-rule="evenodd" fill-opacity="1" stroke="#000000" stroke-opacity="1" stroke-width="3.2"/>
<circle clip-path="url(#clip792)" cx="1375.24" cy="725.281" r="14.4" fill="#009af9" fill-rule="evenodd" fill-opacity="1" stroke="#000000" stroke-opacity="1" stroke-width="3.2"/>
<circle clip-path="url(#clip792)" cx="1440.93" cy="774.786" r="14.4" fill="#009af9" fill-rule="evenodd" fill-opacity="1" stroke="#000000" stroke-opacity="1" stroke-width="3.2"/>
<circle clip-path="url(#clip792)" cx="1491.39" cy="819.82" r="14.4" fill="#009af9" fill-rule="evenodd" fill-opacity="1" stroke="#000000" stroke-opacity="1" stroke-width="3.2"/>
<circle clip-path="url(#clip792)" cx="1530.17" cy="858.036" r="14.4" fill="#009af9" fill-rule="evenodd" fill-opacity="1" stroke="#000000" stroke-opacity="1" stroke-width="3.2"/>
<circle clip-path="url(#clip792)" cx="1560.54" cy="888.648" r="14.4" fill="#009af9" fill-rule="evenodd" fill-opacity="1" stroke="#000000" stroke-opacity="1" stroke-width="3.2"/>
<circle clip-path="url(#clip792)" cx="1585.2" cy="911.787" r="14.4" fill="#009af9" fill-rule="evenodd" fill-opacity="1" stroke="#000000" stroke-opacity="1" stroke-width="3.2"/>
<circle clip-path="url(#clip792)" cx="1606.23" cy="927.999" r="14.4" fill="#009af9" fill-rule="evenodd" fill-opacity="1" stroke="#000000" stroke-opacity="1" stroke-width="3.2"/>
<circle clip-path="url(#clip792)" cx="1625.22" cy="937.946" r="14.4" fill="#009af9" fill-rule="evenodd" fill-opacity="1" stroke="#000000" stroke-opacity="1" stroke-width="3.2"/>
<circle clip-path="url(#clip792)" cx="1643.38" cy="942.239" r="14.4" fill="#009af9" fill-rule="evenodd" fill-opacity="1" stroke="#000000" stroke-opacity="1" stroke-width="3.2"/>
<circle clip-path="url(#clip792)" cx="1661.69" cy="941.353" r="14.4" fill="#009af9" fill-rule="evenodd" fill-opacity="1" stroke="#000000" stroke-opacity="1" stroke-width="3.2"/>
<circle clip-path="url(#clip792)" cx="1680.99" cy="935.596" r="14.4" fill="#009af9" fill-rule="evenodd" fill-opacity="1" stroke="#000000" stroke-opacity="1" stroke-width="3.2"/>
<circle clip-path="url(#clip792)" cx="1702.03" cy="925.099" r="14.4" fill="#009af9" fill-rule="evenodd" fill-opacity="1" stroke="#000000" stroke-opacity="1" stroke-width="3.2"/>
<circle clip-path="url(#clip792)" cx="1725.53" cy="909.817" r="14.4" fill="#009af9" fill-rule="evenodd" fill-opacity="1" stroke="#000000" stroke-opacity="1" stroke-width="3.2"/>
<circle clip-path="url(#clip792)" cx="1752.24" cy="889.53" r="14.4" fill="#009af9" fill-rule="evenodd" fill-opacity="1" stroke="#000000" stroke-opacity="1" stroke-width="3.2"/>
<circle clip-path="url(#clip792)" cx="1782.97" cy="863.842" r="14.4" fill="#009af9" fill-rule="evenodd" fill-opacity="1" stroke="#000000" stroke-opacity="1" stroke-width="3.2"/>
<circle clip-path="url(#clip792)" cx="1818.59" cy="832.185" r="14.4" fill="#009af9" fill-rule="evenodd" fill-opacity="1" stroke="#000000" stroke-opacity="1" stroke-width="3.2"/>
<circle clip-path="url(#clip792)" cx="1860.07" cy="793.826" r="14.4" fill="#009af9" fill-rule="evenodd" fill-opacity="1" stroke="#000000" stroke-opacity="1" stroke-width="3.2"/>
<circle clip-path="url(#clip792)" cx="1908.44" cy="747.561" r="14.4" fill="#009af9" fill-rule="evenodd" fill-opacity="1" stroke="#000000" stroke-opacity="1" stroke-width="3.2"/>
<circle clip-path="url(#clip792)" cx="1965.79" cy="691.65" r="14.4" fill="#009af9" fill-rule="evenodd" fill-opacity="1" stroke="#000000" stroke-opacity="1" stroke-width="3.2"/>
<circle clip-path="url(#clip792)" cx="2035.82" cy="626.081" r="14.4" fill="#009af9" fill-rule="evenodd" fill-opacity="1" stroke="#000000" stroke-opacity="1" stroke-width="3.2"/>
<circle clip-path="url(#clip792)" cx="2119.92" cy="555.022" r="14.4" fill="#009af9" fill-rule="evenodd" fill-opacity="1" stroke="#000000" stroke-opacity="1" stroke-width="3.2"/>
<circle clip-path="url(#clip792)" cx="2210.74" cy="482.472" r="14.4" fill="#009af9" fill-rule="evenodd" fill-opacity="1" stroke="#000000" stroke-opacity="1" stroke-width="3.2"/>
<circle clip-path="url(#clip792)" cx="2293.46" cy="401.788" r="14.4" fill="#009af9" fill-rule="evenodd" fill-opacity="1" stroke="#000000" stroke-opacity="1" stroke-width="3.2"/>
<circle clip-path="url(#clip792)" cx="1818.59" cy="832.185" r="14.4" fill="#e26f46" fill-rule="evenodd" fill-opacity="1" stroke="#000000" stroke-opacity="1" stroke-width="3.2"/>
<circle clip-path="url(#clip792)" cx="1742.94" cy="896.869" r="14.4" fill="#e26f46" fill-rule="evenodd" fill-opacity="1" stroke="#000000" stroke-opacity="1" stroke-width="3.2"/>
<circle clip-path="url(#clip792)" cx="1687.78" cy="932.622" r="14.4" fill="#e26f46" fill-rule="evenodd" fill-opacity="1" stroke="#000000" stroke-opacity="1" stroke-width="3.2"/>
<circle clip-path="url(#clip792)" cx="1643.38" cy="942.239" r="14.4" fill="#e26f46" fill-rule="evenodd" fill-opacity="1" stroke="#000000" stroke-opacity="1" stroke-width="3.2"/>
<circle clip-path="url(#clip792)" cx="1599.52" cy="923.323" r="14.4" fill="#e26f46" fill-rule="evenodd" fill-opacity="1" stroke="#000000" stroke-opacity="1" stroke-width="3.2"/>
<circle clip-path="url(#clip792)" cx="1541.08" cy="869.091" r="14.4" fill="#e26f46" fill-rule="evenodd" fill-opacity="1" stroke="#000000" stroke-opacity="1" stroke-width="3.2"/>
<circle clip-path="url(#clip792)" cx="1440.93" cy="774.786" r="14.4" fill="#e26f46" fill-rule="evenodd" fill-opacity="1" stroke="#000000" stroke-opacity="1" stroke-width="3.2"/>
<circle clip-path="url(#clip792)" cx="1259.11" cy="660.504" r="14.4" fill="#e26f46" fill-rule="evenodd" fill-opacity="1" stroke="#000000" stroke-opacity="1" stroke-width="3.2"/>
<circle clip-path="url(#clip792)" cx="984.656" cy="598.424" r="14.4" fill="#e26f46" fill-rule="evenodd" fill-opacity="1" stroke="#000000" stroke-opacity="1" stroke-width="3.2"/>
<circle clip-path="url(#clip792)" cx="701.502" cy="652.042" r="14.4" fill="#e26f46" fill-rule="evenodd" fill-opacity="1" stroke="#000000" stroke-opacity="1" stroke-width="3.2"/>
</svg>
