<?xml version="1.0" encoding="utf-8"?>
<svg xmlns="http://www.w3.org/2000/svg" xmlns:xlink="http://www.w3.org/1999/xlink" width="600" height="400" viewBox="0 0 2400 1600">
<defs>
  <clipPath id="clip520">
    <rect x="0" y="0" width="2400" height="1600"/>
  </clipPath>
</defs>
<path clip-path="url(#clip520)" d="M0 1600 L2400 1600 L2400 8.88178e-14 L0 8.88178e-14  Z" fill="#ffffff" fill-rule="evenodd" fill-opacity="1"/>
<defs>
  <clipPath id="clip521">
    <rect x="480" y="0" width="1681" height="1600"/>
  </clipPath>
</defs>
<path clip-path="url(#clip520)" d="M257.69 1423.18 L2352.76 1423.18 L2352.76 47.2441 L257.69 47.2441  Z" fill="#ffffff" fill-rule="evenodd" fill-opacity="1"/>
<defs>
  <clipPath id="clip522">
    <rect x="257" y="47" width="2096" height="1377"/>
  </clipPath>
</defs>
<polyline clip-path="url(#clip522)" style="stroke:#000000; stroke-linecap:round; stroke-linejoin:round; stroke-width:2; stroke-opacity:0.1; fill:none" points="448.749,47.2441 448.749,1423.18 "/>
<polyline clip-path="url(#clip522)" style="stroke:#000000; stroke-linecap:round; stroke-linejoin:round; stroke-width:2; stroke-opacity:0.1; fill:none" points="844.044,47.2441 844.044,1423.18 "/>
<polyline clip-path="url(#clip522)" style="stroke:#000000; stroke-linecap:round; stroke-linejoin:round; stroke-width:2; stroke-opacity:0.1; fill:none" points="1239.34,47.2441 1239.34,1423.18 "/>
<polyline clip-path="url(#clip522)" style="stroke:#000000; stroke-linecap:round; stroke-linejoin:round; stroke-width:2; stroke-opacity:0.1; fill:none" points="1634.64,47.2441 1634.64,1423.18 "/>
<polyline clip-path="url(#clip522)" style="stroke:#000000; stroke-linecap:round; stroke-linejoin:round; stroke-width:2; stroke-opacity:0.1; fill:none" points="2029.93,47.2441 2029.93,1423.18 "/>
<polyline clip-path="url(#clip522)" style="stroke:#000000; stroke-linecap:round; stroke-linejoin:round; stroke-width:2; stroke-opacity:0.1; fill:none" points="257.69,173.768 2352.76,173.768 "/>
<polyline clip-path="url(#clip522)" style="stroke:#000000; stroke-linecap:round; stroke-linejoin:round; stroke-width:2; stroke-opacity:0.1; fill:none" points="257.69,437.298 2352.76,437.298 "/>
<polyline clip-path="url(#clip522)" style="stroke:#000000; stroke-linecap:round; stroke-linejoin:round; stroke-width:2; stroke-opacity:0.1; fill:none" points="257.69,700.829 2352.76,700.829 "/>
<polyline clip-path="url(#clip522)" style="stroke:#000000; stroke-linecap:round; stroke-linejoin:round; stroke-width:2; stroke-opacity:0.1; fill:none" points="257.69,964.359 2352.76,964.359 "/>
<polyline clip-path="url(#clip522)" style="stroke:#000000; stroke-linecap:round; stroke-linejoin:round; stroke-width:2; stroke-opacity:0.1; fill:none" points="257.69,1227.89 2352.76,1227.89 "/>
<polyline clip-path="url(#clip520)" style="stroke:#000000; stroke-linecap:round; stroke-linejoin:round; stroke-width:4; stroke-opacity:1; fill:none" points="257.69,1423.18 2352.76,1423.18 "/>
<polyline clip-path="url(#clip520)" style="stroke:#000000; stroke-linecap:round; stroke-linejoin:round; stroke-width:4; stroke-opacity:1; fill:none" points="448.749,1423.18 448.749,1404.28 "/>
<polyline clip-path="url(#clip520)" style="stroke:#000000; stroke-linecap:round; stroke-linejoin:round; stroke-width:4; stroke-opacity:1; fill:none" points="844.044,1423.18 844.044,1404.28 "/>
<polyline clip-path="url(#clip520)" style="stroke:#000000; stroke-linecap:round; stroke-linejoin:round; stroke-width:4; stroke-opacity:1; fill:none" points="1239.34,1423.18 1239.34,1404.28 "/>
<polyline clip-path="url(#clip520)" style="stroke:#000000; stroke-linecap:round; stroke-linejoin:round; stroke-width:4; stroke-opacity:1; fill:none" points="1634.64,1423.18 1634.64,1404.28 "/>
<polyline clip-path="url(#clip520)" style="stroke:#000000; stroke-linecap:round; stroke-linejoin:round; stroke-width:4; stroke-opacity:1; fill:none" points="2029.93,1423.18 2029.93,1404.28 "/>
<path clip-path="url(#clip520)" d="M426.457 1454.1 Q422.846 1454.1 421.017 1457.66 Q419.212 1461.2 419.212 1468.33 Q419.212 1475.44 421.017 1479.01 Q422.846 1482.55 426.457 1482.55 Q430.091 1482.55 431.897 1479.01 Q433.726 1475.44 433.726 1468.33 Q433.726 1461.2 431.897 1457.66 Q430.091 1454.1 426.457 1454.1 M426.457 1450.39 Q432.267 1450.39 435.323 1455 Q438.402 1459.58 438.402 1468.33 Q438.402 1477.06 435.323 1481.67 Q432.267 1486.25 426.457 1486.25 Q420.647 1486.25 417.568 1481.67 Q414.513 1477.06 414.513 1468.33 Q414.513 1459.58 417.568 1455 Q420.647 1450.39 426.457 1450.39 Z" fill="#000000" fill-rule="nonzero" fill-opacity="1" /><path clip-path="url(#clip520)" d="M446.619 1479.7 L451.503 1479.7 L451.503 1485.58 L446.619 1485.58 L446.619 1479.7 Z" fill="#000000" fill-rule="nonzero" fill-opacity="1" /><path clip-path="url(#clip520)" d="M475.855 1466.95 Q479.212 1467.66 481.087 1469.93 Q482.985 1472.2 482.985 1475.53 Q482.985 1480.65 479.466 1483.45 Q475.948 1486.25 469.466 1486.25 Q467.29 1486.25 464.976 1485.81 Q462.684 1485.39 460.23 1484.54 L460.23 1480.02 Q462.175 1481.16 464.489 1481.74 Q466.804 1482.32 469.327 1482.32 Q473.725 1482.32 476.017 1480.58 Q478.332 1478.84 478.332 1475.53 Q478.332 1472.48 476.179 1470.77 Q474.05 1469.03 470.23 1469.03 L466.202 1469.03 L466.202 1465.19 L470.415 1465.19 Q473.864 1465.19 475.693 1463.82 Q477.522 1462.43 477.522 1459.84 Q477.522 1457.18 475.624 1455.77 Q473.749 1454.33 470.23 1454.33 Q468.309 1454.33 466.11 1454.75 Q463.911 1455.16 461.272 1456.04 L461.272 1451.88 Q463.934 1451.14 466.249 1450.77 Q468.587 1450.39 470.647 1450.39 Q475.971 1450.39 479.073 1452.83 Q482.175 1455.23 482.175 1459.35 Q482.175 1462.22 480.531 1464.21 Q478.888 1466.18 475.855 1466.95 Z" fill="#000000" fill-rule="nonzero" fill-opacity="1" /><path clip-path="url(#clip520)" d="M821.348 1454.1 Q817.737 1454.1 815.908 1457.66 Q814.102 1461.2 814.102 1468.33 Q814.102 1475.44 815.908 1479.01 Q817.737 1482.55 821.348 1482.55 Q824.982 1482.55 826.788 1479.01 Q828.616 1475.44 828.616 1468.33 Q828.616 1461.2 826.788 1457.66 Q824.982 1454.1 821.348 1454.1 M821.348 1450.39 Q827.158 1450.39 830.213 1455 Q833.292 1459.58 833.292 1468.33 Q833.292 1477.06 830.213 1481.67 Q827.158 1486.25 821.348 1486.25 Q815.538 1486.25 812.459 1481.67 Q809.403 1477.06 809.403 1468.33 Q809.403 1459.58 812.459 1455 Q815.538 1450.39 821.348 1450.39 Z" fill="#000000" fill-rule="nonzero" fill-opacity="1" /><path clip-path="url(#clip520)" d="M841.51 1479.7 L846.394 1479.7 L846.394 1485.58 L841.51 1485.58 L841.51 1479.7 Z" fill="#000000" fill-rule="nonzero" fill-opacity="1" /><path clip-path="url(#clip520)" d="M867.158 1466.44 Q864.01 1466.44 862.158 1468.59 Q860.329 1470.74 860.329 1474.49 Q860.329 1478.22 862.158 1480.39 Q864.01 1482.55 867.158 1482.55 Q870.306 1482.55 872.135 1480.39 Q873.986 1478.22 873.986 1474.49 Q873.986 1470.74 872.135 1468.59 Q870.306 1466.44 867.158 1466.44 M876.44 1451.78 L876.44 1456.04 Q874.681 1455.21 872.875 1454.77 Q871.093 1454.33 869.334 1454.33 Q864.704 1454.33 862.25 1457.45 Q859.82 1460.58 859.473 1466.9 Q860.838 1464.89 862.898 1463.82 Q864.959 1462.73 867.435 1462.73 Q872.644 1462.73 875.653 1465.9 Q878.685 1469.05 878.685 1474.49 Q878.685 1479.82 875.537 1483.03 Q872.389 1486.25 867.158 1486.25 Q861.162 1486.25 857.991 1481.67 Q854.82 1477.06 854.82 1468.33 Q854.82 1460.14 858.709 1455.28 Q862.598 1450.39 869.148 1450.39 Q870.908 1450.39 872.69 1450.74 Q874.496 1451.09 876.44 1451.78 Z" fill="#000000" fill-rule="nonzero" fill-opacity="1" /><path clip-path="url(#clip520)" d="M1216.82 1454.1 Q1213.21 1454.1 1211.38 1457.66 Q1209.57 1461.2 1209.57 1468.33 Q1209.57 1475.44 1211.38 1479.01 Q1213.21 1482.55 1216.82 1482.55 Q1220.45 1482.55 1222.26 1479.01 Q1224.09 1475.44 1224.09 1468.33 Q1224.09 1461.2 1222.26 1457.66 Q1220.45 1454.1 1216.82 1454.1 M1216.82 1450.39 Q1222.63 1450.39 1225.68 1455 Q1228.76 1459.58 1228.76 1468.33 Q1228.76 1477.06 1225.68 1481.67 Q1222.63 1486.25 1216.82 1486.25 Q1211.01 1486.25 1207.93 1481.67 Q1204.87 1477.06 1204.87 1468.33 Q1204.87 1459.58 1207.93 1455 Q1211.01 1450.39 1216.82 1450.39 Z" fill="#000000" fill-rule="nonzero" fill-opacity="1" /><path clip-path="url(#clip520)" d="M1236.98 1479.7 L1241.86 1479.7 L1241.86 1485.58 L1236.98 1485.58 L1236.98 1479.7 Z" fill="#000000" fill-rule="nonzero" fill-opacity="1" /><path clip-path="url(#clip520)" d="M1252.19 1484.86 L1252.19 1480.6 Q1253.95 1481.44 1255.75 1481.88 Q1257.56 1482.32 1259.29 1482.32 Q1263.92 1482.32 1266.35 1479.21 Q1268.81 1476.09 1269.15 1469.75 Q1267.81 1471.74 1265.75 1472.8 Q1263.69 1473.87 1261.19 1473.87 Q1256.01 1473.87 1252.97 1470.74 Q1249.96 1467.59 1249.96 1462.15 Q1249.96 1456.83 1253.11 1453.61 Q1256.26 1450.39 1261.49 1450.39 Q1267.49 1450.39 1270.64 1455 Q1273.81 1459.58 1273.81 1468.33 Q1273.81 1476.51 1269.92 1481.39 Q1266.05 1486.25 1259.5 1486.25 Q1257.74 1486.25 1255.94 1485.9 Q1254.13 1485.56 1252.19 1484.86 M1261.49 1470.21 Q1264.64 1470.21 1266.47 1468.06 Q1268.32 1465.9 1268.32 1462.15 Q1268.32 1458.43 1266.47 1456.27 Q1264.64 1454.1 1261.49 1454.1 Q1258.34 1454.1 1256.49 1456.27 Q1254.66 1458.43 1254.66 1462.15 Q1254.66 1465.9 1256.49 1468.06 Q1258.34 1470.21 1261.49 1470.21 Z" fill="#000000" fill-rule="nonzero" fill-opacity="1" /><path clip-path="url(#clip520)" d="M1602.59 1481.64 L1610.23 1481.64 L1610.23 1455.28 L1601.92 1456.95 L1601.92 1452.69 L1610.18 1451.02 L1614.86 1451.02 L1614.86 1481.64 L1622.49 1481.64 L1622.49 1485.58 L1602.59 1485.58 L1602.59 1481.64 Z" fill="#000000" fill-rule="nonzero" fill-opacity="1" /><path clip-path="url(#clip520)" d="M1631.94 1479.7 L1636.82 1479.7 L1636.82 1485.58 L1631.94 1485.58 L1631.94 1479.7 Z" fill="#000000" fill-rule="nonzero" fill-opacity="1" /><path clip-path="url(#clip520)" d="M1651.04 1481.64 L1667.36 1481.64 L1667.36 1485.58 L1645.41 1485.58 L1645.41 1481.64 Q1648.07 1478.89 1652.66 1474.26 Q1657.26 1469.61 1658.44 1468.27 Q1660.69 1465.74 1661.57 1464.01 Q1662.47 1462.25 1662.47 1460.56 Q1662.47 1457.8 1660.53 1456.07 Q1658.61 1454.33 1655.5 1454.33 Q1653.3 1454.33 1650.85 1455.09 Q1648.42 1455.86 1645.64 1457.41 L1645.64 1452.69 Q1648.47 1451.55 1650.92 1450.97 Q1653.37 1450.39 1655.41 1450.39 Q1660.78 1450.39 1663.98 1453.08 Q1667.17 1455.77 1667.17 1460.26 Q1667.17 1462.39 1666.36 1464.31 Q1665.57 1466.2 1663.47 1468.8 Q1662.89 1469.47 1659.79 1472.69 Q1656.68 1475.88 1651.04 1481.64 Z" fill="#000000" fill-rule="nonzero" fill-opacity="1" /><path clip-path="url(#clip520)" d="M1997.58 1481.64 L2005.22 1481.64 L2005.22 1455.28 L1996.91 1456.95 L1996.91 1452.69 L2005.17 1451.02 L2009.85 1451.02 L2009.85 1481.64 L2017.49 1481.64 L2017.49 1485.58 L1997.58 1485.58 L1997.58 1481.64 Z" fill="#000000" fill-rule="nonzero" fill-opacity="1" /><path clip-path="url(#clip520)" d="M2026.93 1479.7 L2031.82 1479.7 L2031.82 1485.58 L2026.93 1485.58 L2026.93 1479.7 Z" fill="#000000" fill-rule="nonzero" fill-opacity="1" /><path clip-path="url(#clip520)" d="M2042.05 1451.02 L2060.41 1451.02 L2060.41 1454.96 L2046.33 1454.96 L2046.33 1463.43 Q2047.35 1463.08 2048.37 1462.92 Q2049.39 1462.73 2050.41 1462.73 Q2056.19 1462.73 2059.57 1465.9 Q2062.95 1469.08 2062.95 1474.49 Q2062.95 1480.07 2059.48 1483.17 Q2056.01 1486.25 2049.69 1486.25 Q2047.51 1486.25 2045.24 1485.88 Q2043 1485.51 2040.59 1484.77 L2040.59 1480.07 Q2042.67 1481.2 2044.9 1481.76 Q2047.12 1482.32 2049.6 1482.32 Q2053.6 1482.32 2055.94 1480.21 Q2058.28 1478.1 2058.28 1474.49 Q2058.28 1470.88 2055.94 1468.77 Q2053.6 1466.67 2049.6 1466.67 Q2047.72 1466.67 2045.85 1467.08 Q2043.99 1467.5 2042.05 1468.38 L2042.05 1451.02 Z" fill="#000000" fill-rule="nonzero" fill-opacity="1" /><path clip-path="url(#clip520)" d="M1201.67 1545.76 Q1203.74 1546.46 1205.68 1548.76 Q1207.65 1551.05 1209.63 1555.06 L1216.15 1568.04 L1209.24 1568.04 L1203.16 1555.85 Q1200.81 1551.08 1198.58 1549.52 Q1196.39 1547.96 1192.57 1547.96 L1185.56 1547.96 L1185.56 1568.04 L1179.13 1568.04 L1179.13 1520.52 L1193.65 1520.52 Q1201.8 1520.52 1205.81 1523.93 Q1209.82 1527.34 1209.82 1534.21 Q1209.82 1538.7 1207.72 1541.66 Q1205.65 1544.62 1201.67 1545.76 M1185.56 1525.81 L1185.56 1542.68 L1193.65 1542.68 Q1198.3 1542.68 1200.65 1540.54 Q1203.04 1538.38 1203.04 1534.21 Q1203.04 1530.04 1200.65 1527.94 Q1198.3 1525.81 1193.65 1525.81 L1185.56 1525.81 Z" fill="#000000" fill-rule="nonzero" fill-opacity="1" /><path clip-path="url(#clip520)" d="M1251.74 1548.76 L1251.74 1551.62 L1224.81 1551.62 Q1225.19 1557.67 1228.44 1560.85 Q1231.72 1564 1237.54 1564 Q1240.91 1564 1244.06 1563.17 Q1247.25 1562.35 1250.37 1560.69 L1250.37 1566.23 Q1247.22 1567.57 1243.91 1568.27 Q1240.6 1568.97 1237.19 1568.97 Q1228.66 1568.97 1223.66 1564 Q1218.7 1559.04 1218.7 1550.57 Q1218.7 1541.82 1223.41 1536.69 Q1228.15 1531.54 1236.17 1531.54 Q1243.36 1531.54 1247.53 1536.18 Q1251.74 1540.8 1251.74 1548.76 M1245.88 1547.04 Q1245.82 1542.23 1243.17 1539.37 Q1240.56 1536.5 1236.23 1536.5 Q1231.33 1536.5 1228.37 1539.27 Q1225.44 1542.04 1225 1547.07 L1245.88 1547.04 Z" fill="#000000" fill-rule="nonzero" fill-opacity="1" /><path clip-path="url(#clip520)" d="M1279.59 1520.52 L1316.92 1520.52 L1316.92 1525.43 L1286.87 1562.63 L1317.65 1562.63 L1317.65 1568.04 L1278.85 1568.04 L1278.85 1563.14 L1308.9 1525.93 L1279.59 1525.93 L1279.59 1520.52 Z" fill="#000000" fill-rule="nonzero" fill-opacity="1" /><path clip-path="url(#clip520)" d="M1357.85 1520.52 L1363.26 1520.52 L1346.71 1574.09 L1341.3 1574.09 L1357.85 1520.52 Z" fill="#000000" fill-rule="nonzero" fill-opacity="1" /><path clip-path="url(#clip520)" d="M1431.31 1562.38 L1431.31 1568.04 L1412.21 1568.04 L1412.21 1562.38 Q1417.85 1559.29 1421 1554.01 Q1424.15 1548.72 1424.15 1542.29 Q1424.15 1534.66 1419.95 1530.04 Q1415.75 1525.43 1408.87 1525.43 Q1402 1525.43 1397.76 1530.07 Q1393.56 1534.69 1393.56 1542.29 Q1393.56 1548.72 1396.71 1554.01 Q1399.9 1559.29 1405.56 1562.38 L1405.56 1568.04 L1386.47 1568.04 L1386.47 1562.38 L1396.62 1562.38 Q1391.59 1557.95 1389.27 1553.21 Q1386.97 1548.47 1386.97 1542.61 Q1386.97 1532.49 1393.09 1526.22 Q1399.16 1519.95 1408.87 1519.95 Q1418.52 1519.95 1424.66 1526.22 Q1430.77 1532.46 1430.77 1542.29 Q1430.77 1548.47 1428.51 1553.18 Q1426.25 1557.89 1421.13 1562.38 L1431.31 1562.38 Z" fill="#000000" fill-rule="nonzero" fill-opacity="1" /><polyline clip-path="url(#clip520)" style="stroke:#000000; stroke-linecap:round; stroke-linejoin:round; stroke-width:4; stroke-opacity:1; fill:none" points="257.69,47.2441 257.69,1423.18 "/>
<polyline clip-path="url(#clip520)" style="stroke:#000000; stroke-linecap:round; stroke-linejoin:round; stroke-width:4; stroke-opacity:1; fill:none" points="257.69,173.768 276.588,173.768 "/>
<polyline clip-path="url(#clip520)" style="stroke:#000000; stroke-linecap:round; stroke-linejoin:round; stroke-width:4; stroke-opacity:1; fill:none" points="257.69,437.298 276.588,437.298 "/>
<polyline clip-path="url(#clip520)" style="stroke:#000000; stroke-linecap:round; stroke-linejoin:round; stroke-width:4; stroke-opacity:1; fill:none" points="257.69,700.829 276.588,700.829 "/>
<polyline clip-path="url(#clip520)" style="stroke:#000000; stroke-linecap:round; stroke-linejoin:round; stroke-width:4; stroke-opacity:1; fill:none" points="257.69,964.359 276.588,964.359 "/>
<polyline clip-path="url(#clip520)" style="stroke:#000000; stroke-linecap:round; stroke-linejoin:round; stroke-width:4; stroke-opacity:1; fill:none" points="257.69,1227.89 276.588,1227.89 "/>
<path clip-path="url(#clip520)" d="M114.839 174.219 L144.515 174.219 L144.515 178.154 L114.839 178.154 L114.839 174.219 Z" fill="#000000" fill-rule="nonzero" fill-opacity="1" /><path clip-path="url(#clip520)" d="M164.607 159.567 Q160.996 159.567 159.167 163.131 Q157.362 166.673 157.362 173.803 Q157.362 180.909 159.167 184.474 Q160.996 188.016 164.607 188.016 Q168.241 188.016 170.047 184.474 Q171.876 180.909 171.876 173.803 Q171.876 166.673 170.047 163.131 Q168.241 159.567 164.607 159.567 M164.607 155.863 Q170.417 155.863 173.473 160.469 Q176.551 165.053 176.551 173.803 Q176.551 182.529 173.473 187.136 Q170.417 191.719 164.607 191.719 Q158.797 191.719 155.718 187.136 Q152.663 182.529 152.663 173.803 Q152.663 165.053 155.718 160.469 Q158.797 155.863 164.607 155.863 Z" fill="#000000" fill-rule="nonzero" fill-opacity="1" /><path clip-path="url(#clip520)" d="M184.769 185.168 L189.653 185.168 L189.653 191.048 L184.769 191.048 L184.769 185.168 Z" fill="#000000" fill-rule="nonzero" fill-opacity="1" /><path clip-path="url(#clip520)" d="M209.838 174.636 Q206.505 174.636 204.584 176.418 Q202.686 178.201 202.686 181.326 Q202.686 184.451 204.584 186.233 Q206.505 188.016 209.838 188.016 Q213.172 188.016 215.093 186.233 Q217.014 184.428 217.014 181.326 Q217.014 178.201 215.093 176.418 Q213.195 174.636 209.838 174.636 M205.162 172.645 Q202.153 171.905 200.463 169.844 Q198.797 167.784 198.797 164.821 Q198.797 160.678 201.737 158.27 Q204.699 155.863 209.838 155.863 Q215 155.863 217.94 158.27 Q220.88 160.678 220.88 164.821 Q220.88 167.784 219.19 169.844 Q217.523 171.905 214.537 172.645 Q217.917 173.432 219.792 175.724 Q221.69 178.016 221.69 181.326 Q221.69 186.349 218.611 189.034 Q215.556 191.719 209.838 191.719 Q204.121 191.719 201.042 189.034 Q197.987 186.349 197.987 181.326 Q197.987 178.016 199.885 175.724 Q201.783 173.432 205.162 172.645 M203.449 165.261 Q203.449 167.946 205.116 169.451 Q206.806 170.955 209.838 170.955 Q212.848 170.955 214.537 169.451 Q216.25 167.946 216.25 165.261 Q216.25 162.576 214.537 161.071 Q212.848 159.567 209.838 159.567 Q206.806 159.567 205.116 161.071 Q203.449 162.576 203.449 165.261 Z" fill="#000000" fill-rule="nonzero" fill-opacity="1" /><path clip-path="url(#clip520)" d="M114.584 437.75 L144.26 437.75 L144.26 441.685 L114.584 441.685 L114.584 437.75 Z" fill="#000000" fill-rule="nonzero" fill-opacity="1" /><path clip-path="url(#clip520)" d="M164.352 423.097 Q160.741 423.097 158.913 426.662 Q157.107 430.203 157.107 437.333 Q157.107 444.439 158.913 448.004 Q160.741 451.546 164.352 451.546 Q167.987 451.546 169.792 448.004 Q171.621 444.439 171.621 437.333 Q171.621 430.203 169.792 426.662 Q167.987 423.097 164.352 423.097 M164.352 419.393 Q170.163 419.393 173.218 424 Q176.297 428.583 176.297 437.333 Q176.297 446.06 173.218 450.666 Q170.163 455.25 164.352 455.25 Q158.542 455.25 155.464 450.666 Q152.408 446.06 152.408 437.333 Q152.408 428.583 155.464 424 Q158.542 419.393 164.352 419.393 Z" fill="#000000" fill-rule="nonzero" fill-opacity="1" /><path clip-path="url(#clip520)" d="M184.514 448.699 L189.399 448.699 L189.399 454.578 L184.514 454.578 L184.514 448.699 Z" fill="#000000" fill-rule="nonzero" fill-opacity="1" /><path clip-path="url(#clip520)" d="M210.162 435.435 Q207.014 435.435 205.162 437.588 Q203.334 439.74 203.334 443.49 Q203.334 447.217 205.162 449.393 Q207.014 451.546 210.162 451.546 Q213.311 451.546 215.139 449.393 Q216.991 447.217 216.991 443.49 Q216.991 439.74 215.139 437.588 Q213.311 435.435 210.162 435.435 M219.445 420.782 L219.445 425.041 Q217.686 424.208 215.88 423.768 Q214.098 423.328 212.338 423.328 Q207.709 423.328 205.255 426.453 Q202.824 429.578 202.477 435.898 Q203.843 433.884 205.903 432.819 Q207.963 431.731 210.44 431.731 Q215.649 431.731 218.658 434.903 Q221.69 438.051 221.69 443.49 Q221.69 448.814 218.542 452.032 Q215.394 455.25 210.162 455.25 Q204.167 455.25 200.996 450.666 Q197.825 446.06 197.825 437.333 Q197.825 429.139 201.713 424.278 Q205.602 419.393 212.153 419.393 Q213.912 419.393 215.695 419.741 Q217.5 420.088 219.445 420.782 Z" fill="#000000" fill-rule="nonzero" fill-opacity="1" /><path clip-path="url(#clip520)" d="M114.26 701.28 L143.936 701.28 L143.936 705.215 L114.26 705.215 L114.26 701.28 Z" fill="#000000" fill-rule="nonzero" fill-opacity="1" /><path clip-path="url(#clip520)" d="M164.028 686.627 Q160.417 686.627 158.589 690.192 Q156.783 693.734 156.783 700.863 Q156.783 707.97 158.589 711.535 Q160.417 715.076 164.028 715.076 Q167.663 715.076 169.468 711.535 Q171.297 707.97 171.297 700.863 Q171.297 693.734 169.468 690.192 Q167.663 686.627 164.028 686.627 M164.028 682.924 Q169.839 682.924 172.894 687.53 Q175.973 692.113 175.973 700.863 Q175.973 709.59 172.894 714.197 Q169.839 718.78 164.028 718.78 Q158.218 718.78 155.14 714.197 Q152.084 709.59 152.084 700.863 Q152.084 692.113 155.14 687.53 Q158.218 682.924 164.028 682.924 Z" fill="#000000" fill-rule="nonzero" fill-opacity="1" /><path clip-path="url(#clip520)" d="M184.19 712.229 L189.075 712.229 L189.075 718.109 L184.19 718.109 L184.19 712.229 Z" fill="#000000" fill-rule="nonzero" fill-opacity="1" /><path clip-path="url(#clip520)" d="M212.107 687.623 L200.301 706.072 L212.107 706.072 L212.107 687.623 M210.88 683.549 L216.76 683.549 L216.76 706.072 L221.69 706.072 L221.69 709.961 L216.76 709.961 L216.76 718.109 L212.107 718.109 L212.107 709.961 L196.505 709.961 L196.505 705.447 L210.88 683.549 Z" fill="#000000" fill-rule="nonzero" fill-opacity="1" /><path clip-path="url(#clip520)" d="M116.343 964.811 L146.019 964.811 L146.019 968.746 L116.343 968.746 L116.343 964.811 Z" fill="#000000" fill-rule="nonzero" fill-opacity="1" /><path clip-path="url(#clip520)" d="M166.112 950.158 Q162.501 950.158 160.672 953.723 Q158.866 957.264 158.866 964.394 Q158.866 971.5 160.672 975.065 Q162.501 978.607 166.112 978.607 Q169.746 978.607 171.552 975.065 Q173.38 971.5 173.38 964.394 Q173.38 957.264 171.552 953.723 Q169.746 950.158 166.112 950.158 M166.112 946.454 Q171.922 946.454 174.977 951.061 Q178.056 955.644 178.056 964.394 Q178.056 973.121 174.977 977.727 Q171.922 982.31 166.112 982.31 Q160.302 982.31 157.223 977.727 Q154.167 973.121 154.167 964.394 Q154.167 955.644 157.223 951.061 Q160.302 946.454 166.112 946.454 Z" fill="#000000" fill-rule="nonzero" fill-opacity="1" /><path clip-path="url(#clip520)" d="M186.274 975.76 L191.158 975.76 L191.158 981.639 L186.274 981.639 L186.274 975.76 Z" fill="#000000" fill-rule="nonzero" fill-opacity="1" /><path clip-path="url(#clip520)" d="M205.371 977.704 L221.69 977.704 L221.69 981.639 L199.746 981.639 L199.746 977.704 Q202.408 974.949 206.991 970.32 Q211.598 965.667 212.778 964.324 Q215.024 961.801 215.903 960.065 Q216.806 958.306 216.806 956.616 Q216.806 953.862 214.861 952.125 Q212.94 950.389 209.838 950.389 Q207.639 950.389 205.186 951.153 Q202.755 951.917 199.977 953.468 L199.977 948.746 Q202.801 947.612 205.255 947.033 Q207.709 946.454 209.746 946.454 Q215.116 946.454 218.311 949.139 Q221.505 951.824 221.505 956.315 Q221.505 958.445 220.695 960.366 Q219.908 962.264 217.801 964.857 Q217.223 965.528 214.121 968.746 Q211.019 971.94 205.371 977.704 Z" fill="#000000" fill-rule="nonzero" fill-opacity="1" /><path clip-path="url(#clip520)" d="M164.515 1213.69 Q160.903 1213.69 159.075 1217.25 Q157.269 1220.79 157.269 1227.92 Q157.269 1235.03 159.075 1238.6 Q160.903 1242.14 164.515 1242.14 Q168.149 1242.14 169.954 1238.6 Q171.783 1235.03 171.783 1227.92 Q171.783 1220.79 169.954 1217.25 Q168.149 1213.69 164.515 1213.69 M164.515 1209.98 Q170.325 1209.98 173.38 1214.59 Q176.459 1219.17 176.459 1227.92 Q176.459 1236.65 173.38 1241.26 Q170.325 1245.84 164.515 1245.84 Q158.704 1245.84 155.626 1241.26 Q152.57 1236.65 152.57 1227.92 Q152.57 1219.17 155.626 1214.59 Q158.704 1209.98 164.515 1209.98 Z" fill="#000000" fill-rule="nonzero" fill-opacity="1" /><path clip-path="url(#clip520)" d="M184.676 1239.29 L189.561 1239.29 L189.561 1245.17 L184.676 1245.17 L184.676 1239.29 Z" fill="#000000" fill-rule="nonzero" fill-opacity="1" /><path clip-path="url(#clip520)" d="M209.746 1213.69 Q206.135 1213.69 204.306 1217.25 Q202.5 1220.79 202.5 1227.92 Q202.5 1235.03 204.306 1238.6 Q206.135 1242.14 209.746 1242.14 Q213.38 1242.14 215.186 1238.6 Q217.014 1235.03 217.014 1227.92 Q217.014 1220.79 215.186 1217.25 Q213.38 1213.69 209.746 1213.69 M209.746 1209.98 Q215.556 1209.98 218.611 1214.59 Q221.69 1219.17 221.69 1227.92 Q221.69 1236.65 218.611 1241.26 Q215.556 1245.84 209.746 1245.84 Q203.936 1245.84 200.857 1241.26 Q197.801 1236.65 197.801 1227.92 Q197.801 1219.17 200.857 1214.59 Q203.936 1209.98 209.746 1209.98 Z" fill="#000000" fill-rule="nonzero" fill-opacity="1" /><path clip-path="url(#clip520)" d="M43.5384 874.796 L43.5384 857.64 L48.7583 857.64 L48.7583 874.796 L43.5384 874.796 Z" fill="#000000" fill-rule="nonzero" fill-opacity="1" /><path clip-path="url(#clip520)" d="M16.4842 848.06 L16.4842 841.631 L64.0042 841.631 L64.0042 848.06 L16.4842 848.06 Z" fill="#000000" fill-rule="nonzero" fill-opacity="1" /><path clip-path="url(#clip520)" d="M35.1993 801.336 Q31.2526 799.14 29.3747 796.084 Q27.4968 793.028 27.4968 788.891 Q27.4968 783.321 31.4117 780.297 Q35.2948 777.273 42.4881 777.273 L64.0042 777.273 L64.0042 783.162 L42.679 783.162 Q37.5546 783.162 35.072 784.976 Q32.5894 786.79 32.5894 790.514 Q32.5894 795.066 35.6131 797.707 Q38.6368 800.349 43.8567 800.349 L64.0042 800.349 L64.0042 806.237 L42.679 806.237 Q37.5228 806.237 35.072 808.052 Q32.5894 809.866 32.5894 813.653 Q32.5894 818.141 35.6449 820.783 Q38.6686 823.425 43.8567 823.425 L64.0042 823.425 L64.0042 829.313 L28.3562 829.313 L28.3562 823.425 L33.8944 823.425 Q30.616 821.42 29.0564 818.619 Q27.4968 815.818 27.4968 811.966 Q27.4968 808.083 29.4702 805.378 Q31.4436 802.641 35.1993 801.336 Z" fill="#000000" fill-rule="nonzero" fill-opacity="1" /><path clip-path="url(#clip520)" d="M16.4842 747.355 L16.4842 710.02 L21.3858 710.02 L58.5933 740.066 L58.5933 709.288 L64.0042 709.288 L64.0042 748.087 L59.1026 748.087 L21.895 718.04 L21.895 747.355 L16.4842 747.355 Z" fill="#000000" fill-rule="nonzero" fill-opacity="1" /><path clip-path="url(#clip520)" d="M16.4842 669.088 L16.4842 663.677 L70.0516 680.228 L70.0516 685.639 L16.4842 669.088 Z" fill="#000000" fill-rule="nonzero" fill-opacity="1" /><path clip-path="url(#clip520)" d="M58.3387 595.628 L64.0042 595.628 L64.0042 614.725 L58.3387 614.725 Q55.2513 609.091 49.9678 605.94 Q44.6842 602.789 38.2549 602.789 Q30.616 602.789 26.0009 606.991 Q21.3858 611.192 21.3858 618.067 Q21.3858 624.942 26.0327 629.175 Q30.6479 633.377 38.2549 633.377 Q44.6842 633.377 49.9678 630.226 Q55.2513 627.043 58.3387 621.377 L64.0042 621.377 L64.0042 640.474 L58.3387 640.474 L58.3387 630.321 Q53.9145 635.35 49.1721 637.673 Q44.4296 639.965 38.5732 639.965 Q28.4517 639.965 22.1815 633.854 Q15.9112 627.775 15.9112 618.067 Q15.9112 608.423 22.1815 602.28 Q28.4199 596.169 38.2549 596.169 Q44.4296 596.169 49.1402 598.429 Q53.8509 600.689 58.3387 605.813 L58.3387 595.628 Z" fill="#000000" fill-rule="nonzero" fill-opacity="1" /><circle clip-path="url(#clip522)" cx="316.984" cy="1226.57" r="14.4" fill="#009af9" fill-rule="evenodd" fill-opacity="1" stroke="#000000" stroke-opacity="1" stroke-width="3.2"/>
<circle clip-path="url(#clip522)" cx="316.985" cy="1226.06" r="14.4" fill="#009af9" fill-rule="evenodd" fill-opacity="1" stroke="#000000" stroke-opacity="1" stroke-width="3.2"/>
<circle clip-path="url(#clip522)" cx="316.987" cy="1225.35" r="14.4" fill="#009af9" fill-rule="evenodd" fill-opacity="1" stroke="#000000" stroke-opacity="1" stroke-width="3.2"/>
<circle clip-path="url(#clip522)" cx="316.99" cy="1224.35" r="14.4" fill="#009af9" fill-rule="evenodd" fill-opacity="1" stroke="#000000" stroke-opacity="1" stroke-width="3.2"/>
<circle clip-path="url(#clip522)" cx="316.996" cy="1222.98" r="14.4" fill="#009af9" fill-rule="evenodd" fill-opacity="1" stroke="#000000" stroke-opacity="1" stroke-width="3.2"/>
<circle clip-path="url(#clip522)" cx="317.007" cy="1221.06" r="14.4" fill="#009af9" fill-rule="evenodd" fill-opacity="1" stroke="#000000" stroke-opacity="1" stroke-width="3.2"/>
<circle clip-path="url(#clip522)" cx="317.029" cy="1218.41" r="14.4" fill="#009af9" fill-rule="evenodd" fill-opacity="1" stroke="#000000" stroke-opacity="1" stroke-width="3.2"/>
<circle clip-path="url(#clip522)" cx="317.071" cy="1214.71" r="14.4" fill="#009af9" fill-rule="evenodd" fill-opacity="1" stroke="#000000" stroke-opacity="1" stroke-width="3.2"/>
<circle clip-path="url(#clip522)" cx="317.153" cy="1209.58" r="14.4" fill="#009af9" fill-rule="evenodd" fill-opacity="1" stroke="#000000" stroke-opacity="1" stroke-width="3.2"/>
<circle clip-path="url(#clip522)" cx="317.311" cy="1202.45" r="14.4" fill="#009af9" fill-rule="evenodd" fill-opacity="1" stroke="#000000" stroke-opacity="1" stroke-width="3.2"/>
<circle clip-path="url(#clip522)" cx="317.616" cy="1192.55" r="14.4" fill="#009af9" fill-rule="evenodd" fill-opacity="1" stroke="#000000" stroke-opacity="1" stroke-width="3.2"/>
<circle clip-path="url(#clip522)" cx="318.203" cy="1178.8" r="14.4" fill="#009af9" fill-rule="evenodd" fill-opacity="1" stroke="#000000" stroke-opacity="1" stroke-width="3.2"/>
<circle clip-path="url(#clip522)" cx="319.337" cy="1159.72" r="14.4" fill="#009af9" fill-rule="evenodd" fill-opacity="1" stroke="#000000" stroke-opacity="1" stroke-width="3.2"/>
<circle clip-path="url(#clip522)" cx="321.523" cy="1133.28" r="14.4" fill="#009af9" fill-rule="evenodd" fill-opacity="1" stroke="#000000" stroke-opacity="1" stroke-width="3.2"/>
<circle clip-path="url(#clip522)" cx="325.729" cy="1096.71" r="14.4" fill="#009af9" fill-rule="evenodd" fill-opacity="1" stroke="#000000" stroke-opacity="1" stroke-width="3.2"/>
<circle clip-path="url(#clip522)" cx="333.799" cy="1046.36" r="14.4" fill="#009af9" fill-rule="evenodd" fill-opacity="1" stroke="#000000" stroke-opacity="1" stroke-width="3.2"/>
<circle clip-path="url(#clip522)" cx="349.194" cy="977.637" r="14.4" fill="#009af9" fill-rule="evenodd" fill-opacity="1" stroke="#000000" stroke-opacity="1" stroke-width="3.2"/>
<circle clip-path="url(#clip522)" cx="378.244" cy="885.36" r="14.4" fill="#009af9" fill-rule="evenodd" fill-opacity="1" stroke="#000000" stroke-opacity="1" stroke-width="3.2"/>
<circle clip-path="url(#clip522)" cx="431.942" cy="765.29" r="14.4" fill="#009af9" fill-rule="evenodd" fill-opacity="1" stroke="#000000" stroke-opacity="1" stroke-width="3.2"/>
<circle clip-path="url(#clip522)" cx="527.536" cy="618.119" r="14.4" fill="#009af9" fill-rule="evenodd" fill-opacity="1" stroke="#000000" stroke-opacity="1" stroke-width="3.2"/>
<circle clip-path="url(#clip522)" cx="686.829" cy="457.042" r="14.4" fill="#009af9" fill-rule="evenodd" fill-opacity="1" stroke="#000000" stroke-opacity="1" stroke-width="3.2"/>
<circle clip-path="url(#clip522)" cx="925.131" cy="315.669" r="14.4" fill="#009af9" fill-rule="evenodd" fill-opacity="1" stroke="#000000" stroke-opacity="1" stroke-width="3.2"/>
<circle clip-path="url(#clip522)" cx="1229.75" cy="242.537" r="14.4" fill="#009af9" fill-rule="evenodd" fill-opacity="1" stroke="#000000" stroke-opacity="1" stroke-width="3.2"/>
<circle clip-path="url(#clip522)" cx="1549.5" cy="270.318" r="14.4" fill="#009af9" fill-rule="evenodd" fill-opacity="1" stroke="#000000" stroke-opacity="1" stroke-width="3.2"/>
<circle clip-path="url(#clip522)" cx="1822.72" cy="385.976" r="14.4" fill="#009af9" fill-rule="evenodd" fill-opacity="1" stroke="#000000" stroke-opacity="1" stroke-width="3.2"/>
<circle clip-path="url(#clip522)" cx="2018.01" cy="543.387" r="14.4" fill="#009af9" fill-rule="evenodd" fill-opacity="1" stroke="#000000" stroke-opacity="1" stroke-width="3.2"/>
<circle clip-path="url(#clip522)" cx="2140.52" cy="699.785" r="14.4" fill="#009af9" fill-rule="evenodd" fill-opacity="1" stroke="#000000" stroke-opacity="1" stroke-width="3.2"/>
<circle clip-path="url(#clip522)" cx="2211.18" cy="833.094" r="14.4" fill="#009af9" fill-rule="evenodd" fill-opacity="1" stroke="#000000" stroke-opacity="1" stroke-width="3.2"/>
<circle clip-path="url(#clip522)" cx="2249.97" cy="937.942" r="14.4" fill="#009af9" fill-rule="evenodd" fill-opacity="1" stroke="#000000" stroke-opacity="1" stroke-width="3.2"/>
<circle clip-path="url(#clip522)" cx="2270.69" cy="1016.98" r="14.4" fill="#009af9" fill-rule="evenodd" fill-opacity="1" stroke="#000000" stroke-opacity="1" stroke-width="3.2"/>
<circle clip-path="url(#clip522)" cx="2281.6" cy="1075.25" r="14.4" fill="#009af9" fill-rule="evenodd" fill-opacity="1" stroke="#000000" stroke-opacity="1" stroke-width="3.2"/>
<circle clip-path="url(#clip522)" cx="2287.3" cy="1117.72" r="14.4" fill="#009af9" fill-rule="evenodd" fill-opacity="1" stroke="#000000" stroke-opacity="1" stroke-width="3.2"/>
<circle clip-path="url(#clip522)" cx="2290.27" cy="1148.48" r="14.4" fill="#009af9" fill-rule="evenodd" fill-opacity="1" stroke="#000000" stroke-opacity="1" stroke-width="3.2"/>
<circle clip-path="url(#clip522)" cx="2291.81" cy="1170.7" r="14.4" fill="#009af9" fill-rule="evenodd" fill-opacity="1" stroke="#000000" stroke-opacity="1" stroke-width="3.2"/>
<circle clip-path="url(#clip522)" cx="2292.6" cy="1186.71" r="14.4" fill="#009af9" fill-rule="evenodd" fill-opacity="1" stroke="#000000" stroke-opacity="1" stroke-width="3.2"/>
<circle clip-path="url(#clip522)" cx="2293.02" cy="1198.25" r="14.4" fill="#009af9" fill-rule="evenodd" fill-opacity="1" stroke="#000000" stroke-opacity="1" stroke-width="3.2"/>
<circle clip-path="url(#clip522)" cx="2293.23" cy="1206.56" r="14.4" fill="#009af9" fill-rule="evenodd" fill-opacity="1" stroke="#000000" stroke-opacity="1" stroke-width="3.2"/>
<circle clip-path="url(#clip522)" cx="2293.34" cy="1212.53" r="14.4" fill="#009af9" fill-rule="evenodd" fill-opacity="1" stroke="#000000" stroke-opacity="1" stroke-width="3.2"/>
<circle clip-path="url(#clip522)" cx="2293.4" cy="1216.84" r="14.4" fill="#009af9" fill-rule="evenodd" fill-opacity="1" stroke="#000000" stroke-opacity="1" stroke-width="3.2"/>
<circle clip-path="url(#clip522)" cx="2293.43" cy="1219.94" r="14.4" fill="#009af9" fill-rule="evenodd" fill-opacity="1" stroke="#000000" stroke-opacity="1" stroke-width="3.2"/>
<circle clip-path="url(#clip522)" cx="2293.45" cy="1222.17" r="14.4" fill="#009af9" fill-rule="evenodd" fill-opacity="1" stroke="#000000" stroke-opacity="1" stroke-width="3.2"/>
<circle clip-path="url(#clip522)" cx="2293.45" cy="1223.77" r="14.4" fill="#009af9" fill-rule="evenodd" fill-opacity="1" stroke="#000000" stroke-opacity="1" stroke-width="3.2"/>
<circle clip-path="url(#clip522)" cx="2293.46" cy="1224.92" r="14.4" fill="#009af9" fill-rule="evenodd" fill-opacity="1" stroke="#000000" stroke-opacity="1" stroke-width="3.2"/>
<circle clip-path="url(#clip522)" cx="2293.46" cy="1225.76" r="14.4" fill="#009af9" fill-rule="evenodd" fill-opacity="1" stroke="#000000" stroke-opacity="1" stroke-width="3.2"/>
<circle clip-path="url(#clip522)" cx="2293.46" cy="1226.35" r="14.4" fill="#009af9" fill-rule="evenodd" fill-opacity="1" stroke="#000000" stroke-opacity="1" stroke-width="3.2"/>
<circle clip-path="url(#clip522)" cx="2293.46" cy="1226.78" r="14.4" fill="#009af9" fill-rule="evenodd" fill-opacity="1" stroke="#000000" stroke-opacity="1" stroke-width="3.2"/>
<circle clip-path="url(#clip522)" cx="2293.46" cy="1227.09" r="14.4" fill="#009af9" fill-rule="evenodd" fill-opacity="1" stroke="#000000" stroke-opacity="1" stroke-width="3.2"/>
<circle clip-path="url(#clip522)" cx="2293.46" cy="1227.32" r="14.4" fill="#009af9" fill-rule="evenodd" fill-opacity="1" stroke="#000000" stroke-opacity="1" stroke-width="3.2"/>
<circle clip-path="url(#clip522)" cx="2293.46" cy="1227.48" r="14.4" fill="#009af9" fill-rule="evenodd" fill-opacity="1" stroke="#000000" stroke-opacity="1" stroke-width="3.2"/>
<circle clip-path="url(#clip522)" cx="2293.46" cy="1227.59" r="14.4" fill="#009af9" fill-rule="evenodd" fill-opacity="1" stroke="#000000" stroke-opacity="1" stroke-width="3.2"/>
<circle clip-path="url(#clip522)" cx="2293.46" cy="1227.68" r="14.4" fill="#009af9" fill-rule="evenodd" fill-opacity="1" stroke="#000000" stroke-opacity="1" stroke-width="3.2"/>
<circle clip-path="url(#clip522)" cx="2293.46" cy="1227.74" r="14.4" fill="#009af9" fill-rule="evenodd" fill-opacity="1" stroke="#000000" stroke-opacity="1" stroke-width="3.2"/>
<circle clip-path="url(#clip522)" cx="2293.46" cy="1227.78" r="14.4" fill="#009af9" fill-rule="evenodd" fill-opacity="1" stroke="#000000" stroke-opacity="1" stroke-width="3.2"/>
<circle clip-path="url(#clip522)" cx="2293.46" cy="1227.81" r="14.4" fill="#009af9" fill-rule="evenodd" fill-opacity="1" stroke="#000000" stroke-opacity="1" stroke-width="3.2"/>
<circle clip-path="url(#clip522)" cx="2293.46" cy="1227.83" r="14.4" fill="#009af9" fill-rule="evenodd" fill-opacity="1" stroke="#000000" stroke-opacity="1" stroke-width="3.2"/>
<circle clip-path="url(#clip522)" cx="2293.46" cy="1227.85" r="14.4" fill="#009af9" fill-rule="evenodd" fill-opacity="1" stroke="#000000" stroke-opacity="1" stroke-width="3.2"/>
<circle clip-path="url(#clip522)" cx="2293.46" cy="1227.86" r="14.4" fill="#009af9" fill-rule="evenodd" fill-opacity="1" stroke="#000000" stroke-opacity="1" stroke-width="3.2"/>
<circle clip-path="url(#clip522)" cx="580.514" cy="1227.89" r="14.4" fill="#e26f46" fill-rule="evenodd" fill-opacity="1" stroke="#000000" stroke-opacity="1" stroke-width="3.2"/>
<circle clip-path="url(#clip522)" cx="580.514" cy="1227.89" r="14.4" fill="#e26f46" fill-rule="evenodd" fill-opacity="1" stroke="#000000" stroke-opacity="1" stroke-width="3.2"/>
<circle clip-path="url(#clip522)" cx="580.514" cy="1227.88" r="14.4" fill="#e26f46" fill-rule="evenodd" fill-opacity="1" stroke="#000000" stroke-opacity="1" stroke-width="3.2"/>
<circle clip-path="url(#clip522)" cx="580.514" cy="1227.88" r="14.4" fill="#e26f46" fill-rule="evenodd" fill-opacity="1" stroke="#000000" stroke-opacity="1" stroke-width="3.2"/>
<circle clip-path="url(#clip522)" cx="580.514" cy="1227.88" r="14.4" fill="#e26f46" fill-rule="evenodd" fill-opacity="1" stroke="#000000" stroke-opacity="1" stroke-width="3.2"/>
<circle clip-path="url(#clip522)" cx="580.514" cy="1227.88" r="14.4" fill="#e26f46" fill-rule="evenodd" fill-opacity="1" stroke="#000000" stroke-opacity="1" stroke-width="3.2"/>
<circle clip-path="url(#clip522)" cx="580.514" cy="1227.87" r="14.4" fill="#e26f46" fill-rule="evenodd" fill-opacity="1" stroke="#000000" stroke-opacity="1" stroke-width="3.2"/>
<circle clip-path="url(#clip522)" cx="580.514" cy="1227.86" r="14.4" fill="#e26f46" fill-rule="evenodd" fill-opacity="1" stroke="#000000" stroke-opacity="1" stroke-width="3.2"/>
<circle clip-path="url(#clip522)" cx="580.514" cy="1227.85" r="14.4" fill="#e26f46" fill-rule="evenodd" fill-opacity="1" stroke="#000000" stroke-opacity="1" stroke-width="3.2"/>
<circle clip-path="url(#clip522)" cx="580.514" cy="1227.84" r="14.4" fill="#e26f46" fill-rule="evenodd" fill-opacity="1" stroke="#000000" stroke-opacity="1" stroke-width="3.2"/>
<circle clip-path="url(#clip522)" cx="580.514" cy="1227.82" r="14.4" fill="#e26f46" fill-rule="evenodd" fill-opacity="1" stroke="#000000" stroke-opacity="1" stroke-width="3.2"/>
<circle clip-path="url(#clip522)" cx="580.514" cy="1227.79" r="14.4" fill="#e26f46" fill-rule="evenodd" fill-opacity="1" stroke="#000000" stroke-opacity="1" stroke-width="3.2"/>
<circle clip-path="url(#clip522)" cx="580.514" cy="1227.75" r="14.4" fill="#e26f46" fill-rule="evenodd" fill-opacity="1" stroke="#000000" stroke-opacity="1" stroke-width="3.2"/>
<circle clip-path="url(#clip522)" cx="580.514" cy="1227.7" r="14.4" fill="#e26f46" fill-rule="evenodd" fill-opacity="1" stroke="#000000" stroke-opacity="1" stroke-width="3.2"/>
<circle clip-path="url(#clip522)" cx="580.514" cy="1227.63" r="14.4" fill="#e26f46" fill-rule="evenodd" fill-opacity="1" stroke="#000000" stroke-opacity="1" stroke-width="3.2"/>
<circle clip-path="url(#clip522)" cx="580.514" cy="1227.52" r="14.4" fill="#e26f46" fill-rule="evenodd" fill-opacity="1" stroke="#000000" stroke-opacity="1" stroke-width="3.2"/>
<circle clip-path="url(#clip522)" cx="580.514" cy="1227.38" r="14.4" fill="#e26f46" fill-rule="evenodd" fill-opacity="1" stroke="#000000" stroke-opacity="1" stroke-width="3.2"/>
<circle clip-path="url(#clip522)" cx="580.514" cy="1227.18" r="14.4" fill="#e26f46" fill-rule="evenodd" fill-opacity="1" stroke="#000000" stroke-opacity="1" stroke-width="3.2"/>
<circle clip-path="url(#clip522)" cx="580.515" cy="1226.91" r="14.4" fill="#e26f46" fill-rule="evenodd" fill-opacity="1" stroke="#000000" stroke-opacity="1" stroke-width="3.2"/>
<circle clip-path="url(#clip522)" cx="580.515" cy="1226.52" r="14.4" fill="#e26f46" fill-rule="evenodd" fill-opacity="1" stroke="#000000" stroke-opacity="1" stroke-width="3.2"/>
<circle clip-path="url(#clip522)" cx="580.517" cy="1225.99" r="14.4" fill="#e26f46" fill-rule="evenodd" fill-opacity="1" stroke="#000000" stroke-opacity="1" stroke-width="3.2"/>
<circle clip-path="url(#clip522)" cx="580.519" cy="1225.25" r="14.4" fill="#e26f46" fill-rule="evenodd" fill-opacity="1" stroke="#000000" stroke-opacity="1" stroke-width="3.2"/>
<circle clip-path="url(#clip522)" cx="580.524" cy="1224.23" r="14.4" fill="#e26f46" fill-rule="evenodd" fill-opacity="1" stroke="#000000" stroke-opacity="1" stroke-width="3.2"/>
<circle clip-path="url(#clip522)" cx="580.534" cy="1222.8" r="14.4" fill="#e26f46" fill-rule="evenodd" fill-opacity="1" stroke="#000000" stroke-opacity="1" stroke-width="3.2"/>
<circle clip-path="url(#clip522)" cx="580.552" cy="1220.82" r="14.4" fill="#e26f46" fill-rule="evenodd" fill-opacity="1" stroke="#000000" stroke-opacity="1" stroke-width="3.2"/>
<circle clip-path="url(#clip522)" cx="580.587" cy="1218.07" r="14.4" fill="#e26f46" fill-rule="evenodd" fill-opacity="1" stroke="#000000" stroke-opacity="1" stroke-width="3.2"/>
<circle clip-path="url(#clip522)" cx="580.655" cy="1214.24" r="14.4" fill="#e26f46" fill-rule="evenodd" fill-opacity="1" stroke="#000000" stroke-opacity="1" stroke-width="3.2"/>
<circle clip-path="url(#clip522)" cx="580.787" cy="1208.93" r="14.4" fill="#e26f46" fill-rule="evenodd" fill-opacity="1" stroke="#000000" stroke-opacity="1" stroke-width="3.2"/>
<circle clip-path="url(#clip522)" cx="581.041" cy="1201.55" r="14.4" fill="#e26f46" fill-rule="evenodd" fill-opacity="1" stroke="#000000" stroke-opacity="1" stroke-width="3.2"/>
<circle clip-path="url(#clip522)" cx="581.531" cy="1191.3" r="14.4" fill="#e26f46" fill-rule="evenodd" fill-opacity="1" stroke="#000000" stroke-opacity="1" stroke-width="3.2"/>
<circle clip-path="url(#clip522)" cx="582.476" cy="1177.09" r="14.4" fill="#e26f46" fill-rule="evenodd" fill-opacity="1" stroke="#000000" stroke-opacity="1" stroke-width="3.2"/>
<circle clip-path="url(#clip522)" cx="584.296" cy="1157.4" r="14.4" fill="#e26f46" fill-rule="evenodd" fill-opacity="1" stroke="#000000" stroke-opacity="1" stroke-width="3.2"/>
<circle clip-path="url(#clip522)" cx="587.797" cy="1130.2" r="14.4" fill="#e26f46" fill-rule="evenodd" fill-opacity="1" stroke="#000000" stroke-opacity="1" stroke-width="3.2"/>
<circle clip-path="url(#clip522)" cx="594.503" cy="1092.84" r="14.4" fill="#e26f46" fill-rule="evenodd" fill-opacity="1" stroke="#000000" stroke-opacity="1" stroke-width="3.2"/>
<circle clip-path="url(#clip522)" cx="607.259" cy="1042.08" r="14.4" fill="#e26f46" fill-rule="evenodd" fill-opacity="1" stroke="#000000" stroke-opacity="1" stroke-width="3.2"/>
<circle clip-path="url(#clip522)" cx="631.193" cy="974.495" r="14.4" fill="#e26f46" fill-rule="evenodd" fill-opacity="1" stroke="#000000" stroke-opacity="1" stroke-width="3.2"/>
<circle clip-path="url(#clip522)" cx="674.978" cy="887.967" r="14.4" fill="#e26f46" fill-rule="evenodd" fill-opacity="1" stroke="#000000" stroke-opacity="1" stroke-width="3.2"/>
<circle clip-path="url(#clip522)" cx="751.488" cy="785.112" r="14.4" fill="#e26f46" fill-rule="evenodd" fill-opacity="1" stroke="#000000" stroke-opacity="1" stroke-width="3.2"/>
<circle clip-path="url(#clip522)" cx="875.044" cy="678.945" r="14.4" fill="#e26f46" fill-rule="evenodd" fill-opacity="1" stroke="#000000" stroke-opacity="1" stroke-width="3.2"/>
<circle clip-path="url(#clip522)" cx="1051.24" cy="596.487" r="14.4" fill="#e26f46" fill-rule="evenodd" fill-opacity="1" stroke="#000000" stroke-opacity="1" stroke-width="3.2"/>
<circle clip-path="url(#clip522)" cx="1262.56" cy="569.473" r="14.4" fill="#e26f46" fill-rule="evenodd" fill-opacity="1" stroke="#000000" stroke-opacity="1" stroke-width="3.2"/>
<circle clip-path="url(#clip522)" cx="1469.21" cy="610.468" r="14.4" fill="#e26f46" fill-rule="evenodd" fill-opacity="1" stroke="#000000" stroke-opacity="1" stroke-width="3.2"/>
<circle clip-path="url(#clip522)" cx="1634.64" cy="700.829" r="14.4" fill="#e26f46" fill-rule="evenodd" fill-opacity="1" stroke="#000000" stroke-opacity="1" stroke-width="3.2"/>
<circle clip-path="url(#clip522)" cx="1747.11" cy="808.099" r="14.4" fill="#e26f46" fill-rule="evenodd" fill-opacity="1" stroke="#000000" stroke-opacity="1" stroke-width="3.2"/>
<circle clip-path="url(#clip522)" cx="1815.35" cy="908.1" r="14.4" fill="#e26f46" fill-rule="evenodd" fill-opacity="1" stroke="#000000" stroke-opacity="1" stroke-width="3.2"/>
<circle clip-path="url(#clip522)" cx="1853.93" cy="990.551" r="14.4" fill="#e26f46" fill-rule="evenodd" fill-opacity="1" stroke="#000000" stroke-opacity="1" stroke-width="3.2"/>
<circle clip-path="url(#clip522)" cx="1874.88" cy="1054.27" r="14.4" fill="#e26f46" fill-rule="evenodd" fill-opacity="1" stroke="#000000" stroke-opacity="1" stroke-width="3.2"/>
<circle clip-path="url(#clip522)" cx="1886" cy="1101.86" r="14.4" fill="#e26f46" fill-rule="evenodd" fill-opacity="1" stroke="#000000" stroke-opacity="1" stroke-width="3.2"/>
<circle clip-path="url(#clip522)" cx="1891.84" cy="1136.79" r="14.4" fill="#e26f46" fill-rule="evenodd" fill-opacity="1" stroke="#000000" stroke-opacity="1" stroke-width="3.2"/>
<circle clip-path="url(#clip522)" cx="1894.88" cy="1162.17" r="14.4" fill="#e26f46" fill-rule="evenodd" fill-opacity="1" stroke="#000000" stroke-opacity="1" stroke-width="3.2"/>
<circle clip-path="url(#clip522)" cx="1896.46" cy="1180.54" r="14.4" fill="#e26f46" fill-rule="evenodd" fill-opacity="1" stroke="#000000" stroke-opacity="1" stroke-width="3.2"/>
<circle clip-path="url(#clip522)" cx="1897.28" cy="1193.79" r="14.4" fill="#e26f46" fill-rule="evenodd" fill-opacity="1" stroke="#000000" stroke-opacity="1" stroke-width="3.2"/>
<circle clip-path="url(#clip522)" cx="1897.71" cy="1203.34" r="14.4" fill="#e26f46" fill-rule="evenodd" fill-opacity="1" stroke="#000000" stroke-opacity="1" stroke-width="3.2"/>
<circle clip-path="url(#clip522)" cx="1897.93" cy="1210.22" r="14.4" fill="#e26f46" fill-rule="evenodd" fill-opacity="1" stroke="#000000" stroke-opacity="1" stroke-width="3.2"/>
<circle clip-path="url(#clip522)" cx="1898.04" cy="1215.17" r="14.4" fill="#e26f46" fill-rule="evenodd" fill-opacity="1" stroke="#000000" stroke-opacity="1" stroke-width="3.2"/>
<circle clip-path="url(#clip522)" cx="1898.1" cy="1218.74" r="14.4" fill="#e26f46" fill-rule="evenodd" fill-opacity="1" stroke="#000000" stroke-opacity="1" stroke-width="3.2"/>
<circle clip-path="url(#clip522)" cx="1898.13" cy="1221.3" r="14.4" fill="#e26f46" fill-rule="evenodd" fill-opacity="1" stroke="#000000" stroke-opacity="1" stroke-width="3.2"/>
<path clip-path="url(#clip520)" d="M327.526 248.629 L720.828 248.629 L720.828 93.1086 L327.526 93.1086  Z" fill="#ffffff" fill-rule="evenodd" fill-opacity="1"/>
<polyline clip-path="url(#clip520)" style="stroke:#000000; stroke-linecap:round; stroke-linejoin:round; stroke-width:4; stroke-opacity:1; fill:none" points="327.526,248.629 720.828,248.629 720.828,93.1086 327.526,93.1086 327.526,248.629 "/>
<circle clip-path="url(#clip520)" cx="420.64" cy="144.949" r="20.48" fill="#009af9" fill-rule="evenodd" fill-opacity="1" stroke="#000000" stroke-opacity="1" stroke-width="4.55111"/>
<path clip-path="url(#clip520)" d="M534.263 137.298 L534.263 141.28 Q532.457 140.284 530.629 139.798 Q528.823 139.289 526.971 139.289 Q522.828 139.289 520.536 141.928 Q518.244 144.544 518.244 149.289 Q518.244 154.034 520.536 156.673 Q522.828 159.289 526.971 159.289 Q528.823 159.289 530.629 158.803 Q532.457 158.293 534.263 157.298 L534.263 161.233 Q532.48 162.067 530.559 162.483 Q528.661 162.9 526.508 162.9 Q520.652 162.9 517.203 159.219 Q513.754 155.539 513.754 149.289 Q513.754 142.946 517.226 139.312 Q520.721 135.678 526.786 135.678 Q528.754 135.678 530.629 136.095 Q532.504 136.488 534.263 137.298 Z" fill="#000000" fill-rule="nonzero" fill-opacity="1" /><path clip-path="url(#clip520)" d="M541.67 136.303 L545.929 136.303 L545.929 162.229 L541.67 162.229 L541.67 136.303 M541.67 126.21 L545.929 126.21 L545.929 131.604 L541.67 131.604 L541.67 126.21 Z" fill="#000000" fill-rule="nonzero" fill-opacity="1" /><path clip-path="url(#clip520)" d="M569.865 140.284 Q569.147 139.868 568.29 139.682 Q567.457 139.474 566.439 139.474 Q562.828 139.474 560.883 141.835 Q558.962 144.173 558.962 148.571 L558.962 162.229 L554.679 162.229 L554.679 136.303 L558.962 136.303 L558.962 140.331 Q560.304 137.969 562.457 136.835 Q564.61 135.678 567.689 135.678 Q568.128 135.678 568.661 135.747 Q569.193 135.794 569.841 135.909 L569.865 140.284 Z" fill="#000000" fill-rule="nonzero" fill-opacity="1" /><path clip-path="url(#clip520)" d="M591.948 137.298 L591.948 141.28 Q590.142 140.284 588.314 139.798 Q586.508 139.289 584.656 139.289 Q580.513 139.289 578.221 141.928 Q575.929 144.544 575.929 149.289 Q575.929 154.034 578.221 156.673 Q580.513 159.289 584.656 159.289 Q586.508 159.289 588.314 158.803 Q590.142 158.293 591.948 157.298 L591.948 161.233 Q590.165 162.067 588.244 162.483 Q586.346 162.9 584.193 162.9 Q578.337 162.9 574.888 159.219 Q571.439 155.539 571.439 149.289 Q571.439 142.946 574.911 139.312 Q578.406 135.678 584.471 135.678 Q586.439 135.678 588.314 136.095 Q590.189 136.488 591.948 137.298 Z" fill="#000000" fill-rule="nonzero" fill-opacity="1" /><path clip-path="url(#clip520)" d="M598.915 151.997 L598.915 136.303 L603.175 136.303 L603.175 151.835 Q603.175 155.516 604.61 157.368 Q606.045 159.196 608.915 159.196 Q612.364 159.196 614.355 156.997 Q616.369 154.798 616.369 151.002 L616.369 136.303 L620.628 136.303 L620.628 162.229 L616.369 162.229 L616.369 158.247 Q614.818 160.608 612.758 161.766 Q610.721 162.9 608.012 162.9 Q603.545 162.9 601.23 160.122 Q598.915 157.344 598.915 151.997 M609.633 135.678 L609.633 135.678 Z" fill="#000000" fill-rule="nonzero" fill-opacity="1" /><path clip-path="url(#clip520)" d="M629.401 136.303 L633.66 136.303 L633.66 162.229 L629.401 162.229 L629.401 136.303 M629.401 126.21 L633.66 126.21 L633.66 131.604 L629.401 131.604 L629.401 126.21 Z" fill="#000000" fill-rule="nonzero" fill-opacity="1" /><path clip-path="url(#clip520)" d="M646.785 128.942 L646.785 136.303 L655.559 136.303 L655.559 139.613 L646.785 139.613 L646.785 153.687 Q646.785 156.858 647.642 157.761 Q648.522 158.664 651.184 158.664 L655.559 158.664 L655.559 162.229 L651.184 162.229 Q646.253 162.229 644.378 160.4 Q642.503 158.548 642.503 153.687 L642.503 139.613 L639.378 139.613 L639.378 136.303 L642.503 136.303 L642.503 128.942 L646.785 128.942 Z" fill="#000000" fill-rule="nonzero" fill-opacity="1" /><path clip-path="url(#clip520)" d="M677.642 158.293 L685.281 158.293 L685.281 131.928 L676.97 133.595 L676.97 129.335 L685.234 127.669 L689.91 127.669 L689.91 158.293 L697.549 158.293 L697.549 162.229 L677.642 162.229 L677.642 158.293 Z" fill="#000000" fill-rule="nonzero" fill-opacity="1" /><circle clip-path="url(#clip520)" cx="420.64" cy="196.789" r="20.48" fill="#e26f46" fill-rule="evenodd" fill-opacity="1" stroke="#000000" stroke-opacity="1" stroke-width="4.55111"/>
<path clip-path="url(#clip520)" d="M534.263 189.138 L534.263 193.12 Q532.457 192.124 530.629 191.638 Q528.823 191.129 526.971 191.129 Q522.828 191.129 520.536 193.768 Q518.244 196.384 518.244 201.129 Q518.244 205.874 520.536 208.513 Q522.828 211.129 526.971 211.129 Q528.823 211.129 530.629 210.643 Q532.457 210.133 534.263 209.138 L534.263 213.073 Q532.48 213.907 530.559 214.323 Q528.661 214.74 526.508 214.74 Q520.652 214.74 517.203 211.059 Q513.754 207.379 513.754 201.129 Q513.754 194.786 517.226 191.152 Q520.721 187.518 526.786 187.518 Q528.754 187.518 530.629 187.935 Q532.504 188.328 534.263 189.138 Z" fill="#000000" fill-rule="nonzero" fill-opacity="1" /><path clip-path="url(#clip520)" d="M541.67 188.143 L545.929 188.143 L545.929 214.069 L541.67 214.069 L541.67 188.143 M541.67 178.05 L545.929 178.05 L545.929 183.444 L541.67 183.444 L541.67 178.05 Z" fill="#000000" fill-rule="nonzero" fill-opacity="1" /><path clip-path="url(#clip520)" d="M569.865 192.124 Q569.147 191.708 568.29 191.522 Q567.457 191.314 566.439 191.314 Q562.828 191.314 560.883 193.675 Q558.962 196.013 558.962 200.411 L558.962 214.069 L554.679 214.069 L554.679 188.143 L558.962 188.143 L558.962 192.171 Q560.304 189.809 562.457 188.675 Q564.61 187.518 567.689 187.518 Q568.128 187.518 568.661 187.587 Q569.193 187.634 569.841 187.749 L569.865 192.124 Z" fill="#000000" fill-rule="nonzero" fill-opacity="1" /><path clip-path="url(#clip520)" d="M591.948 189.138 L591.948 193.12 Q590.142 192.124 588.314 191.638 Q586.508 191.129 584.656 191.129 Q580.513 191.129 578.221 193.768 Q575.929 196.384 575.929 201.129 Q575.929 205.874 578.221 208.513 Q580.513 211.129 584.656 211.129 Q586.508 211.129 588.314 210.643 Q590.142 210.133 591.948 209.138 L591.948 213.073 Q590.165 213.907 588.244 214.323 Q586.346 214.74 584.193 214.74 Q578.337 214.74 574.888 211.059 Q571.439 207.379 571.439 201.129 Q571.439 194.786 574.911 191.152 Q578.406 187.518 584.471 187.518 Q586.439 187.518 588.314 187.935 Q590.189 188.328 591.948 189.138 Z" fill="#000000" fill-rule="nonzero" fill-opacity="1" /><path clip-path="url(#clip520)" d="M598.915 203.837 L598.915 188.143 L603.175 188.143 L603.175 203.675 Q603.175 207.356 604.61 209.208 Q606.045 211.036 608.915 211.036 Q612.364 211.036 614.355 208.837 Q616.369 206.638 616.369 202.842 L616.369 188.143 L620.628 188.143 L620.628 214.069 L616.369 214.069 L616.369 210.087 Q614.818 212.448 612.758 213.606 Q610.721 214.74 608.012 214.74 Q603.545 214.74 601.23 211.962 Q598.915 209.184 598.915 203.837 M609.633 187.518 L609.633 187.518 Z" fill="#000000" fill-rule="nonzero" fill-opacity="1" /><path clip-path="url(#clip520)" d="M629.401 188.143 L633.66 188.143 L633.66 214.069 L629.401 214.069 L629.401 188.143 M629.401 178.05 L633.66 178.05 L633.66 183.444 L629.401 183.444 L629.401 178.05 Z" fill="#000000" fill-rule="nonzero" fill-opacity="1" /><path clip-path="url(#clip520)" d="M646.785 180.782 L646.785 188.143 L655.559 188.143 L655.559 191.453 L646.785 191.453 L646.785 205.527 Q646.785 208.698 647.642 209.601 Q648.522 210.504 651.184 210.504 L655.559 210.504 L655.559 214.069 L651.184 214.069 Q646.253 214.069 644.378 212.24 Q642.503 210.388 642.503 205.527 L642.503 191.453 L639.378 191.453 L639.378 188.143 L642.503 188.143 L642.503 180.782 L646.785 180.782 Z" fill="#000000" fill-rule="nonzero" fill-opacity="1" /><path clip-path="url(#clip520)" d="M680.859 210.133 L697.179 210.133 L697.179 214.069 L675.234 214.069 L675.234 210.133 Q677.896 207.379 682.48 202.749 Q687.086 198.096 688.267 196.754 Q690.512 194.231 691.392 192.495 Q692.294 190.735 692.294 189.046 Q692.294 186.291 690.35 184.555 Q688.429 182.819 685.327 182.819 Q683.128 182.819 680.674 183.583 Q678.244 184.347 675.466 185.897 L675.466 181.175 Q678.29 180.041 680.744 179.462 Q683.197 178.884 685.234 178.884 Q690.605 178.884 693.799 181.569 Q696.993 184.254 696.993 188.745 Q696.993 190.874 696.183 192.796 Q695.396 194.694 693.29 197.286 Q692.711 197.958 689.609 201.175 Q686.507 204.37 680.859 210.133 Z" fill="#000000" fill-rule="nonzero" fill-opacity="1" /></svg>
