<?xml version="1.0" encoding="utf-8"?>
<svg xmlns="http://www.w3.org/2000/svg" xmlns:xlink="http://www.w3.org/1999/xlink" width="600" height="400" viewBox="0 0 2400 1600">
<defs>
  <clipPath id="clip650">
    <rect x="0" y="0" width="2400" height="1600"/>
  </clipPath>
</defs>
<path clip-path="url(#clip650)" d="M0 1600 L2400 1600 L2400 8.88178e-14 L0 8.88178e-14  Z" fill="#ffffff" fill-rule="evenodd" fill-opacity="1"/>
<defs>
  <clipPath id="clip651">
    <rect x="480" y="0" width="1681" height="1600"/>
  </clipPath>
</defs>
<path clip-path="url(#clip650)" d="M257.69 1423.18 L2352.76 1423.18 L2352.76 47.2441 L257.69 47.2441  Z" fill="#ffffff" fill-rule="evenodd" fill-opacity="1"/>
<defs>
  <clipPath id="clip652">
    <rect x="257" y="47" width="2096" height="1377"/>
  </clipPath>
</defs>
<polyline clip-path="url(#clip652)" style="stroke:#000000; stroke-linecap:round; stroke-linejoin:round; stroke-width:2; stroke-opacity:0.1; fill:none" points="316.984,47.2441 316.984,1423.18 "/>
<polyline clip-path="url(#clip652)" style="stroke:#000000; stroke-linecap:round; stroke-linejoin:round; stroke-width:2; stroke-opacity:0.1; fill:none" points="766.193,47.2441 766.193,1423.18 "/>
<polyline clip-path="url(#clip652)" style="stroke:#000000; stroke-linecap:round; stroke-linejoin:round; stroke-width:2; stroke-opacity:0.1; fill:none" points="1215.4,47.2441 1215.4,1423.18 "/>
<polyline clip-path="url(#clip652)" style="stroke:#000000; stroke-linecap:round; stroke-linejoin:round; stroke-width:2; stroke-opacity:0.1; fill:none" points="1664.61,47.2441 1664.61,1423.18 "/>
<polyline clip-path="url(#clip652)" style="stroke:#000000; stroke-linecap:round; stroke-linejoin:round; stroke-width:2; stroke-opacity:0.1; fill:none" points="2113.82,47.2441 2113.82,1423.18 "/>
<polyline clip-path="url(#clip652)" style="stroke:#000000; stroke-linecap:round; stroke-linejoin:round; stroke-width:2; stroke-opacity:0.1; fill:none" points="257.69,190.85 2352.76,190.85 "/>
<polyline clip-path="url(#clip652)" style="stroke:#000000; stroke-linecap:round; stroke-linejoin:round; stroke-width:2; stroke-opacity:0.1; fill:none" points="257.69,370.533 2352.76,370.533 "/>
<polyline clip-path="url(#clip652)" style="stroke:#000000; stroke-linecap:round; stroke-linejoin:round; stroke-width:2; stroke-opacity:0.1; fill:none" points="257.69,550.216 2352.76,550.216 "/>
<polyline clip-path="url(#clip652)" style="stroke:#000000; stroke-linecap:round; stroke-linejoin:round; stroke-width:2; stroke-opacity:0.1; fill:none" points="257.69,729.9 2352.76,729.9 "/>
<polyline clip-path="url(#clip652)" style="stroke:#000000; stroke-linecap:round; stroke-linejoin:round; stroke-width:2; stroke-opacity:0.1; fill:none" points="257.69,909.583 2352.76,909.583 "/>
<polyline clip-path="url(#clip652)" style="stroke:#000000; stroke-linecap:round; stroke-linejoin:round; stroke-width:2; stroke-opacity:0.1; fill:none" points="257.69,1089.27 2352.76,1089.27 "/>
<polyline clip-path="url(#clip652)" style="stroke:#000000; stroke-linecap:round; stroke-linejoin:round; stroke-width:2; stroke-opacity:0.1; fill:none" points="257.69,1268.95 2352.76,1268.95 "/>
<polyline clip-path="url(#clip650)" style="stroke:#000000; stroke-linecap:round; stroke-linejoin:round; stroke-width:4; stroke-opacity:1; fill:none" points="257.69,1423.18 2352.76,1423.18 "/>
<polyline clip-path="url(#clip650)" style="stroke:#000000; stroke-linecap:round; stroke-linejoin:round; stroke-width:4; stroke-opacity:1; fill:none" points="316.984,1423.18 316.984,1404.28 "/>
<polyline clip-path="url(#clip650)" style="stroke:#000000; stroke-linecap:round; stroke-linejoin:round; stroke-width:4; stroke-opacity:1; fill:none" points="766.193,1423.18 766.193,1404.28 "/>
<polyline clip-path="url(#clip650)" style="stroke:#000000; stroke-linecap:round; stroke-linejoin:round; stroke-width:4; stroke-opacity:1; fill:none" points="1215.4,1423.18 1215.4,1404.28 "/>
<polyline clip-path="url(#clip650)" style="stroke:#000000; stroke-linecap:round; stroke-linejoin:round; stroke-width:4; stroke-opacity:1; fill:none" points="1664.61,1423.18 1664.61,1404.28 "/>
<polyline clip-path="url(#clip650)" style="stroke:#000000; stroke-linecap:round; stroke-linejoin:round; stroke-width:4; stroke-opacity:1; fill:none" points="2113.82,1423.18 2113.82,1404.28 "/>
<path clip-path="url(#clip650)" d="M294.369 1454.1 Q290.758 1454.1 288.929 1457.66 Q287.124 1461.2 287.124 1468.33 Q287.124 1475.44 288.929 1479.01 Q290.758 1482.55 294.369 1482.55 Q298.003 1482.55 299.809 1479.01 Q301.637 1475.44 301.637 1468.33 Q301.637 1461.2 299.809 1457.66 Q298.003 1454.1 294.369 1454.1 M294.369 1450.39 Q300.179 1450.39 303.235 1455 Q306.313 1459.58 306.313 1468.33 Q306.313 1477.06 303.235 1481.67 Q300.179 1486.25 294.369 1486.25 Q288.559 1486.25 285.48 1481.67 Q282.424 1477.06 282.424 1468.33 Q282.424 1459.58 285.48 1455 Q288.559 1450.39 294.369 1450.39 Z" fill="#000000" fill-rule="nonzero" fill-opacity="1" /><path clip-path="url(#clip650)" d="M314.531 1479.7 L319.415 1479.7 L319.415 1485.58 L314.531 1485.58 L314.531 1479.7 Z" fill="#000000" fill-rule="nonzero" fill-opacity="1" /><path clip-path="url(#clip650)" d="M339.6 1454.1 Q335.989 1454.1 334.16 1457.66 Q332.355 1461.2 332.355 1468.33 Q332.355 1475.44 334.16 1479.01 Q335.989 1482.55 339.6 1482.55 Q343.234 1482.55 345.04 1479.01 Q346.869 1475.44 346.869 1468.33 Q346.869 1461.2 345.04 1457.66 Q343.234 1454.1 339.6 1454.1 M339.6 1450.39 Q345.41 1450.39 348.466 1455 Q351.544 1459.58 351.544 1468.33 Q351.544 1477.06 348.466 1481.67 Q345.41 1486.25 339.6 1486.25 Q333.79 1486.25 330.711 1481.67 Q327.656 1477.06 327.656 1468.33 Q327.656 1459.58 330.711 1455 Q333.79 1450.39 339.6 1450.39 Z" fill="#000000" fill-rule="nonzero" fill-opacity="1" /><path clip-path="url(#clip650)" d="M744.075 1454.1 Q740.464 1454.1 738.635 1457.66 Q736.83 1461.2 736.83 1468.33 Q736.83 1475.44 738.635 1479.01 Q740.464 1482.55 744.075 1482.55 Q747.709 1482.55 749.515 1479.01 Q751.343 1475.44 751.343 1468.33 Q751.343 1461.2 749.515 1457.66 Q747.709 1454.1 744.075 1454.1 M744.075 1450.39 Q749.885 1450.39 752.941 1455 Q756.019 1459.58 756.019 1468.33 Q756.019 1477.06 752.941 1481.67 Q749.885 1486.25 744.075 1486.25 Q738.265 1486.25 735.186 1481.67 Q732.131 1477.06 732.131 1468.33 Q732.131 1459.58 735.186 1455 Q738.265 1450.39 744.075 1450.39 Z" fill="#000000" fill-rule="nonzero" fill-opacity="1" /><path clip-path="url(#clip650)" d="M764.237 1479.7 L769.121 1479.7 L769.121 1485.58 L764.237 1485.58 L764.237 1479.7 Z" fill="#000000" fill-rule="nonzero" fill-opacity="1" /><path clip-path="url(#clip650)" d="M779.352 1451.02 L797.709 1451.02 L797.709 1454.96 L783.635 1454.96 L783.635 1463.43 Q784.653 1463.08 785.672 1462.92 Q786.69 1462.73 787.709 1462.73 Q793.496 1462.73 796.876 1465.9 Q800.255 1469.08 800.255 1474.49 Q800.255 1480.07 796.783 1483.17 Q793.311 1486.25 786.991 1486.25 Q784.815 1486.25 782.547 1485.88 Q780.302 1485.51 777.894 1484.77 L777.894 1480.07 Q779.977 1481.2 782.2 1481.76 Q784.422 1482.32 786.899 1482.32 Q790.903 1482.32 793.241 1480.21 Q795.579 1478.1 795.579 1474.49 Q795.579 1470.88 793.241 1468.77 Q790.903 1466.67 786.899 1466.67 Q785.024 1466.67 783.149 1467.08 Q781.297 1467.5 779.352 1468.38 L779.352 1451.02 Z" fill="#000000" fill-rule="nonzero" fill-opacity="1" /><path clip-path="url(#clip650)" d="M1182.55 1481.64 L1190.19 1481.64 L1190.19 1455.28 L1181.88 1456.95 L1181.88 1452.69 L1190.15 1451.02 L1194.82 1451.02 L1194.82 1481.64 L1202.46 1481.64 L1202.46 1485.58 L1182.55 1485.58 L1182.55 1481.64 Z" fill="#000000" fill-rule="nonzero" fill-opacity="1" /><path clip-path="url(#clip650)" d="M1211.91 1479.7 L1216.79 1479.7 L1216.79 1485.58 L1211.91 1485.58 L1211.91 1479.7 Z" fill="#000000" fill-rule="nonzero" fill-opacity="1" /><path clip-path="url(#clip650)" d="M1236.98 1454.1 Q1233.36 1454.1 1231.54 1457.66 Q1229.73 1461.2 1229.73 1468.33 Q1229.73 1475.44 1231.54 1479.01 Q1233.36 1482.55 1236.98 1482.55 Q1240.61 1482.55 1242.41 1479.01 Q1244.24 1475.44 1244.24 1468.33 Q1244.24 1461.2 1242.41 1457.66 Q1240.61 1454.1 1236.98 1454.1 M1236.98 1450.39 Q1242.79 1450.39 1245.84 1455 Q1248.92 1459.58 1248.92 1468.33 Q1248.92 1477.06 1245.84 1481.67 Q1242.79 1486.25 1236.98 1486.25 Q1231.17 1486.25 1228.09 1481.67 Q1225.03 1477.06 1225.03 1468.33 Q1225.03 1459.58 1228.09 1455 Q1231.17 1450.39 1236.98 1450.39 Z" fill="#000000" fill-rule="nonzero" fill-opacity="1" /><path clip-path="url(#clip650)" d="M1632.26 1481.64 L1639.9 1481.64 L1639.9 1455.28 L1631.59 1456.95 L1631.59 1452.69 L1639.85 1451.02 L1644.53 1451.02 L1644.53 1481.64 L1652.17 1481.64 L1652.17 1485.58 L1632.26 1485.58 L1632.26 1481.64 Z" fill="#000000" fill-rule="nonzero" fill-opacity="1" /><path clip-path="url(#clip650)" d="M1661.61 1479.7 L1666.5 1479.7 L1666.5 1485.58 L1661.61 1485.58 L1661.61 1479.7 Z" fill="#000000" fill-rule="nonzero" fill-opacity="1" /><path clip-path="url(#clip650)" d="M1676.73 1451.02 L1695.08 1451.02 L1695.08 1454.96 L1681.01 1454.96 L1681.01 1463.43 Q1682.03 1463.08 1683.05 1462.92 Q1684.07 1462.73 1685.08 1462.73 Q1690.87 1462.73 1694.25 1465.9 Q1697.63 1469.08 1697.63 1474.49 Q1697.63 1480.07 1694.16 1483.17 Q1690.69 1486.25 1684.37 1486.25 Q1682.19 1486.25 1679.92 1485.88 Q1677.68 1485.51 1675.27 1484.77 L1675.27 1480.07 Q1677.35 1481.2 1679.57 1481.76 Q1681.8 1482.32 1684.27 1482.32 Q1688.28 1482.32 1690.62 1480.21 Q1692.95 1478.1 1692.95 1474.49 Q1692.95 1470.88 1690.62 1468.77 Q1688.28 1466.67 1684.27 1466.67 Q1682.4 1466.67 1680.52 1467.08 Q1678.67 1467.5 1676.73 1468.38 L1676.73 1451.02 Z" fill="#000000" fill-rule="nonzero" fill-opacity="1" /><path clip-path="url(#clip650)" d="M2085.06 1481.64 L2101.38 1481.64 L2101.38 1485.58 L2079.43 1485.58 L2079.43 1481.64 Q2082.09 1478.89 2086.68 1474.26 Q2091.28 1469.61 2092.46 1468.27 Q2094.71 1465.74 2095.59 1464.01 Q2096.49 1462.25 2096.49 1460.56 Q2096.49 1457.8 2094.55 1456.07 Q2092.63 1454.33 2089.52 1454.33 Q2087.33 1454.33 2084.87 1455.09 Q2082.44 1455.86 2079.66 1457.41 L2079.66 1452.69 Q2082.49 1451.55 2084.94 1450.97 Q2087.39 1450.39 2089.43 1450.39 Q2094.8 1450.39 2098 1453.08 Q2101.19 1455.77 2101.19 1460.26 Q2101.19 1462.39 2100.38 1464.31 Q2099.59 1466.2 2097.49 1468.8 Q2096.91 1469.47 2093.81 1472.69 Q2090.7 1475.88 2085.06 1481.64 Z" fill="#000000" fill-rule="nonzero" fill-opacity="1" /><path clip-path="url(#clip650)" d="M2111.19 1479.7 L2116.07 1479.7 L2116.07 1485.58 L2111.19 1485.58 L2111.19 1479.7 Z" fill="#000000" fill-rule="nonzero" fill-opacity="1" /><path clip-path="url(#clip650)" d="M2136.26 1454.1 Q2132.65 1454.1 2130.82 1457.66 Q2129.01 1461.2 2129.01 1468.33 Q2129.01 1475.44 2130.82 1479.01 Q2132.65 1482.55 2136.26 1482.55 Q2139.89 1482.55 2141.7 1479.01 Q2143.53 1475.44 2143.53 1468.33 Q2143.53 1461.2 2141.7 1457.66 Q2139.89 1454.1 2136.26 1454.1 M2136.26 1450.39 Q2142.07 1450.39 2145.13 1455 Q2148.2 1459.58 2148.2 1468.33 Q2148.2 1477.06 2145.13 1481.67 Q2142.07 1486.25 2136.26 1486.25 Q2130.45 1486.25 2127.37 1481.67 Q2124.32 1477.06 2124.32 1468.33 Q2124.32 1459.58 2127.37 1455 Q2130.45 1450.39 2136.26 1450.39 Z" fill="#000000" fill-rule="nonzero" fill-opacity="1" /><path clip-path="url(#clip650)" d="M1201.67 1545.76 Q1203.74 1546.46 1205.68 1548.76 Q1207.65 1551.05 1209.63 1555.06 L1216.15 1568.04 L1209.24 1568.04 L1203.16 1555.85 Q1200.81 1551.08 1198.58 1549.52 Q1196.39 1547.96 1192.57 1547.96 L1185.56 1547.96 L1185.56 1568.04 L1179.13 1568.04 L1179.13 1520.52 L1193.65 1520.52 Q1201.8 1520.52 1205.81 1523.93 Q1209.82 1527.34 1209.82 1534.21 Q1209.82 1538.7 1207.72 1541.66 Q1205.65 1544.62 1201.67 1545.76 M1185.56 1525.81 L1185.56 1542.68 L1193.65 1542.68 Q1198.3 1542.68 1200.65 1540.54 Q1203.04 1538.38 1203.04 1534.21 Q1203.04 1530.04 1200.65 1527.94 Q1198.3 1525.81 1193.65 1525.81 L1185.56 1525.81 Z" fill="#000000" fill-rule="nonzero" fill-opacity="1" /><path clip-path="url(#clip650)" d="M1251.74 1548.76 L1251.74 1551.62 L1224.81 1551.62 Q1225.19 1557.67 1228.44 1560.85 Q1231.72 1564 1237.54 1564 Q1240.91 1564 1244.06 1563.17 Q1247.25 1562.35 1250.37 1560.69 L1250.37 1566.23 Q1247.22 1567.57 1243.91 1568.27 Q1240.6 1568.97 1237.19 1568.97 Q1228.66 1568.97 1223.66 1564 Q1218.7 1559.04 1218.7 1550.57 Q1218.7 1541.82 1223.41 1536.69 Q1228.15 1531.54 1236.17 1531.54 Q1243.36 1531.54 1247.53 1536.18 Q1251.74 1540.8 1251.74 1548.76 M1245.88 1547.04 Q1245.82 1542.23 1243.17 1539.37 Q1240.56 1536.5 1236.23 1536.5 Q1231.33 1536.5 1228.37 1539.27 Q1225.44 1542.04 1225 1547.07 L1245.88 1547.04 Z" fill="#000000" fill-rule="nonzero" fill-opacity="1" /><path clip-path="url(#clip650)" d="M1279.59 1520.52 L1316.92 1520.52 L1316.92 1525.43 L1286.87 1562.63 L1317.65 1562.63 L1317.65 1568.04 L1278.85 1568.04 L1278.85 1563.14 L1308.9 1525.93 L1279.59 1525.93 L1279.59 1520.52 Z" fill="#000000" fill-rule="nonzero" fill-opacity="1" /><path clip-path="url(#clip650)" d="M1357.85 1520.52 L1363.26 1520.52 L1346.71 1574.09 L1341.3 1574.09 L1357.85 1520.52 Z" fill="#000000" fill-rule="nonzero" fill-opacity="1" /><path clip-path="url(#clip650)" d="M1431.31 1562.38 L1431.31 1568.04 L1412.21 1568.04 L1412.21 1562.38 Q1417.85 1559.29 1421 1554.01 Q1424.15 1548.72 1424.15 1542.29 Q1424.15 1534.66 1419.95 1530.04 Q1415.75 1525.43 1408.87 1525.43 Q1402 1525.43 1397.76 1530.07 Q1393.56 1534.69 1393.56 1542.29 Q1393.56 1548.72 1396.71 1554.01 Q1399.9 1559.29 1405.56 1562.38 L1405.56 1568.04 L1386.47 1568.04 L1386.47 1562.38 L1396.62 1562.38 Q1391.59 1557.95 1389.27 1553.21 Q1386.97 1548.47 1386.97 1542.61 Q1386.97 1532.49 1393.09 1526.22 Q1399.16 1519.95 1408.87 1519.95 Q1418.52 1519.95 1424.66 1526.22 Q1430.77 1532.46 1430.77 1542.29 Q1430.77 1548.47 1428.51 1553.18 Q1426.25 1557.89 1421.13 1562.38 L1431.31 1562.38 Z" fill="#000000" fill-rule="nonzero" fill-opacity="1" /><polyline clip-path="url(#clip650)" style="stroke:#000000; stroke-linecap:round; stroke-linejoin:round; stroke-width:4; stroke-opacity:1; fill:none" points="257.69,47.2441 257.69,1423.18 "/>
<polyline clip-path="url(#clip650)" style="stroke:#000000; stroke-linecap:round; stroke-linejoin:round; stroke-width:4; stroke-opacity:1; fill:none" points="257.69,190.85 276.588,190.85 "/>
<polyline clip-path="url(#clip650)" style="stroke:#000000; stroke-linecap:round; stroke-linejoin:round; stroke-width:4; stroke-opacity:1; fill:none" points="257.69,370.533 276.588,370.533 "/>
<polyline clip-path="url(#clip650)" style="stroke:#000000; stroke-linecap:round; stroke-linejoin:round; stroke-width:4; stroke-opacity:1; fill:none" points="257.69,550.216 276.588,550.216 "/>
<polyline clip-path="url(#clip650)" style="stroke:#000000; stroke-linecap:round; stroke-linejoin:round; stroke-width:4; stroke-opacity:1; fill:none" points="257.69,729.9 276.588,729.9 "/>
<polyline clip-path="url(#clip650)" style="stroke:#000000; stroke-linecap:round; stroke-linejoin:round; stroke-width:4; stroke-opacity:1; fill:none" points="257.69,909.583 276.588,909.583 "/>
<polyline clip-path="url(#clip650)" style="stroke:#000000; stroke-linecap:round; stroke-linejoin:round; stroke-width:4; stroke-opacity:1; fill:none" points="257.69,1089.27 276.588,1089.27 "/>
<polyline clip-path="url(#clip650)" style="stroke:#000000; stroke-linecap:round; stroke-linejoin:round; stroke-width:4; stroke-opacity:1; fill:none" points="257.69,1268.95 276.588,1268.95 "/>
<path clip-path="url(#clip650)" d="M114.746 191.301 L144.422 191.301 L144.422 195.236 L114.746 195.236 L114.746 191.301 Z" fill="#000000" fill-rule="nonzero" fill-opacity="1" /><path clip-path="url(#clip650)" d="M155.325 204.195 L162.964 204.195 L162.964 177.829 L154.653 179.496 L154.653 175.236 L162.917 173.57 L167.593 173.57 L167.593 204.195 L175.232 204.195 L175.232 208.13 L155.325 208.13 L155.325 204.195 Z" fill="#000000" fill-rule="nonzero" fill-opacity="1" /><path clip-path="url(#clip650)" d="M184.676 202.25 L189.561 202.25 L189.561 208.13 L184.676 208.13 L184.676 202.25 Z" fill="#000000" fill-rule="nonzero" fill-opacity="1" /><path clip-path="url(#clip650)" d="M209.746 176.648 Q206.135 176.648 204.306 180.213 Q202.5 183.755 202.5 190.884 Q202.5 197.991 204.306 201.556 Q206.135 205.097 209.746 205.097 Q213.38 205.097 215.186 201.556 Q217.014 197.991 217.014 190.884 Q217.014 183.755 215.186 180.213 Q213.38 176.648 209.746 176.648 M209.746 172.945 Q215.556 172.945 218.611 177.551 Q221.69 182.135 221.69 190.884 Q221.69 199.611 218.611 204.218 Q215.556 208.801 209.746 208.801 Q203.936 208.801 200.857 204.218 Q197.801 199.611 197.801 190.884 Q197.801 182.135 200.857 177.551 Q203.936 172.945 209.746 172.945 Z" fill="#000000" fill-rule="nonzero" fill-opacity="1" /><path clip-path="url(#clip650)" d="M114.839 370.984 L144.515 370.984 L144.515 374.92 L114.839 374.92 L114.839 370.984 Z" fill="#000000" fill-rule="nonzero" fill-opacity="1" /><path clip-path="url(#clip650)" d="M164.607 356.332 Q160.996 356.332 159.167 359.897 Q157.362 363.438 157.362 370.568 Q157.362 377.674 159.167 381.239 Q160.996 384.781 164.607 384.781 Q168.241 384.781 170.047 381.239 Q171.876 377.674 171.876 370.568 Q171.876 363.438 170.047 359.897 Q168.241 356.332 164.607 356.332 M164.607 352.628 Q170.417 352.628 173.473 357.235 Q176.551 361.818 176.551 370.568 Q176.551 379.295 173.473 383.901 Q170.417 388.484 164.607 388.484 Q158.797 388.484 155.718 383.901 Q152.663 379.295 152.663 370.568 Q152.663 361.818 155.718 357.235 Q158.797 352.628 164.607 352.628 Z" fill="#000000" fill-rule="nonzero" fill-opacity="1" /><path clip-path="url(#clip650)" d="M184.769 381.934 L189.653 381.934 L189.653 387.813 L184.769 387.813 L184.769 381.934 Z" fill="#000000" fill-rule="nonzero" fill-opacity="1" /><path clip-path="url(#clip650)" d="M209.838 371.401 Q206.505 371.401 204.584 373.184 Q202.686 374.966 202.686 378.091 Q202.686 381.216 204.584 382.998 Q206.505 384.781 209.838 384.781 Q213.172 384.781 215.093 382.998 Q217.014 381.193 217.014 378.091 Q217.014 374.966 215.093 373.184 Q213.195 371.401 209.838 371.401 M205.162 369.41 Q202.153 368.67 200.463 366.61 Q198.797 364.549 198.797 361.586 Q198.797 357.443 201.737 355.036 Q204.699 352.628 209.838 352.628 Q215 352.628 217.94 355.036 Q220.88 357.443 220.88 361.586 Q220.88 364.549 219.19 366.61 Q217.523 368.67 214.537 369.41 Q217.917 370.197 219.792 372.489 Q221.69 374.781 221.69 378.091 Q221.69 383.114 218.611 385.799 Q215.556 388.484 209.838 388.484 Q204.121 388.484 201.042 385.799 Q197.987 383.114 197.987 378.091 Q197.987 374.781 199.885 372.489 Q201.783 370.197 205.162 369.41 M203.449 362.026 Q203.449 364.711 205.116 366.216 Q206.806 367.721 209.838 367.721 Q212.848 367.721 214.537 366.216 Q216.25 364.711 216.25 362.026 Q216.25 359.341 214.537 357.836 Q212.848 356.332 209.838 356.332 Q206.806 356.332 205.116 357.836 Q203.449 359.341 203.449 362.026 Z" fill="#000000" fill-rule="nonzero" fill-opacity="1" /><path clip-path="url(#clip650)" d="M114.584 550.668 L144.26 550.668 L144.26 554.603 L114.584 554.603 L114.584 550.668 Z" fill="#000000" fill-rule="nonzero" fill-opacity="1" /><path clip-path="url(#clip650)" d="M164.352 536.015 Q160.741 536.015 158.913 539.58 Q157.107 543.122 157.107 550.251 Q157.107 557.358 158.913 560.922 Q160.741 564.464 164.352 564.464 Q167.987 564.464 169.792 560.922 Q171.621 557.358 171.621 550.251 Q171.621 543.122 169.792 539.58 Q167.987 536.015 164.352 536.015 M164.352 532.311 Q170.163 532.311 173.218 536.918 Q176.297 541.501 176.297 550.251 Q176.297 558.978 173.218 563.584 Q170.163 568.168 164.352 568.168 Q158.542 568.168 155.464 563.584 Q152.408 558.978 152.408 550.251 Q152.408 541.501 155.464 536.918 Q158.542 532.311 164.352 532.311 Z" fill="#000000" fill-rule="nonzero" fill-opacity="1" /><path clip-path="url(#clip650)" d="M184.514 561.617 L189.399 561.617 L189.399 567.496 L184.514 567.496 L184.514 561.617 Z" fill="#000000" fill-rule="nonzero" fill-opacity="1" /><path clip-path="url(#clip650)" d="M210.162 548.353 Q207.014 548.353 205.162 550.506 Q203.334 552.659 203.334 556.409 Q203.334 560.135 205.162 562.311 Q207.014 564.464 210.162 564.464 Q213.311 564.464 215.139 562.311 Q216.991 560.135 216.991 556.409 Q216.991 552.659 215.139 550.506 Q213.311 548.353 210.162 548.353 M219.445 533.7 L219.445 537.96 Q217.686 537.126 215.88 536.686 Q214.098 536.247 212.338 536.247 Q207.709 536.247 205.255 539.372 Q202.824 542.497 202.477 548.816 Q203.843 546.802 205.903 545.737 Q207.963 544.649 210.44 544.649 Q215.649 544.649 218.658 547.821 Q221.69 550.969 221.69 556.409 Q221.69 561.733 218.542 564.95 Q215.394 568.168 210.162 568.168 Q204.167 568.168 200.996 563.584 Q197.825 558.978 197.825 550.251 Q197.825 542.057 201.713 537.196 Q205.602 532.311 212.153 532.311 Q213.912 532.311 215.695 532.659 Q217.5 533.006 219.445 533.7 Z" fill="#000000" fill-rule="nonzero" fill-opacity="1" /><path clip-path="url(#clip650)" d="M114.26 730.351 L143.936 730.351 L143.936 734.286 L114.26 734.286 L114.26 730.351 Z" fill="#000000" fill-rule="nonzero" fill-opacity="1" /><path clip-path="url(#clip650)" d="M164.028 715.698 Q160.417 715.698 158.589 719.263 Q156.783 722.805 156.783 729.935 Q156.783 737.041 158.589 740.606 Q160.417 744.147 164.028 744.147 Q167.663 744.147 169.468 740.606 Q171.297 737.041 171.297 729.935 Q171.297 722.805 169.468 719.263 Q167.663 715.698 164.028 715.698 M164.028 711.995 Q169.839 711.995 172.894 716.601 Q175.973 721.185 175.973 729.935 Q175.973 738.661 172.894 743.268 Q169.839 747.851 164.028 747.851 Q158.218 747.851 155.14 743.268 Q152.084 738.661 152.084 729.935 Q152.084 721.185 155.14 716.601 Q158.218 711.995 164.028 711.995 Z" fill="#000000" fill-rule="nonzero" fill-opacity="1" /><path clip-path="url(#clip650)" d="M184.19 741.3 L189.075 741.3 L189.075 747.18 L184.19 747.18 L184.19 741.3 Z" fill="#000000" fill-rule="nonzero" fill-opacity="1" /><path clip-path="url(#clip650)" d="M212.107 716.694 L200.301 735.143 L212.107 735.143 L212.107 716.694 M210.88 712.62 L216.76 712.62 L216.76 735.143 L221.69 735.143 L221.69 739.032 L216.76 739.032 L216.76 747.18 L212.107 747.18 L212.107 739.032 L196.505 739.032 L196.505 734.518 L210.88 712.62 Z" fill="#000000" fill-rule="nonzero" fill-opacity="1" /><path clip-path="url(#clip650)" d="M116.343 910.035 L146.019 910.035 L146.019 913.97 L116.343 913.97 L116.343 910.035 Z" fill="#000000" fill-rule="nonzero" fill-opacity="1" /><path clip-path="url(#clip650)" d="M166.112 895.382 Q162.501 895.382 160.672 898.947 Q158.866 902.488 158.866 909.618 Q158.866 916.724 160.672 920.289 Q162.501 923.831 166.112 923.831 Q169.746 923.831 171.552 920.289 Q173.38 916.724 173.38 909.618 Q173.38 902.488 171.552 898.947 Q169.746 895.382 166.112 895.382 M166.112 891.678 Q171.922 891.678 174.977 896.285 Q178.056 900.868 178.056 909.618 Q178.056 918.345 174.977 922.951 Q171.922 927.534 166.112 927.534 Q160.302 927.534 157.223 922.951 Q154.167 918.345 154.167 909.618 Q154.167 900.868 157.223 896.285 Q160.302 891.678 166.112 891.678 Z" fill="#000000" fill-rule="nonzero" fill-opacity="1" /><path clip-path="url(#clip650)" d="M186.274 920.984 L191.158 920.984 L191.158 926.863 L186.274 926.863 L186.274 920.984 Z" fill="#000000" fill-rule="nonzero" fill-opacity="1" /><path clip-path="url(#clip650)" d="M205.371 922.928 L221.69 922.928 L221.69 926.863 L199.746 926.863 L199.746 922.928 Q202.408 920.173 206.991 915.544 Q211.598 910.891 212.778 909.548 Q215.024 907.025 215.903 905.289 Q216.806 903.53 216.806 901.84 Q216.806 899.086 214.861 897.349 Q212.94 895.613 209.838 895.613 Q207.639 895.613 205.186 896.377 Q202.755 897.141 199.977 898.692 L199.977 893.97 Q202.801 892.836 205.255 892.257 Q207.709 891.678 209.746 891.678 Q215.116 891.678 218.311 894.363 Q221.505 897.048 221.505 901.539 Q221.505 903.669 220.695 905.59 Q219.908 907.488 217.801 910.081 Q217.223 910.752 214.121 913.97 Q211.019 917.164 205.371 922.928 Z" fill="#000000" fill-rule="nonzero" fill-opacity="1" /><path clip-path="url(#clip650)" d="M164.515 1075.07 Q160.903 1075.07 159.075 1078.63 Q157.269 1082.17 157.269 1089.3 Q157.269 1096.41 159.075 1099.97 Q160.903 1103.51 164.515 1103.51 Q168.149 1103.51 169.954 1099.97 Q171.783 1096.41 171.783 1089.3 Q171.783 1082.17 169.954 1078.63 Q168.149 1075.07 164.515 1075.07 M164.515 1071.36 Q170.325 1071.36 173.38 1075.97 Q176.459 1080.55 176.459 1089.3 Q176.459 1098.03 173.38 1102.63 Q170.325 1107.22 164.515 1107.22 Q158.704 1107.22 155.626 1102.63 Q152.57 1098.03 152.57 1089.3 Q152.57 1080.55 155.626 1075.97 Q158.704 1071.36 164.515 1071.36 Z" fill="#000000" fill-rule="nonzero" fill-opacity="1" /><path clip-path="url(#clip650)" d="M184.676 1100.67 L189.561 1100.67 L189.561 1106.55 L184.676 1106.55 L184.676 1100.67 Z" fill="#000000" fill-rule="nonzero" fill-opacity="1" /><path clip-path="url(#clip650)" d="M209.746 1075.07 Q206.135 1075.07 204.306 1078.63 Q202.5 1082.17 202.5 1089.3 Q202.5 1096.41 204.306 1099.97 Q206.135 1103.51 209.746 1103.51 Q213.38 1103.51 215.186 1099.97 Q217.014 1096.41 217.014 1089.3 Q217.014 1082.17 215.186 1078.63 Q213.38 1075.07 209.746 1075.07 M209.746 1071.36 Q215.556 1071.36 218.611 1075.97 Q221.69 1080.55 221.69 1089.3 Q221.69 1098.03 218.611 1102.63 Q215.556 1107.22 209.746 1107.22 Q203.936 1107.22 200.857 1102.63 Q197.801 1098.03 197.801 1089.3 Q197.801 1080.55 200.857 1075.97 Q203.936 1071.36 209.746 1071.36 Z" fill="#000000" fill-rule="nonzero" fill-opacity="1" /><path clip-path="url(#clip650)" d="M166.112 1254.75 Q162.501 1254.75 160.672 1258.31 Q158.866 1261.85 158.866 1268.98 Q158.866 1276.09 160.672 1279.66 Q162.501 1283.2 166.112 1283.2 Q169.746 1283.2 171.552 1279.66 Q173.38 1276.09 173.38 1268.98 Q173.38 1261.85 171.552 1258.31 Q169.746 1254.75 166.112 1254.75 M166.112 1251.04 Q171.922 1251.04 174.977 1255.65 Q178.056 1260.23 178.056 1268.98 Q178.056 1277.71 174.977 1282.32 Q171.922 1286.9 166.112 1286.9 Q160.302 1286.9 157.223 1282.32 Q154.167 1277.71 154.167 1268.98 Q154.167 1260.23 157.223 1255.65 Q160.302 1251.04 166.112 1251.04 Z" fill="#000000" fill-rule="nonzero" fill-opacity="1" /><path clip-path="url(#clip650)" d="M186.274 1280.35 L191.158 1280.35 L191.158 1286.23 L186.274 1286.23 L186.274 1280.35 Z" fill="#000000" fill-rule="nonzero" fill-opacity="1" /><path clip-path="url(#clip650)" d="M205.371 1282.29 L221.69 1282.29 L221.69 1286.23 L199.746 1286.23 L199.746 1282.29 Q202.408 1279.54 206.991 1274.91 Q211.598 1270.26 212.778 1268.92 Q215.024 1266.39 215.903 1264.66 Q216.806 1262.9 216.806 1261.21 Q216.806 1258.45 214.861 1256.72 Q212.94 1254.98 209.838 1254.98 Q207.639 1254.98 205.186 1255.74 Q202.755 1256.51 199.977 1258.06 L199.977 1253.34 Q202.801 1252.2 205.255 1251.62 Q207.709 1251.04 209.746 1251.04 Q215.116 1251.04 218.311 1253.73 Q221.505 1256.42 221.505 1260.91 Q221.505 1263.04 220.695 1264.96 Q219.908 1266.85 217.801 1269.45 Q217.223 1270.12 214.121 1273.34 Q211.019 1276.53 205.371 1282.29 Z" fill="#000000" fill-rule="nonzero" fill-opacity="1" /><path clip-path="url(#clip650)" d="M43.5384 874.796 L43.5384 857.64 L48.7583 857.64 L48.7583 874.796 L43.5384 874.796 Z" fill="#000000" fill-rule="nonzero" fill-opacity="1" /><path clip-path="url(#clip650)" d="M16.4842 848.06 L16.4842 841.631 L64.0042 841.631 L64.0042 848.06 L16.4842 848.06 Z" fill="#000000" fill-rule="nonzero" fill-opacity="1" /><path clip-path="url(#clip650)" d="M35.1993 801.336 Q31.2526 799.14 29.3747 796.084 Q27.4968 793.028 27.4968 788.891 Q27.4968 783.321 31.4117 780.297 Q35.2948 777.273 42.4881 777.273 L64.0042 777.273 L64.0042 783.162 L42.679 783.162 Q37.5546 783.162 35.072 784.976 Q32.5894 786.79 32.5894 790.514 Q32.5894 795.066 35.6131 797.707 Q38.6368 800.349 43.8567 800.349 L64.0042 800.349 L64.0042 806.237 L42.679 806.237 Q37.5228 806.237 35.072 808.052 Q32.5894 809.866 32.5894 813.653 Q32.5894 818.141 35.6449 820.783 Q38.6686 823.425 43.8567 823.425 L64.0042 823.425 L64.0042 829.313 L28.3562 829.313 L28.3562 823.425 L33.8944 823.425 Q30.616 821.42 29.0564 818.619 Q27.4968 815.818 27.4968 811.966 Q27.4968 808.083 29.4702 805.378 Q31.4436 802.641 35.1993 801.336 Z" fill="#000000" fill-rule="nonzero" fill-opacity="1" /><path clip-path="url(#clip650)" d="M16.4842 747.355 L16.4842 710.02 L21.3858 710.02 L58.5933 740.066 L58.5933 709.288 L64.0042 709.288 L64.0042 748.087 L59.1026 748.087 L21.895 718.04 L21.895 747.355 L16.4842 747.355 Z" fill="#000000" fill-rule="nonzero" fill-opacity="1" /><path clip-path="url(#clip650)" d="M16.4842 669.088 L16.4842 663.677 L70.0516 680.228 L70.0516 685.639 L16.4842 669.088 Z" fill="#000000" fill-rule="nonzero" fill-opacity="1" /><path clip-path="url(#clip650)" d="M58.3387 595.628 L64.0042 595.628 L64.0042 614.725 L58.3387 614.725 Q55.2513 609.091 49.9678 605.94 Q44.6842 602.789 38.2549 602.789 Q30.616 602.789 26.0009 606.991 Q21.3858 611.192 21.3858 618.067 Q21.3858 624.942 26.0327 629.175 Q30.6479 633.377 38.2549 633.377 Q44.6842 633.377 49.9678 630.226 Q55.2513 627.043 58.3387 621.377 L64.0042 621.377 L64.0042 640.474 L58.3387 640.474 L58.3387 630.321 Q53.9145 635.35 49.1721 637.673 Q44.4296 639.965 38.5732 639.965 Q28.4517 639.965 22.1815 633.854 Q15.9112 627.775 15.9112 618.067 Q15.9112 608.423 22.1815 602.28 Q28.4199 596.169 38.2549 596.169 Q44.4296 596.169 49.1402 598.429 Q53.8509 600.689 58.3387 605.813 L58.3387 595.628 Z" fill="#000000" fill-rule="nonzero" fill-opacity="1" /><circle clip-path="url(#clip652)" cx="316.984" cy="1089.26" r="14.4" fill="#009af9" fill-rule="evenodd" fill-opacity="1" stroke="#000000" stroke-opacity="1" stroke-width="3.2"/>
<circle clip-path="url(#clip652)" cx="316.984" cy="1089.25" r="14.4" fill="#009af9" fill-rule="evenodd" fill-opacity="1" stroke="#000000" stroke-opacity="1" stroke-width="3.2"/>
<circle clip-path="url(#clip652)" cx="316.984" cy="1089.25" r="14.4" fill="#009af9" fill-rule="evenodd" fill-opacity="1" stroke="#000000" stroke-opacity="1" stroke-width="3.2"/>
<circle clip-path="url(#clip652)" cx="316.984" cy="1089.24" r="14.4" fill="#009af9" fill-rule="evenodd" fill-opacity="1" stroke="#000000" stroke-opacity="1" stroke-width="3.2"/>
<circle clip-path="url(#clip652)" cx="316.984" cy="1089.23" r="14.4" fill="#009af9" fill-rule="evenodd" fill-opacity="1" stroke="#000000" stroke-opacity="1" stroke-width="3.2"/>
<circle clip-path="url(#clip652)" cx="316.984" cy="1089.21" r="14.4" fill="#009af9" fill-rule="evenodd" fill-opacity="1" stroke="#000000" stroke-opacity="1" stroke-width="3.2"/>
<circle clip-path="url(#clip652)" cx="316.984" cy="1089.19" r="14.4" fill="#009af9" fill-rule="evenodd" fill-opacity="1" stroke="#000000" stroke-opacity="1" stroke-width="3.2"/>
<circle clip-path="url(#clip652)" cx="316.984" cy="1089.16" r="14.4" fill="#009af9" fill-rule="evenodd" fill-opacity="1" stroke="#000000" stroke-opacity="1" stroke-width="3.2"/>
<circle clip-path="url(#clip652)" cx="316.984" cy="1089.12" r="14.4" fill="#009af9" fill-rule="evenodd" fill-opacity="1" stroke="#000000" stroke-opacity="1" stroke-width="3.2"/>
<circle clip-path="url(#clip652)" cx="316.984" cy="1089.06" r="14.4" fill="#009af9" fill-rule="evenodd" fill-opacity="1" stroke="#000000" stroke-opacity="1" stroke-width="3.2"/>
<circle clip-path="url(#clip652)" cx="316.985" cy="1088.98" r="14.4" fill="#009af9" fill-rule="evenodd" fill-opacity="1" stroke="#000000" stroke-opacity="1" stroke-width="3.2"/>
<circle clip-path="url(#clip652)" cx="316.985" cy="1088.86" r="14.4" fill="#009af9" fill-rule="evenodd" fill-opacity="1" stroke="#000000" stroke-opacity="1" stroke-width="3.2"/>
<circle clip-path="url(#clip652)" cx="316.985" cy="1088.71" r="14.4" fill="#009af9" fill-rule="evenodd" fill-opacity="1" stroke="#000000" stroke-opacity="1" stroke-width="3.2"/>
<circle clip-path="url(#clip652)" cx="316.985" cy="1088.49" r="14.4" fill="#009af9" fill-rule="evenodd" fill-opacity="1" stroke="#000000" stroke-opacity="1" stroke-width="3.2"/>
<circle clip-path="url(#clip652)" cx="316.985" cy="1088.19" r="14.4" fill="#009af9" fill-rule="evenodd" fill-opacity="1" stroke="#000000" stroke-opacity="1" stroke-width="3.2"/>
<circle clip-path="url(#clip652)" cx="316.986" cy="1087.77" r="14.4" fill="#009af9" fill-rule="evenodd" fill-opacity="1" stroke="#000000" stroke-opacity="1" stroke-width="3.2"/>
<circle clip-path="url(#clip652)" cx="316.988" cy="1087.19" r="14.4" fill="#009af9" fill-rule="evenodd" fill-opacity="1" stroke="#000000" stroke-opacity="1" stroke-width="3.2"/>
<circle clip-path="url(#clip652)" cx="316.991" cy="1086.37" r="14.4" fill="#009af9" fill-rule="evenodd" fill-opacity="1" stroke="#000000" stroke-opacity="1" stroke-width="3.2"/>
<circle clip-path="url(#clip652)" cx="316.997" cy="1085.25" r="14.4" fill="#009af9" fill-rule="evenodd" fill-opacity="1" stroke="#000000" stroke-opacity="1" stroke-width="3.2"/>
<circle clip-path="url(#clip652)" cx="317.009" cy="1083.68" r="14.4" fill="#009af9" fill-rule="evenodd" fill-opacity="1" stroke="#000000" stroke-opacity="1" stroke-width="3.2"/>
<circle clip-path="url(#clip652)" cx="317.033" cy="1081.51" r="14.4" fill="#009af9" fill-rule="evenodd" fill-opacity="1" stroke="#000000" stroke-opacity="1" stroke-width="3.2"/>
<circle clip-path="url(#clip652)" cx="317.077" cy="1078.49" r="14.4" fill="#009af9" fill-rule="evenodd" fill-opacity="1" stroke="#000000" stroke-opacity="1" stroke-width="3.2"/>
<circle clip-path="url(#clip652)" cx="317.164" cy="1074.29" r="14.4" fill="#009af9" fill-rule="evenodd" fill-opacity="1" stroke="#000000" stroke-opacity="1" stroke-width="3.2"/>
<circle clip-path="url(#clip652)" cx="317.33" cy="1068.46" r="14.4" fill="#009af9" fill-rule="evenodd" fill-opacity="1" stroke="#000000" stroke-opacity="1" stroke-width="3.2"/>
<circle clip-path="url(#clip652)" cx="317.652" cy="1060.36" r="14.4" fill="#009af9" fill-rule="evenodd" fill-opacity="1" stroke="#000000" stroke-opacity="1" stroke-width="3.2"/>
<circle clip-path="url(#clip652)" cx="318.273" cy="1049.13" r="14.4" fill="#009af9" fill-rule="evenodd" fill-opacity="1" stroke="#000000" stroke-opacity="1" stroke-width="3.2"/>
<circle clip-path="url(#clip652)" cx="319.469" cy="1033.55" r="14.4" fill="#009af9" fill-rule="evenodd" fill-opacity="1" stroke="#000000" stroke-opacity="1" stroke-width="3.2"/>
<circle clip-path="url(#clip652)" cx="321.769" cy="1012.01" r="14.4" fill="#009af9" fill-rule="evenodd" fill-opacity="1" stroke="#000000" stroke-opacity="1" stroke-width="3.2"/>
<circle clip-path="url(#clip652)" cx="326.179" cy="982.351" r="14.4" fill="#009af9" fill-rule="evenodd" fill-opacity="1" stroke="#000000" stroke-opacity="1" stroke-width="3.2"/>
<circle clip-path="url(#clip652)" cx="334.579" cy="941.843" r="14.4" fill="#009af9" fill-rule="evenodd" fill-opacity="1" stroke="#000000" stroke-opacity="1" stroke-width="3.2"/>
<circle clip-path="url(#clip652)" cx="350.385" cy="887.387" r="14.4" fill="#009af9" fill-rule="evenodd" fill-opacity="1" stroke="#000000" stroke-opacity="1" stroke-width="3.2"/>
<circle clip-path="url(#clip652)" cx="379.452" cy="816.322" r="14.4" fill="#009af9" fill-rule="evenodd" fill-opacity="1" stroke="#000000" stroke-opacity="1" stroke-width="3.2"/>
<circle clip-path="url(#clip652)" cx="430.735" cy="728.508" r="14.4" fill="#009af9" fill-rule="evenodd" fill-opacity="1" stroke="#000000" stroke-opacity="1" stroke-width="3.2"/>
<circle clip-path="url(#clip652)" cx="514.996" cy="629.985" r="14.4" fill="#009af9" fill-rule="evenodd" fill-opacity="1" stroke="#000000" stroke-opacity="1" stroke-width="3.2"/>
<circle clip-path="url(#clip652)" cx="638.829" cy="535.83" r="14.4" fill="#009af9" fill-rule="evenodd" fill-opacity="1" stroke="#000000" stroke-opacity="1" stroke-width="3.2"/>
<circle clip-path="url(#clip652)" cx="795.331" cy="465.231" r="14.4" fill="#009af9" fill-rule="evenodd" fill-opacity="1" stroke="#000000" stroke-opacity="1" stroke-width="3.2"/>
<circle clip-path="url(#clip652)" cx="963.723" cy="426.35" r="14.4" fill="#009af9" fill-rule="evenodd" fill-opacity="1" stroke="#000000" stroke-opacity="1" stroke-width="3.2"/>
<circle clip-path="url(#clip652)" cx="1126.52" cy="407.999" r="14.4" fill="#009af9" fill-rule="evenodd" fill-opacity="1" stroke="#000000" stroke-opacity="1" stroke-width="3.2"/>
<circle clip-path="url(#clip652)" cx="1285.41" cy="393.504" r="14.4" fill="#009af9" fill-rule="evenodd" fill-opacity="1" stroke="#000000" stroke-opacity="1" stroke-width="3.2"/>
<circle clip-path="url(#clip652)" cx="1455.32" cy="381.168" r="14.4" fill="#009af9" fill-rule="evenodd" fill-opacity="1" stroke="#000000" stroke-opacity="1" stroke-width="3.2"/>
<circle clip-path="url(#clip652)" cx="1643.46" cy="388.769" r="14.4" fill="#009af9" fill-rule="evenodd" fill-opacity="1" stroke="#000000" stroke-opacity="1" stroke-width="3.2"/>
<circle clip-path="url(#clip652)" cx="1834.41" cy="436.542" r="14.4" fill="#009af9" fill-rule="evenodd" fill-opacity="1" stroke="#000000" stroke-opacity="1" stroke-width="3.2"/>
<circle clip-path="url(#clip652)" cx="1999.23" cy="524.682" r="14.4" fill="#009af9" fill-rule="evenodd" fill-opacity="1" stroke="#000000" stroke-opacity="1" stroke-width="3.2"/>
<circle clip-path="url(#clip652)" cx="2119.44" cy="632.568" r="14.4" fill="#009af9" fill-rule="evenodd" fill-opacity="1" stroke="#000000" stroke-opacity="1" stroke-width="3.2"/>
<circle clip-path="url(#clip652)" cx="2196.15" cy="737.326" r="14.4" fill="#009af9" fill-rule="evenodd" fill-opacity="1" stroke="#000000" stroke-opacity="1" stroke-width="3.2"/>
<circle clip-path="url(#clip652)" cx="2240.9" cy="826.187" r="14.4" fill="#009af9" fill-rule="evenodd" fill-opacity="1" stroke="#000000" stroke-opacity="1" stroke-width="3.2"/>
<circle clip-path="url(#clip652)" cx="2265.63" cy="896.032" r="14.4" fill="#009af9" fill-rule="evenodd" fill-opacity="1" stroke="#000000" stroke-opacity="1" stroke-width="3.2"/>
<circle clip-path="url(#clip652)" cx="2278.89" cy="948.692" r="14.4" fill="#009af9" fill-rule="evenodd" fill-opacity="1" stroke="#000000" stroke-opacity="1" stroke-width="3.2"/>
<circle clip-path="url(#clip652)" cx="2285.89" cy="987.525" r="14.4" fill="#009af9" fill-rule="evenodd" fill-opacity="1" stroke="#000000" stroke-opacity="1" stroke-width="3.2"/>
<circle clip-path="url(#clip652)" cx="2289.54" cy="1015.83" r="14.4" fill="#009af9" fill-rule="evenodd" fill-opacity="1" stroke="#000000" stroke-opacity="1" stroke-width="3.2"/>
<circle clip-path="url(#clip652)" cx="2291.45" cy="1036.33" r="14.4" fill="#009af9" fill-rule="evenodd" fill-opacity="1" stroke="#000000" stroke-opacity="1" stroke-width="3.2"/>
<circle clip-path="url(#clip652)" cx="2292.44" cy="1051.14" r="14.4" fill="#009af9" fill-rule="evenodd" fill-opacity="1" stroke="#000000" stroke-opacity="1" stroke-width="3.2"/>
<circle clip-path="url(#clip652)" cx="2292.95" cy="1061.82" r="14.4" fill="#009af9" fill-rule="evenodd" fill-opacity="1" stroke="#000000" stroke-opacity="1" stroke-width="3.2"/>
<circle clip-path="url(#clip652)" cx="2293.22" cy="1069.51" r="14.4" fill="#009af9" fill-rule="evenodd" fill-opacity="1" stroke="#000000" stroke-opacity="1" stroke-width="3.2"/>
<circle clip-path="url(#clip652)" cx="2293.35" cy="1075.04" r="14.4" fill="#009af9" fill-rule="evenodd" fill-opacity="1" stroke="#000000" stroke-opacity="1" stroke-width="3.2"/>
<circle clip-path="url(#clip652)" cx="2293.42" cy="1079.03" r="14.4" fill="#009af9" fill-rule="evenodd" fill-opacity="1" stroke="#000000" stroke-opacity="1" stroke-width="3.2"/>
<circle clip-path="url(#clip652)" cx="2293.46" cy="1081.9" r="14.4" fill="#009af9" fill-rule="evenodd" fill-opacity="1" stroke="#000000" stroke-opacity="1" stroke-width="3.2"/>
<path clip-path="url(#clip650)" d="M327.526 196.789 L589.463 196.789 L589.463 93.1086 L327.526 93.1086  Z" fill="#ffffff" fill-rule="evenodd" fill-opacity="1"/>
<polyline clip-path="url(#clip650)" style="stroke:#000000; stroke-linecap:round; stroke-linejoin:round; stroke-width:4; stroke-opacity:1; fill:none" points="327.526,196.789 589.463,196.789 589.463,93.1086 327.526,93.1086 327.526,196.789 "/>
<circle clip-path="url(#clip650)" cx="420.64" cy="144.949" r="20.48" fill="#009af9" fill-rule="evenodd" fill-opacity="1" stroke="#000000" stroke-opacity="1" stroke-width="4.55111"/>
<path clip-path="url(#clip650)" d="M527.596 164.636 Q525.791 169.266 524.078 170.678 Q522.365 172.09 519.494 172.09 L516.092 172.09 L516.092 168.525 L518.592 168.525 Q520.351 168.525 521.323 167.692 Q522.295 166.858 523.476 163.756 L524.24 161.812 L513.754 136.303 L518.268 136.303 L526.369 156.581 L534.471 136.303 L538.985 136.303 L527.596 164.636 Z" fill="#000000" fill-rule="nonzero" fill-opacity="1" /><path clip-path="url(#clip650)" d="M546.277 158.293 L553.916 158.293 L553.916 131.928 L545.605 133.595 L545.605 129.335 L553.869 127.669 L558.545 127.669 L558.545 158.293 L566.184 158.293 L566.184 162.229 L546.277 162.229 L546.277 158.293 Z" fill="#000000" fill-rule="nonzero" fill-opacity="1" /></svg>
